<?xml version="1.0" encoding="utf-8"?>
<!-- Generator: Adobe Illustrator 28.1.0, SVG Export Plug-In . SVG Version: 6.00 Build 0)  -->
<svg version="1.2" baseProfile="tiny" id="Layer_1" xmlns="http://www.w3.org/2000/svg" xmlns:xlink="http://www.w3.org/1999/xlink"
	 x="0px" y="0px" viewBox="0 0 100 100" overflow="visible" xml:space="preserve">
<g>
	<g>
		<circle fill="#67C6B0" cx="49.9" cy="49.9" r="41.4"/>
	</g>
	<g>
		<path fill="#67C6B0" d="M91.8,30.2c14.3,29.9-5.9,65.7-39.6,66.8c-40.8,1.1-63.9-47.9-37.1-78.7C37.4-6.9,77.7,0.2,91.8,30.2
			L91.8,30.2z M91.6,30.3C74-6.2,21.3-2.7,6.9,34.5C-2.3,58.1,10.4,85,34.5,92.8C72.3,105.2,108.4,66.9,91.6,30.3L91.6,30.3z"/>
	</g>
	<g>
		<path fill="#343434" d="M29.1,44.3c0.6,0.6,0.9,1.2,0.9,1.9v1.9c0,1-0.8,1.8-1.8,1.8h-2.7c-1,0-1.8-0.8-1.8-1.8v-1.8h1.8v1.8h2.7
			V46l-3.7-3.6c-0.6-0.6-0.9-1.2-0.9-1.9v-1.4c0-1,0.8-1.8,1.8-1.8h2.7c1,0,1.8,0.8,1.8,1.8v1.8h-1.8v-1.8h-2.7v1.6L29.1,44.3z"/>
		<path fill="#343434" d="M38.2,49.9h-1.8v-5.8h-2.7v5.8h-1.8V37.3h1.8v5.1h2.7v-5.1h1.8V49.9z"/>
		<path fill="#343434" d="M47,49.9h-1.9l-0.4-1.8h-3.1l-0.4,1.8h-1.9L42,37.3h2.3L47,49.9z M44.3,46.3l-1.2-5.9l-1.2,5.9H44.3z"/>
		<path fill="#343434" d="M53.5,49.9h-5.4V37.3h1.8v10.9h3.6V49.9z"/>
		<path fill="#343434" d="M60.3,49.9h-5.4V37.3h1.8v10.9h3.6V49.9z"/>
		<path fill="#343434" d="M66.2,49.9h-2.7c-1,0-1.8-0.8-1.8-1.8v-9c0-1,0.8-1.8,1.8-1.8h2.7c1,0,1.8,0.8,1.8,1.8v9
			C68,49.1,67.2,49.9,66.2,49.9z M66.2,48.1v-9h-2.7v9H66.2z"/>
		<path fill="#343434" d="M74.4,49.9h-2.7c-1,0-1.8-0.8-1.8-1.8v-9c0-1,0.8-1.8,1.8-1.8h2.7c1,0,1.8,0.8,1.8,1.8v9
			C76.2,49.1,75.4,49.9,74.4,49.9z M74.4,48.1v-9h-2.7v9H74.4z"/>
		<path fill="#343434" d="M36.1,63.2c0,1-0.8,1.8-1.8,1.8h-4.1V52.3h4.1c1,0,1.8,0.8,1.8,1.8V63.2z M34.8,54.1
			c0-0.3-0.2-0.5-0.5-0.5h-2.7v10h2.7c0.3,0,0.5-0.2,0.5-0.5V54.1z"/>
		<path fill="#343434" d="M43.1,65h-5V52.3h5v1.4h-3.6v3.9h2.7V59h-2.7v4.7h3.6V65z"/>
		<path fill="#343434" d="M49.2,61.4c0-0.3-0.1-0.5-0.2-0.6l-3.7-3.7c-0.4-0.4-0.6-1-0.6-1.6v-1.4c0-1,0.8-1.8,1.8-1.8h2.3
			c1,0,1.8,0.8,1.8,1.8V56h-1.4v-1.8c0-0.3-0.2-0.5-0.5-0.5h-2.3c-0.3,0-0.5,0.2-0.5,0.5v1.4c0,0.2,0.1,0.4,0.2,0.6l3.7,3.7
			c0.4,0.4,0.6,1,0.6,1.6v1.8c0,1-0.8,1.8-1.8,1.8h-2.3c-1,0-1.8-0.8-1.8-1.8v-1.8H46v1.8c0,0.3,0.2,0.5,0.5,0.5h2.3
			c0.3,0,0.5-0.2,0.5-0.5V61.4z"/>
		<path fill="#343434" d="M53.9,65h-1.4V52.3h1.4V65z"/>
		<path fill="#343434" d="M61.7,63.2c0,1-0.8,1.8-1.8,1.8h-2.3c-1,0-1.8-0.8-1.8-1.8v-9c0-1,0.8-1.8,1.8-1.8h2.3
			c1,0,1.8,0.8,1.8,1.8V56h-1.4v-1.8c0-0.3-0.2-0.5-0.5-0.5h-2.3c-0.3,0-0.5,0.2-0.5,0.5v9c0,0.3,0.2,0.5,0.5,0.5h2.3
			c0.3,0,0.5-0.2,0.5-0.5v-3.3h-1.6v-1.4h3V63.2z"/>
		<path fill="#343434" d="M69.6,65h-1.1l-3.4-9.4V65h-1.4V52.3h1.5l3,8.5v-8.5h1.4V65z"/>
	</g>
</g>
</svg>
