<svg viewBox="0 0 58.6 33.3" xmlns="http://www.w3.org/2000/svg"><g fill="#343434"><path d="m8.5 10.3c.6.6.9 1.2.9 1.9v1.9c0 1-.8 1.8-1.8 1.8h-2.8c-1 0-1.8-.8-1.8-1.8v-1.8h1.8v1.8h2.7v-2.1l-3.6-3.6c-.6-.6-.9-1.2-.9-1.9v-1.4c0-1 .8-1.8 1.8-1.8h2.7c1 0 1.8.8 1.8 1.8v1.8h-1.7v-1.8h-2.8v1.6z"/><path d="m17.5 15.9h-1.8v-5.8h-2.7v5.8h-1.8v-12.6h1.8v5.1h2.7v-5.1h1.8z"/><path d="m26.3 15.9h-1.9l-.4-1.8h-3.1l-.4 1.8h-1.9l2.7-12.7h2.3zm-2.6-3.6-1.2-5.9-1.2 5.9z"/><path d="m32.9 15.9h-5.4v-12.6h1.8v10.9h3.6z"/><path d="m39.7 15.9h-5.4v-12.6h1.8v10.9h3.6z"/><path d="m45.6 15.9h-2.7c-1 0-1.8-.8-1.8-1.8v-9c0-1 .8-1.8 1.8-1.8h2.7c1 0 1.8.8 1.8 1.8v9c0 1-.8 1.8-1.8 1.8zm0-1.8v-9h-2.7v9z"/><path d="m53.7 15.9h-2.7c-1 0-1.8-.8-1.8-1.8v-9c0-1 .8-1.8 1.8-1.8h2.7c1 0 1.8.8 1.8 1.8v9c0 1-.8 1.8-1.8 1.8zm0-1.8v-9h-2.7v9z"/><path d="m15.5 27.5c0 1-.8 1.8-1.8 1.8h-4.1v-12.6h4.1c1 0 1.8.8 1.8 1.8zm-1.4-9c0-.3-.2-.5-.5-.5h-2.6v10h2.7c.3 0 .5-.2.5-.5v-9z"/><path d="m22.4 29.3h-5v-12.6h5v1.3h-3.6v3.9h2.7v1.4h-2.7v4.7h3.6z"/><path d="m28.5 25.7c0-.3-.1-.5-.2-.6l-3.7-3.7c-.4-.4-.6-1-.6-1.6v-1.4c0-1 .8-1.8 1.8-1.8h2.3c1 0 1.8.8 1.8 1.8v1.8h-1.4v-1.8c0-.3-.2-.5-.5-.5h-2.3c-.3 0-.5.2-.5.5v1.4c0 .2.1.4.2.6l3.7 3.7c.4.4.6 1 .6 1.6v1.8c0 1-.8 1.8-1.8 1.8h-2.3c-1 0-1.8-.8-1.8-1.8v-1.8h1.4v1.8c0 .3.2.5.5.5h2.3c.3 0 .5-.2.5-.5z"/><path d="m33.2 29.3h-1.4v-12.6h1.4z"/><path d="m41.1 27.5c0 1-.8 1.8-1.8 1.8h-2.3c-1 0-1.8-.8-1.8-1.8v-9c0-1 .8-1.8 1.8-1.8h2.3c1 0 1.8.8 1.8 1.8v1.8h-1.4v-1.8c0-.3-.2-.5-.5-.5h-2.2c-.3 0-.5.2-.5.5v9c0 .3.2.5.5.5h2.3c.3 0 .5-.2.5-.5v-3.3h-1.6v-1.4h3v4.7z"/><path d="m49 29.3h-1.1l-3.4-9.4v9.4h-1.4v-12.6h1.5l3 8.5v-8.5h1.4z"/></g></svg>