<svg viewBox="0 0 100 100" xmlns="http://www.w3.org/2000/svg"><circle cx="49.9" cy="49.9" fill="#67c6b0" r="41.4"/><path d="m91.8 30.2c14.3 29.9-5.9 65.7-39.6 66.8-40.8 1.1-63.9-47.9-37.1-78.7 22.3-25.2 62.6-18.1 76.7 11.9zm-.2.1c-17.6-36.5-70.3-33-84.7 4.2-9.2 23.6 3.5 50.5 27.6 58.3 37.8 12.4 73.9-25.9 57.1-62.5z" fill="#67c6b0"/><g fill="#343434"><path d="m29.1 44.3c.6.6.9 1.2.9 1.9v1.9c0 1-.8 1.8-1.8 1.8h-2.7c-1 0-1.8-.8-1.8-1.8v-1.8h1.8v1.8h2.7v-2.1l-3.7-3.6c-.6-.6-.9-1.2-.9-1.9v-1.4c0-1 .8-1.8 1.8-1.8h2.7c1 0 1.8.8 1.8 1.8v1.8h-1.8v-1.8h-2.7v1.6z"/><path d="m38.2 49.9h-1.8v-5.8h-2.7v5.8h-1.8v-12.6h1.8v5.1h2.7v-5.1h1.8z"/><path d="m47 49.9h-1.9l-.4-1.8h-3.1l-.4 1.8h-1.9l2.7-12.6h2.3zm-2.7-3.6-1.2-5.9-1.2 5.9z"/><path d="m53.5 49.9h-5.4v-12.6h1.8v10.9h3.6z"/><path d="m60.3 49.9h-5.4v-12.6h1.8v10.9h3.6z"/><path d="m66.2 49.9h-2.7c-1 0-1.8-.8-1.8-1.8v-9c0-1 .8-1.8 1.8-1.8h2.7c1 0 1.8.8 1.8 1.8v9c0 1-.8 1.8-1.8 1.8zm0-1.8v-9h-2.7v9z"/><path d="m74.4 49.9h-2.7c-1 0-1.8-.8-1.8-1.8v-9c0-1 .8-1.8 1.8-1.8h2.7c1 0 1.8.8 1.8 1.8v9c0 1-.8 1.8-1.8 1.8zm0-1.8v-9h-2.7v9z"/><path d="m36.1 63.2c0 1-.8 1.8-1.8 1.8h-4.1v-12.7h4.1c1 0 1.8.8 1.8 1.8zm-1.3-9.1c0-.3-.2-.5-.5-.5h-2.7v10h2.7c.3 0 .5-.2.5-.5z"/><path d="m43.1 65h-5v-12.7h5v1.4h-3.6v3.9h2.7v1.4h-2.7v4.7h3.6z"/><path d="m49.2 61.4c0-.3-.1-.5-.2-.6l-3.7-3.7c-.4-.4-.6-1-.6-1.6v-1.4c0-1 .8-1.8 1.8-1.8h2.3c1 0 1.8.8 1.8 1.8v1.9h-1.4v-1.8c0-.3-.2-.5-.5-.5h-2.3c-.3 0-.5.2-.5.5v1.4c0 .2.1.4.2.6l3.7 3.7c.4.4.6 1 .6 1.6v1.8c0 1-.8 1.8-1.8 1.8h-2.3c-1 0-1.8-.8-1.8-1.8v-1.8h1.5v1.8c0 .3.2.5.5.5h2.3c.3 0 .5-.2.5-.5v-1.9z"/><path d="m53.9 65h-1.4v-12.7h1.4z"/><path d="m61.7 63.2c0 1-.8 1.8-1.8 1.8h-2.3c-1 0-1.8-.8-1.8-1.8v-9c0-1 .8-1.8 1.8-1.8h2.3c1 0 1.8.8 1.8 1.8v1.8h-1.4v-1.8c0-.3-.2-.5-.5-.5h-2.3c-.3 0-.5.2-.5.5v9c0 .3.2.5.5.5h2.3c.3 0 .5-.2.5-.5v-3.3h-1.6v-1.4h3z"/><path d="m69.6 65h-1.1l-3.4-9.4v9.4h-1.4v-12.7h1.5l3 8.5v-8.5h1.4z"/></g></svg>