<?xml version="1.0" encoding="utf-8"?>
<!-- Generator: Adobe Illustrator 28.0.0, SVG Export Plug-In . SVG Version: 6.00 Build 0)  -->
<svg version="1.1" id="Layer_1" xmlns="http://www.w3.org/2000/svg" xmlns:xlink="http://www.w3.org/1999/xlink" x="0px" y="0px"
	 viewBox="0 0 58.6 33.3" style="enable-background:new 0 0 58.6 33.3;" xml:space="preserve">
<style type="text/css">
	.st0{fill:#343434;}
</style>
<g>
	<path class="st0" d="M8.5,9.9c0.6,0.6,0.9,1.2,0.9,1.9v1.9c0,1-0.8,1.8-1.8,1.8H4.8c-1,0-1.8-0.8-1.8-1.8v-1.8h1.8v1.8h2.7v-2.1
		L3.9,8C3.3,7.4,3,6.8,3,6.1V4.7c0-1,0.8-1.8,1.8-1.8h2.7c1,0,1.8,0.8,1.8,1.8v1.8H7.6V4.7H4.8v1.6L8.5,9.9z"/>
	<path class="st0" d="M17.5,15.5h-1.8V9.7H13v5.8h-1.8V2.9H13V8h2.7V2.9h1.8V15.5z"/>
	<path class="st0" d="M26.3,15.5h-1.9L24,13.7h-3.1l-0.4,1.8h-1.9l2.7-12.7h2.3L26.3,15.5z M23.7,11.9L22.5,6l-1.2,5.9H23.7z"/>
	<path class="st0" d="M32.9,15.5h-5.4V2.9h1.8v10.9h3.6V15.5z"/>
	<path class="st0" d="M39.7,15.5h-5.4V2.9h1.8v10.9h3.6L39.7,15.5z"/>
	<path class="st0" d="M45.6,15.5h-2.7c-1,0-1.8-0.8-1.8-1.8v-9c0-1,0.8-1.8,1.8-1.8h2.7c1,0,1.8,0.8,1.8,1.8v9
		C47.4,14.7,46.6,15.5,45.6,15.5z M45.6,13.7v-9h-2.7v9H45.6z"/>
	<path class="st0" d="M53.7,15.5H51c-1,0-1.8-0.8-1.8-1.8v-9c0-1,0.8-1.8,1.8-1.8h2.7c1,0,1.8,0.8,1.8,1.8v9
		C55.5,14.7,54.7,15.5,53.7,15.5z M53.7,13.7v-9H51v9H53.7z"/>
	<path class="st0" d="M15.5,28.7c0,1-0.8,1.8-1.8,1.8H9.6V17.9h4.1c1,0,1.8,0.8,1.8,1.8L15.5,28.7z M14.1,19.7
		c0-0.3-0.2-0.5-0.5-0.5H11v10h2.7c0.3,0,0.5-0.2,0.5-0.5L14.1,19.7L14.1,19.7z"/>
	<path class="st0" d="M22.4,30.5h-5V17.9h5v1.3h-3.6v3.9h2.7v1.4h-2.7v4.7h3.6V30.5z"/>
	<path class="st0" d="M28.5,26.9c0-0.3-0.1-0.5-0.2-0.6l-3.7-3.7c-0.4-0.4-0.6-1-0.6-1.6v-1.4c0-1,0.8-1.8,1.8-1.8h2.3
		c1,0,1.8,0.8,1.8,1.8v1.8h-1.4v-1.8c0-0.3-0.2-0.5-0.5-0.5h-2.3c-0.3,0-0.5,0.2-0.5,0.5V21c0,0.2,0.1,0.4,0.2,0.6l3.7,3.7
		c0.4,0.4,0.6,1,0.6,1.6v1.8c0,1-0.8,1.8-1.8,1.8h-2.3c-1,0-1.8-0.8-1.8-1.8v-1.8h1.4v1.8c0,0.3,0.2,0.5,0.5,0.5H28
		c0.3,0,0.5-0.2,0.5-0.5V26.9z"/>
	<path class="st0" d="M33.2,30.5h-1.4V17.9h1.4V30.5z"/>
	<path class="st0" d="M41.1,28.7c0,1-0.8,1.8-1.8,1.8H37c-1,0-1.8-0.8-1.8-1.8v-9c0-1,0.8-1.8,1.8-1.8h2.3c1,0,1.8,0.8,1.8,1.8v1.8
		h-1.4v-1.8c0-0.3-0.2-0.5-0.5-0.5H37c-0.3,0-0.5,0.2-0.5,0.5v9c0,0.3,0.2,0.5,0.5,0.5h2.3c0.3,0,0.5-0.2,0.5-0.5v-3.3h-1.6V24h3
		L41.1,28.7L41.1,28.7z"/>
	<path class="st0" d="M49,30.5h-1.1l-3.4-9.4v9.4h-1.4V17.9h1.5l3,8.5v-8.5H49V30.5z"/>
</g>
</svg>
