<?xml version="1.0" encoding="utf-8"?>
<!-- Generator: Adobe Illustrator 28.1.0, SVG Export Plug-In . SVG Version: 6.00 Build 0)  -->
<svg version="1.2" baseProfile="tiny" id="Layer_1" xmlns="http://www.w3.org/2000/svg" xmlns:xlink="http://www.w3.org/1999/xlink"
	 x="0px" y="0px" viewBox="0 0 100 100" overflow="visible" xml:space="preserve">
<rect x="157.7" y="-126.6" fill="#FFFFFF" width="97.2" height="91.7"/>
<path fill="#231F20" d="M237-61.2h-63.2c-3.9,0-7.1-3.2-7.1-7.1V-101c0-3.9,3.2-7.1,7.1-7.1H237c3.9,0,7.1,3.2,7.1,7.1v32.6
	C244.2-64.4,241-61.2,237-61.2z"/>
<g>
	<path fill="#67C6B0" d="M187.3-266.6c-0.5-0.3-1.1-0.4-1.7-0.2c-0.9,0.2-1.5,0.7-1.8,1.5c-0.3,0.8-0.3,1.5-0.2,2.2
		c0.2,0.7,0.5,1.1,1,1.4c0.5,0.3,1,0.4,1.7,0.2c0.9-0.2,1.5-0.7,1.8-1.5c0.3-0.7,0.4-1.5,0.2-2.3
		C188.1-265.8,187.8-266.3,187.3-266.6z M163-274.8c-0.4-0.2-0.9-0.2-1.5,0c-0.5,0.1-1,0.4-1.3,0.8c-0.3,0.4-0.6,0.9-0.6,1.5
		l4.5-1.2C163.8-274.3,163.5-274.6,163-274.8z M170.5-262.1c-0.5-0.3-1.1-0.4-1.8-0.2c-0.8,0.2-1.3,0.7-1.7,1.4
		c-0.4,0.7-0.5,1.5-0.2,2.4c0.2,0.7,0.5,1.2,1,1.5s1.1,0.4,1.7,0.2c0.5-0.1,1-0.4,1.3-0.7s0.6-0.8,0.7-1.4c0.1-0.6,0.1-1.1,0-1.6
		C171.4-261.3,171-261.8,170.5-262.1z"/>
	<path fill="#67C6B0" d="M170.8-302.9c-19.5,0-35.4,15.9-35.4,35.4s15.9,35.4,35.4,35.4s35.5-15.8,35.5-35.4
		S190.4-302.9,170.8-302.9z M183.6-282.7l0.1,0.9c0.6-1,1.4-1.6,2.3-1.8c0.8-0.2,1.4-0.1,2,0.2c0.6,0.3,1,0.9,1.2,1.6
		c0.1,0.3,0.2,0.9,0.3,1.6l0.6,5.1l-2.1,0.6l-0.6-5c-0.1-0.5-0.1-0.9-0.2-1.1c-0.1-0.4-0.3-0.6-0.5-0.7c-0.3-0.1-0.6-0.2-0.9-0.1
		c-0.4,0.1-0.7,0.3-1,0.7c-0.3,0.3-0.5,0.8-0.6,1.3c-0.1,0.5,0,1.4,0.1,2.6l0.4,3.2l-2.1,0.6l-1.1-9
		C181.5-282,183.6-282.7,183.6-282.7z M171.6-277.1c0.2-0.9,0.7-1.7,1.3-2.3c0.6-0.6,1.3-1.1,2.1-1.3c0.5-0.1,1.1-0.2,1.6,0
		c0.5,0.1,1,0.4,1.4,0.8l-0.2-1.3l2.1-0.6l1.1,9l-2.1,0.6l-0.1-1c-0.3,0.6-0.7,1-1.1,1.3c-0.4,0.3-0.8,0.5-1.3,0.6
		c-1.2,0.3-2.2,0.1-3.1-0.5c-0.9-0.7-1.5-1.6-1.8-2.7C171.3-275.3,171.3-276.2,171.6-277.1z M168.6-278.7l0.2,1.2
		c0.3-1.1,0.9-1.7,1.7-2c0.2-0.1,0.4-0.1,0.6,0l-0.3,2.2h-0.4c-0.4,0.1-0.7,0.5-0.9,1c-0.2,0.6-0.2,1.6,0,3.1l0.5,3.4l-2.1,0.6
		l-1.1-9L168.6-278.7z M158-274.5c0.7-1.2,1.7-2,3.1-2.4c0.8-0.2,1.6-0.2,2.3,0c0.7,0.2,1.4,0.6,1.9,1.2c0.6,0.6,0.9,1.3,1.1,2.1
		c0.1,0.3,0.1,0.6,0.2,0.9l-6.9,1.8c0.2,0.6,0.5,1,1,1.3s1,0.3,1.7,0.1c0.8-0.2,1.4-0.7,1.9-1.4l2.1,0.5c-0.3,0.7-0.7,1.3-1.3,1.8
		s-1.3,0.9-2.2,1.1c-1.3,0.4-2.5,0.3-3.4-0.3c-1-0.5-1.6-1.4-1.9-2.7C157.2-271.9,157.3-273.3,158-274.5z M153.6-278
		c0.2-0.3,0.5-0.5,0.8-0.6c0.4-0.1,0.7-0.1,1,0.1s0.5,0.5,0.6,0.8c0.1,0.4,0.1,0.7-0.1,1c-0.2,0.3-0.5,0.5-0.8,0.6
		c-0.4,0.1-0.7,0.1-1-0.1c-0.3-0.2-0.5-0.5-0.6-0.8C153.4-277.4,153.4-277.7,153.6-278z M157.1-266.2l-2.1,0.6l-1.1-9l2.1-0.6
		C156-275.2,157.1-266.2,157.1-266.2z M144.5-275.5l2.2-0.6l0.5,4.1l2.7-5l2.7-0.7l-3.6,6.8l5.8,5.3l-2.5,0.7l-4.7-4.3l0.7,5.4
		l-2.2,0.6C146.1-263.2,144.5-275.5,144.5-275.5z M155-251.9c-0.5,0.8-1.3,1.4-2.3,1.7c-1.6,0.4-3.1,0-4.5-1.2l1.3-1.8
		c1,0.9,1.8,1.2,2.6,1c0.4-0.1,0.7-0.3,0.9-0.6c0.2-0.3,0.2-0.6,0.2-1c-0.1-0.3-0.2-0.5-0.5-0.8c-0.3-0.3-0.9-0.8-1.9-1.3
		c-1-0.6-1.7-1.1-2-1.5c-0.5-0.5-0.8-1-0.9-1.5c-0.2-0.7-0.1-1.4,0.2-2.1c0.4-0.9,1.1-1.5,2.1-1.7c1.4-0.4,2.7,0,4,1l-1.2,1.9
		c-0.9-0.7-1.6-0.9-2.2-0.8c-0.3,0.1-0.5,0.2-0.6,0.4c-0.1,0.2-0.2,0.4-0.1,0.7c0.1,0.2,0.2,0.4,0.5,0.7c0.2,0.2,0.9,0.7,2,1.4
		c0.6,0.4,1,0.6,1.2,0.8c0.5,0.4,0.8,0.7,1.1,1.1c0.3,0.4,0.4,0.8,0.6,1.2C155.6-253.6,155.5-252.7,155-251.9L155-251.9z
		 M162.1-253.1l-0.6-4.9c-0.1-0.5-0.1-0.9-0.2-1.1c-0.1-0.4-0.3-0.6-0.5-0.7c-0.3-0.1-0.6-0.2-0.9-0.1c-0.4,0.1-0.7,0.3-1,0.7
		c-0.3,0.3-0.5,0.8-0.5,1.3c-0.1,0.5,0,1.4,0.1,2.6l0.4,3.2l-2.1,0.6l-1.5-12.6l2.1-0.6l0.5,4.5c0.6-1,1.4-1.6,2.3-1.8
		c0.8-0.2,1.4-0.1,2,0.2c0.6,0.3,1,0.9,1.2,1.6c0.1,0.3,0.2,0.9,0.3,1.6l0.6,5.1C164.3-253.5,162.1-253.1,162.1-253.1z M172.1-255.8
		l-0.1-1c-0.3,0.6-0.7,1-1.1,1.3c-0.4,0.3-0.8,0.5-1.3,0.6c-1.2,0.3-2.2,0.1-3.1-0.5c-0.9-0.7-1.5-1.6-1.8-2.7
		c-0.2-0.9-0.2-1.7,0-2.6s0.7-1.7,1.3-2.3c0.6-0.6,1.3-1.1,2.1-1.3c0.5-0.1,1.1-0.2,1.6,0c0.5,0.1,1,0.4,1.4,0.8l-0.2-1.3l2.1-0.6
		l1.1,9L172.1-255.8z M175.6-256.7l-1.6-12.5l2.1-0.6l1.6,12.5L175.6-256.7z M179-257.6l-1.6-12.5l2.1-0.6l1.6,12.5
		C181.1-258.2,179-257.6,179-257.6z M189.9-261.8c-0.7,1.2-1.8,2-3.2,2.4c-1.2,0.3-2.3,0.2-3.3-0.3c-0.9-0.6-1.6-1.4-1.9-2.6
		c-0.4-1.5-0.2-2.8,0.5-4c0.7-1.2,1.8-2,3.1-2.4c0.8-0.2,1.5-0.2,2.3,0c0.7,0.2,1.4,0.6,1.9,1.1c0.5,0.6,0.9,1.3,1.1,2.1
		C190.8-264.3,190.6-263,189.9-261.8z M196.3-262c-1.2,0.3-2.3,0.2-3.3-0.3c-0.9-0.6-1.6-1.4-1.9-2.6c-0.4-1.5-0.2-2.8,0.5-4
		c0.7-1.2,1.8-2,3.1-2.4c0.8-0.2,1.5-0.2,2.3,0c0.7,0.2,1.4,0.6,1.9,1.1c0.5,0.6,0.9,1.3,1.1,2.1c0.4,1.4,0.2,2.6-0.5,3.9
		C198.8-263.2,197.8-262.4,196.3-262z"/>
	<path fill="#67C6B0" d="M196.9-269.2c-0.5-0.3-1.1-0.4-1.7-0.2c-0.9,0.2-1.5,0.7-1.8,1.5c-0.3,0.8-0.3,1.5-0.2,2.2
		c0.2,0.7,0.5,1.1,1,1.4c0.5,0.3,1,0.4,1.7,0.2c0.9-0.2,1.5-0.7,1.8-1.5c0.3-0.7,0.4-1.5,0.2-2.3
		C197.7-268.4,197.4-268.9,196.9-269.2z M174.8-273.5c0.5,0.3,1.1,0.4,1.7,0.2c0.5-0.1,1-0.4,1.3-0.7c0.3-0.3,0.6-0.8,0.7-1.4
		c0.1-0.6,0.1-1.1,0-1.6c-0.2-0.7-0.5-1.2-1-1.5s-1.1-0.4-1.8-0.2c-0.8,0.2-1.3,0.7-1.7,1.4c-0.4,0.7-0.5,1.5-0.2,2.4
		C173.9-274.3,174.3-273.8,174.8-273.5z"/>
</g>
<g>
	<path fill="#67C6B0" d="M38.3-177.2c-0.5-0.3-1.1-0.4-1.7-0.2c-0.9,0.2-1.5,0.7-1.8,1.5c-0.3,0.8-0.3,1.5-0.2,2.2
		c0.2,0.7,0.5,1.1,1,1.4s1,0.4,1.7,0.2c0.9-0.2,1.5-0.7,1.8-1.5c0.3-0.7,0.4-1.5,0.2-2.3C39.1-176.4,38.8-176.9,38.3-177.2z
		 M14-185.4c-0.4-0.2-0.9-0.2-1.5,0c-0.5,0.1-1,0.4-1.3,0.8c-0.3,0.4-0.6,0.9-0.6,1.5l4.5-1.2C14.8-184.9,14.5-185.2,14-185.4z
		 M21.5-172.7c-0.5-0.3-1.1-0.4-1.8-0.2c-0.8,0.2-1.3,0.7-1.7,1.4c-0.4,0.7-0.5,1.5-0.2,2.4c0.2,0.7,0.5,1.2,1,1.5
		c0.5,0.3,1.1,0.4,1.7,0.2c0.5-0.1,1-0.4,1.3-0.7c0.3-0.3,0.6-0.8,0.7-1.4c0.1-0.6,0.1-1.1,0-1.6C22.4-171.9,22-172.4,21.5-172.7z"
		/>
	<path fill="#67C6B0" d="M21.8-213.5c-19.5,0-35.4,15.9-35.4,35.4s15.9,35.4,35.4,35.4s35.5-15.8,35.5-35.4S41.4-213.5,21.8-213.5z
		 M34.6-193.3l0.1,0.9c0.6-1,1.4-1.6,2.3-1.8c0.8-0.2,1.4-0.1,2,0.2s1,0.9,1.2,1.6c0.1,0.3,0.2,0.9,0.3,1.6l0.6,5.1l-2.1,0.6l-0.6-5
		c-0.1-0.5-0.1-0.9-0.2-1.1c-0.1-0.4-0.3-0.6-0.5-0.7c-0.3-0.1-0.6-0.2-0.9-0.1c-0.4,0.1-0.7,0.3-1,0.7c-0.3,0.3-0.5,0.8-0.6,1.3
		s0,1.4,0.1,2.6l0.4,3.2l-2.1,0.6l-1.1-9C32.5-192.6,34.6-193.3,34.6-193.3z M22.6-187.7c0.2-0.9,0.7-1.7,1.3-2.3
		c0.6-0.6,1.3-1.1,2.1-1.3c0.5-0.1,1.1-0.2,1.6,0c0.5,0.1,1,0.4,1.4,0.8l-0.2-1.3l2.1-0.6l1.1,9l-2.1,0.6l-0.1-1
		c-0.3,0.6-0.7,1-1.1,1.3c-0.4,0.3-0.8,0.5-1.3,0.6c-1.2,0.3-2.2,0.1-3.1-0.5c-0.9-0.7-1.5-1.6-1.8-2.7
		C22.3-185.9,22.3-186.8,22.6-187.7z M19.6-189.3l0.2,1.2c0.3-1.1,0.9-1.7,1.7-2c0.2-0.1,0.4-0.1,0.6,0l-0.3,2.2h-0.4
		c-0.4,0.1-0.7,0.5-0.9,1c-0.2,0.6-0.2,1.6,0,3.1l0.5,3.4l-2.1,0.6l-1.1-9L19.6-189.3z M9-185.1c0.7-1.2,1.7-2,3.1-2.4
		c0.8-0.2,1.6-0.2,2.3,0c0.7,0.2,1.4,0.6,1.9,1.2c0.6,0.6,0.9,1.3,1.1,2.1c0.1,0.3,0.1,0.6,0.2,0.9l-6.9,1.8c0.2,0.6,0.5,1,1,1.3
		s1,0.3,1.7,0.1c0.8-0.2,1.4-0.7,1.9-1.4l2.1,0.5c-0.3,0.7-0.7,1.3-1.3,1.8c-0.6,0.5-1.3,0.9-2.2,1.1c-1.3,0.4-2.5,0.3-3.4-0.3
		c-1-0.5-1.6-1.4-1.9-2.7C8.2-182.5,8.3-183.9,9-185.1z M4.6-188.6c0.2-0.3,0.5-0.5,0.8-0.6c0.4-0.1,0.7-0.1,1,0.1
		c0.3,0.2,0.5,0.5,0.6,0.8c0.1,0.4,0.1,0.7-0.1,1c-0.2,0.3-0.5,0.5-0.8,0.6c-0.4,0.1-0.7,0.1-1-0.1c-0.3-0.2-0.5-0.5-0.6-0.8
		C4.4-188,4.4-188.3,4.6-188.6z M8.1-176.8L6-176.2l-1.1-9l2.1-0.6C7-185.8,8.1-176.8,8.1-176.8z M-4.5-186.1l2.2-0.6l0.5,4.1l2.7-5
		l2.7-0.7L0-181.5l5.8,5.3l-2.5,0.7l-4.7-4.3l0.7,5.4l-2.2,0.6C-2.9-173.8-4.5-186.1-4.5-186.1z M6-162.5c-0.5,0.8-1.3,1.4-2.3,1.7
		c-1.6,0.4-3.1,0-4.5-1.2l1.3-1.8c1,0.9,1.8,1.2,2.6,1c0.4-0.1,0.7-0.3,0.9-0.6c0.2-0.3,0.2-0.6,0.2-1c-0.1-0.3-0.2-0.5-0.5-0.8
		s-0.9-0.8-1.9-1.3c-1-0.6-1.7-1.1-2-1.5c-0.5-0.5-0.8-1-0.9-1.5c-0.2-0.7-0.1-1.4,0.2-2.1c0.4-0.9,1.1-1.5,2.1-1.7
		c1.4-0.4,2.7,0,4,1L4-170.4c-0.9-0.7-1.6-0.9-2.2-0.8c-0.3,0.1-0.5,0.2-0.6,0.4s-0.2,0.4-0.1,0.7c0.1,0.2,0.2,0.4,0.5,0.7
		c0.2,0.2,0.9,0.7,2,1.4c0.6,0.4,1,0.6,1.2,0.8c0.5,0.4,0.8,0.7,1.1,1.1c0.3,0.4,0.4,0.8,0.6,1.2C6.6-164.2,6.5-163.3,6-162.5
		L6-162.5z M13.1-163.7l-0.6-4.9c-0.1-0.5-0.1-0.9-0.2-1.1c-0.1-0.4-0.3-0.6-0.5-0.7c-0.3-0.1-0.6-0.2-0.9-0.1
		c-0.4,0.1-0.7,0.3-1,0.7c-0.3,0.3-0.5,0.8-0.5,1.3c-0.1,0.5,0,1.4,0.1,2.6l0.4,3.2l-2.1,0.6l-1.5-12.6l2.1-0.6l0.5,4.5
		c0.6-1,1.4-1.6,2.3-1.8c0.8-0.2,1.4-0.1,2,0.2c0.6,0.3,1,0.9,1.2,1.6c0.1,0.3,0.2,0.9,0.3,1.6l0.6,5.1
		C15.3-164.1,13.1-163.7,13.1-163.7z M23.1-166.4l-0.1-1c-0.3,0.6-0.7,1-1.1,1.3c-0.4,0.3-0.8,0.5-1.3,0.6c-1.2,0.3-2.2,0.1-3.1-0.5
		c-0.9-0.7-1.5-1.6-1.8-2.7c-0.2-0.9-0.2-1.7,0-2.6s0.7-1.7,1.3-2.3c0.6-0.6,1.3-1.1,2.1-1.3c0.5-0.1,1.1-0.2,1.6,0
		c0.5,0.1,1,0.4,1.4,0.8l-0.2-1.3L24-176l1.1,9L23.1-166.4z M26.6-167.3L25-179.8l2.1-0.6l1.6,12.5L26.6-167.3z M30-168.2l-1.6-12.5
		l2.1-0.6l1.6,12.5C32.1-168.8,30-168.2,30-168.2z M40.9-172.4c-0.7,1.2-1.8,2-3.2,2.4c-1.2,0.3-2.3,0.2-3.3-0.3
		c-0.9-0.6-1.6-1.4-1.9-2.6c-0.4-1.5-0.2-2.8,0.5-4c0.7-1.2,1.8-2,3.1-2.4c0.8-0.2,1.5-0.2,2.3,0c0.7,0.2,1.4,0.6,1.9,1.1
		c0.5,0.6,0.9,1.3,1.1,2.1C41.8-174.9,41.6-173.6,40.9-172.4z M47.3-172.6c-1.2,0.3-2.3,0.2-3.3-0.3c-0.9-0.6-1.6-1.4-1.9-2.6
		c-0.4-1.5-0.2-2.8,0.5-4s1.8-2,3.1-2.4c0.8-0.2,1.5-0.2,2.3,0c0.7,0.2,1.4,0.6,1.9,1.1c0.5,0.6,0.9,1.3,1.1,2.1
		c0.4,1.4,0.2,2.6-0.5,3.9C49.8-173.8,48.8-173,47.3-172.6z"/>
	<path fill="#67C6B0" d="M47.9-179.8c-0.5-0.3-1.1-0.4-1.7-0.2c-0.9,0.2-1.5,0.7-1.8,1.5s-0.3,1.5-0.2,2.2c0.2,0.7,0.5,1.1,1,1.4
		s1,0.4,1.7,0.2c0.9-0.2,1.5-0.7,1.8-1.5c0.3-0.7,0.4-1.5,0.2-2.3C48.7-179,48.4-179.5,47.9-179.8z M25.8-184.1
		c0.5,0.3,1.1,0.4,1.7,0.2c0.5-0.1,1-0.4,1.3-0.7c0.3-0.3,0.6-0.8,0.7-1.4c0.1-0.6,0.1-1.1,0-1.6c-0.2-0.7-0.5-1.2-1-1.5
		c-0.5-0.3-1.1-0.4-1.8-0.2c-0.8,0.2-1.3,0.7-1.7,1.4s-0.5,1.5-0.2,2.4C24.9-184.9,25.3-184.4,25.8-184.1z"/>
</g>
<g>
	<path fill="#3C3C3C" d="M278.2-266.6c-0.5-0.3-1.1-0.4-1.7-0.2c-0.9,0.2-1.5,0.7-1.8,1.5c-0.3,0.8-0.3,1.5-0.2,2.2
		c0.2,0.7,0.5,1.1,1,1.4c0.5,0.3,1,0.4,1.7,0.2c0.9-0.2,1.5-0.7,1.8-1.5c0.3-0.7,0.4-1.5,0.2-2.3C279-265.8,278.7-266.3,278.2-266.6
		z M253.9-274.8c-0.4-0.2-0.9-0.2-1.5,0c-0.5,0.1-1,0.4-1.3,0.8s-0.6,0.9-0.6,1.5l4.5-1.2C254.7-274.3,254.4-274.6,253.9-274.8z
		 M261.4-262.1c-0.5-0.3-1.1-0.4-1.8-0.2c-0.8,0.2-1.3,0.7-1.7,1.4c-0.4,0.7-0.5,1.5-0.2,2.4c0.2,0.7,0.5,1.2,1,1.5s1.1,0.4,1.7,0.2
		c0.5-0.1,1-0.4,1.3-0.7c0.3-0.3,0.6-0.8,0.7-1.4c0.1-0.6,0.1-1.1,0-1.6C262.3-261.3,261.9-261.8,261.4-262.1z"/>
	<path fill="#3C3C3C" d="M261.7-302.9c-19.5,0-35.4,15.9-35.4,35.4s15.9,35.4,35.4,35.4s35.5-15.8,35.5-35.4
		S281.3-302.9,261.7-302.9z M274.5-282.7l0.1,0.9c0.6-1,1.4-1.6,2.3-1.8c0.8-0.2,1.4-0.1,2,0.2c0.6,0.3,1,0.9,1.2,1.6
		c0.1,0.3,0.2,0.9,0.3,1.6l0.6,5.1l-2.1,0.6l-0.6-5c-0.1-0.5-0.1-0.9-0.2-1.1c-0.1-0.4-0.3-0.6-0.5-0.7c-0.3-0.1-0.6-0.2-0.9-0.1
		c-0.4,0.1-0.7,0.3-1,0.7c-0.3,0.3-0.5,0.8-0.6,1.3s0,1.4,0.1,2.6l0.4,3.2l-2.1,0.6l-1.1-9C272.4-282,274.5-282.7,274.5-282.7z
		 M262.5-277.1c0.2-0.9,0.7-1.7,1.3-2.3c0.6-0.6,1.3-1.1,2.1-1.3c0.5-0.1,1.1-0.2,1.6,0c0.5,0.1,1,0.4,1.4,0.8l-0.2-1.3l2.1-0.6
		l1.1,9l-2.1,0.6l-0.1-1c-0.3,0.6-0.7,1-1.1,1.3c-0.4,0.3-0.8,0.5-1.3,0.6c-1.2,0.3-2.2,0.1-3.1-0.5c-0.9-0.7-1.5-1.6-1.8-2.7
		C262.2-275.3,262.2-276.2,262.5-277.1z M259.5-278.7l0.2,1.2c0.3-1.1,0.9-1.7,1.7-2c0.2-0.1,0.4-0.1,0.6,0l-0.3,2.2h-0.4
		c-0.4,0.1-0.7,0.5-0.9,1c-0.2,0.6-0.2,1.6,0,3.1l0.5,3.4l-2.1,0.6l-1.1-9L259.5-278.7z M248.9-274.5c0.7-1.2,1.7-2,3.1-2.4
		c0.8-0.2,1.6-0.2,2.3,0c0.7,0.2,1.4,0.6,1.9,1.2c0.6,0.6,0.9,1.3,1.1,2.1c0.1,0.3,0.1,0.6,0.2,0.9l-6.9,1.8c0.2,0.6,0.5,1,1,1.3
		s1,0.3,1.7,0.1c0.8-0.2,1.4-0.7,1.9-1.4l2.1,0.5c-0.3,0.7-0.7,1.3-1.3,1.8c-0.6,0.5-1.3,0.9-2.2,1.1c-1.3,0.4-2.5,0.3-3.4-0.3
		c-1-0.5-1.6-1.4-1.9-2.7C248.1-271.9,248.2-273.3,248.9-274.5z M244.5-278c0.2-0.3,0.5-0.5,0.8-0.6c0.4-0.1,0.7-0.1,1,0.1
		c0.3,0.2,0.5,0.5,0.6,0.8c0.1,0.4,0.1,0.7-0.1,1c-0.2,0.3-0.5,0.5-0.8,0.6c-0.4,0.1-0.7,0.1-1-0.1c-0.3-0.2-0.5-0.5-0.6-0.8
		C244.3-277.4,244.3-277.7,244.5-278z M248-266.2l-2.1,0.6l-1.1-9l2.1-0.6C246.9-275.2,248-266.2,248-266.2z M235.4-275.5l2.2-0.6
		l0.5,4.1l2.7-5l2.7-0.7l-3.6,6.8l5.8,5.3l-2.5,0.7l-4.7-4.3l0.7,5.4l-2.2,0.6C237-263.2,235.4-275.5,235.4-275.5z M245.9-251.9
		c-0.5,0.8-1.3,1.4-2.3,1.7c-1.6,0.4-3.1,0-4.5-1.2l1.3-1.8c1,0.9,1.8,1.2,2.6,1c0.4-0.1,0.7-0.3,0.9-0.6s0.2-0.6,0.2-1
		c-0.1-0.3-0.2-0.5-0.5-0.8c-0.3-0.3-0.9-0.8-1.9-1.3c-1-0.6-1.7-1.1-2-1.5c-0.5-0.5-0.8-1-0.9-1.5c-0.2-0.7-0.1-1.4,0.2-2.1
		c0.4-0.9,1.1-1.5,2.1-1.7c1.4-0.4,2.7,0,4,1l-1.2,1.9c-0.9-0.7-1.6-0.9-2.2-0.8c-0.3,0.1-0.5,0.2-0.6,0.4c-0.1,0.2-0.2,0.4-0.1,0.7
		c0.1,0.2,0.2,0.4,0.5,0.7c0.2,0.2,0.9,0.7,2,1.4c0.6,0.4,1,0.6,1.2,0.8c0.5,0.4,0.8,0.7,1.1,1.1c0.3,0.4,0.4,0.8,0.6,1.2
		C246.5-253.6,246.4-252.7,245.9-251.9L245.9-251.9z M253-253.1l-0.6-4.9c-0.1-0.5-0.1-0.9-0.2-1.1c-0.1-0.4-0.3-0.6-0.5-0.7
		c-0.3-0.1-0.6-0.2-0.9-0.1c-0.4,0.1-0.7,0.3-1,0.7c-0.3,0.3-0.5,0.8-0.5,1.3c-0.1,0.5,0,1.4,0.1,2.6l0.4,3.2l-2.1,0.6l-1.5-12.6
		l2.1-0.6l0.5,4.5c0.6-1,1.4-1.6,2.3-1.8c0.8-0.2,1.4-0.1,2,0.2c0.6,0.3,1,0.9,1.2,1.6c0.1,0.3,0.2,0.9,0.3,1.6l0.6,5.1
		C255.2-253.5,253-253.1,253-253.1z M263-255.8l-0.1-1c-0.3,0.6-0.7,1-1.1,1.3c-0.4,0.3-0.8,0.5-1.3,0.6c-1.2,0.3-2.2,0.1-3.1-0.5
		c-0.9-0.7-1.5-1.6-1.8-2.7c-0.2-0.9-0.2-1.7,0-2.6c0.2-0.9,0.7-1.7,1.3-2.3c0.6-0.6,1.3-1.1,2.1-1.3c0.5-0.1,1.1-0.2,1.6,0
		c0.5,0.1,1,0.4,1.4,0.8l-0.2-1.3l2.1-0.6l1.1,9L263-255.8z M266.5-256.7l-1.6-12.5l2.1-0.6l1.6,12.5L266.5-256.7z M269.9-257.6
		l-1.6-12.5l2.1-0.6l1.6,12.5C272-258.2,269.9-257.6,269.9-257.6z M280.8-261.8c-0.7,1.2-1.8,2-3.2,2.4c-1.2,0.3-2.3,0.2-3.3-0.3
		c-0.9-0.6-1.6-1.4-1.9-2.6c-0.4-1.5-0.2-2.8,0.5-4c0.7-1.2,1.8-2,3.1-2.4c0.8-0.2,1.5-0.2,2.3,0c0.7,0.2,1.4,0.6,1.9,1.1
		c0.5,0.6,0.9,1.3,1.1,2.1C281.7-264.3,281.5-263,280.8-261.8z M287.2-262c-1.2,0.3-2.3,0.2-3.3-0.3c-0.9-0.6-1.6-1.4-1.9-2.6
		c-0.4-1.5-0.2-2.8,0.5-4c0.7-1.2,1.8-2,3.1-2.4c0.8-0.2,1.5-0.2,2.3,0c0.7,0.2,1.4,0.6,1.9,1.1c0.5,0.6,0.9,1.3,1.1,2.1
		c0.4,1.4,0.2,2.6-0.5,3.9C289.7-263.2,288.7-262.4,287.2-262z"/>
	<path fill="#3C3C3C" d="M287.8-269.2c-0.5-0.3-1.1-0.4-1.7-0.2c-0.9,0.2-1.5,0.7-1.8,1.5c-0.3,0.8-0.3,1.5-0.2,2.2
		c0.2,0.7,0.5,1.1,1,1.4c0.5,0.3,1,0.4,1.7,0.2c0.9-0.2,1.5-0.7,1.8-1.5c0.3-0.7,0.4-1.5,0.2-2.3
		C288.6-268.4,288.3-268.9,287.8-269.2z M265.7-273.5c0.5,0.3,1.1,0.4,1.7,0.2c0.5-0.1,1-0.4,1.3-0.7s0.6-0.8,0.7-1.4
		c0.1-0.6,0.1-1.1,0-1.6c-0.2-0.7-0.5-1.2-1-1.5s-1.1-0.4-1.8-0.2c-0.8,0.2-1.3,0.7-1.7,1.4c-0.4,0.7-0.5,1.5-0.2,2.4
		C264.8-274.3,265.2-273.8,265.7-273.5z"/>
</g>
<text transform="matrix(1 0 0 1 143.7102 -201.02)" font-family="'NeuzeitGro-Reg'" font-size="12px">K</text>
<text transform="matrix(1 0 0 1 150.1497 -201.02)" font-family="'NeuzeitGro-Reg'" font-size="12px">i</text>
<text transform="matrix(1 0 0 1 152.8079 -201.02)" font-family="'NeuzeitGro-Reg'" font-size="12px">e</text>
<text transform="matrix(1 0 0 1 159.2356 -201.02)" font-family="'NeuzeitGro-Reg'" font-size="12px">r</text>
<text transform="matrix(1 0 0 1 162.9261 -201.02)" font-family="'NeuzeitGro-Reg'" font-size="12px">a</text>
<text transform="matrix(1 0 0 1 169.7259 -201.02)" font-family="'NeuzeitGro-Reg'" font-size="12px">n</text>
<text transform="matrix(1 0 0 1 175.8333 -201.02)" font-family="'NeuzeitGro-Reg'" font-size="12px"> </text>
<text transform="matrix(1 0 0 1 179.4329 -201.02)" font-family="'NeuzeitGro-Reg'" font-size="12px">S</text>
<text transform="matrix(1 0 0 1 185.3128 -201.02)" font-family="'NeuzeitGro-Reg'" font-size="12px">h</text>
<text transform="matrix(1 0 0 1 191.3704 -201.02)" font-family="'NeuzeitGro-Reg'" font-size="12px">a</text>
<text transform="matrix(1 0 0 1 198.1682 -201.02)" font-family="'NeuzeitGro-Reg'" font-size="12px">l</text>
<text transform="matrix(1 0 0 1 200.7776 -201.02)" font-family="'NeuzeitGro-Reg'" font-size="12px">l</text>
<text transform="matrix(1 0 0 1 203.469 -201.02)" font-family="'NeuzeitGro-Reg'" font-size="12px">o</text>
<text transform="matrix(1 0 0 1 210.0452 -201.02)" font-family="'NeuzeitGro-Reg'" font-size="12px">o</text>
<text transform="matrix(1 0 0 1 143.7102 -189.9966)" font-family="'NeuzeitGro-Reg'" font-size="12px">S</text>
<text transform="matrix(1 0 0 1 149.5901 -189.9966)" font-family="'NeuzeitGro-Reg'" font-size="12px">h</text>
<text transform="matrix(1 0 0 1 155.6477 -189.9966)" font-family="'NeuzeitGro-Reg'" font-size="12px">a</text>
<text transform="matrix(1 0 0 1 162.4456 -189.9966)" font-family="'NeuzeitGro-Reg'" font-size="12px">l</text>
<text transform="matrix(1 0 0 1 165.054 -189.9966)" font-family="'NeuzeitGro-Reg'" font-size="12px">l</text>
<text transform="matrix(1 0 0 1 167.7454 -189.9966)" font-family="'NeuzeitGro-Reg'" font-size="12px">o</text>
<text transform="matrix(1 0 0 1 174.3216 -189.9966)" font-family="'NeuzeitGro-Reg'" font-size="12px">o</text>
<text transform="matrix(1 0 0 1 180.8977 -189.9966)" font-family="'NeuzeitGro-Reg'" font-size="12px"> </text>
<text transform="matrix(1 0 0 1 184.4973 -189.9966)" font-family="'NeuzeitGro-Reg'" font-size="12px">D</text>
<text transform="matrix(1 0 0 1 192.0188 -189.9966)" font-family="'NeuzeitGro-Reg'" font-size="12px">e</text>
<text transform="matrix(1 0 0 1 198.4964 -189.9966)" font-family="'NeuzeitGro-Reg'" font-size="12px">s</text>
<text transform="matrix(1 0 0 1 203.3792 -189.9966)" font-family="'NeuzeitGro-Reg'" font-size="12px">i</text>
<text transform="matrix(1 0 0 1 206.0677 -189.9966)" font-family="'NeuzeitGro-Reg'" font-size="12px">g</text>
<text transform="matrix(1 0 0 1 212.7835 -189.9966)" font-family="'NeuzeitGro-Reg'" font-size="12px">n</text>
<text transform="matrix(1 0 0 1 88.0155 -183.3062)" font-family="'NeuzeitGro-Reg'" font-size="12px">S</text>
<text transform="matrix(1 0 0 1 93.8954 -183.3062)" font-family="'NeuzeitGro-Reg'" font-size="12px">h</text>
<text transform="matrix(1 0 0 1 99.953 -183.3062)" font-family="'NeuzeitGro-Reg'" font-size="12px">a</text>
<text transform="matrix(1 0 0 1 106.7508 -183.3062)" font-family="'NeuzeitGro-Reg'" font-size="12px">l</text>
<text transform="matrix(1 0 0 1 109.3592 -183.3062)" font-family="'NeuzeitGro-Reg'" font-size="12px">l</text>
<text transform="matrix(1 0 0 1 112.0506 -183.3062)" font-family="'NeuzeitGro-Reg'" font-size="12px">o</text>
<text transform="matrix(1 0 0 1 118.6268 -183.3062)" font-family="'NeuzeitGro-Reg'" font-size="12px">o</text>
<text transform="matrix(1 0 0 1 125.203 -183.3062)" font-family="'NeuzeitGro-Reg'" font-size="12px"> </text>
<text transform="matrix(1 0 0 1 89.412 -174.3062)" font-family="'NeuzeitGro-Reg'" font-size="12px">D</text>
<text transform="matrix(1 0 0 1 96.9334 -174.3062)" font-family="'NeuzeitGro-Reg'" font-size="12px">e</text>
<text transform="matrix(1 0 0 1 103.411 -174.3062)" font-family="'NeuzeitGro-Reg'" font-size="12px">s</text>
<text transform="matrix(1 0 0 1 108.2938 -174.3062)" font-family="'NeuzeitGro-Reg'" font-size="12px">i</text>
<text transform="matrix(1 0 0 1 110.9823 -174.3062)" font-family="'NeuzeitGro-Reg'" font-size="12px">g</text>
<text transform="matrix(1 0 0 1 117.6981 -174.3062)" font-family="'NeuzeitGro-Reg'" font-size="12px">n</text>
<text transform="matrix(1 0 0 1 135.3196 -166.6073)" font-family="'PTSans-Narrow'" font-size="12px">S</text>
<text transform="matrix(1 0 0 1 140.3723 -166.6073)" font-family="'PTSans-Narrow'" font-size="12px">H</text>
<text transform="matrix(1 0 0 1 146.9143 -166.6073)" font-family="'PTSans-Narrow'" font-size="12px">A</text>
<text transform="matrix(1 0 0 1 152.6926 -166.6073)" font-family="'PTSans-Narrow'" font-size="12px">L</text>
<text transform="matrix(1 0 0 1 157.7219 -166.6073)" font-family="'PTSans-Narrow'" font-size="12px">L</text>
<text transform="matrix(1 0 0 1 162.5413 -166.6073)" font-family="'PTSans-Narrow'" font-size="12px">O</text>
<text transform="matrix(1 0 0 1 169.136 -166.6073)" font-family="'PTSans-Narrow'" font-size="12px">O</text>
<text transform="matrix(1 0 0 1 175.7239 -166.6073)" font-family="'PTSans-Narrow'" font-size="12px"> </text>
<text transform="matrix(1 0 0 1 139.3762 -156.6073)" font-family="'PTSans-NarrowBold'" font-size="12px">D</text>
<text transform="matrix(1 0 0 1 145.8186 -156.6073)" font-family="'PTSans-NarrowBold'" font-size="12px">E</text>
<text transform="matrix(1 0 0 1 151.0276 -156.6073)" font-family="'PTSans-NarrowBold'" font-size="12px">S</text>
<text transform="matrix(1 0 0 1 156.2298 -156.6073)" font-family="'PTSans-NarrowBold'" font-size="12px">I</text>
<text transform="matrix(1 0 0 1 159.0667 -156.6073)" font-family="'PTSans-NarrowBold'" font-size="12px">G</text>
<text transform="matrix(1 0 0 1 165.1878 -156.6073)" font-family="'PTSans-NarrowBold'" font-size="12px">N</text>
<circle cx="48.2" cy="-285.5" r="50"/>
<circle fill="#231F20" cx="49" cy="50" r="41.4"/>
<path fill="#231F20" d="M90.8,30.3c14.3,29.9-5.9,65.7-39.6,66.8c-40.8,1.1-63.9-47.9-37.1-78.7C36.4-6.8,76.8,0.3,90.8,30.3
	L90.8,30.3z M90.6,30.4C73.1-6.1,20.4-2.6,6,34.6c-9.2,23.6,3.5,50.5,27.6,58.3C71.3,105.3,107.5,67,90.6,30.4L90.6,30.4z"/>
<text transform="matrix(1 0 0 1 21.8216 50)" fill="#FFFFFF" font-family="'RefrigeratorDeluxe-Bold'" font-size="18.1012px">SHALLOO </text>
<text transform="matrix(1 0 0 1 28.2923 65.084)" fill="#FFFFFF" font-family="'RefrigeratorDeluxe'" font-size="18.1012px">DESIGN</text>
<text transform="matrix(1 0 0 1 199.5331 155.887)" fill="#FFFFFF" font-family="'H74RiversideThin'" font-size="18.1012px">S</text>
<text transform="matrix(1 0 0 1 208.1669 155.887)" fill="#FFFFFF" font-family="'H74RiversideThin'" font-size="18.1012px">H</text>
<text transform="matrix(1 0 0 1 216.5302 155.887)" fill="#FFFFFF" font-family="'H74RiversideThin'" font-size="18.1012px">A</text>
<text transform="matrix(1 0 0 1 224.5126 155.887)" fill="#FFFFFF" font-family="'H74RiversideThin'" font-size="18.1012px">L</text>
<text transform="matrix(1 0 0 1 232.6581 155.887)" fill="#FFFFFF" font-family="'H74RiversideThin'" font-size="18.1012px">L</text>
<text transform="matrix(1 0 0 1 240.8036 155.887)" fill="#FFFFFF" font-family="'H74RiversideThin'" font-size="18.1012px">O</text>
<text transform="matrix(1 0 0 1 249.6005 155.887)" fill="#FFFFFF" font-family="'H74RiversideThin'" font-size="18.1012px">O</text>
<text transform="matrix(1 0 0 1 258.3973 155.887)" fill="#FFFFFF" font-family="'H74RiversideThin'" font-size="18.1012px"> </text>
<text transform="matrix(1 0 0 1 205.9139 170.971)" fill="#FFFFFF" font-family="'H74RiversideThin'" font-size="18.1012px">D</text>
<text transform="matrix(1 0 0 1 214.6932 170.971)" fill="#FFFFFF" font-family="'H74RiversideThin'" font-size="18.1012px">E</text>
<text transform="matrix(1 0 0 1 222.2772 170.971)" fill="#FFFFFF" font-family="'H74RiversideThin'" font-size="18.1012px">S</text>
<text transform="matrix(1 0 0 1 230.911 170.971)" fill="#FFFFFF" font-family="'H74RiversideThin'" font-size="18.1012px">I</text>
<text transform="matrix(1 0 0 1 234.3505 170.971)" fill="#FFFFFF" font-family="'H74RiversideThin'" font-size="18.1012px">G</text>
<text transform="matrix(1 0 0 1 243.328 170.971)" fill="#FFFFFF" font-family="'H74RiversideThin'" font-size="18.1012px">N</text>
<g>
	<circle fill="#231F20" cx="49" cy="156.8" r="41.4"/>
	<path fill="#231F20" d="M90.8,137.1c14.3,29.9-5.9,65.7-39.6,66.8C10.5,205-12.7,156,14.2,125.2C36.4,100.1,76.8,107.1,90.8,137.1
		L90.8,137.1z M90.6,137.2c-17.5-36.4-70.2-32.9-84.6,4.2C-3.2,165,9.5,192,33.6,199.7C71.3,212.1,107.5,173.8,90.6,137.2
		L90.6,137.2z"/>
	
		<text transform="matrix(1 0 0 1 21.8216 156.8426)" fill="#67C6B0" font-family="'RefrigeratorDeluxe-Bold'" font-size="18.1012px">SHALLOO </text>
	<text transform="matrix(1 0 0 1 28.2923 171.9266)" fill="#67C6B0" font-family="'RefrigeratorDeluxe'" font-size="18.1012px">DESIGN</text>
	<g>
		<path fill="#343434" d="M27.6,228.6c0.6,0.6,0.9,1.2,0.9,1.9v1.9c0,1-0.8,1.8-1.8,1.8h-2.7c-1,0-1.8-0.8-1.8-1.8v-1.8h1.8v1.8h2.7
			v-2.1l-3.7-3.6c-0.6-0.6-0.9-1.2-0.9-1.9v-1.4c0-1,0.8-1.8,1.8-1.8h2.7c1,0,1.8,0.8,1.8,1.8v1.8h-1.8v-1.8h-2.7v1.6L27.6,228.6z"
			/>
		<path fill="#343434" d="M36.6,234.2h-1.8v-5.8h-2.7v5.8h-1.8v-12.7h1.8v5.1h2.7v-5.1h1.8V234.2z"/>
		<path fill="#343434" d="M45.4,234.2h-1.9l-0.4-1.8H40l-0.4,1.8h-1.9l2.7-12.7h2.3L45.4,234.2z M42.8,230.6l-1.2-5.9l-1.2,5.9H42.8
			z"/>
		<path fill="#343434" d="M52,234.2h-5.4v-12.7h1.8v10.9H52V234.2z"/>
		<path fill="#343434" d="M58.7,234.2h-5.4v-12.7h1.8v10.9h3.6V234.2z"/>
		<path fill="#343434" d="M64.6,234.2h-2.7c-1,0-1.8-0.8-1.8-1.8v-9c0-1,0.8-1.8,1.8-1.8h2.7c1,0,1.8,0.8,1.8,1.8v9
			C66.4,233.4,65.6,234.2,64.6,234.2z M64.6,232.4v-9h-2.7v9H64.6z"/>
		<path fill="#343434" d="M72.8,234.2h-2.7c-1,0-1.8-0.8-1.8-1.8v-9c0-1,0.8-1.8,1.8-1.8h2.7c1,0,1.8,0.8,1.8,1.8v9
			C74.6,233.4,73.8,234.2,72.8,234.2z M72.8,232.4v-9h-2.7v9H72.8z"/>
		<path fill="#343434" d="M34.5,245.8c0,1-0.8,1.8-1.8,1.8h-4.1v-12.7h4.1c1,0,1.8,0.8,1.8,1.8V245.8z M33.2,236.7
			c0-0.3-0.2-0.5-0.5-0.5H30v10h2.7c0.3,0,0.5-0.2,0.5-0.5V236.7z"/>
		<path fill="#343434" d="M41.5,247.6h-5v-12.7h5v1.4h-3.6v3.9h2.7v1.4h-2.7v4.7h3.6V247.6z"/>
		<path fill="#343434" d="M47.6,244c0-0.3-0.1-0.5-0.2-0.6l-3.7-3.7c-0.4-0.4-0.6-1-0.6-1.6v-1.4c0-1,0.8-1.8,1.8-1.8h2.3
			c1,0,1.8,0.8,1.8,1.8v1.8h-1.4v-1.8c0-0.3-0.2-0.5-0.5-0.5h-2.3c-0.3,0-0.5,0.2-0.5,0.5v1.4c0,0.2,0.1,0.4,0.2,0.6l3.7,3.7
			c0.4,0.4,0.6,1,0.6,1.6v1.8c0,1-0.8,1.8-1.8,1.8h-2.3c-1,0-1.8-0.8-1.8-1.8V244h1.4v1.8c0,0.3,0.2,0.5,0.5,0.5h2.3
			c0.3,0,0.5-0.2,0.5-0.5V244z"/>
		<path fill="#343434" d="M52.3,247.6h-1.4v-12.7h1.4V247.6z"/>
		<path fill="#343434" d="M60.2,245.8c0,1-0.8,1.8-1.8,1.8h-2.3c-1,0-1.8-0.8-1.8-1.8v-9c0-1,0.8-1.8,1.8-1.8h2.3
			c1,0,1.8,0.8,1.8,1.8v1.8h-1.4v-1.8c0-0.3-0.2-0.5-0.5-0.5h-2.3c-0.3,0-0.5,0.2-0.5,0.5v9c0,0.3,0.2,0.5,0.5,0.5h2.3
			c0.3,0,0.5-0.2,0.5-0.5v-3.3h-1.6v-1.4h3V245.8z"/>
		<path fill="#343434" d="M68,247.6h-1.1l-3.4-9.4v9.4h-1.4v-12.7h1.5l3,8.5v-8.5H68V247.6z"/>
	</g>
</g>
<g>
	<g>
		<circle fill="#67C6B0" cx="-86.9" cy="159.5" r="41.4"/>
	</g>
	<g>
		<path fill="#67C6B0" d="M-45,139.8c14.3,29.9-5.9,65.7-39.6,66.8c-40.8,1.1-63.9-47.9-37.1-78.7C-99.4,102.7-59.1,109.8-45,139.8
			L-45,139.8z M-45.2,139.9c-17.5-36.4-70.2-32.9-84.6,4.2c-9.2,23.6,3.5,50.5,27.6,58.3C-64.6,214.8-28.4,176.5-45.2,139.9
			L-45.2,139.9z"/>
	</g>
	<g>
		<path fill="#343434" d="M-107.7,153.9c0.6,0.6,0.9,1.2,0.9,1.9v1.9c0,1-0.8,1.8-1.8,1.8h-2.7c-1,0-1.8-0.8-1.8-1.8v-1.8h1.8v1.8
			h2.7v-2.1l-3.7-3.6c-0.6-0.6-0.9-1.2-0.9-1.9v-1.4c0-1,0.8-1.8,1.8-1.8h2.7c1,0,1.8,0.8,1.8,1.8v1.8h-1.8v-1.8h-2.7v1.6
			L-107.7,153.9z"/>
		<path fill="#343434" d="M-98.7,159.5h-1.8v-5.8h-2.7v5.8h-1.8v-12.7h1.8v5.1h2.7v-5.1h1.8V159.5z"/>
		<path fill="#343434" d="M-89.8,159.5h-1.9l-0.4-1.8h-3.1l-0.4,1.8h-1.9l2.7-12.7h2.3L-89.8,159.5z M-92.5,155.9l-1.2-5.9l-1.2,5.9
			H-92.5z"/>
		<path fill="#343434" d="M-83.3,159.5h-5.4v-12.7h1.8v10.9h3.6V159.5z"/>
		<path fill="#343434" d="M-76.5,159.5h-5.4v-12.7h1.8v10.9h3.6V159.5z"/>
		<path fill="#343434" d="M-70.6,159.5h-2.7c-1,0-1.8-0.8-1.8-1.8v-9c0-1,0.8-1.8,1.8-1.8h2.7c1,0,1.8,0.8,1.8,1.8v9
			C-68.8,158.7-69.6,159.5-70.6,159.5z M-70.6,157.7v-9h-2.7v9H-70.6z"/>
		<path fill="#343434" d="M-62.4,159.5h-2.7c-1,0-1.8-0.8-1.8-1.8v-9c0-1,0.8-1.8,1.8-1.8h2.7c1,0,1.8,0.8,1.8,1.8v9
			C-60.6,158.7-61.5,159.5-62.4,159.5z M-62.4,157.7v-9h-2.7v9H-62.4z"/>
		<path fill="#343434" d="M-100.7,172.8c0,1-0.8,1.8-1.8,1.8h-4.1v-12.7h4.1c1,0,1.8,0.8,1.8,1.8V172.8z M-102,163.7
			c0-0.3-0.2-0.5-0.5-0.5h-2.7v10h2.7c0.3,0,0.5-0.2,0.5-0.5V163.7z"/>
		<path fill="#343434" d="M-93.7,174.6h-5v-12.7h5v1.4h-3.6v3.9h2.7v1.4h-2.7v4.7h3.6V174.6z"/>
		<path fill="#343434" d="M-87.7,171c0-0.3-0.1-0.5-0.2-0.6l-3.7-3.7c-0.4-0.4-0.6-1-0.6-1.6v-1.4c0-1,0.8-1.8,1.8-1.8h2.3
			c1,0,1.8,0.8,1.8,1.8v1.8h-1.4v-1.8c0-0.3-0.2-0.5-0.5-0.5h-2.3c-0.3,0-0.5,0.2-0.5,0.5v1.4c0,0.2,0.1,0.4,0.2,0.6l3.7,3.7
			c0.4,0.4,0.6,1,0.6,1.6v1.8c0,1-0.8,1.8-1.8,1.8h-2.3c-1,0-1.8-0.8-1.8-1.8V171h1.4v1.8c0,0.3,0.2,0.5,0.5,0.5h2.3
			c0.3,0,0.5-0.2,0.5-0.5V171z"/>
		<path fill="#343434" d="M-82.9,174.6h-1.4v-12.7h1.4V174.6z"/>
		<path fill="#343434" d="M-75.1,172.8c0,1-0.8,1.8-1.8,1.8h-2.3c-1,0-1.8-0.8-1.8-1.8v-9c0-1,0.8-1.8,1.8-1.8h2.3
			c1,0,1.8,0.8,1.8,1.8v1.8h-1.4v-1.8c0-0.3-0.2-0.5-0.5-0.5h-2.3c-0.3,0-0.5,0.2-0.5,0.5v9c0,0.3,0.2,0.5,0.5,0.5h2.3
			c0.3,0,0.5-0.2,0.5-0.5v-3.3H-78v-1.4h3V172.8z"/>
		<path fill="#343434" d="M-67.2,174.6h-1.1l-3.4-9.4v9.4h-1.4v-12.7h1.5l3,8.5v-8.5h1.4V174.6z"/>
	</g>
</g>
<circle fill="#67C6B0" cx="-11.6" cy="-86.1" r="41.4"/>
<path fill="#67C6B0" d="M35.5-86.1c-0.3,41.2-50.7,61.3-80,32.8c-18.3-17.7-18.3-47.9,0-65.6C-15.2-147.4,35.2-127.3,35.5-86.1
	L35.5-86.1z M33.5-86.1c0.1-32.4-32.5-55.4-62.8-42.6c-37.3,16-37.3,69.2,0,85.1C1-30.7,33.6-53.6,33.5-86.1L33.5-86.1z"/>
<text transform="matrix(0.9816 -0.1908 0.1908 0.9816 -39.8088 -83.895)" fill="#FFFFFF" font-family="'FuturaPT-Book'" font-size="19.3846px">K</text>
<text transform="matrix(0.9816 -0.1908 0.1908 0.9816 -28.9591 -86.004)" fill="#FFFFFF" font-family="'FuturaPT-Book'" font-size="19.3846px">i</text>
<text transform="matrix(0.9816 -0.1908 0.1908 0.9816 -25.0887 -86.7563)" fill="#FFFFFF" font-family="'FuturaPT-Book'" font-size="19.3846px">e</text>
<text transform="matrix(0.9816 -0.1908 0.1908 0.9816 -15.9933 -88.5243)" fill="#FFFFFF" font-family="'FuturaPT-Book'" font-size="19.3846px">r</text>
<text transform="matrix(0.9816 -0.1908 0.1908 0.9816 -10.58 -89.5765)" fill="#FFFFFF" font-family="'FuturaPT-Book'" font-size="19.3846px">a</text>
<text transform="matrix(0.9816 -0.1908 0.1908 0.9816 -0.6511 -91.5065)" fill="#FFFFFF" font-family="'FuturaPT-Book'" font-size="19.3846px">n</text>
<text transform="matrix(0.9816 -0.1908 0.1908 0.9816 8.2919 -93.2449)" fill="#FFFFFF" font-family="'FuturaPT-Book'" font-size="19.3846px"> </text>
<text transform="matrix(0.9816 -0.1908 0.1908 0.9816 -36.7264 -68.0375)" fill="#FFFFFF" font-family="'FuturaPT-Book'" font-size="19.3846px">S</text>
<text transform="matrix(0.9816 -0.1908 0.1908 0.9816 -26.8148 -69.9642)" fill="#FFFFFF" font-family="'FuturaPT-Book'" font-size="19.3846px">h</text>
<text transform="matrix(0.9816 -0.1908 0.1908 0.9816 -17.9269 -71.6918)" fill="#FFFFFF" font-family="'FuturaPT-Book'" font-size="19.3846px">a</text>
<text transform="matrix(0.9816 -0.1908 0.1908 0.9816 -7.998 -73.6218)" fill="#FFFFFF" font-family="'FuturaPT-Book'" font-size="19.3846px">l</text>
<text transform="matrix(0.9816 -0.1908 0.1908 0.9816 -4.1525 -74.3693)" fill="#FFFFFF" font-family="'FuturaPT-Book'" font-size="19.3846px">l</text>
<text transform="matrix(0.9816 -0.1908 0.1908 0.9816 -0.25 -75.1278)" fill="#FFFFFF" font-family="'FuturaPT-Book'" font-size="19.3846px">o</text>
<text transform="matrix(0.9816 -0.1908 0.1908 0.9816 9.677 -77.0574)" fill="#FFFFFF" font-family="'FuturaPT-Book'" font-size="19.3846px">o</text>
<text transform="matrix(1 0 0 1 200.8466 33.1935)" fill="#FFFFFF" font-family="'SFProRounded-Ultralight'" font-size="18.1012px">S</text>
<text transform="matrix(1 0 0 1 210.6786 33.1935)" fill="#FFFFFF" font-family="'SFProRounded-Ultralight'" font-size="18.1012px">H</text>
<text transform="matrix(1 0 0 1 221.995 33.1935)" fill="#FFFFFF" font-family="'SFProRounded-Ultralight'" font-size="18.1012px">A</text>
<text transform="matrix(1 0 0 1 232.4726 33.1935)" fill="#FFFFFF" font-family="'SFProRounded-Ultralight'" font-size="18.1012px">L</text>
<text transform="matrix(1 0 0 1 241.1464 33.1935)" fill="#FFFFFF" font-family="'SFProRounded-Ultralight'" font-size="18.1012px">L</text>
<text transform="matrix(1 0 0 1 248.8954 33.1935)" fill="#FFFFFF" font-family="'SFProRounded-Ultralight'" font-size="18.1012px">O</text>
<text transform="matrix(1 0 0 1 261.2167 33.1935)" fill="#FFFFFF" font-family="'SFProRounded-Ultralight'" font-size="18.1012px">O</text>
<text transform="matrix(1 0 0 1 273.5732 33.1935)" fill="#FFFFFF" font-family="'SFProRounded-Ultralight'" font-size="18.1012px"> </text>
<text transform="matrix(1 0 0 1 204.4032 48.2775)" fill="#FFFFFF" font-family="'SFProRounded-Bold'" font-size="18.1012px">D</text>
<text transform="matrix(1 0 0 1 217.1669 48.2775)" fill="#FFFFFF" font-family="'SFProRounded-Bold'" font-size="18.1012px">E</text>
<text transform="matrix(1 0 0 1 227.3857 48.2775)" fill="#FFFFFF" font-family="'SFProRounded-Bold'" font-size="18.1012px">S</text>
<text transform="matrix(1 0 0 1 238.9599 48.2775)" fill="#FFFFFF" font-family="'SFProRounded-Bold'" font-size="18.1012px">I</text>
<text transform="matrix(1 0 0 1 243.8485 48.2775)" fill="#FFFFFF" font-family="'SFProRounded-Bold'" font-size="18.1012px">G</text>
<text transform="matrix(1 0 0 1 257.0849 48.2775)" fill="#FFFFFF" font-family="'SFProRounded-Bold'" font-size="18.1012px">N</text>
<text transform="matrix(1 0 0 1 206.5156 193.995)" fill="#FFFFFF" font-family="'HeadingSmallcasePro-Regular'" font-size="18.1012px">S</text>
<text transform="matrix(1 0 0 1 213.8574 193.995)" fill="#FFFFFF" font-family="'HeadingSmallcasePro-Regular'" font-size="18.1012px">H</text>
<text transform="matrix(1 0 0 1 222.5566 193.995)" fill="#FFFFFF" font-family="'HeadingSmallcasePro-Regular'" font-size="18.1012px">A</text>
<text transform="matrix(1 0 0 1 230.1338 193.995)" fill="#FFFFFF" font-family="'HeadingSmallcasePro-Regular'" font-size="18.1012px">L</text>
<text transform="matrix(1 0 0 1 236.7617 193.995)" fill="#FFFFFF" font-family="'HeadingSmallcasePro-Regular'" font-size="18.1012px">L</text>
<text transform="matrix(1 0 0 1 243.4453 193.995)" fill="#FFFFFF" font-family="'HeadingSmallcasePro-Regular'" font-size="18.1012px">O</text>
<text transform="matrix(1 0 0 1 251.2129 193.995)" fill="#FFFFFF" font-family="'HeadingSmallcasePro-Regular'" font-size="18.1012px">O</text>
<text transform="matrix(1 0 0 1 259.0175 193.995)" fill="#FFFFFF" font-family="'HeadingSmallcasePro-Regular'" font-size="18.1012px"> </text>
<text transform="matrix(1 0 0 1 209.6367 209.079)" fill="#FFFFFF" font-family="'HeadingSmallcasePro-Heavy'" font-size="18.1012px">D</text>
<text transform="matrix(1 0 0 1 217.9482 209.079)" fill="#FFFFFF" font-family="'HeadingSmallcasePro-Heavy'" font-size="18.1012px">E</text>
<text transform="matrix(1 0 0 1 225.6719 209.079)" fill="#FFFFFF" font-family="'HeadingSmallcasePro-Heavy'" font-size="18.1012px">S</text>
<text transform="matrix(1 0 0 1 233.7783 209.079)" fill="#FFFFFF" font-family="'HeadingSmallcasePro-Heavy'" font-size="18.1012px">I</text>
<text transform="matrix(1 0 0 1 238.2598 209.079)" fill="#FFFFFF" font-family="'HeadingSmallcasePro-Heavy'" font-size="18.1012px">G</text>
<text transform="matrix(1 0 0 1 246.3691 209.079)" fill="#FFFFFF" font-family="'HeadingSmallcasePro-Heavy'" font-size="18.1012px">N</text>
<text transform="matrix(1 0 0 1 175.1082 -86.0554)" fill="#FFFFFF" font-family="'PTSans-Narrow'" font-size="18.1012px">S</text>
<text transform="matrix(1 0 0 1 182.6922 -86.0554)" fill="#FFFFFF" font-family="'PTSans-Narrow'" font-size="18.1012px">H</text>
<text transform="matrix(1 0 0 1 192.5233 -86.0554)" fill="#FFFFFF" font-family="'PTSans-Narrow'" font-size="18.1012px">A</text>
<text transform="matrix(1 0 0 1 201.2039 -86.0554)" fill="#FFFFFF" font-family="'PTSans-Narrow'" font-size="18.1012px">L</text>
<text transform="matrix(1 0 0 1 208.7547 -86.0554)" fill="#FFFFFF" font-family="'PTSans-Narrow'" font-size="18.1012px">L</text>
<text transform="matrix(1 0 0 1 215.9842 -86.0554)" fill="#FFFFFF" font-family="'PTSans-Narrow'" font-size="18.1012px">O</text>
<text transform="matrix(1 0 0 1 225.8944 -86.0554)" fill="#FFFFFF" font-family="'PTSans-Narrow'" font-size="18.1012px">O</text>
<text transform="matrix(1 0 0 1 235.8319 -86.0554)" fill="#FFFFFF" font-family="'PTSans-Narrow'" font-size="18.1012px"> </text>
<text transform="matrix(1 0 0 1 181.1951 -70.9714)" fill="#FFFFFF" font-family="'PTSans-NarrowBold'" font-size="18.1012px">D</text>
<text transform="matrix(1 0 0 1 190.8787 -70.9714)" fill="#FFFFFF" font-family="'PTSans-NarrowBold'" font-size="18.1012px">E</text>
<text transform="matrix(1 0 0 1 198.7059 -70.9714)" fill="#FFFFFF" font-family="'PTSans-NarrowBold'" font-size="18.1012px">S</text>
<text transform="matrix(1 0 0 1 206.5184 -70.9714)" fill="#FFFFFF" font-family="'PTSans-NarrowBold'" font-size="18.1012px">I</text>
<text transform="matrix(1 0 0 1 210.7645 -70.9714)" fill="#FFFFFF" font-family="'PTSans-NarrowBold'" font-size="18.1012px">G</text>
<text transform="matrix(1 0 0 1 219.9696 -70.9714)" fill="#FFFFFF" font-family="'PTSans-NarrowBold'" font-size="18.1012px">N</text>
<rect x="279.3" y="-126.6" fill="#FFFFFF" width="97.2" height="91.7"/>
<path fill="#231F20" d="M358.6-61.2h-63.2c-3.9,0-7.1-3.2-7.1-7.1V-101c0-3.9,3.2-7.1,7.1-7.1h63.2c3.9,0,7.1,3.2,7.1,7.1v32.6
	C365.8-64.4,362.6-61.2,358.6-61.2z"/>
<text transform="matrix(1 0 0 1 296.006 -86.0554)" fill="#FFFFFF" font-family="'PTSans-NarrowBold'" font-size="18.1012px">S</text>
<text transform="matrix(1 0 0 1 303.8947 -86.0554)" fill="#FFFFFF" font-family="'PTSans-NarrowBold'" font-size="18.1012px">H</text>
<text transform="matrix(1 0 0 1 313.6671 -86.0554)" fill="#FFFFFF" font-family="'PTSans-NarrowBold'" font-size="18.1012px">A</text>
<text transform="matrix(1 0 0 1 322.8429 -86.0554)" fill="#FFFFFF" font-family="'PTSans-NarrowBold'" font-size="18.1012px">L</text>
<text transform="matrix(1 0 0 1 330.5421 -86.0554)" fill="#FFFFFF" font-family="'PTSans-NarrowBold'" font-size="18.1012px">L</text>
<text transform="matrix(1 0 0 1 338.0783 -86.0554)" fill="#FFFFFF" font-family="'PTSans-NarrowBold'" font-size="18.1012px">O</text>
<text transform="matrix(1 0 0 1 348.0675 -86.0554)" fill="#FFFFFF" font-family="'PTSans-NarrowBold'" font-size="18.1012px">O</text>
<text transform="matrix(1 0 0 1 358.0783 -86.0554)" fill="#FFFFFF" font-family="'PTSans-NarrowBold'" font-size="18.1012px"> </text>
<text transform="matrix(1 0 0 1 303.4123 -70.9714)" fill="#FFFFFF" font-family="'PTSans-Narrow'" font-size="18.1012px">D</text>
<text transform="matrix(1 0 0 1 312.8195 -70.9714)" fill="#FFFFFF" font-family="'PTSans-Narrow'" font-size="18.1012px">E</text>
<text transform="matrix(1 0 0 1 320.5841 -70.9714)" fill="#FFFFFF" font-family="'PTSans-Narrow'" font-size="18.1012px">S</text>
<text transform="matrix(1 0 0 1 328.0314 -70.9714)" fill="#FFFFFF" font-family="'PTSans-Narrow'" font-size="18.1012px">I</text>
<text transform="matrix(1 0 0 1 332.0607 -70.9714)" fill="#FFFFFF" font-family="'PTSans-Narrow'" font-size="18.1012px">G</text>
<text transform="matrix(1 0 0 1 340.9337 -70.9714)" fill="#FFFFFF" font-family="'PTSans-Narrow'" font-size="18.1012px">N</text>
<text transform="matrix(1 0 0 1 308.2569 -19.785)" font-family="'AdelleSans-Bold'" font-size="12px">K</text>
<text transform="matrix(0.9923 -0.1235 0.1235 0.9923 314.4298 -16.6255)" font-family="'AdelleSans-Bold'" font-size="13.8193px">S</text>
<path d="M206.9-18.2c-1.1,0.8-2.1,1.6-3.1,2.5c26.1-16.5,60.9-10.2,79.3,15.2s13.8,60.3-9.9,80.1c1.1-0.7,2.2-1.4,3.3-2.2
	c26.4-19.2,32.2-56.2,13-82.6S233.3-37.5,206.9-18.2z"/>
<path d="M271.7,80.9c1.1-0.8,2.1-1.6,3.1-2.5c-26.1,16.5-60.9,10.2-79.3-15.2s-13.8-60.3,9.9-80.1c-1.1,0.7-2.2,1.4-3.3,2.2
	c-26.4,19.2-32.2,56.2-13,82.6S245.3,100.1,271.7,80.9z"/>
<text transform="matrix(1 0 0 1 -87.4509 -162.8501)" fill="#67C6B0" font-family="'FuturaPT-Book'" font-size="12px">6</text>
<text transform="matrix(1 0 0 1 -81.0788 -162.8501)" fill="#67C6B0" font-family="'FuturaPT-Book'" font-size="12px">7</text>
<text transform="matrix(1 0 0 1 -74.863 -162.8501)" fill="#67C6B0" font-family="'FuturaPT-Book'" font-size="12px">C</text>
<text transform="matrix(1 0 0 1 -67.1833 -162.8501)" fill="#67C6B0" font-family="'FuturaPT-Book'" font-size="12px">6</text>
<text transform="matrix(1 0 0 1 -60.4319 -162.8501)" fill="#67C6B0" font-family="'FuturaPT-Book'" font-size="12px">B</text>
<text transform="matrix(1 0 0 1 -54.0598 -162.8501)" fill="#67C6B0" font-family="'FuturaPT-Book'" font-size="12px">0</text>
</svg>
