<svg xmlns="http://www.w3.org/2000/svg" id="Layer_1" viewBox="0 0 70.9 70.9"><style>.st0{fill:#79c19e}</style><switch><g><path d="M51.9 36.3c-.5-.3-1.1-.4-1.7-.2-.9.2-1.5.7-1.8 1.5-.3.8-.3 1.5-.2 2.2.2.7.5 1.1 1 1.4.5.3 1 .4 1.7.2.9-.2 1.5-.7 1.8-1.5.3-.7.4-1.5.2-2.3-.2-.5-.5-1-1-1.3zM27.6 28.1c-.4-.2-.9-.2-1.5 0-.5.1-1 .4-1.3.8-.3.4-.6.9-.6 1.5l4.5-1.2c-.3-.6-.6-.9-1.1-1.1zM35.1 40.8c-.5-.3-1.1-.4-1.8-.2-.8.2-1.3.7-1.7 1.4-.4.7-.5 1.5-.2 2.4.2.7.5 1.2 1 1.5.5.3 1.1.4 1.7.2.5-.1 1-.4 1.3-.7.3-.3.6-.8.7-1.4.1-.6.1-1.1 0-1.6-.1-.8-.5-1.3-1-1.6z" class="st0"/><path d="M35.4 0C15.9 0 0 15.9 0 35.4s15.9 35.4 35.4 35.4S70.9 55 70.9 35.4 55 0 35.4 0zm12.8 20.2l.1.9c.6-1 1.4-1.6 2.3-1.8.8-.2 1.4-.1 2 .2s1 .9 1.2 1.6c.1.3.2.9.3 1.6l.6 5.1-2.1.6-.6-5c-.1-.5-.1-.9-.2-1.1-.1-.4-.3-.6-.5-.7-.3-.1-.6-.2-.9-.1-.4.1-.7.3-1 .7-.3.3-.5.8-.6 1.3-.1.5 0 1.4.1 2.6l.4 3.2-2.1.6-1.1-9 2.1-.7zm-12 5.6c.2-.9.7-1.7 1.3-2.3.6-.6 1.3-1.1 2.1-1.3.5-.1 1.1-.2 1.6 0 .5.1 1 .4 1.4.8l-.2-1.3 2.1-.6 1.1 9-2.1.6-.1-1c-.3.6-.7 1-1.1 1.3-.4.3-.8.5-1.3.6-1.2.3-2.2.1-3.1-.5-.9-.7-1.5-1.6-1.8-2.7-.2-.8-.2-1.7.1-2.6zm-3-1.6l.2 1.2c.3-1.1.9-1.7 1.7-2 .2-.1.4-.1.6 0l-.3 2.2H35c-.4.1-.7.5-.9 1-.2.6-.2 1.6 0 3.1l.5 3.4-2.1.6-1.1-9 1.8-.5zm-10.6 4.2c.7-1.2 1.7-2 3.1-2.4.8-.2 1.6-.2 2.3 0 .7.2 1.4.6 1.9 1.2.6.6.9 1.3 1.1 2.1.1.3.1.6.2.9L24.3 32c.2.6.5 1 1 1.3.5.3 1 .3 1.7.1.8-.2 1.4-.7 1.9-1.4l2.1.5c-.3.7-.7 1.3-1.3 1.8-.6.5-1.3.9-2.2 1.1-1.3.4-2.5.3-3.4-.3-1-.5-1.6-1.4-1.9-2.7-.4-1.4-.3-2.8.4-4zm-4.4-3.5c.2-.3.5-.5.8-.6.4-.1.7-.1 1 .1.3.2.5.5.6.8.1.4.1.7-.1 1-.2.3-.5.5-.8.6-.4.1-.7.1-1-.1-.3-.2-.5-.5-.6-.8-.1-.4-.1-.7.1-1zm3.5 11.8l-2.1.6-1.1-9 2.1-.6 1.1 9zM9.1 27.4l2.2-.6.5 4.1 2.7-5 2.7-.7-3.6 6.8 5.8 5.3-2.5.7-4.7-4.3.7 5.4-2.2.6-1.6-12.3zM19.6 51c-.5.8-1.3 1.4-2.3 1.7-1.6.4-3.1 0-4.5-1.2l1.3-1.8c1 .9 1.8 1.2 2.6 1 .4-.1.7-.3.9-.6.2-.3.2-.6.2-1-.1-.3-.2-.5-.5-.8-.3-.3-.9-.8-1.9-1.3-1-.6-1.7-1.1-2-1.5-.5-.5-.8-1-.9-1.5-.2-.7-.1-1.4.2-2.1.4-.9 1.1-1.5 2.1-1.7 1.4-.4 2.7 0 4 1l-1.2 1.9c-.9-.7-1.6-.9-2.2-.8-.3.1-.5.2-.6.4-.1.2-.2.4-.1.7.1.2.2.4.5.7.2.2.9.7 2 1.4.6.4 1 .6 1.2.8.5.4.8.7 1.1 1.1.3.4.4.8.6 1.2.1.7 0 1.6-.5 2.4zm7.1-1.2l-.6-4.9c-.1-.5-.1-.9-.2-1.1-.1-.4-.3-.6-.5-.7-.3-.1-.6-.2-.9-.1-.4.1-.7.3-1 .7-.3.3-.5.8-.5 1.3-.1.5 0 1.4.1 2.6l.4 3.2-2.1.6-1.5-12.6 2.1-.6.5 4.5c.6-1 1.4-1.6 2.3-1.8.8-.2 1.4-.1 2 .2.6.3 1 .9 1.2 1.6.1.3.2.9.3 1.6l.6 5.1-2.2.4zm10-2.7l-.1-1c-.3.6-.7 1-1.1 1.3-.4.3-.8.5-1.3.6-1.2.3-2.2.1-3.1-.5-.9-.7-1.5-1.6-1.8-2.7-.2-.9-.2-1.7 0-2.6.2-.9.7-1.7 1.3-2.3.6-.6 1.3-1.1 2.1-1.3.5-.1 1.1-.2 1.6 0 .5.1 1 .4 1.4.8l-.2-1.3 2.1-.6 1.1 9-2 .6zm3.5-.9l-1.6-12.5 2.1-.6 1.6 12.5-2.1.6zm3.4-.9L42 32.8l2.1-.6 1.6 12.5-2.1.6zm10.9-4.2c-.7 1.2-1.8 2-3.2 2.4-1.2.3-2.3.2-3.3-.3-.9-.6-1.6-1.4-1.9-2.6-.4-1.5-.2-2.8.5-4 .7-1.2 1.8-2 3.1-2.4.8-.2 1.5-.2 2.3 0 .7.2 1.4.6 1.9 1.1.5.6.9 1.3 1.1 2.1.4 1.2.2 2.5-.5 3.7zm6.4-.2c-1.2.3-2.3.2-3.3-.3-.9-.6-1.6-1.4-1.9-2.6-.4-1.5-.2-2.8.5-4 .7-1.2 1.8-2 3.1-2.4.8-.2 1.5-.2 2.3 0 .7.2 1.4.6 1.9 1.1.5.6.9 1.3 1.1 2.1.4 1.4.2 2.6-.5 3.9-.7 1-1.7 1.8-3.2 2.2z" class="st0"/><path d="M61.5 33.7c-.5-.3-1.1-.4-1.7-.2-.9.2-1.5.7-1.8 1.5-.3.8-.3 1.5-.2 2.2.2.7.5 1.1 1 1.4.5.3 1 .4 1.7.2.9-.2 1.5-.7 1.8-1.5.3-.7.4-1.5.2-2.3-.2-.5-.5-1-1-1.3zM39.4 29.4c.5.3 1.1.4 1.7.2.5-.1 1-.4 1.3-.7.3-.3.6-.8.7-1.4.1-.6.1-1.1 0-1.6-.2-.7-.5-1.2-1-1.5-.5-.3-1.1-.4-1.8-.2-.8.2-1.3.7-1.7 1.4-.4.7-.5 1.5-.2 2.4.1.6.5 1.1 1 1.4z" class="st0"/></g></switch></svg>
