<svg fill="none" height="150" viewBox="0 0 250 150" width="250" xmlns="http://www.w3.org/2000/svg" xmlns:xlink="http://www.w3.org/1999/xlink"><clipPath id="a"><path d="m0 0h250v150h-250z"/></clipPath><g clip-path="url(#a)" fill="#000"><path d="m186.781 126.664h-60.091v-59.8044h60.091zm-63.689-64.6886-27.9193-43.741 27.9193-11.17941zm0 62.1926-27.4831-27.3518 27.4831-27.3517zm-57.474 2.496 27.4826-27.3514 27.4824 27.3514zm-2.6174-57.308 27.4826 27.3516-27.4826 27.4604zm0-62.30101.2181.10854 27.7007 10.96237-27.9188 43.8495zm57.6914 59.80461-27.5914 27.3517-27.4826-27.3517zm-54.3106-3.5818.2181-.3256 26.5011-41.4616 26.7194 41.7872zm56.0556-59.80457-29.3364 11.72217h-.1091l-29.2275-11.72217zm67.834 61.64977c0-.9769-.872-1.8452-1.854-1.8452h-61.727v-61.43265c0-.976843-.872-1.84515-1.854-1.84515h-63.4713c-.9815 0-1.854.868307-1.854 1.84515v126.98985l.1091.109c0 .108 0 .217.1091.217v.108l.109.217.2181.217.3272.217s.1091 0 .1091.109l.2181.108h-.1091.2181l.2182.109h127.5974c.982 0 1.854-.868 1.854-1.845z"/><path d="m141.959 111.36c-3.927-3.907-6.108-9.117-6.108-14.6523 0-11.3966 9.27-20.6223 20.721-20.6223 5.562 0 10.797 2.1708 14.723 6.0781 3.926 3.9074 6.107 9.1173 6.107 14.6527 0 11.3968-9.27 20.6218-20.721 20.6218-5.562 0-10.687-2.17-14.722-6.078zm38.824-14.5438c0-6.4038-2.508-12.3734-7.089-16.932-4.471-4.5586-10.578-7.1635-17.013-7.1635-13.305 0-24.101 10.7453-24.101 23.987 0 13.2413 10.796 23.9873 24.101 23.9873s24.102-10.746 24.102-23.8788zm-29.227 52.9668h8.07c.218 0 .436-.109.436-.434v-8.683c0-.217-.109-.434-.436-.434h-.982c-.218 0-.436.108-.436.434v7.38h-5.344v-7.272c0-.217-.109-.434-.436-.434h-.981c-.219 0-.437.109-.437.434v8.792c.109.108.328.217.546.217zm-84.6293-1.954h-5.4529v-10.854c0-.217-.2181-.434-.4362-.434h-1.0906c-.2181 0-.4363.217-.4363.434v12.374c0 .217.1091.434.4363.434h7.0887c.2182 0 .4363-.109.4363-.434v-1.086c-.1091-.217-.2181-.434-.5453-.434zm8.1793-.542c-.5453.542-1.1996.868-1.963.868s-1.4178-.326-1.9631-.868c-.5452-.543-.7634-1.303-.7634-2.28s.2182-1.736.7634-2.279c.5453-.543 1.1997-.868 1.9631-.868s1.4177.325 1.963.868.7634 1.302.7634 2.279c0 .869-.3271 1.628-.7634 2.28zm-1.963-7.273c-1.3087 0-2.5083.435-3.3808 1.411-.8725.869-1.3087 2.063-1.3087 3.582 0 1.52.4362 2.714 1.3087 3.582s1.963 1.411 3.3808 1.411c1.3087 0 2.5083-.434 3.3808-1.411.8724-.868 1.3087-2.062 1.3087-3.582 0-1.519-.4363-2.713-1.3087-3.582-.9815-.976-2.0721-1.411-3.3808-1.411zm23.8837 7.273c-.4362.542-.9815.868-1.7449.868-.7635 0-1.3087-.326-1.745-.868-.4362-.543-.6543-1.411-.6543-2.28 0-.868.2181-1.736.6543-2.279.4363-.543 1.0906-.868 1.745-.868.6543 0 1.3087.325 1.7449.868s.6543 1.411.6543 2.279c0 .869-.2181 1.628-.6543 2.28zm2.0721-10.637h-1.0906c-.2181 0-.4362.108-.4362.434v3.907c-.3272-.217-.5453-.434-.8725-.542-.5453-.217-1.0906-.326-1.6359-.326-1.1996 0-2.2902.434-3.0536 1.302-.7634.869-1.0906 2.063-1.0906 3.582 0 1.52.3272 2.714 1.0906 3.582s1.7449 1.302 3.0536 1.302c1.0906 0 1.9631-.325 2.6174-.868v.326c0 .217.1091.434.4363.434h1.0905c.2182 0 .4363-.109.4363-.434v-12.374c-.2181-.217-.3272-.325-.5453-.325zm9.1612 10.637c-.546.542-1.2.868-1.963.868-.764 0-1.418-.326-1.963-.868-.546-.543-.764-1.303-.764-2.28s.218-1.736.764-2.279c.545-.543 1.199-.868 1.963-.868.763 0 1.417.325 1.963.868.545.543.763 1.302.763 2.279 0 .869-.327 1.628-.763 2.28zm-1.963-7.273c-1.309 0-2.509.435-3.381 1.411-.873.869-1.309 2.063-1.309 3.582 0 1.52.436 2.714 1.309 3.582.872.868 1.963 1.411 3.381 1.411 1.417 0 2.508-.434 3.38-1.411.873-.977 1.309-2.062 1.309-3.582 0-1.519-.436-2.713-1.309-3.582-.872-.868-2.072-1.411-3.38-1.411zm31.845 3.365c-.655-.543-1.636-.868-2.945-1.302l-.763-.217c-.109 0-.328-.109-.655-.217-.327-.109-.545-.218-.545-.326-.109-.109-.327-.217-.436-.326-.109-.108-.218-.325-.327-.434 0-.108-.11-.325-.11-.543 0-.542.219-.868.546-1.193.436-.326.981-.435 1.636-.435.654 0 1.199.217 1.635.543.437.326.655.76.655 1.303 0 .217.218.434.436.434h1.2c.218 0 .436-.109.436-.434 0-1.086-.436-1.954-1.2-2.605-.763-.652-1.854-1.086-3.162-1.086-1.2 0-2.182.326-2.945.977s-1.2 1.628-1.2 2.714c0 1.085.328 1.845 1.091 2.387.654.543 1.636.977 3.054 1.303.981.217 1.635.543 2.181.868.436.326.654.651.654 1.194 0 .76-.218 1.303-.545 1.628-.436.326-1.091.543-1.963.543-.873 0-1.527-.217-1.963-.651-.436-.435-.764-.977-.764-1.628 0-.218-.109-.435-.436-.435h-1.309c-.218 0-.436.109-.436.435 0 1.193.436 2.279 1.309 3.039.872.759 1.963 1.085 3.381 1.085 1.308 0 2.399-.326 3.162-1.085.873-.76 1.309-1.737 1.309-3.148 0-1.085-.327-1.845-.981-2.388zm10.905 2.714h-1.199c-.218 0-.437.108-.437.325-.109.543-.218 1.086-.436 1.303s-.545.325-1.09.325c-1.091 0-1.527-.651-1.527-2.17v-4.016h3.272c.218 0 .436-.109.436-.435v-.976c0-.217-.109-.435-.436-.435h-3.272v-2.17c0-.217-.109-.434-.436-.434h-1.091c-.218 0-.436.108-.436.434v2.388h-1.418c-.218 0-.436.108-.436.434v.977c0 .217.109.434.436.434h1.418v4.016c0 1.302.327 2.17.872 2.93.546.651 1.418.977 2.509.977 1.09 0 1.963-.326 2.508-.977s.872-1.519.872-2.388v-.108c0-.217-.109-.326-.109-.434zm19.195 1.194c-.437.542-.982.868-1.745.868-.764 0-1.309-.326-1.745-.868-.437-.543-.655-1.411-.655-2.28 0-.868.218-1.736.655-2.279.436-.543 1.09-.868 1.745-.868.763 0 1.308.325 1.745.868.436.543.654 1.411.654 2.279 0 .869-.218 1.628-.654 2.28zm1.963-10.637h-1.091c-.218 0-.436.108-.436.434v3.907c-.327-.217-.546-.434-.873-.542-.545-.217-1.09-.326-1.636-.326-1.199 0-2.29.434-3.053 1.302-.764.869-1.091 2.063-1.091 3.582 0 1.52.327 2.714 1.091 3.582.763.868 1.745 1.302 3.053 1.302 1.091 0 1.963-.325 2.618-.868v.326c0 .217.109.434.436.434h1.091c.218 0 .436-.109.436-.434v-12.374c-.109-.217-.327-.325-.545-.325zm9.27 11.288h-2.291v-7.381c0-.217-.218-.434-.436-.434h-3.163c-.218 0-.436.109-.436.434v.977c0 .217.109.434.436.434h1.745v5.97h-2.181c-.218 0-.436.108-.436.434v.977c0 .217.109.434.436.434h6.326c.218 0 .436-.109.436-.434v-.977c-.109-.217-.218-.434-.436-.434zm8.179-.651c-.545.542-1.2.868-1.963.868-.764 0-1.418-.326-1.963-.868-.546-.543-.764-1.303-.764-2.28 0-.868.218-1.736.764-2.279.545-.543 1.199-.868 1.963-.868.763 0 1.418.325 1.963.868s.763 1.302.763 2.279c0 .869-.218 1.628-.763 2.28zm1.418-5.862c-.873-.868-1.963-1.411-3.381-1.411-1.309 0-2.509.435-3.381 1.411-.872.869-1.309 2.063-1.309 3.582 0 1.52.437 2.714 1.309 3.582s1.963 1.411 3.381 1.411c1.308 0 2.508-.434 3.381-1.411.872-.977 1.308-2.062 1.308-3.582 0-1.519-.436-2.713-1.308-3.582zm-13.742-2.713h1.527c.109 0 .327-.109.327-.326v-1.628c0-.217-.109-.325-.327-.325h-1.527c-.218 0-.327.108-.327.325v1.52c.109.325.109.434.327.434zm-86.8098 1.52h-8.0703c-.2181 0-.4363.108-.4363.434v8.791c0 .217.1091.434.4363.434h.9815c.2181 0 .4362-.108.4362-.434v-7.38h5.3439v7.38c0 .217.109.434.4362.434h.9815c.2181 0 .4363-.108.4363-.434v-8.791c-.2182-.326-.3272-.434-.5453-.434zm33.0448 0h-8.071c-.218 0-.436.108-.436.434v8.791c0 .217.109.434.436.434h.982c.218 0 .436-.108.436-.434v-7.489h5.344v7.381c0 .217.109.434.436.434h.982c.218 0 .436-.109.436-.434v-8.792c-.218-.217-.327-.325-.545-.325z"/></g></svg>