<svg id="Layer_1" data-name="Layer 1" xmlns="http://www.w3.org/2000/svg" viewBox="0 0 250 150"><path d="M125,21.6a31.3,31.3,0,1,0,31.3,31.3A31.35,31.35,0,0,0,125,21.6Zm-4.91,62.21V77.6a5.5,5.5,0,0,0-3.4-5A21.34,21.34,0,1,1,146.34,52.9C146.34,66.72,135.65,79.8,120.09,83.81Z" style="fill:#00caff"/><path d="M9.42,104.84q7.65,0,7.64,6.58v15.65a.59.59,0,0,1-.66.67h-.93a.62.62,0,0,1-.7-.67l-.18-1.9a12.54,12.54,0,0,1-8,3,6.65,6.65,0,0,1-4.84-1.74A6.25,6.25,0,0,1,0,121.81a6.31,6.31,0,0,1,2.19-5.08,9,9,0,0,1,6-1.86,19.6,19.6,0,0,1,3.1.27,21.1,21.1,0,0,1,3.23.75v-3.71a5,5,0,0,0-1.29-3.87A6.21,6.21,0,0,0,9,107.14a20.74,20.74,0,0,0-5.79.88c-.33.09-.58.17-.78.24a1.2,1.2,0,0,1-.46.11c-.35,0-.53-.19-.53-.57v-.71a.86.86,0,0,1,.57-.88,19.92,19.92,0,0,1,3.61-1A20.46,20.46,0,0,1,9.42,104.84ZM8.8,117c-4.13,0-6.19,1.6-6.19,4.78q0,4.16,4.38,4.15a11.36,11.36,0,0,0,3.62-.66,18.18,18.18,0,0,0,3.94-1.94v-5.53A22.59,22.59,0,0,0,8.8,117Z" style="fill:#232f3e"/><path d="M48.54,104.84a6,6,0,0,1,4.64,1.7,7.1,7.1,0,0,1,1.59,5v15.51a.59.59,0,0,1-.66.67H52.92a.59.59,0,0,1-.67-.67V112.62a6.94,6.94,0,0,0-1-4.2A3.85,3.85,0,0,0,48,107.14a13.16,13.16,0,0,0-8,2.78,16.47,16.47,0,0,1,.13,2.08v15.07a.59.59,0,0,1-.66.67h-1.2a.59.59,0,0,1-.66-.67V112.62a6.94,6.94,0,0,0-1-4.2,3.86,3.86,0,0,0-3.25-1.28,13.34,13.34,0,0,0-7.87,2.69v17.24a.59.59,0,0,1-.67.67H23.65a.59.59,0,0,1-.66-.67V106.16a.58.58,0,0,1,.66-.66h.89a.68.68,0,0,1,.75.66l.17,1.77a17.48,17.48,0,0,1,4.16-2.27,12,12,0,0,1,4.29-.82c2.77,0,4.62,1.13,5.57,3.4a16,16,0,0,1,4.44-2.54A13.09,13.09,0,0,1,48.54,104.84Z" style="fill:#232f3e"/><path d="M68.7,104.84q7.65,0,7.65,6.58v15.65a.59.59,0,0,1-.67.67h-.92a.63.63,0,0,1-.71-.67l-.18-1.9a12.52,12.52,0,0,1-8,3,6.66,6.66,0,0,1-4.84-1.74,6.25,6.25,0,0,1-1.79-4.67,6.31,6.31,0,0,1,2.19-5.08,9,9,0,0,1,6-1.86,19.58,19.58,0,0,1,3.09.27,20.83,20.83,0,0,1,3.23.75v-3.71a5,5,0,0,0-1.28-3.87,6.24,6.24,0,0,0-4.25-1.17,20.74,20.74,0,0,0-5.79.88c-.32.09-.58.17-.77.24a1.28,1.28,0,0,1-.47.11c-.35,0-.53-.19-.53-.57v-.71a.85.85,0,0,1,.58-.88,19.81,19.81,0,0,1,3.6-1A20.46,20.46,0,0,1,68.7,104.84ZM68.08,117c-4.13,0-6.19,1.6-6.19,4.78q0,4.16,4.38,4.15a11.26,11.26,0,0,0,3.62-.66,18.18,18.18,0,0,0,3.94-1.94v-5.53A22.53,22.53,0,0,0,68.08,117Z" style="fill:#232f3e"/><path d="M97.48,126.19v.88a.59.59,0,0,1-.66.67H81.25a.59.59,0,0,1-.66-.67v-.92a2,2,0,0,1,.11-.71,2.25,2.25,0,0,1,.42-.62l13.44-17.11H81.7a.59.59,0,0,1-.67-.66v-.89a.59.59,0,0,1,.67-.66h15a.58.58,0,0,1,.66.66v.93a2.09,2.09,0,0,1-.11.67,2.31,2.31,0,0,1-.46.7L83.33,125.53H96.82A.58.58,0,0,1,97.48,126.19Z" style="fill:#232f3e"/><path d="M110.48,128.4a9.53,9.53,0,0,1-7.54-3.07c-1.82-2-2.72-5-2.72-8.73s.9-6.68,2.72-8.71a10.83,10.83,0,0,1,15.07,0q2.71,3,2.72,8.71T118,125.33A9.52,9.52,0,0,1,110.48,128.4Zm0-2.3q7.63,0,7.64-9.5t-7.64-9.46q-7.65,0-7.65,9.46T110.48,126.1Z" style="fill:#232f3e"/><path d="M137.26,104.84a6.65,6.65,0,0,1,5,1.7,6.86,6.86,0,0,1,1.68,5v15.51a.59.59,0,0,1-.67.67H142a.59.59,0,0,1-.66-.67V112.62a6.36,6.36,0,0,0-1.11-4.2,4.43,4.43,0,0,0-3.54-1.28,13.5,13.5,0,0,0-4.46.73,17.31,17.31,0,0,0-4.16,2.1v17.1a.59.59,0,0,1-.66.67h-1.19a.59.59,0,0,1-.67-.67V106.16a.59.59,0,0,1,.67-.66h.88a.68.68,0,0,1,.75.66l.18,1.9a17.44,17.44,0,0,1,4.51-2.38A14,14,0,0,1,137.26,104.84Z" style="fill:#232f3e"/><path d="M168.52,104.84q7.65,0,7.65,6.58v15.65a.59.59,0,0,1-.66.67h-.93a.63.63,0,0,1-.71-.67l-.18-1.9a12.52,12.52,0,0,1-8,3,6.66,6.66,0,0,1-4.84-1.74,6.25,6.25,0,0,1-1.79-4.67,6.31,6.31,0,0,1,2.19-5.08,9,9,0,0,1,6-1.86,19.58,19.58,0,0,1,3.09.27,20.83,20.83,0,0,1,3.23.75v-3.71a5,5,0,0,0-1.28-3.87,6.24,6.24,0,0,0-4.25-1.17,20.74,20.74,0,0,0-5.79.88c-.32.09-.58.17-.77.24a1.28,1.28,0,0,1-.47.11c-.35,0-.53-.19-.53-.57v-.71a.85.85,0,0,1,.58-.88,19.81,19.81,0,0,1,3.6-1A20.46,20.46,0,0,1,168.52,104.84ZM167.9,117c-4.13,0-6.19,1.6-6.19,4.78q0,4.16,4.38,4.15a11.26,11.26,0,0,0,3.62-.66,18.18,18.18,0,0,0,3.94-1.94v-5.53A22.53,22.53,0,0,0,167.9,117Z" style="fill:#232f3e"/><path d="M182,95.69a.59.59,0,0,1,.67-.67h1.19a.59.59,0,0,1,.66.67v28.2a2,2,0,0,0,.38,1.37,1.8,1.8,0,0,0,1.35.4c.17,0,.37,0,.59,0a4.58,4.58,0,0,1,.56-.05.55.55,0,0,1,.62.62V127a.65.65,0,0,1-.58.66,3.45,3.45,0,0,1-.77.14c-.34,0-.64,0-.91,0a3.64,3.64,0,0,1-2.76-1,4,4,0,0,1-1-2.89Z" style="fill:#232f3e"/><path d="M206.08,125.35c.38-.12.66-.21.84-.29a1.37,1.37,0,0,1,.49-.11c.35,0,.53.19.53.58v.62a.9.9,0,0,1-.49.92,17.32,17.32,0,0,1-6.77,1.33c-3.38,0-6-1-7.75-2.94s-2.68-4.83-2.68-8.6a16.68,16.68,0,0,1,.71-5,10.93,10.93,0,0,1,2-3.8,8.75,8.75,0,0,1,3.3-2.38,11.09,11.09,0,0,1,4.37-.82,9,9,0,0,1,5.95,1.77,6.11,6.11,0,0,1,2.1,5,5.15,5.15,0,0,1-2.23,4.62c-1.49,1-3.8,1.48-6.92,1.48a29.61,29.61,0,0,1-3.38-.2,19.88,19.88,0,0,1-3.38-.69q0,4.78,2,7t6,2.28A18.82,18.82,0,0,0,206.08,125.35Zm-5.62-18.26a7,7,0,0,0-5.23,2,9.19,9.19,0,0,0-2.33,5.7,28.36,28.36,0,0,0,3.43.66,26.11,26.11,0,0,0,3.43.22,9.37,9.37,0,0,0,4.86-1,3.39,3.39,0,0,0,1.55-3.09Q206.17,107.09,200.46,107.09Z" style="fill:#232f3e"/><path d="M220.88,117.92l-6.41,9.33a1.09,1.09,0,0,1-.93.49H212.3c-.38,0-.57-.16-.57-.49a1.14,1.14,0,0,1,.31-.57l7.56-10.53-6.9-9.63a1.46,1.46,0,0,1-.26-.53c0-.33.19-.49.57-.49h1.37a1.09,1.09,0,0,1,.93.49l5.79,8.22,5.79-8.22a1.06,1.06,0,0,1,.89-.49H229c.38,0,.58.16.58.49a1.28,1.28,0,0,1-.27.57L222.47,116l7.56,10.7a1.24,1.24,0,0,1,.27.57c0,.33-.19.49-.58.49h-1.37a1,1,0,0,1-.88-.49Z" style="fill:#232f3e"/><path d="M242.35,104.84q7.65,0,7.65,6.58v15.65a.59.59,0,0,1-.66.67h-.93a.64.64,0,0,1-.71-.67l-.17-1.9a12.54,12.54,0,0,1-8,3,6.63,6.63,0,0,1-4.84-1.74,6.21,6.21,0,0,1-1.79-4.67,6.33,6.33,0,0,1,2.18-5.08,9.05,9.05,0,0,1,6-1.86,19.58,19.58,0,0,1,3.09.27,20.83,20.83,0,0,1,3.23.75v-3.71a5,5,0,0,0-1.28-3.87,6.24,6.24,0,0,0-4.25-1.17,20.85,20.85,0,0,0-5.79.88c-.32.09-.58.17-.77.24a1.24,1.24,0,0,1-.46.11q-.54,0-.54-.57v-.71a.87.87,0,0,1,.58-.88,19.81,19.81,0,0,1,3.6-1A20.54,20.54,0,0,1,242.35,104.84ZM241.73,117c-4.12,0-6.19,1.6-6.19,4.78q0,4.16,4.38,4.15a11.37,11.37,0,0,0,3.63-.66,18.34,18.34,0,0,0,3.93-1.94v-5.53A22.47,22.47,0,0,0,241.73,117Z" style="fill:#232f3e"/></svg>