<svg viewBox="0 0 250 150" xmlns="http://www.w3.org/2000/svg"><path d="m30.52 110.74v-7.18a6.37 6.37 0 0 0 -3.94-5.83 24.68 24.68 0 1 1 34.29-22.73c0 16-12.36 31.1-30.35 35.74m5.67-71.93a36.19 36.19 0 1 0 36.19 36.19 36.25 36.25 0 0 0 -36.19-36.19" fill="#00caff"/><g fill="#232f3e"><path d="m110.6 80q-10.53 0-10.53 8.13 0 7.08 7.45 7.08a19.31 19.31 0 0 0 6.17-1.13 31.51 31.51 0 0 0 6.7-3.31v-9.43a38 38 0 0 0 -9.79-1.34m1.06-20.69q13 0 13 11.21v26.62a1 1 0 0 1 -1.13 1.13h-1.53a1.08 1.08 0 0 1 -1.21-1.13l-.3-3.24q-6.48 5.2-13.54 5.2a11.29 11.29 0 0 1 -8.25-3 10.56 10.56 0 0 1 -3-7.93 10.76 10.76 0 0 1 3.72-8.66q3.74-3.16 10.27-3.16a34 34 0 0 1 5.27.45 39.74 39.74 0 0 1 5.5 1.28v-6.3q0-4.59-2.19-6.58t-7.23-2a35.2 35.2 0 0 0 -9.85 1.51c-.55.15-1 .29-1.32.41a2.26 2.26 0 0 1 -.79.19c-.6 0-.9-.32-.9-1v-1.2a1.46 1.46 0 0 1 1-1.51 32.82 32.82 0 0 1 6.13-1.73 35.66 35.66 0 0 1 6.44-.6"/><path d="m201.07 81.56-10.91 15.88a1.85 1.85 0 0 1 -1.58.83h-2.11c-.65 0-1-.27-1-.83a2.08 2.08 0 0 1 .53-1l12.87-17.91-11.74-16.4a2.35 2.35 0 0 1 -.46-.91c0-.54.33-.82 1-.82h2.33a1.89 1.89 0 0 1 1.58.82l9.86 14 9.85-14a1.84 1.84 0 0 1 1.51-.82h2c.65 0 1 .28 1 .82a2.16 2.16 0 0 1 -.45 1l-11.59 16 12.87 18.21a2.2 2.2 0 0 1 .45 1c0 .56-.33.83-1 .83h-2.33a1.79 1.79 0 0 1 -1.51-.83z"/><path d="m166.66 63.12q-5.64 0-8.92 3.32t-4 9.7a46.79 46.79 0 0 0 5.83 1.13 43.58 43.58 0 0 0 5.83.38c3.77 0 6.52-.55 8.28-1.66a5.75 5.75 0 0 0 2.64-5.26q0-7.61-9.71-7.61m9.56 31.09c.65-.2 1.13-.37 1.42-.49a2.1 2.1 0 0 1 .83-.19c.6 0 .91.32.91 1v1a1.56 1.56 0 0 1 -.83 1.58 29.55 29.55 0 0 1 -11.5 2.29q-8.66 0-13.2-5t-4.55-14.63a28 28 0 0 1 1.2-8.54 18.12 18.12 0 0 1 3.5-6.48 15 15 0 0 1 5.6-4.06 19 19 0 0 1 7.45-1.4q6.56 0 10.13 3a10.43 10.43 0 0 1 3.57 8.43q0 5.34-3.8 7.86t-11.78 2.52a48.75 48.75 0 0 1 -5.76-.34 35.3 35.3 0 0 1 -5.75-1.16q0 8.13 3.42 12c2.29 2.59 5.71 3.87 10.27 3.87a32 32 0 0 0 8.89-1.27"/><path d="m134.61 43.71a1 1 0 0 1 1.13-1.12h2a1 1 0 0 1 1.13 1.12v48a3.33 3.33 0 0 0 .64 2.33 3 3 0 0 0 2.29.68 7.83 7.83 0 0 0 1-.07 7.42 7.42 0 0 1 .94-.08.93.93 0 0 1 1.05 1v1.43a1.1 1.1 0 0 1 -1 1.14 6.14 6.14 0 0 1 -1.31.22c-.58 0-1.1.07-1.55.07a6.17 6.17 0 0 1 -4.7-1.77 6.79 6.79 0 0 1 -1.69-4.92z"/><path d="m235.93 80q-10.53 0-10.54 8.13 0 7.08 7.45 7.08a19.26 19.26 0 0 0 6.16-1.15 31.28 31.28 0 0 0 6.7-3.31v-9.41a37.91 37.91 0 0 0 -9.77-1.34m1-20.69q13 0 13 11.21v26.62a1 1 0 0 1 -1.13 1.13h-1.58a1.08 1.08 0 0 1 -1.2-1.13l-.31-3.24q-6.47 5.2-13.54 5.2a11.26 11.26 0 0 1 -8.24-3 10.57 10.57 0 0 1 -2.93-7.91 10.76 10.76 0 0 1 3.72-8.66q3.74-3.16 10.28-3.16a34.09 34.09 0 0 1 5.27.45 39.6 39.6 0 0 1 5.49 1.28v-6.32q0-4.59-2.18-6.58t-7.23-2a35.27 35.27 0 0 0 -9.86 1.51c-.55.15-1 .29-1.31.41a2.26 2.26 0 0 1 -.79.19c-.6 0-.91-.32-.91-1v-1.2a1.47 1.47 0 0 1 1-1.51 33.14 33.14 0 0 1 6.14-1.73 35.55 35.55 0 0 1 6.43-.6"/></g></svg>