<svg height="150" viewBox="0 0 250 150" width="250" xmlns="http://www.w3.org/2000/svg" xmlns:xlink="http://www.w3.org/1999/xlink"><mask id="a" fill="#fff"><path d="m0 .28791841v46.78281899h249.225018v-46.78281899z" fill="#fff" fill-rule="evenodd"/></mask><mask id="b" fill="#fff"><path d="m12.2822306 0h-12.00509932v10.4040926h12.00509932z" fill="#fff" fill-rule="evenodd"/></mask><g fill="#37aae6" fill-rule="evenodd"><path d="m182.01386 15.4605126c-.015691.2078974-.190246.3628399-.39226.3785303h-13.364278c-.217704 0-.400104-.1686716-.415795-.3844142l.017652-.9845712c.266736-6.6742939 6.221234-6.75470708 6.917495-6.75470708h.207897c.696261 0 6.158473-.09414226 6.958682 6.79589438 0 0 .037265.4354079.054916.7649058.017652.3275366.015691.184362.015691.184362zm-126.283996 12.3012552h-.1510199c-4.7424163 0-7.1489278-3.4106956-7.1489278-10.134022 0-6.1682793 2.6320607-9.70645919 7.2156119-9.70645919 4.6031643 0 7.2352249 3.53817989 7.2352249 9.70645919 0 6.7233264-2.4065115 10.134022-7.1508891 10.134022zm173.99647-25.5910042s-.943384-.0019613-1.129707.63546025c-.186324.63742155-3.697045 17.87918405-3.697045 17.87918405s-.056878.4432532-.46875.4432532c-.254969 0-.413834-.2098588-.462867-.4609048l-4.087343-18.14592053-.011767.0019613c-.125523-.38441422-.596235-.35303347-.596235-.35303347h-9.892782s-.517783.03334205-.690377.70410565c-.035303.12748431-3.828452 17.82622905-3.828452 17.82622905s-.029419.4275628-.458943.4275628c-.253007 0-.42364-.2137814-.46875-.4510983l-3.910826-18.09296552c-.100027-.44521443-.411873-.41383368-.411873-.41383368h-11.950183c-.784519 0-.433447.61976987-.433447.61976987l.635461 1.77693515c.027458.04314853.039226.08237448.050993.1314069v.0039226c.007846.02745816.015691.05687761.015691.08825837 0 .25692991-.203975.4628661-.460905.4628661-.096104 0-.186323-.03138075-.262814-.08237447-.035303-.02353557-.062761-.05295502-.092181-.08629707l-.54524-.51189854c-3.455806-2.89487448-6.790011-4.09322699-11.893306-4.28151151l-.141213-.00392259c-8.370816 0-12.373823 3.57740586-14.266475 5.67403243-1.802432 1.99463912-2.826229 4.72476466-3.455806 6.69390686-.041187.1235618-.086297.1961297-.131406.237317-.09022.1039487-.221627.1686715-.368724.1686715-.272621 0-.476595-.2039749-.476595-.4746339v-.0019613c-.005884-.0098064-.007846-.0176516-.007846-.0176516v-9.95162137s.027458-.1961297-.117677-.32753661c-.166711-.15298117-.382453-.11767782-.382453-.11767782h-22.909912s-.172594-.02745816-.309884.09806485c-.172595.15690377-.162788.25300732-.162788.25300732l-3.995162 18.26752093s-.094142.3667625-.482479.3667625c-.384415 0-.421679-.3471495-.421679-.3471495l-4.044195-18.22829501s0-.15886507-.135329-.2726203c-.264775-.22947175-.384414-.13729079-.384414-.13729079h-22.9687505s-.5040533-.05687762-.5040533.38637552c0 3.03804916.0235356 13.99973848.0235356 14.75876048v.145136c.0490324 3.1674947-.6668411 5.5190899-2.1221235 6.9979079-1.0865586 1.1042103-2.5398797 1.6612186-4.3285826 1.6612186-1.7710513 0-3.2204498-.5570083-4.3011245-1.6612186-1.0139906-1.0257584-2.2084205-3.0792364-2.1476203-7.0135983v-.1216004c0-.5177825.0156904-11.4716266.0156904-14.67246342 0-.51582113-.5315115-.47659519-.5315115-.47659519h-11.2068515s-.5197437.03726465-.5138598.42167887c.0058839.28438808-.0451098 4.57374477 0 7.00771444.0156904.6158473-.6786088.633499-.8884676.21182008-.1941684-.34714958-.3451883-.6021182-.3451883-.6021182-.8766998-1.59649582-1.9436454-2.95175209-3.1753399-4.02654289-3.1812239-2.74973849-7.6961297-4.24424686-13.4113494-4.43645397l-.1627877-.00588389c-7.5568776 0-12.0266736 2.72816422-14.439069 5.0189592l-.6197699.58642783s-.3020397.37853033-.6511506.17259414c-.3314592-.19220711-.1000261-.59231172-.1000261-.59231172l1.0924424-3.16161087s.1216004-.25104603-.1078713-.46090482c-.2333944-.21378138-.36284-.13729079-.36284-.13729079h-12.022751c-.0411873 0-.0862971-.0019613-.1294456-.0039226-.0941423-.00784518-.3471496.00784519-.4275628.34126569-.0804132.32753662-3.3675471 12.29341001-4.6875 17.16527201-.2432008.898274-.864932.7904027-1.0747908.0784518-.0686454-.2275104-4.5149058-16.99267778-4.5149058-16.99267778s-.092181-.43540795-.2883107-.53935669c-.1961297-.10983264-.435408-.04903243-.435408-.04903243h-11.63441419s-.396182-.03138075-.63153765.20593619c-.23927825.23927824-.04118724.81589958-.04118724.81589958l10.39291318 29.90978033c.5373954 1.5278504.8668933 2.4908473.8668933 2.9831329 0 1.7671286-1.6180701 2.0024843-3.1969142 2.0024843l-7.29406383-.0274582c-.65703452-.0019613-1.26503661.3471496-1.59453452.9159257l-3.88729079 6.7174425c-.16474896.2843881-.16474896.6354603 0 .917887.16278765.2843881.4667887.4589435.79432531.4589435l15.82570603-.0117677c2.8634938 0 5.3327668.052955 7.8216528-1.9377615 2.4065115-1.9554132 3.5774058-4.8679394 4.6561192-7.9334467l6.3212605-18.1871077s.0764905-.3118463.3844142-.3118463c.3079236 0 .3255753.3883369.3255753.3883369l.1216004 1.3964435c.5020921 6.6644874 4.0108525 10.3399581 6.0564854 11.9364539 3.2910565 2.5732218 7.5941422 3.8794456 12.7915795 3.8794456 9.2377092 0 13.9487447-4.087343 15.541318-5.8446652 1.2768044-1.40625 2.2868724-3.0713912 3.0027458-4.9463912l.1863232-.4962082s.0588389-.3157688.4334467-.3157688c.3196914 0 .409911.2549686.409911.2549686l.2039749.5687761c1.2552302 3.4832636 3.320476 5.6799164 4.8345973 6.9076883 3.1929917 2.5692992 7.354864 3.8716004 12.3699006 3.8716004h.7511768c5.011114 0 9.1769086-1.3023012 12.3718616-3.875523 2.214305-1.7945868 5.932924-5.9446914 5.940769-13.5604079v-7.7098588s-.035303-.5256276.45306-.5256276c.358917 0 .435408.3079236.435408.3079236l8.298248 24.1337605s.023535.0980648.168671.198091c.145136.0961035.292233.0862971.292233.0862971h13.466266s.084336.0372646.28635-.1059101c.200052-.145136.200052-.2941945.200052-.2941945l7.221496-23.4433839s.096103-.5785827.609963-.5785827c.562892 0 .429524.9728034.429524.9728034l-.017652 22.9962081s-.025496.1588651.141214.3275366c.172594.1686716.319691.1294457.319691.1294457h11.79328s.180439.0058838.315768-.1412134c.137291-.1431747.145136-.2196653.145136-.2981172v-10.5576621c0-.4040272.384415-.4432532.384415-.4432532s.305962-.1725941.541318.3726465c.045109.1137552.072568.2333943.113755.3530335.841396 2.4947698 2.330021 5.4896705 4.909126 7.4901935 2.790926 2.1672332 6.338912 3.2204498 12.105126 3.2204498h17.694822s.704106.0804131.456982-.7374477l-1.735748-5.2778505c-.129445-.3412656-.274581-.7099895-.411872-1.076752-.254969-.6609572-.89239-.9198484-1.469012-1.0120293l-14.621469-.0058839c-2.61637 0-4.346235-1.1610879-5.197437-3.4185408 0 0-.141214-.3765691-.003923-.6021182.15102-.2588912.486402-.2255492.486402-.2255492l22.15285.0058839c.096104-.0156904.194168-.0294195.294195-.0294195.927693 0 1.696522.653112 1.878922 1.5258892l.017652.0117678 3.363624 10.2850418s.013729.5570084.682532.5570084h11.832505c.45306 0 .617809-.4412919.617809-.4412919l3.879445-15.0451098c0-.2530073.205936-.4628661.460905-.4628661s.462866.2098588.462866.4628661l4.242286 15.4864017h12.82296l6.927301-23.2550994s.188285-.5432793.49817-.719796c.307923-.1784781.743331-.2078975.743331-.2078975l4.909127.0078452c.766867 0 1.455282-.4765952 1.722019-1.19639125l2.598718-6.99202406c.070607-.18828452.043149-.39814331-.070606-.56289226-.115717-.16474895-.30204-.26281381-.504054-.26281381z" mask="url(#a)" transform="translate(0 56.767782)"/><path d="m12.2822306.6113363c0-.3353818-.2745815-.61192469-.6119246-.61192469h-10.78125004c-.3353818 0-.61192468.27654289-.61192468.61192469v9.18083159c0 .33734311.27654288.61192471.61192468.61192471h10.78125004c.3373431 0 .6119246-.2745816.6119246-.61192471z" mask="url(#b)" transform="translate(143.174686 45)"/></g></svg>