<svg viewBox="0 0 250 150" xmlns="http://www.w3.org/2000/svg"><path d="m206.57 72.94a81.66 81.66 0 0 0 -1.5-13.94 80.38 80.38 0 0 0 -6.21-18.8 81.32 81.32 0 0 0 -16.36-23.2 1 1 0 0 0 -1.14-.28c-5.43 1.33-10.86 2.62-16.28 3.94-.56.14-.77 0-1-.53-1.28-4-2.61-7.91-3.93-11.86-.3-.91-.62-1.81-1-2.82l-13.74 8.87-8.88-14.32-12.35 12.07-12.36-11.89-8.7 14.69-13.93-8.52-.27.76-4.26 13.89c-.39 1.25-.2.66-3.14.32a73 73 0 0 1 -14.06-3.12c-1.56-.49-1.12.65-4.93 5a74.06 74.06 0 0 0 -13.06 20.9 81.35 81.35 0 0 0 18.15 88.8 1.31 1.31 0 0 0 1.21.33c5.38-1.32 10.76-2.6 16.15-3.91.49-.11.72-.05.89.46 1.34 4.11 2.71 8.21 4.07 12.31.27.8.55 1.6.84 2.45l13.74-8.87 9 14.37 12.35-12.07 12.35 11.88 8.7-14.7 13.93 8.53a15.37 15.37 0 0 0 .64-2.2 59.56 59.56 0 0 1 3.3-10.77c1.37-3.35-.07-2.41 3.79-2a80.08 80.08 0 0 1 13.91 3.1 1 1 0 0 0 1.18-.27c1.06-1.19 2.18-2.34 3.22-3.54a81.08 81.08 0 0 0 19.71-55zm-46.7 27.12a42.21 42.21 0 0 1 -19.07 14.86 42.85 42.85 0 0 1 -54.94-22.57 41.21 41.21 0 0 1 -2-28.65 42.06 42.06 0 0 1 17.94-24.38 41.1 41.1 0 0 1 17.76-6.55 42.9 42.9 0 0 1 41.88 19.74c.28.45.42.73-.2 1.09q-8.49 5.07-17 10.19c-.17.11-.35.19-.58.32-4.17-6.4-9.94-10.07-17.55-10.47a20.7 20.7 0 0 0 -16.11 6.17 21.59 21.59 0 1 0 33.67 26.39l18.47 10.42c-.79 1.2-1.48 2.38-2.27 3.44z"/></svg>