<svg fill="none" height="150" viewBox="0 0 250 150" width="250" xmlns="http://www.w3.org/2000/svg"><g fill="#000"><path d="m14.7063 72.9152c-5.0155 0-8.39709 3.9448-8.39709 9.0158 0 5.0701 3.3816 9.0167 8.39709 9.0167 5.0156-.0001 8.3972-3.9466 8.3972-9.0167-.0001-5.071-3.3816-9.0158-8.3972-9.0158zm-1.1272-5.635c4.0576 0 7.4392 2.0851 9.0167 4.3395v-3.7764h6.1982v28.1736h-4.2103c-1.0979 0-1.9879-.8901-1.9879-1.988v-1.7857c-1.5775 2.2544-4.9591 4.3377-9.0167 4.3377-7.71839 0-13.57909318-6.5921-13.5791-14.6499s5.86069-14.6508 13.5791-14.6508z"/><path d="m35.8323 67.8435h6.2001v3.832c1.6885-2.8176 4.9018-4.3951 8.5645-4.3951 6.5357 0 10.7616 4.6207 10.7616 11.776v16.9607h-4.2103c-1.0979 0-1.9879-.89-1.9879-1.9879v-13.9575c0-4.4524-2.2544-7.1562-5.8598-7.1562-4.1131 0-7.2681 3.2114-7.2681 9.2395v13.8621h-4.2121c-1.0979 0-1.988-.89-1.988-1.9879z"/><path d="m80.9703 72.9153c-5.0137 0-8.3953 3.9447-8.3953 9.0157 0 5.0701 3.3816 9.0167 8.3953 9.0167s8.3953-3.9466 8.3953-9.0167c0-5.071-3.3816-9.0157-8.3953-9.0157zm-1.1272-5.6351c4.0575 0 7.4382 2.0852 9.0157 4.3395v-17.8623h6.1973v42.2595h-4.2094c-1.0978 0-1.9879-.89-1.9879-1.9879v-1.7858c-1.5775 2.2544-4.9582 4.3377-9.0157 4.3377-7.7203 0-13.5801-6.5921-13.5801-14.6499s5.8598-14.6508 13.5801-14.6508z"/><path d="m102.096 67.8435h6.198v5.0156c1.07-3.2124 4.226-5.2976 7.44-5.2976.787 0 1.577.0573 2.421.2266v6.3674c-1.07-.3393-1.971-.5086-3.098-.5086-3.55 0-6.763 2.9868-6.763 8.6219v13.7483h-4.21c-1.098 0-1.988-.89-1.988-1.9879z"/><path d="m134.869 90.8344c4.958-.0001 8.453-3.8893 8.453-8.903 0-5.0146-3.495-8.9029-8.453-8.9029-5.015 0-8.508 3.8883-8.508 8.9029 0 5.0137 3.493 8.903 8.508 8.903zm0 5.746c-8.34 0-14.763-6.4802-14.763-14.649 0-8.1706 6.423-14.6517 14.763-14.6517s14.763 6.4811 14.763 14.6517c0 8.1688-6.423 14.649-14.763 14.649z"/><path d="m154.657 67.8434h6.196v28.1735h-4.208c-1.098 0-1.988-.89-1.988-1.9879zm3.097-6.1409c-2.255 0-4.169-1.8587-4.169-4.1704 0-2.2544 1.914-4.113 4.169-4.113 2.309 0 4.114 1.8586 4.114 4.113 0 2.3117-1.805 4.1704-4.114 4.1704z"/><path d="m180.655 72.9151c-5.014 0-8.396 3.9448-8.396 9.0158 0 5.0701 3.382 9.0167 8.396 9.0167 5.015 0 8.397-3.9466 8.397-9.0167 0-5.071-3.382-9.0158-8.397-9.0158zm-1.127-5.635c4.057 0 7.439 2.0851 9.016 4.3395v-17.8623h6.198v42.2595h-4.21c-1.098 0-1.988-.8901-1.988-1.988v-1.7857c-1.577 2.2544-4.959 4.3377-9.016 4.3377-7.719 0-13.58-6.5921-13.58-14.6499s5.861-14.6508 13.58-14.6508z"/><path d="m205.517 71.4275h-6.063v-3.739h6.063v-7.877h3.967v7.877h8.272v3.739h-8.272v16.3761c0 3.4566 1.53 4.8155 4.703 4.8155 1.133 0 2.663-.2262 3.569-.6232v3.5701c-1.303.5096-2.663.7368-4.192.7368-4.817 0-8.047-2.7771-8.047-8.1594z"/><path d="m250 67.6885-13.259 28.3308h-3.117l-13.258-28.3308h4.419l10.37 22.4942 10.369-22.4942z"/></g></svg>