<svg fill="none" height="150" viewBox="0 0 250 150" width="250" xmlns="http://www.w3.org/2000/svg"><g fill="#154e9d"><path d="m129.647 96.0308c-1.199-.9029-4.283-4.7604-6.682-7.9321l-.857-1.2001-3.558-4.9719c-1.074-1.543-.902-3.1774.56-4.8461.171-.217.428-.5143.771-.9029.257-.2973.554-.5998.811-.8972h.045c.086-.1315.212-.2572.343-.3886l.126-.1717c.342-.3427.645-.6858.942-1.0287 1.628-1.6687 3.084-3.086 3.815-3.5545.857-.5603 1.371-1.0744.64-2.3202h-.04v-.039c-.388-.7314-2.445-2.9602-5.443-3.1716-.04 0-.04 0-.086 0 0 0-.04 0-.085 0-.04 0-.04 0-.086 0-.086 0-.126 0-.211 0-.046 0-.086 0-.086 0-.086 0-.171 0-.217 0-.086 0-.126 0-.211.0389-.474.0453-.943.1314-1.331.3426-.04 0-.04 0-.04 0-.086.0453-.131.0453-.217.0854-.514.2572-.988.5604-1.371.9888l-.131.1256c-.468.4288-.942.9029-1.496 1.503l-5.615 5.6577c-.685.6857-1.627 1.7143-3.341 1.7143-1.199 0-2.056-.8572-2.056-2.2287v-16.03-.0854c0-.0454 0-.1315 0-.1716 0-3.3488-1.028-5.8748-2.787-7.0749-1.199-.8572-2.5701-1.1144-3.8095-1.1601-1.4563 0-2.7014.3426-3.3011.6004-1.5421.6458-1.4964 1.2-1.2394 2.2287.297 1.1601.5141 4.5033.554 7.8464v37.2145c0 3.8972 1.9704 5.0572 4.7975 5.0572h1.1594c2.7011 0 4.6261-1.2 4.6261-5.0572v-.5603c.086-1.1144 0-7.1605 0-8.1035 0-1.8859 1.199-2.3145 2.016-2.3145 2.056 0 2.827 1.1601 4.067 2.7031.599.7258 5.443 6.772 8.058 9.8579 2.056 2.4855 3.941 3.4745 5.912 3.4745 2.912 0 5.008-2.0573 5.482-2.8287.811-1.2001.383-1.7595-.428-2.3995z"/><path d="m84.4477 49.4726c-1.1994-.8572-2.5701-1.1601-3.8152-1.1601-1.4563 0-2.6957.3426-3.2554.6004-1.582.6458-1.5421 1.2001-1.285 2.2287.4283 1.4573.5997 6.3891.5997 10.378v3.086 31.6826c0 3.8978 2.0161 5.0118 4.7975 5.0118h1.1137c2.7014 0 4.6319-1.2 4.6319-5.0118v-39.4833c0-.0855 0-.1716 0-.2571-.046-3.3488-1.0738-5.8751-2.7872-7.0752z"/><path d="m37.7063 59.6735c3.3411-.0388 5.8255-1.0686 7.0706-2.783 1.8847-2.6174.9424-5.9605.554-6.9892-.257-.6458-.7253-.7715-.9824-.7715 0 0-36.07547 0-36.16114 0-3.29886.0388-5.8261 1.0287-7.06888 2.7431-1.8419 2.6574-.942372 6.0004-.556845 7.0291.257013.5998.728195.7315.985195.7715h14.18117c.8978.0454 1.6289.6858 1.8859 1.543v35.0258c0 1.8858.4684 3.1316 1.2394 3.9027.8566.858 2.1417 1.2 3.5981 1.2h1.1594c2.6557 0 4.6261-1.2 4.6261-5.017v-34.4657c0-1.2001.8567-2.1431 1.9305-2.1888z"/><path d="m59.5978 85.4414c0 4.0689-3.6838 7.8007-8.9097 7.8007-3.4725 0-5.0145-1.4573-5.0145-3.7318 0-2.783 4.0721-5.6976 11.9538-6.2576h.474c.811 0 1.4564.6457 1.4964 1.4573zm10.326 2.3145.0402-9.178c0-10.5437-2.3131-16.6299-17.1797-16.6299-11.0913 0-15.9345 4.629-15.9345 9.2179 0 4.1546 4.9688 4.5832 6.4252 4.5432.1713-.0454.3884-.1315.5597-.3886 1.3707-2.7431 3.9808-5.269 8.864-5.269 5.1459 0 6.6422 1.6287 6.8592 5.6576-.0459.5544-.514 1.0286-1.0737 1.0286-3.9408.3828-17.3509 1.9716-21.3374 6.8577-1.7534 2.1888-2.1818 4.589-2.1818 7.5436 0 6.2176 4.6262 10.549 12.2508 10.549 4.2835 0 8.1443-1.457 10.8401-4.0286.1313-.1315.257-.217.3883-.2571.2571-.1717.6397-.3032.9824-.3032.257.0454.5597.0855.8167.3032.1257.1716.1713.2972.1713.2972.4284 1.0744 1.0281 1.8459 1.7991 2.4455 2.6101 1.841 5.9512.943 6.9792.555 1.6335-.686 1.6335-1.2401 1.3308-2.3144-.4284-1.4974-.5999-6.5151-.5999-10.6297z"/><path d="m203.934 49.4726c-1.199-.8572-2.57-1.1601-3.809-1.1601-1.457 0-2.702.3426-3.301.6004-1.543.6458-1.503 1.2001-1.246 2.2287.389 1.4573.6 6.3891.6 10.378v3.086 31.8541c0 3.8573 2.102 4.8863 4.889 4.8863h1.114c2.695 0 4.626-1.2 4.626-5.0178l-.086-39.5233c0-.0855 0-.1716-.045-.2571h.045c-.045-3.3488-1.074-5.8751-2.787-7.0752z"/><path d="m179.084 85.4414c0 4.0689-3.684 7.8007-8.909 7.8007-3.513 0-5.015-1.4573-5.015-3.7318 0-2.783 4.072-5.6976 11.954-6.2576h.474-.046c.817 0 1.502.6457 1.542 1.4573zm10.326 2.3145.046-9.178c0-10.5437-2.313-16.6299-17.18-16.6299-11.143 0-15.94 4.629-15.94 9.2179 0 4.1546 4.969 4.5832 6.425 4.5432.132-.0454.389-.1315.514-.3886 1.417-2.7431 3.987-5.269 8.916-5.269 5.094 0 6.636 1.6287 6.807 5.6576 0 .5544-.468 1.0286-1.068 1.0286h.04c-3.94.3828-17.391 1.9716-21.331 6.8577-1.759 2.1888-2.188 4.589-2.188 7.5436 0 6.2176 4.626 10.549 12.211 10.549 4.329 0 8.184-1.457 10.88-4.0286.131-.1315.257-.217.388-.2571.257-.1717.64-.3032.983-.3032.217.0454.56.0855.771.3032.171.1716.217.2972.217.2972.428 1.0744 1.028 1.8459 1.799 2.4455 2.616 1.841 5.957.943 6.985.555 1.628-.686 1.582-1.2401 1.325-2.3144-.428-1.4974-.6-6.5151-.6-10.6297z"/><path d="m249.133 96.0308c-1.199-.9029-4.283-4.7604-6.682-7.9321l-.902-1.2001-3.513-4.9719c-1.068-1.543-.896-3.1774.56-4.8461.171-.217.428-.5143.725-.9029.303-.2973.56-.5998.857-.8972.131-.1315.257-.2572.388-.3886l.126-.1717c.343-.3427.646-.6858.942-1.0287 1.628-1.6687 3.085-3.086 3.816-3.5545.856-.5603 1.33-1.0744.599-2.3202v-.039c-.382-.7314-2.444-2.9602-5.443-3.1716-.04 0-.04 0-.085 0-.04 0-.04 0-.086 0-.04 0-.086 0-.086 0-.085 0-.171 0-.211 0-.046 0-.086 0-.131 0-.04 0-.126 0-.172 0-.085 0-.125 0-.211.0389-.474.0453-.942.1314-1.331.3426-.04 0-.04 0-.04 0-.085.0453-.171.0453-.217.0854-.514.2572-.982.5604-1.371.9888l-.125.1256c-.474.4288-.988.9029-1.542 1.503l-5.614 5.6577c-.686.6857-1.588 1.7143-3.302 1.7143-1.239 0-2.056-.8572-2.056-2.2287v-16.03-.0854c0-.0454 0-.1315 0-.1716-.04-3.3488-1.068-5.8748-2.781-7.0749-1.199-.8572-2.57-1.1144-3.815-1.1601-1.457 0-2.742.3426-3.296.6004-1.547.6458-1.547 1.2-1.245 2.2287.303 1.1601.474 4.5033.56 7.8464v37.2145c0 3.8972 1.925 5.0572 4.797 5.0572h1.114c2.742 0 4.666-1.2 4.666-5.0572v-.5603c.086-1.1144 0-7.1605 0-8.1035 0-1.8859 1.16-2.3145 2.016-2.3145 2.056 0 2.827 1.1601 4.073 2.7031.599.7258 5.437 6.772 8.053 9.8579h-.046c2.101 2.4855 3.986 3.4745 5.911 3.4745 2.958 0 5.06-2.0573 5.528-2.8287.817-1.2001.389-1.7595-.428-2.3995z"/><path d="m157.193 59.6735c3.341-.0388 5.871-1.0686 7.07-2.783 1.885-2.6174.983-5.9605.554-6.9892-.211-.6458-.725-.7715-.942-.7715 0 0-36.073 0-36.158 0-3.342.0388-5.866 1.0287-7.065 2.7431-1.885 2.6574-.988 6.0004-.56 7.0291.217.5998.731.7315.942.7715h14.182c.902.0454 1.673.6858 1.884 1.543v35.0258c0 1.8858.474 3.1316 1.285 3.9027.857.858 2.102 1.2 3.598 1.2h1.114c2.702 0 4.626-1.2 4.626-5.017v-34.4657c0-1.2001.857-2.1431 1.976-2.1888z"/></g></svg>