<svg height="150" viewBox="0 0 250 150" width="250" xmlns="http://www.w3.org/2000/svg"><path d="m192.391314 114.668569c-3.791863 4.783921-13.081922 8.196598-13.081922 8.196598s-69.108912 24.82347-69.108912 24.82347v-18.306755s50.859461-18.121578 50.859461-18.121578c5.771569-2.067882 6.657804-4.991147 1.966481-6.525529-4.68251-1.538795-13.161285-1.097873-18.937265.978833 0 0-33.888677 11.935549-33.888677 11.935549v-18.9990001s1.953255-.6613726 1.953255-.6613726 9.792706-3.4655843 23.562461-4.991147c13.769755-1.5167461 30.630304.2072294 43.866559 5.2248333 14.916127 4.7133724 16.59601 11.6621864 12.808559 16.4460984zm-75.612383-31.1726347v-46.8162755c0-5.498199-1.014107-10.5598951-6.172804-11.9928676-3.950588-1.2654255-6.402078 2.4029804-6.402078 7.8967706v117.2391052s-31.6179549-10.035206-31.6179549-10.035206v-139.787461c13.4434736 2.49557843 33.0288769 8.3950098 43.5579159 11.9443725 26.776725 9.1930559 35.855147 20.6347863 35.855147 46.4150422 0 25.127702-15.511363 34.651449-35.220226 25.1365196zm-102.2083388 43.9723797c-15.31295229-4.312138-17.86143669-13.297971-10.88176404-18.474304 6.45057674-4.77951 17.42052284-8.377373 17.42052284-8.377373s45.334802-16.1198272 45.334802-16.1198272v18.3773082s-32.6232442 11.675411-32.6232442 11.675411c-5.762749 2.067883-6.6489872 4.995559-1.9664774 6.529942 4.6869186 1.534372 13.1701098 1.097872 18.9416774-.974422 0 0 15.6480442-5.67898 15.6480442-5.67898v16.441696c-.992052.176362-2.0987491.352725-3.1216706.524686-15.6524559 2.557304-32.3234245 1.490294-48.7518902-3.924137z" fill="#0070d1" fill-rule="evenodd" transform="translate(28)"/></svg>