<svg height="150" viewBox="0 0 250 150" width="250" xmlns="http://www.w3.org/2000/svg"><path d="m89.064257 44.0145582c-9.0562249 0-17.4628514-2.7158634-23.0742972-7.75251-4.2394578-3.8052209-6.2766064-8.9738956-6.2766064-14.2936747 0-5.2550201 2.125-10.4593374 6.2761044-14.24447792 5.2113454-4.74949799 14.4121486-7.72389558 23.0747992-7.72389558 9.5863454 0 17.259036 2.41465863 23.124498 7.73694779 4.173193 3.78714861 6.190763 8.96837351 6.190763 14.23192771 0 5.1019076-2.141064 10.5351406-6.190763 14.2931727-5.461847 5.0692771-14.0451807 7.75251-23.124498 7.75251v-5.8052209c4.8067269 0 9.2655623-1.6596385 12.379518-4.7580321 3.09237-3.0773092 4.533133-6.8599397 4.533133-11.4829317 0-4.4287149-1.554217-8.5692771-4.533133-11.5060241-3.0722891-3.02610442-7.6375501-4.72891567-12.379518-4.72891567-4.7565261 0-9.3247992 1.68524097-12.3995984 4.72891567-2.9628514 2.935743-4.5210843 7.0883534-4.5210843 11.5060241 0 4.4041165 1.5763052 8.5542169 4.5210843 11.4834337 3.0773093 3.061245 7.6295181 4.7580322 12.3995984 4.7580322v5.8052208zm-66.191767-43.99347386c-4.8443776 0-10.3478916.9061245-15.02409643 2.99447791-4.31576305 1.92570281-7.84839459 5.04016064-7.84839459 10.20331325-.00200701 4.6501004 2.95331427 7.373494 2.87299299 7.2981928 1.25702811 1.1571285 3.28062249 3.12751 8.57128513 4.2846385 2.3644578.5170683 7.4196787 1.311245 12.4538153 1.8373494 4.9969879.5271085 9.9146586 1.0281125 11.9176707 1.5351406 1.5913654.4051205 4.2645582.9568273 4.2645582 3.9558233 0 2.9869478-2.8162651 3.8985944-3.3057229 4.0963855-.4889558.1932731-3.8674699 1.7434739-9.9407631 1.7434739-4.4839357 0-9.874498-1.3483936-11.8393574-2.0512048-2.2650602-.8062249-4.6410642-1.87249-6.85742971-4.5798193-.55120482-.6711847-1.42068273-2.5170683-1.42068273-4.3448795h-5.49648594v15.4016064h6.10943775v-2.0808233c0-.2369478.29618474-1.2113453 1.32178715-.7479919 1.27610442.5798192 5.02208838 2.0712851 8.93875498 2.8890562 3.2113454.6716867 5.2821286 1.1531124 9.2745984 1.1531124 6.5140563 0 10.0135542-1.0612449 12.432731-1.752008 2.2791164-.6526104 5.0953815-1.8242972 7.3830321-3.6485944 1.2389558-.9864457 3.9558233-3.5150602 3.9558233-8.1049196 0-4.4056225-2.3644579-7.1400603-3.1962852-7.9718876-1.1330321-1.1335341-2.5170682-2.0120482-3.9593373-2.689257-1.2565261-.5913655-3.2394578-1.3017069-4.8619478-1.6987952-3.1490964-.7730924-10.2695783-1.7269076-13.6746988-2.0833333-3.5707831-.372992-9.7650602-.8860442-12.2389558-1.6516065-.75-.2324297-2.2791165-.9608433-2.2791165-2.7359437 0-1.2625502.6992972-2.33283136 2.0813253-3.1977912 2.1937751-1.374498 6.625-2.22891567 11.2439759-2.22891567 5.4608434-.02008032 10.0853414 1.22841366 13.0271084 2.5436747 1.0005021.44678715 2.1711848 1.08835342 3.1009037 1.84738957 1.0491968.8554217 2.5220883 2.6330321 3.0547188 5.1124498h4.934739v-13.40662652h-5.5100402v1.55823294c0 .50301204-.5195783 1.1566265-1.502008.61646586-2.4658635-1.2936747-9.437751-4.08483936-17.9849398-4.09638554m120.7510041 2.43624498 26.878514 24.25702808-.276104-16.3318273c-.027109-2.14156624-.421687-3.03564255-2.737952-3.03564255h-5.053715v-4.88554217h22.981928v4.88554217h-4.929719c-2.36245 0-2.511546.75552209-2.540161 3.03564255l.416667 31.2063253h-7.870482l-30.958835-27.6305221.006526 19.6094378c.027108 2.1315261.127008 3.1355422 2.323293 3.1355422h5.519578v4.8835341h-22.570281v-4.8830321h5.276104c1.970884 0 1.892571-1.8790161 1.892571-3.246988v-22.8885542c0-1.47740965-.20733-3.21787149-3.301707-3.21787149h-4.281125v-4.89307229zm68.054217 34.23694778c.215863 0 1.174699-.0276104 1.360442-.0843373.530622-.1656627.890562-.5441767 1.057229-.9387551.070281-.1656626.105421-.8985943.105421-1.0577309l.004016-7.7208835c0-.185743-.013554-.2660643-.328815-.6797189-.346386-.4518072-14.078815-16.0140562-14.707329-16.69929718-.780623-.85090362-2.151105-2.16616466-4.233434-2.16616466h-4.775602v-4.8875502h26.951305v4.8815261h-3.248996c-.751506 0-1.251004.71285141-.608936 1.50502008 0 0 9.067771 10.84688756 9.153614 10.96034136.084338.1154619.156627.1430723.272089.0376506.113454-.1079317 9.295181-10.89859437 9.36747-10.98393573.436747-.52309237.140562-1.51355422-.800703-1.51355422h-3.332831v-4.88704819h22.088353v4.88704819h-4.934739c-1.790161 0-2.518574.3313253-3.865462 1.85391566-.615964.69678715-14.49498 16.53865459-14.87249 16.96787149-.197791.2243976-.180723.5371486-.180723.7228916v7.7198795c0 .1566265.035141.8905622.105422 1.0552209.167169.3965863.529116.7751004 1.059237.938755.185743.0572289 1.131526.0853414 1.346888.0853414h5.04769v4.8865461h-26.812249v-4.8870482l4.784137.0040161z" transform="translate(0 53)"/></svg>