<svg height="150" viewBox="0 0 250 150" width="250" xmlns="http://www.w3.org/2000/svg"><path d="m34.3757324 63.2089844c-3.7607422.6604004-7.5876465.8583984-11.5463867 1.3857422l-12.074707-35.3652344v36.8830566c-3.76074222.395752-7.19165042.923584-10.7546387 1.451416v-67.5639648h10.0292969l13.7236328 38.3352051v-38.3352051h10.6228027zm20.7839356-38.4663086c4.0910644 0 10.3591308-.1979981 14.119873-.1979981v10.5566407c-4.6848144 0-10.1608887 0-14.119873.197998v15.7036133c6.2023925-.395752 12.404541-.9240723 18.6723632-1.1220703v10.1604004l-29.2294921 2.3098144v-62.3510742h29.2294921v10.5568848h-18.6723632zm57.930664-14.1855469h-10.952637v48.5615234c-3.562988 0-7.1259763 0-10.5563962.1315918v-48.6931152h-10.9526367v-10.5571289h32.4621579zm17.154785 13.4599609h14.449951v10.5566407h-14.449951v23.9511718h-10.359619v-58.5249023h29.494141v10.5568848h-19.134522zm36.289307 25.2702637c6.004394.1315918 12.074219.5942383 17.946777.923584v10.4250488c-9.435058-.5942383-18.870361-1.1872558-28.503418-1.3857422v-59.2502441h10.556641zm26.854004 12.0744629c3.36499.1982422 6.927978.3962402 10.358886.7915039v-62.1533203h-10.358886zm56.611572-61.3618164-13.394287 32.1325684 13.394287 35.4313964c-3.959229-.527832-7.917969-1.2536621-11.876953-1.9135742l-7.587402-19.5297851-7.718995 17.9467773c-3.827636-.6604004-7.522461-.8583984-11.348632-1.3862305l13.591796-30.9448242-12.272705-31.7363281h11.348145l6.927978 17.7487793 7.390137-17.7487793z" fill="#e50914" transform="translate(0 41)"/></svg>