<svg viewBox="0 0 250 150" xmlns="http://www.w3.org/2000/svg"><path d="m15.29 76.07a9 9 0 0 0 17.88 0c0-.31 0-.61 0-.92a9 9 0 0 0 -.67-3.47 8.86 8.86 0 0 0 -1.94-2.94 9 9 0 0 0 -12.76 0 8.86 8.86 0 0 0 -1.94 2.94 9 9 0 0 0 -.67 3.47v.92zm-15.29-1.07a24.16 24.16 0 1 1 1.84 9.27 24.24 24.24 0 0 1 -1.84-9.27" fill="#ee3324" fill-rule="evenodd"/><g fill="#333"><path d="m78.48 74.84c0 7.37-5.12 10.58-10 10.58-5.4 0-9.57-4-9.57-10.25 0-6.67 4.38-10.58 9.9-10.58 5.74 0 9.62 4.15 9.62 10.25zm-15.84.16c0 4.37 2.51 7.66 6.06 7.66s6.06-3.25 6.06-7.74c0-3.38-1.69-7.66-6-7.66s-6.12 4-6.12 7.74z"/><path d="m99.76 79.53c0 2.06 0 3.87.17 5.44h-3.22l-.2-3.26h-.09a7.5 7.5 0 0 1 -6.6 3.71c-3.13 0-6.89-1.73-6.89-8.73v-11.69h3.63v11c0 3.79 1.16 6.34 4.46 6.34a5.06 5.06 0 0 0 5.11-5.14v-12.2h3.63z"/><path d="m118.38 81.26a9.44 9.44 0 0 0 4.78 1.44c2.64 0 3.88-1.31 3.88-3s-1-2.68-3.71-3.67c-3.59-1.27-5.28-3.25-5.28-5.64 0-3.21 2.6-5.84 6.89-5.84a10 10 0 0 1 4.91 1.23l-.91 2.64a7.63 7.63 0 0 0 -4.08-1.15c-2.15 0-3.34 1.23-3.34 2.71 0 1.65 1.19 2.39 3.79 3.38 3.47 1.32 5.24 3 5.24 6 0 3.5-2.72 6-7.47 6a11.34 11.34 0 0 1 -5.61-1.4z"/><path d="m153.86 81.26a9.44 9.44 0 0 0 4.78 1.44c2.64 0 3.89-1.31 3.89-3s-1-2.68-3.72-3.67c-3.59-1.27-5.28-3.25-5.28-5.64 0-3.21 2.6-5.84 6.89-5.84a10 10 0 0 1 4.91 1.23l-.91 2.64a7.63 7.63 0 0 0 -4.08-1.15c-2.15 0-3.34 1.23-3.34 2.71 0 1.65 1.19 2.39 3.79 3.38 3.47 1.32 5.24 3 5.24 6 0 3.5-2.72 6-7.47 6a11.28 11.28 0 0 1 -5.56-1.36z"/><path d="m204 70.43c0-2.06 0-3.75-.16-5.39h3.16l.17 3.21h.12a6.86 6.86 0 0 1 2.61-2.73 7 7 0 0 1 3.66-.94 5.9 5.9 0 0 1 3.44 1.09 5.81 5.81 0 0 1 2.18 2.91h.08a8.45 8.45 0 0 1 2.24-2.58 6.88 6.88 0 0 1 4.42-1.4c2.64 0 6.55 1.73 6.55 8.65v11.75h-3.54v-11.32c0-3.83-1.4-6.13-4.33-6.13a4.71 4.71 0 0 0 -2.67 1 4.63 4.63 0 0 0 -1.62 2.32 5.91 5.91 0 0 0 -.29 1.81v12.32h-3.55v-12c0-3.18-1.4-5.48-4.17-5.48a4.94 4.94 0 0 0 -4.49 3.62 4.87 4.87 0 0 0 -.29 1.77v12.09h-3.52z"/><path d="m237.83 81.26a9.45 9.45 0 0 0 4.79 1.44c2.64 0 3.88-1.31 3.88-3s-1-2.68-3.71-3.67c-3.6-1.27-5.29-3.25-5.29-5.64 0-3.21 2.6-5.85 6.89-5.85a10 10 0 0 1 4.91 1.24l-.91 2.64a7.75 7.75 0 0 0 -4.08-1.16c-2.15 0-3.34 1.24-3.34 2.72 0 1.65 1.19 2.39 3.79 3.38 3.46 1.31 5.24 3 5.24 6 0 3.5-2.72 6-7.47 6a11.45 11.45 0 0 1 -5.61-1.4z"/><path d="m147.41 65.28-4 11.43a36.74 36.74 0 0 1 -1.28 3.89h-.08c-.33-.57-.83-2.49-1.28-3.81l-4.37-11.51h-4l7.39 18.24a3 3 0 0 1 .25.89 2.64 2.64 0 0 1 -.29.83 10.89 10.89 0 0 1 -3.06 4 9.43 9.43 0 0 1 -3.1 1.76l1 3a9.83 9.83 0 0 0 4.41-2.28c2.48-2.14 4.25-5.52 6.85-12.35l5.45-14.09z"/><path d="m199.35 75.5a8.05 8.05 0 0 0 .13-1.62c0-3.67-1.74-9.37-8.27-9.37-5.84 0-9.39 4.76-9.39 10.79s3.68 10.12 9.84 10.12a15.28 15.28 0 0 0 6.59-1.42l-.91-2.76c-3 1.23-5.32 1.48-7 1.16a6.89 6.89 0 0 1 -2-.74c-2.69-1.65-3-5.2-3.06-5.94v-.22zm-8.43-8.17c4.09 0 5.08 3.63 5 5.9h-10.59c.29-2.23 1.9-5.9 5.59-5.9z"/><path d="m113.9 81.3a4.74 4.74 0 0 1 -2.26.89c-1.26 0-2.12-.88-2.12-3.32v-11.32h5.12v-2.27h-5.12v-7.28l-4 2.7v18a7.37 7.37 0 0 0 1.62 5.19 4.72 4.72 0 0 0 2.14 1.29 5.92 5.92 0 0 0 5.47-1.09z"/><path d="m178.74 81.3a4.93 4.93 0 0 1 -2.27.89c-1.26 0-2.13-.88-2.13-3.32v-11.32h5.11v-2.27h-5.11v-7.28l-4 2.7v18a7.37 7.37 0 0 0 1.66 5.15 4.8 4.8 0 0 0 2.15 1.29 5.94 5.94 0 0 0 2.87.14 5.85 5.85 0 0 0 2.6-1.23z"/></g></svg>