<svg fill="none" height="150" viewBox="0 0 250 150" width="250" xmlns="http://www.w3.org/2000/svg"><g fill="#00a88f"><path d="m128.221 58.3263c0-2.4256 1.945-4.3661 4.295-4.3257 2.391 0 4.296 1.9001 4.296 4.3257 0 2.3042-1.864 4.2447-4.296 4.2447-2.35 0-4.295-1.9405-4.295-4.2447z"/><path clip-rule="evenodd" d="m123.844 75.7499c0-5.1746-3.039-9.7831-11.225-9.7831-6.93 0-10.659 4.4469-11.064 8.4895l6.2 1.2936c.203-2.2639 1.905-4.2043 4.944-4.2043 2.918 0 4.337 1.5362 4.337 3.3554 0 .8893-.487 1.6169-1.945 1.8192l-6.363.9298c-4.296.6466-7.7 3.234-7.7 7.8427 0 4.0426 3.364 7.7618 8.875 7.7618 3.81 0 6.282-1.779 7.619-3.8406 0 1.0106.122 2.4256.243 3.0724h6.403c-.162-.8894-.324-2.7086-.324-4.0831zm-6.849 6.3065c0 4.5681-2.715 5.983-5.673 5.983-2.27 0-3.364-1.4552-3.364-2.9916 0-1.9807 1.418-2.9914 3.202-3.234l5.835-.8893z" fill-rule="evenodd"/><path d="m90.3306 70.5754v-3.8405h-6.7677v25.7513h6.9703v-11.764c0-5.5383 3.0799-7.2766 6.6462-7.2766.6482 0 1.2966.0405 2.1072.2021v-6.9937c-.1704-.0131-.3407-.0304-.5125-.0478-.3593-.0364-.7246-.0734-1.1085-.0734-2.1883 0-5.7545.6468-7.335 4.0426z"/><path d="m129.072 92.4863h6.97v-25.7513h-6.97z"/><path d="m148.124 69.9286c1.581-2.6683 4.661-3.8809 7.457-3.8809 6.403 0 9.32 4.568 9.32 10.2277v16.2513h-6.97v-15.0384c0-2.8702-1.418-5.1341-4.782-5.1341-3.039 0-4.822 2.3446-4.822 5.3362v14.7958h-6.97v-25.7513h6.767z"/><path d="m179.63 86.6651c-1.743 0-2.999-.6468-2.999-2.8703v-29.1878h-6.849v30.3601c0 4.9724 3.161 7.9234 8.186 7.9234 1.094 0 1.905-.1212 2.878-.3233v-5.9426c-.487.0405-.851.0405-1.216.0405z"/><path d="m183.757 58.3263c0-2.4256 1.905-4.3661 4.296-4.3257 2.391 0 4.296 1.9001 4.296 4.3257 0 2.3042-1.864 4.2447-4.296 4.2447-2.35 0-4.296-1.9405-4.296-4.2447z"/><path d="m191.538 92.4863v-25.7513h-6.97v25.7513z"/><path d="m203.62 69.9286c1.581-2.6683 4.661-3.8809 7.457-3.8809 6.403 0 9.321 4.568 9.321 10.2277v16.2513h-6.971v-15.0384c0-2.8702-1.418-5.1341-4.781-5.1341-3.04 0-4.823 2.3446-4.823 5.3362v14.7958h-6.97v-25.7513h6.767z"/><path clip-rule="evenodd" d="m249.199 79.3075c0-8.2874-4.782-13.3407-12.725-13.3407-6.605 0-12.684 5.3362-12.684 13.5428 0 8.6916 6.241 13.7853 13.333 13.7853 6.362 0 10.415-3.7192 11.752-8.1662l-5.876-1.7383c-.851 2.3044-2.634 3.9215-5.876 3.9215-3.445 0-6.363-2.466-6.484-5.8619h18.439c0-.0152.002-.0445.005-.086.003-.0433.008-.0998.014-.1675l.001-.0024c.034-.3865.101-1.1366.101-1.8866zm-18.439-2.6278c.162-2.3446 2.148-5.0937 5.755-5.0937 3.971 0 5.673 2.5065 5.754 5.0937z" fill-rule="evenodd"/><path d="m67.8612 59.0539h6.3008v7.6999h5.1982v6.1805h-5.1982v10.7903c0 2.252 1.0501 2.9854 3.0454 2.9854.84 0 1.7852-.1048 2.1528-.2097v5.7617c-.6302.262-1.8902.6285-3.9381.6285-5.0406 0-8.1911-2.9854-8.1911-7.9613v-11.9949h-4.6729v-6.1805h1.3124c2.7305 0 3.9907-1.7811 3.9907-4.0856z"/><path d="m47.6059 58.5446c-5.1663-5.1537-13.5727-5.1537-18.7393 0l-10.6188 10.5929-3.1231-3.1156c-1.0351-1.0323-2.713-1.0323-3.748 0-1.0349 1.0326-1.0349 2.7064 0 3.7387l6.8711 6.8544 14.3668-14.3317c3.0998-3.0923 8.1437-3.0923 11.2435 0 1.5016 1.4979 2.3287 3.4896 2.3287 5.6081s-.8271 4.1101-2.3287 5.6081l-21.8625 21.8091c2.0699 2.0647 5.4258 2.0649 7.4957 0l18.1146-18.0704c5.1664-5.1539 5.1664-13.5398 0-18.6936z"/><path d="m36.3624 66.022c1.0349-1.0324 2.713-1.0324 3.7478 0 1.0349 1.0323 1.0349 2.7063 0 3.7387l-21.8624 21.8091-14.3668-14.3316c-2.50261-2.4967-3.881-5.8161-3.881-9.3468s1.37839-6.8503 3.881-9.3468c4.9566-4.9444 12.8944-5.1444 18.0933-.6019l-3.7614 3.7522c-3.1187-2.4889-7.6953-2.2933-10.58408.5884-3.09978 3.0922-3.09978 8.1238 0 11.2162l10.61898 10.5929z"/></g></svg>