<svg height="150" viewBox="0 0 250 150" width="250" xmlns="http://www.w3.org/2000/svg"><g fill="#7509b7" transform="translate(50)"><path d="m74.997543.075c-41.3799237 0-74.922543 33.542619-74.922543 74.922543 0 41.379922 33.5426193 74.927464 74.922543 74.927464 41.379924 0 74.927457-33.547542 74.927457-74.927464 0-41.379921-33.547537-74.922543-74.927457-74.922543zm-.034398 9.23817c36.322613 0 65.767909 29.445297 65.767909 65.7679095 0 36.3226155-29.445293 65.7679075-65.767909 65.7679075-36.3226146 0-65.7679095-29.445292-65.7679095-65.7679075s29.4452949-65.7679095 65.7679095-65.7679095z"/><path d="m37.6566626 49.3861905v51.0114055h20.7563989c9.4337625 0 16.68276-5.889985 16.68276-15.21841 0-8.2274265-6.4224945-11.3658975-6.4224945-11.3658975s4.9286625-3.1475775 4.9286625-10.1472465c0-8.130585-6.41904-14.2798515-15.886704-14.2798515zm11.4789184 9.970344h6.1325715c4.3586235 0 6.2603355 2.240445 6.2603355 5.007285 0 3.0037965-2.153307 4.8991785-5.970414 4.8991785h-6.422493zm0 20.127417h6.1325715c4.3586235 0 6.2603355 2.2404465 6.2603355 5.007285 0 3.0037965-2.153307 4.8991785-5.970414 4.8991785h-6.422493z"/><path d="m90.4911345 100.238336v-39.154118h-11.478918v-11.793408h35.6947175v11.793408h-11.950655v39.154118z"/></g></svg>