<svg height="150" viewBox="0 0 250 150" width="250" xmlns="http://www.w3.org/2000/svg"><g fill="#2f2b2b" transform="translate(0 21)"><path d="m31.0808158 2.0025632c-19.9720564-.25308844-32.40572192 18.2948932-30.96818469 29.563581.17535237 1.3784818.8377667 1.5582946 1.99780943.9225724l7.02893815-3.7185494c.73008978-.3883857 1.35250261-.9000645 1.53942781-2.0084519 1.358289-8.1348427 8.4777965-18.15434404 19.949414-18.08682044 28.0480772.17431091 24.9126158 43.90934424-4.5614259 40.11751914-.3169928-.0392637-.7469457-.2588405-.6961262-.9058165.2830293-3.5557426 1.6410667-20.8207759 2.0430941-26.44124.0734618-1.0688735-.7980168-1.479517-2.0204518-.7987791l-7.4025368 4.129443c-1.2845756.5344368-1.5960336 1.5245328-1.6808166 2.6271681l-4.6351393 61.1746276c-.2432794 2.4978729 1.0865809 2.9480302 2.9711786 1.8794067l6.0273918-3.3814316c1.5449626-.8605507 1.7429573-2.1379971 1.9580596-3.9378761l1.6299971-20.2418235c.0792482-.7705193.2093159-1.2319305.7527322-1.2036707 46.7010912 2.8635007 44.5276778-59.20018758 6.0666385-59.6898587"/><path d="m72.5 19c3.0412461 0 5.5-2.4585072 5.5-5.5002467 0-3.035325-2.4587539-5.4997533-5.5-5.4997533-3.0358184 0-5.5 2.4644283-5.5 5.4997533 0 3.0417395 2.4644283 5.5002467 5.5 5.5002467"/><path d="m249.899653 16.5684242c-.331371-.8942601-1.257363-2.838239-1.807568-2.8044652-.645525.0389888-.718386.3742432-2.099015 2.1451315-11.18177 14.4243831-19.180333 6.5416828-17.766018 5.6928683 14.577572-8.6927744 14.16785-19.71469774 7.824893-21.36837117-6.993971-1.82105229-21.021338 7.12825378-19.724799 22.55765507-.011229.3355028-.258011.5364071-.476845.7879721-1.493165 1.7147642-5.534741 5.8378968-8.492625 2.9609173-4.27164-4.1452346 3.895354-14.2229822 4.080752-15.603237.241291-1.78752684-5.175424-7.02767744-6.668589-6.34053007-4.35598 1.99985464-9.694094 4.15069794-11.703279 4.46360206-.246782.03352544-.409972-.13956517-.353579-.38541841.381525-1.87146462 1.077454-8.05007924-1.28531-8.53036222-2.958133-.5977462-13.022524 5.55280638-10.142992 12.79281164 1.835266 3.8045167 4.484985 2.3184705 4.120178 3.6033641-.763301 3.0500701-3.087389 9.2453233-6.881934 14.0496431-2.239747 2.8325273-4.804628 2.1622668-4.681362-.0948645l.134744-2.5640754s.662243-11.6474833.825184-16.1669611c.050654-1.4857979-.965168-2.06144209-2.234009-1.4023568l-7.707366 3.9944943c-.712647.3685315-1.184501 1.0780291-1.240644 1.8823914-.168431 2.2010073-.499552 6.6367956-.589132 8.284509-.134744 2.2345327-4.748734 9.7372781-7.981845 11.3291157-3.233111 1.5923343-3.446456-1.4577358-3.446456-3.519178 0-1.6198996.94271-12.8769977 1.268342-17.5971315.061633-.8883-.819445-1.3911816-2.048611-.8155374l-8.071924 4.2512743c-.780269.4075204-1.302277 1.1895323-1.36416 2.0666572-.196377 2.5474368-.589131 7.7654855-.701668 8.9604812-.235552 2.6204478-5.556949 10.6702787-9.828589 10.6702787-1.745685 0-3.036983-1.955154-3.036983-4.8770825 0-2.9162167.50529-10.4522392.634295-12.1893537.016719-.251565.207606-.458181.454637-.4971699l6.124123-.994588c.791497-.1283901 1.386118-.7763003 1.448-1.5697357l.308664-3.9440819c.028197-.4132321-.325632-.7427748-.735354-.6871474l-6.359425.8937635c-.398743.056124-.752072-.2679552-.729615-.6757239l.634046-9.78197871c.056393-.93300061-.931481-1.56427225-1.756914-1.12272977-2.295641 1.22901783-6.067729 3.24551103-7.779978 4.12288424-.976646.50263328-1.532341 1.43017048-1.593974 2.39669654l-.432179 6.4520332c-.016719.2289664-.190888.4137288-.421201.4472542l-2.233759.3854184c-.41571.0836895-.746832.3071924-.836661.7651251l-.577903 4.4412518c-.07336.5642207.426441 1.0392886.987875.9498875l2.284662-.3521413c.129005-.0275654.241042.078226.235303.2068643-.050404.8657014-.201867 3.7200823-.286207 4.6756816-.129005 1.5307468.00574 2.3964481-.370296 3.0222564-18.4280119 30.2724799-27.0553814-.6759722-16.749449-6.3405301 2.553901-1.4078202 3.5026 2.1230296 2.177865 5.0444614-.297435.6650454.516519 1.3072438 1.184501.8994751.85313-.5195201 6.017325-3.4804374 6.017325-3.4804374 1.223677-.6814357 1.358421-1.4805828 1.206709-2.8715161-.280717-2.6365897-2.56513-6.3904458-9.727531-5.0836986-13.0619494 2.3852731-15.7673128 17.5022669-16.1154019 20.6027494-.0394252.3797067-.1851485.7430231-.4097221 1.0447521-1.1226185 1.5029331-4.6534147 5.9493999-7.0164282 5.9493999-2.2003223 0-2.1723754-2.4801376-2.1159824-3.6927652.0728616-1.4634476 1.4929154-18.8204376 1.4929154-18.8204376.0673721-.7315997-.7296147-1.2233061-1.3639104-.8490629-2.1386893 1.2461531-6.0455216 3.5248897-8.2346152 4.7819696-.9933639.5753959-1.6388883 1.6032611-1.7174891 2.7431261-.0391756.5359104-.7071573 8.2455201-1.4145642 16.3624019-.6118383 7.117327 8.0100416 12.2564046 15.2116183 5.8714223 4.7429946-4.2177489 7.0446246-6.8039262 7.3028843-7.0890166.0786007-.0782261.2358022-.0839378.2749779.0225986.5165193 1.4522724 4.5803035 6.6755362 12.8146692 5.904451 8.8971074-.8378877 14.5773224-9.1002947 16.5870074-11.329364.185148-.2066161.4212-.1562038.527498.0951129.796987 1.8826397 4.047315 7.8936272 11.091691 6.8548352 5.383029-.7931871 9.778184-6.2342421 11.731975-8.7484018.246781-.3295427.606099-.301729.807965.0558757 1.139337 1.9832161 4.310816 6.0388012 8.818258 5.4075295 6.797344-.9608143 11.068983-6.9663383 12.708121-9.044419.25826-.3295426.516769-.1730906.634545.2848421.454637 1.8436509 2.363014 6.2513772 9.30683 5.1788115 11.231675-1.743323 17.956157-22.6028524 18.820766-25.736612.145972-.5252319.241291-.7656217.690439-.8940117.791746-.2346781 2.39121-.5361587 9.418617-3.4916126.039425-.0166386.078601.0332771.045414.0558757-.954189.7541983-10.272247 13.7983266-5.001504 21.1389081 7.622777 10.6141547 19.37122-2.2399961 21.868978-4.5974555.286207-.2739152.656753-.4191921.965417-.0615874 1.134097 1.2960687 4.35049 5.5135692 11.810077 4.5753535 9.402148-1.1788539 16.081716-9.8937302 18.298756-12.9269134.763301-1.0502155 1.509634-2.2012556 1.133848-3.1841719m-23.973732-.5979945c.982135-16.91544757 18.994935-11.3179406.774529.9106503-.813954.5527973-.830922.0727626-.774529-.9106503"/><path d="m235.736267 62.3073044c-8.119146 15.5519959-19.066734 9.508807-19.842581 7.968615-.140722-.2790653 0-.5023175.224955-.6362688 18.425362-10.663517 13.123409-23.1795311 3.306097-22.6216487-7.657987.4350938-17.795735 9.5586667-16.086323 23.3640863.067487.5469679.084234 1.0046349-.376925 1.3727529 0 0-5.594645 4.5702205-5.161481 2.399465.618378-3.1416545.545392-8.2136963-4.644083-12.6613761-5.117239-4.3861614-6.084048-6.1994654-6.084048-7.9123058-.258699-1.7634443-3.328593-3.0024939-9.851055 3.6434758-7.427783 7.5670091-6.780911 23.871861-13.337116 24.0616253-2.445517.0669757-2.299546-2.8849144-2.243557-4.7153344.129724-3.9562769 1.046044-16.0426545 1.181017-18.8777093.044991-.898218-.719858-1.3722569-1.551944-.915086l-8.237123 4.4030294c-.882576.4574189-1.439466.898218-1.484457 1.7574909-.489153 9.4584512-.905321 12.3768535-4.593593 17.0083443-3.666026 4.6091656-8.293362 4.6815985-8.006668 0 .224705-3.6439719.775846-9.8600571.826836-10.4181876.218957-2.6951501.415918-4.6037083.725107-8.5820624.061988-.8319865-.820838-1.4119461-1.56869-1.0215028l-2.350286 1.2445069-6.623442 3.4710755c-.466658.2453294-.843583.6248581-1.074288 1.0711144l-.016746.0277825c-.848833 1.7689016-3.907479 6.484236-9.901795 9.2629816-.629626.2902279-.916319.0277825-1.174768-.4184738-6.050055-10.3288868-19.145469 3.5993215-7.3433 8.3870888.326186.1337032.477906.641726.365428.970899-.65787 2.0648347-3.328593 8.464979-9.384397 8.4037087-5.9318282-.0615184-10.570662-14.4191151 3.39608-23.1634074 2.035598-1.2720414 4.245161-2.3153733 3.244359-4.0284618-.866079-1.4789217-5.515911-.1562765-7.185831.3569555-4.1946715 1.2886612-16.5307353 6.7685104-16.6207175 23.4811696-.0112478 2.4441154-8.9794767 9.4247154-8.4228366 1.8356291.15172-2.0087736.6521212-7.9237164 1.0402945-13.1579882.7758468-6.5120184-7.1690842-13.6712201-20.0337936-.2287094-.1459711.1560285-.4161678.0446504-.3936722-.1676872 0 0 1.2595012-17.1365904 1.3382357-19.5301019.0279945-.787088-.511649-1.0882305-1.1807668-.7421896l-8.35535 4.4251066c-.6353745.3514982-1.0570412 1.0046349-1.1075312 1.7302045l-3.1431293 43.6083472c-.0449911.80346.5511411 1.328102 1.4677101 1.222182l6.3085042-.809166c1.5576924-.228709 2.3165425-.680671 2.440518-2.717475.9333157-14.6589869 1.2929947-15.7692945 2.5302503-18.0013203 6.0443064-10.8867692 9.4181401-8.7889428 8.8557511-3.9061693-.2699466 2.3825971-.5228967 5.440656-.865829 10.2060981-.9953034 14.0175095 13.0616705 13.4370535 22.052145 1.8078467.0899823-.1225407.2644478-.0947582.3654279.0114106 12.6567504 13.6154072 30.1098034-2.0757493 30.8011674-12.3656909.022495-.3852341.179714-.7310269.832085-1.0043868 4.284404-1.8026375 8.822008-5.5187943 8.822008-5.5187943.191462-.1396566.449661.0166199.432915.2453294l-.415918 5.4183307c-1.16402 13.464836 10.064512 16.2549923 19.054987 6.2217906l3.817996-4.452889c.078484-.1002154.241702-.0612703.275195.0560611.416168 1.5290295 2.704466 8.4927615 9.384397 7.3544234 13.905004-2.3716825 14.709095-20.2333464 17.762242-25.9364477.539394-1.0155494 1.529448-1.0713624 1.877879-.3013904 2.243807 5.0055622 10.076011 8.0633731 7.427784 13.576462-1.304493 2.712018-5.931829 3.4539595-8.023666-.9485738-.388173-.8260331-1.405722-.8203278-2.114082.3177623 0 0-1.597185 2.3548145-1.827639 3.3594494-.230705.9986815 2.001854 7.0309558 9.6206 5.8591298 7.79821-1.1998565 18.847028-8.7832374 20.584434-9.9548153.123726-.0781383.292443-.0615184.388174.0498596.944313 1.0713625 5.841596 6.0878393 13.865512 4.7597368 7.377043-1.2221817 16.041582-7.3936165 18.824782-14.9884081.320187-.8758928.669118-1.8187612.280944-2.3044588.00025.0002481-2.085838-3.280815-3.092389-1.7128404m-22.597787 2.3436519c-1.06254-6.7853783 5.364191-13.8718991 8.445332-10.9872327 2.901427 2.7231807-3.570295 9.3691504-7.64674 11.4895502-.460909.239872-.719608.0057053-.798592-.5023175"/></g></svg>