<svg id="Layer_3" data-name="Layer 3" xmlns="http://www.w3.org/2000/svg" viewBox="0 0 250 150"><path d="M206.57,72.94A81.66,81.66,0,0,0,205.07,59a80.38,80.38,0,0,0-6.21-18.8A81.32,81.32,0,0,0,182.5,17a1,1,0,0,0-1.14-.28c-5.43,1.33-10.86,2.62-16.28,3.94-.56.14-.77,0-1-.53-1.28-4-2.61-7.91-3.93-11.86-.3-.91-.62-1.81-1-2.82l-13.74,8.87L136.53,0,124.18,12.07,111.82.18l-8.7,14.69L89.19,6.35l-.27.76L84.66,21c-.39,1.25-.2.66-3.14.32A73,73,0,0,1,67.46,18.2c-1.56-.49-1.12.65-4.93,5a74.06,74.06,0,0,0-13.06,20.9,81.35,81.35,0,0,0,18.15,88.8,1.31,1.31,0,0,0,1.21.33c5.38-1.32,10.76-2.6,16.15-3.91.49-.11.72-.05.89.46,1.34,4.11,2.71,8.21,4.07,12.31.27.8.55,1.6.84,2.45l13.74-8.87,9,14.37,12.35-12.07,12.35,11.88,8.7-14.7,13.93,8.53a15.37,15.37,0,0,0,.64-2.2,59.56,59.56,0,0,1,3.3-10.77c1.37-3.35-.07-2.41,3.79-2a80.08,80.08,0,0,1,13.91,3.1,1,1,0,0,0,1.18-.27c1.06-1.19,2.18-2.34,3.22-3.54a81.08,81.08,0,0,0,19.71-55Zm-46.7,27.12a42.21,42.21,0,0,1-19.07,14.86A42.85,42.85,0,0,1,85.86,92.35a41.21,41.21,0,0,1-2-28.65,42.06,42.06,0,0,1,17.94-24.38,41.1,41.1,0,0,1,17.76-6.55,42.9,42.9,0,0,1,41.88,19.74c.28.45.42.73-.2,1.09q-8.49,5.07-17,10.19c-.17.11-.35.19-.58.32-4.17-6.4-9.94-10.07-17.55-10.47A20.7,20.7,0,0,0,110,59.81,21.59,21.59,0,1,0,143.67,86.2l18.47,10.42C161.35,97.82,160.66,99,159.87,100.06Z"/></svg>