<svg height="150" viewBox="0 0 250 150" width="250" xmlns="http://www.w3.org/2000/svg"><g fill="none" transform="matrix(1 0 0 -1 0 96.582996)"><path d="m16.5925533 7.29627663c-4.6500631 0-8.41242454 3.88680557-8.41242454 8.71938677 0 4.7413221 3.76236144 8.6862016 8.41242454 8.6862016 3.090363 0 6.1807261-1.439404 7.4956859-4.0693237.091259-.1825181.2115551-.4272582.2115551-.7342205v-7.707241c0-.1534811-.0912591-.4894803-.1534812-.5807393-1.4352558-2.62991971-4.3721377-4.31406387-7.5537598-4.31406387m15.265149-6.6370213v30.58837197h-7.557908v-2.5676977c-2.1114025 2.0491804-4.9860623 3.177474-8.5327206 3.177474-8.65716463 0-15.23196386-7.0352426-15.23196386-15.8417402 0-8.84383092 6.57479923-15.97033254 15.23196386-15.97033254 3.5466583 0 6.4213181 1.19466383 8.5327206 3.24384416v-2.62991969zm32.8200703 0v16.54692377c0 8.1386473-6.3300591 14.6512245-14.4064844 14.6512245-8.1054622 0-14.4064843-6.5125772-14.4064843-14.6512245v-16.54692377h7.5537598v16.54692377c0 4.0071016 2.816586 7.0684277 6.8527245 7.0684277 4.0071017 0 6.8527245-3.0613261 6.8527245-7.0684277v-16.54692377zm19.2100286 6.6370213c-4.6500631 0-8.4124245 3.88680557-8.4124245 8.71938677 0 4.7413221 3.7623614 8.6862016 8.4124245 8.6862016 3.090363 0 6.0272449-1.530663 7.4956859-4.0693237.091259-.1825181.211555-.4272582.211555-.7342205v-7.7404261c0-.1534811-.091259-.4562952-.1493329-.5475542-1.439404-2.62991971-4.376286-4.31406387-7.557908-4.31406387m15.265149-6.6370213v39.76405387h-7.5579081v-11.7433796c-2.1072542 2.0491804-4.9860622 3.2728812-8.5327205 3.2728812-8.6571646 0-15.2319639-7.1306498-15.2319639-15.9371474 0-8.84383092 6.5747993-15.97033254 15.2319639-15.97033254 3.5466583 0 6.4254663 1.19466383 8.5327205 3.24384416v-2.62991969zm11.5608618 0v16.33536867c0 4.8325812 2.53866 7.4002788 7.371241 7.4002788v7.4625008c-9.727384 0-14.925001-5.1685803-14.925001-14.8627796v-16.33536867zm23.889128 7.00205747c-4.587841 0-8.317017 3.7333245-8.317017 8.3543506 0 4.5878409 3.729176 8.3170173 8.317017 8.3170173 4.650063 0 8.354351-3.7291764 8.354351-8.3170173 0-4.6210261-3.704288-8.3543506-8.354351-8.3543506m0-7.61598194c8.843831 0 15.99937 7.12650162 15.99937 15.97033254 0 8.8064976-7.155539 15.8417402-15.99937 15.8417402-8.806497 0-15.966184-7.0352426-15.966184-15.8417402 0-8.84383092 7.159687-15.97033254 15.966184-15.97033254m23.21713 33.52525384c2.418365 0 4.376286 1.9911064 4.376286 4.4053229 0 2.4474016-1.957921 4.4053229-4.376286 4.4053229-2.414216 0-4.372137-1.9579213-4.372137-4.4053229 0-2.4142165 1.957921-4.4053229 4.372137-4.4053229m3.762362-2.3229574h-7.557908v-30.58837197h7.557908zm19.487954-23.95135067c-4.650063 0-8.412425 3.88680557-8.412425 8.71938677 0 4.7413221 3.762362 8.6862016 8.412425 8.6862016 3.090363 0 6.023096-1.530663 7.491537-4.0693237.095408-.1825181.215704-.4272582.215704-.7342205v-7.769463c0-.1534811-.091259-.4272583-.153482-.5185173-1.435255-2.62991971-4.372137-4.31406387-7.553759-4.31406387m15.261-6.6370213v39.76405387h-7.553759v-11.7433796c-2.111403 2.0491804-4.986063 3.177474-8.532721 3.177474-8.657165 0-15.236112-7.0352426-15.236112-15.8417402 0-8.84383092 6.578947-15.99936951 15.236112-15.99936951 3.546658 0 6.421318 1.2237008 8.532721 3.27288113v-2.62991969z" fill="#77c159" transform="translate(.34637 .91863)"/><path d="m34.3332448 1.14813832 12.4195262 30.62155708h-6.2388001l-10.1587907-26.5522334h2.1114024l-10.1836796 26.5190483h-6.4254662l12.4195261-30.58837198zm-19.9732859-.36503618.0290369 5.44235747h-.6719984c-4.43435985 0-7.557908 2.6631048-7.557908 7.15968669v13.3030796h7.9851663v5.0482844h-7.9851663v8.2921284h-5.53361651v-26.6434924c0-7.92294414 5.13954337-12.60204416 13.09152451-12.60204416z" fill="#868686" transform="translate(202.457009 .428503)"/></g></svg>