<svg id="Layer_1" data-name="Layer 1" xmlns="http://www.w3.org/2000/svg" viewBox="0 0 250 150"><path id="path8" d="M155.1,96.25c-14.53,10.71-35.59,16.42-53.72,16.42a97.18,97.18,0,0,1-65.62-25c-1.36-1.23-.14-2.91,1.49-1.95a132.1,132.1,0,0,0,65.65,17.41A130.54,130.54,0,0,0,153,92.85c2.46-1,4.52,1.61,2.12,3.4" style="fill:#f90;fill-rule:evenodd"/><path id="path10" d="M161.13,89.34c-1.85-2.37-12.27-1.12-16.95-.57-1.43.18-1.64-1.06-.36-2,8.3-5.84,21.93-4.15,23.52-2.2s-.42,15.63-8.22,22.15c-1.2,1-2.34.47-1.8-.86,1.75-4.37,5.68-14.18,3.81-16.56" style="fill:#f90;fill-rule:evenodd"/><path id="path12" d="M144.51,45.56V39.88a1.4,1.4,0,0,1,1.43-1.44h25.44a1.41,1.41,0,0,1,1.46,1.44v4.86c0,.82-.69,1.88-1.91,3.57L157.75,67.13c4.9-.12,10.07.61,14.51,3.11a2.59,2.59,0,0,1,1.35,2.21v6.06c0,.83-.92,1.8-1.88,1.29a29.29,29.29,0,0,0-26.86,0c-.89.48-1.81-.48-1.81-1.31V72.79a6.83,6.83,0,0,1,.94-3.91L159.26,47H146a1.4,1.4,0,0,1-1.47-1.42" style="fill-rule:evenodd"/><path id="path14" d="M51.73,81H44a1.45,1.45,0,0,1-1.38-1.32V40a1.45,1.45,0,0,1,1.49-1.43h7.21a1.45,1.45,0,0,1,1.4,1.33v5.19h.15c1.88-5,5.42-7.36,10.18-7.36s7.87,2.34,10,7.36a11.42,11.42,0,0,1,19.64-3c2.45,3.34,2,8.2,2,12.45V79.57A1.46,1.46,0,0,1,93.19,81H85.46a1.46,1.46,0,0,1-1.39-1.43v-21c0-1.68.15-5.86-.22-7.44-.58-2.67-2.31-3.42-4.55-3.42a5.15,5.15,0,0,0-4.63,3.25c-.79,2-.71,5.36-.71,7.61v21A1.46,1.46,0,0,1,72.47,81H64.74a1.46,1.46,0,0,1-1.39-1.43v-21c0-4.43.72-11-4.77-11s-5.34,6.36-5.34,11v21A1.47,1.47,0,0,1,51.73,81" style="fill-rule:evenodd"/><path id="path16" d="M194.74,37.71c11.48,0,17.69,9.86,17.69,22.4,0,12.11-6.86,21.72-17.69,21.72-11.27,0-17.41-9.86-17.41-22.15s6.21-22,17.41-22m.06,8.11c-5.7,0-6.06,7.77-6.06,12.61s-.07,15.22,6,15.22S201,65.29,201,60.19a36.77,36.77,0,0,0-1.15-10.53c-.88-2.76-2.61-3.84-5.07-3.84" style="fill-rule:evenodd"/><path id="path18" d="M227.32,81h-7.7a1.46,1.46,0,0,1-1.4-1.43V39.84a1.47,1.47,0,0,1,1.49-1.29h7.18a1.49,1.49,0,0,1,1.38,1.11v6.07h.14c2.16-5.43,5.2-8,10.54-8a10.16,10.16,0,0,1,9,4.68c2,3.18,2,8.52,2,12.36v25A1.48,1.48,0,0,1,248.51,81h-7.76a1.46,1.46,0,0,1-1.37-1.25V58.18c0-4.34.5-10.7-4.84-10.7a5.07,5.07,0,0,0-4.48,3.18,17.7,17.7,0,0,0-1.23,7.52V79.57A1.48,1.48,0,0,1,227.32,81" style="fill-rule:evenodd"/><path id="path28" d="M124.23,62c0,3,.08,5.53-1.44,8.21a6.28,6.28,0,0,1-5.36,3.51c-3,0-4.71-2.26-4.71-5.6,0-6.6,5.91-7.79,11.51-7.79V62M132,80.89a1.63,1.63,0,0,1-1.83.19,18.94,18.94,0,0,1-4.44-5.16c-4.25,4.33-7.26,5.63-12.76,5.63-6.52,0-11.58-4-11.58-12.06a13.14,13.14,0,0,1,8.25-12.65c4.2-1.85,10.07-2.17,14.55-2.69v-1c0-1.84.14-4-.94-5.6a5.16,5.16,0,0,0-4.35-2c-3,0-5.57,1.51-6.21,4.64a1.63,1.63,0,0,1-1.35,1.42l-7.5-.81a1.36,1.36,0,0,1-1.15-1.62c1.72-9.1,10-11.84,17.3-11.84,3.77,0,8.69,1,11.66,3.85,3.76,3.52,3.4,8.21,3.4,13.31V66.55c0,3.62,1.51,5.21,2.92,7.17a1.47,1.47,0,0,1,0,2.06c-1.58,1.31-4.39,3.76-5.93,5.13v0" style="fill-rule:evenodd"/><path id="path30" d="M22.8,62c0,3,.07,5.53-1.45,8.21A6.26,6.26,0,0,1,16,73.75c-3,0-4.7-2.26-4.7-5.6,0-6.6,5.9-7.79,11.5-7.79V62m7.8,18.86a1.62,1.62,0,0,1-1.83.19,19.3,19.3,0,0,1-4.44-5.16c-4.24,4.33-7.24,5.63-12.75,5.63C5.07,81.55,0,77.53,0,69.49A13.16,13.16,0,0,1,8.25,56.84c4.2-1.85,10.06-2.17,14.55-2.69v-1c0-1.84.14-4-.94-5.6a5.15,5.15,0,0,0-4.34-2c-2.95,0-5.58,1.51-6.22,4.64A1.64,1.64,0,0,1,10,51.6l-7.51-.81a1.37,1.37,0,0,1-1.16-1.62c1.74-9.1,10-11.84,17.31-11.84,3.76,0,8.68,1,11.65,3.85,3.77,3.52,3.41,8.21,3.41,13.31V66.55c0,3.62,1.5,5.21,2.92,7.17a1.46,1.46,0,0,1,0,2.06c-1.57,1.31-4.38,3.76-5.93,5.13l0,0" style="fill-rule:evenodd"/></svg>