<svg width="250" height="150" viewBox="0 0 250 150" fill="none" xmlns="http://www.w3.org/2000/svg">
<g clip-path="url(#clip0)">
<path d="M98.864 137.817H111.047V150H98.864V137.817ZM138.85 150H169.292V137.817H138.85V150ZM71 100.44H131.024V88.2572H71V100.44ZM118.872 150H131.055V108.265H118.872V150ZM111.016 55.9437V36.5799L75.5417 80.4319H91.2231L111.016 55.9434V55.9437ZM140.66 0.000244141L138.85 2.24063V21.6044L150.144 7.64168L140.66 0.000508606V0.000244141ZM158.858 88.2569V100.44H179.725V88.2569H158.858ZM151.033 18.9652L138.85 34.0017V129.992H151.033V18.9655V18.9652ZM118.872 80.4316H131.055V11.8768L118.872 26.9132V80.4319V80.4316Z" fill="#192D48"/>
</g>
<defs>
<clipPath id="clip0">
<rect width="108.725" height="150" fill="white" transform="translate(71)"/>
</clipPath>
</defs>
</svg>
