<svg fill="none" height="150" viewBox="0 0 250 150" width="250" xmlns="http://www.w3.org/2000/svg"><path d="m106.388 76.0845c0 11.7372-9.1821 20.386-20.4505 20.386-11.2683 0-20.4503-8.6488-20.4503-20.386 0-11.8198 9.182-20.386 20.4503-20.386 11.2684 0 20.4505 8.5662 20.4505 20.386zm-8.9523 0c0-7.3345-5.3217-12.3529-11.4982-12.3529-6.1764 0-11.4981 5.0184-11.4981 12.3529 0 7.261 5.3217 12.353 11.4981 12.353 6.1765 0 11.4982-5.1011 11.4982-12.353z" fill="#ea4335"/><path d="m150.505 76.0845c0 11.7372-9.182 20.386-20.45 20.386s-20.45-8.6488-20.45-20.386c0-11.8106 9.182-20.386 20.45-20.386s20.45 8.5662 20.45 20.386zm-8.952 0c0-7.3345-5.321-12.3529-11.498-12.3529-6.176 0-11.498 5.0184-11.498 12.3529 0 7.261 5.322 12.353 11.498 12.353 6.177 0 11.498-5.1011 11.498-12.353z" fill="#fbbc05"/><path d="m192.785 56.9301v36.5993c0 15.0556-8.879 21.2036-19.375 21.2036-9.881 0-15.827-6.608-18.07-12.012l7.794-3.2449c1.388 3.3179 4.789 7.2339 10.267 7.2339 6.719 0 10.882-4.146 10.882-11.949v-2.932h-.312c-2.004 2.4724-5.864 4.6324-10.736 4.6324-10.193 0-19.531-8.8787-19.531-20.3034 0-11.5073 9.338-20.4595 19.531-20.4595 4.862 0 8.723 2.1599 10.736 4.5588h.312v-3.318h8.502zm-7.868 19.2279c0-7.1783-4.788-12.4264-10.882-12.4264-6.176 0-11.351 5.2481-11.351 12.4264 0 7.1048 5.175 12.2795 11.351 12.2795 6.094 0 10.882-5.1747 10.882-12.2795z" fill="#4285f4"/><path d="m206.801 35.4779v59.7427h-8.731v-59.7427z" fill="#34a853"/><path d="m240.827 82.7941 6.949 4.6324c-2.243 3.318-7.647 9.0349-16.986 9.0349-11.58 0-20.229-8.9522-20.229-20.386 0-12.1232 8.722-20.3861 19.228-20.3861 10.579 0 15.753 8.4191 17.444 12.9688l.929 2.3162-27.252 11.2867c2.086 4.0901 5.331 6.1765 9.88 6.1765 4.559 0 7.721-2.2427 10.037-5.6434zm-21.388-7.3345 18.217-7.5644c-1.002-2.5459-4.016-4.3198-7.564-4.3198-4.55 0-10.882 4.0165-10.653 11.8842z" fill="#ea4335"/><path d="m32.4357 70.7813v-8.6489h29.1452c.285 1.5073.432 3.2904.432 5.2206 0 6.4889-1.7739 14.5128-7.4908 20.2297-5.5607 5.7905-12.6654 8.8787-22.0772 8.8787-17.4449 0-32.113967-14.2095-32.113967-31.6544s14.669067-31.6544 32.113967-31.6544c9.6507 0 16.5257 3.7868 21.6912 8.7224l-6.103 6.103c-3.704-3.4743-8.7224-6.1765-15.5974-6.1765-12.739 0-22.70219 10.2665-22.70219 23.0055s9.96319 23.0055 22.70219 23.0055c8.2629 0 12.9688-3.318 15.9835-6.3327 2.4448-2.4449 4.0533-5.9375 4.6875-10.7077z" fill="#4285f4"/></svg>