<svg height="150" viewBox="0 0 250 150" width="250" xmlns="http://www.w3.org/2000/svg"><g fill="none" fill-rule="evenodd" transform="translate(43)"><path d="m91.889166 110.545148c-2.818658.287048-5.651018.604567-8.4882603.959415-2.6210039.327728-5.2317707.689889-7.8263158 1.083437l-5.357608 11.736954c1.935908-.19746 3.8875653-.375569 5.8522945-.531587 7.2015399-.571657 14.45458-.822747 21.487602-.831889zm32.718136-2.03752-6.046484 15.133531c14.722476.974499 26.658266 2.846707 32.274005 4.627651 0 0 6.353596-13.105609 9.244228-19.140616-9.073505-.625746-21.450433-.969624-35.471749-.620566zm-73.4619744 18.412485c-27.1876003 4.585753-48.09231948 11.748838-51.1453276 12.871127 9.1983977-8.622244 26.7423667-16.132255 47.678742-21.547916z" fill="#d0021b"/><path d="m107.834088 116.526431-23.704372-58.3562437-23.7045279 58.3562437-56.83246296-116.526431 22.02603506 61.4203954 34.0942787 88.4498956 24.4166771-55.4438082 24.416366 55.4438082 34.094434-88.4498956 22.026035-61.4203954zm.711994-28.8590012-24.3385355-62.6345994-24.3386909 62.6345994-44.2228303-87.49276799 43.8940742 57.82757549 24.667447-56.23595218 24.6674475 56.23595218 43.894074-57.82757549z" fill="#000"/></g></svg>