<svg xmlns="http://www.w3.org/2000/svg" baseProfile="tiny" viewBox="0 0 250 150" overflow="visible"  fill="#ed1a37" xmlns:v="https://vecta.io/nano"><path d="M221.395 62.647c-1.121 0-2.111.924-2.111 2.111 0 1.121.923 2.045 2.111 2.045s2.111-.924 2.111-2.045c-.066-1.121-.989-2.111-2.111-2.111m-37.665 5.871c-1.649 0-2.968.528-3.958 2.111-.66-1.319-1.979-2.111-3.694-2.111-2.441 0-3.562 1.781-3.628 1.847v-.792c0-.396-.33-.726-.726-.726h-1.715c-.396 0-.726.33-.726.726V80.59c0 .396.33.726.726.726h1.979c.396 0 .726-.33.726-.726v-6.596c0-.264 0-.858.396-1.451s1.055-.989 1.913-.989c1.517 0 2.177.989 2.177 2.375v6.662c0 .396.33.726.726.726h1.847c.396 0 .726-.33.726-.726V74.06c0-1.319.858-2.441 2.309-2.441 1.517 0 2.243.989 2.243 2.375v6.662c0 .396.33.726.726.726h1.781c.396 0 .726-.33.726-.726v-7.322c0-3.43-2.243-4.815-4.552-4.815m9.695 5.145c.066-1.121 1.055-2.441 2.77-2.441 1.913 0 2.77 1.253 2.77 2.441h-5.541zm2.77-5.211c-3.166 0-6.135 2.573-6.135 6.597 0 4.222 3.034 6.662 6.464 6.662 2.111 0 3.694-.858 4.683-2.111.33-.396.594-.792.726-1.253.132-.33-.132-.66-.528-.792l-1.385-.396c-.528-.132-.726-.066-.989.33-.462.792-1.253 1.319-2.573 1.319-1.649 0-3.034-1.187-3.166-2.836h8.311c.396 0 .594-.33.66-.594v-.462c0-.462 0-.924-.132-1.385-.396-3.166-2.573-5.079-5.937-5.079m14.249 10.158c-1.781 0-3.1-1.319-3.1-3.562s1.385-3.496 3.1-3.496 3.1 1.253 3.1 3.496-1.385 3.562-3.1 3.562m6.333-14.908c0-.396-.33-.726-.726-.726h-1.847c-.396 0-.726.264-.726.66v6.465c-.33-.66-1.385-1.517-3.496-1.517-3.496 0-6.003 2.836-6.003 6.531 0 3.76 2.507 6.596 6.069 6.596 1.649 0 2.968-.792 3.496-1.715v.726c0 .528.198.726.726.726h1.913c.528 0 .66-.264.66-.528l-.066-2.177v-15.04"/><path d="M234.654 75.049c0 2.243-1.319 3.562-3.1 3.562s-3.1-1.319-3.1-3.562 1.385-3.496 3.1-3.496c1.781 0 3.1 1.253 3.1 3.496m-9.565 0c0 3.76 2.507 6.596 6.069 6.596 1.649 0 2.968-.792 3.496-1.715v.726c0 .528.198.726.726.726h1.913c.528 0 .66-.264.66-.528l-.066-2.177V69.64c0-.396-.33-.726-.726-.726h-1.847c-.462 0-.726.264-.726.66v.594c-.33-.66-1.385-1.517-3.496-1.517-3.496-.066-6.003 2.771-6.003 6.399m-2.77-6.202h-1.913c-.396 0-.726.33-.726.726V80.59c0 .396.33.726.726.726h1.913c.396 0 .726-.33.726-.726V69.574c0-.396-.33-.726-.726-.726M41.38 79.732h0c.066-.066.066-.132.132-.198v-.33c0-.066.066-.132.066-.198v-.462c0-.066-.066-.066-.066-.066v-.132c0-.264.066-.462.132-.726v-.198s0-.066.066-.066h.066c.066 0 .066-.066.132-.132 0-.066.066-.132.066-.198s.066-.132 0-.132h-.066v-.066c0-.066.066-.066.132-.132.066 0 .066-.132.066-.132 0-.066-.066-.066-.066-.066s0-.066-.066-.066V76.3c.066-.066.066-.066.066-.132v-.132c0-.066-.066-.066-.066-.132s0-.132.066-.198c0-.066 0-.132.066-.132v-.132c0-.066.066-.132.066-.198 0 0 0-.066.066-.066v-.066c0-.066.066-.066.066-.066v-.396l.066-.066v-.132c0-.066 0-.132.066-.132 0-.066.066-.066.066-.132v-.462c0-.066.066-.066.066-.132s0-.066.066-.132v-.264l.066-.066v-.264c0-.066.066-.066.066-.132 0-.132.066-.264.066-.33s.066-.132.066-.198 0-.132.066-.132c0-.066-.066 0-.066-.066s.066-.066.066-.066h-.066v-.396c0-.066.066 0 .066-.066v-.264l.066-.066v-.132h.066v-.33s.066 0 .066-.066v-.264c0-.066 0-.066.066-.066v-.264c0-.066 0-.132.066-.132 0-.066 0-.066.066-.132 0-.066 0-.132.066-.132 0 0 .066 0 .066-.066v-.462s.066 0 .066-.066v-.066c0-.066 0-.066.066-.132 0-.066 0 0 .066-.066 0 0 0-.066.066-.066h.066v-.132c0-.066.066-.066.066-.132 0 0 0-.066.066-.132v-.132c0-.066 0-.198.066-.264 0-.066.066-.066.066-.132s.066-.132 0-.198c0-.066 0-.132.066-.198l.198-.198v-.396c0-.066.066-.066.066-.132v-.198c.066-.066 0-.132.066-.198 0-.066 0-.132.066-.198 0-.066 0-.132.066-.198 0-.066.066-.132.066-.132 0-.066.066-.066.132-.132h.066s0-.066.066-.066.066-.066.066-.132v-.132c0-.066.066-.066.066-.066 0-.066 0-.066.066-.066 0 0 .066-.066.066-.132s.066-.066.066-.066v-.066c0-.066.066-.066 0-.132 0-.066-.066-.132 0-.198 0-.066.066-.066.066-.132s0-.066-.066-.066c0 0 0-.066-.066-.066 0-.066 0-.132.066-.198v-.33c0-.066.066-.132 0-.198V63.1l.066-.066v-.198c0-.066-.066-.132 0-.198 0-.066.066-.066.066-.066 0-.066 0-.066-.066-.132v-.132c0-.132.066-.264.198-.33l.396-.792v-.132c0-.066.066-.132.066-.198.066-.132.066-.264.132-.33 0-.066 0-.132.066-.198v-.198c0-.066.066-.132.066-.198V59.8l.198-.198a.7.7 0 0 1 .132-.33s.066 0 .132-.066c.066 0 0-.066.066-.132 0-.066 0-.066.066-.132-.066-.066-.132-.066-.132-.198 0-.066-.066-.198 0-.264 0 0 0-.066.066-.066 0 0 0-.066.066-.066.066-.066.066-.132.132-.198v-.33l.066-.066c0-.066.066-.066.066-.066s.066-.066.066-.132v-.132c0-.066-.066-.066-.066-.066v-.198c.066-.066.066-.132.132-.198 0-.066.066-.198 0-.198 0-.066 0-.132.066-.132 0-.066 0-.066.066-.066 0-.066 0 0 .066-.066.066 0 0 0 0-.066l-.066-.066c0-.066 0-.132.066-.198 0-.066.066-.198.066-.264v-.132s0-.066.066-.066v-.198c0-.066.066-.132.066-.198.066-.066.066-.132.132-.132.066-.066.066-.066.066-.198v-.066s.066 0 .066-.066v-.066c0-.066 0-.066.066-.066l.066-.066v-.132c0-.066-.066-.066-.066-.066l.066-.066s0-.066.066-.066c0 0 .066 0 .066-.066v-.132l.066-.066v-.462c0-.066.066-.066.066-.066v-.132c0-.066 0-.066.066-.066V53.2c0-.066.066-.066.066-.132v-.066c0-.066.066-.132.066-.198 0 0 0-.066.066-.066h.066v-.396c.066 0 .066 0 .066-.066v-.33l.066-.066c0-.066 0-.066.066-.132v-.066l.066-.132v-.132c0-.066 0-.132.066-.132l.066-.066.066-.132v-.066c0-.066 0-.132.066-.198 0-.066.132-.132.066-.132.066-.132.198-.198.264-.396 0-.066.066-.132.132-.198 0 0 .066-.066.066-.132s-.066-.066-.066-.066c.066 0 .132-.132.132-.198.066-.066 0-.132.066-.264 0-.066.066-.066.066-.066s0-.066.066-.066l.066-.066v-.066s.066 0 .066-.066v-.264c0-.066-.066-.066-.066-.132v-.132s.066-.066 0-.066c0-.066.066-.198.066-.198.066-.066.066-.132.132-.198s.066-.198.132-.264c0-.066.066-.066.066-.132s0-.132.066-.132c.066-.066.132-.132.132-.264v-.066s.066 0 .066-.066v-.132c.066 0 0-.066.066-.132v-.066l.066-.066c.066-.066.066-.132.132-.264 0 0 .066 0 .066-.066v-.066c0-.066.066 0 .066-.066v-.066c0-.066 0-.132.066-.132v-.066c.066 0 .132-.33.198-.33l.33-.726.198-.396c0-.066 0-.066.066-.132s.066-.066.066-.132a.5.5 0 0 1 .132-.264v-.066l.066-.066v-.132c.066-.066.066-.132.066-.198.066-.066.066-.198.132-.264v-.132c0-.066.066-.066.066-.132v-.066s.066 0 .066-.066.066-.066.066-.132 0-.132.066-.132c.066-.066.066-.132.132-.198v-.066c0-.066.066-.132.132-.198s.066-.132.132-.198.066-.066.132-.066c.066-.066.066-.066.132-.066 0-.066 0-.33.132-.33 0-.066 0-.132.066-.132 0 0 .066-.066.132-.066-.132-.066 0-.132.066-.198 0 0 .066 0 .066-.066v-.132c0-.066.066-.132.132-.198s.066-.132.132-.198c.066 0 .066-.066.066-.066 0-.066.066-.132.132-.198.132-.132.198-.264.33-.396 0 0 0-.066.066-.066h.066s.066-.066.066-.132 0-.066.066-.132l.132-.132c0-.066.066-.066.066-.066 0-.066.066-.132.132-.132 0-.066.066-.066.066-.132 0 0 .066-.066.132-.066 0-.066 0-.066.066-.066v-.066l.132-.132s0-.066.066-.066c0 0 .066 0 .066-.066v-.066s.066 0 .066-.066c0 0 0-.066.066-.066 0 0 .066 0 .066-.066v-.066c.066-.066.132-.132.132-.198h.198c.066 0 0-.066.066-.132 0 0 .066 0 .066-.066l.066-.066v-.132l.066-.066s.066 0 .066.066c0 0 0 .066-.066.066v.066h.066c0 .066.066 0 .132 0 0 0 0-.066.066-.066l.066-.066c.066-.066 0-.066 0-.132v-.066s.066 0 .066-.066v-.066s.066 0 .066.066c0 0-.066.066 0 .066h.066v-.132h.066v-.066c0-.066.066 0 .066 0h.198v-.066h.066c.066 0 0 0 .066-.066 0 0 0-.066.066-.066v-.066s0-.066.066-.066.066.066.066 0 0-.066.066-.066V36.7c0-.066-.066-.132 0-.198 0-.066.066-.066.132-.132h.132c0-.066-.066-.066-.066-.132 0 0 0-.066.066-.066 0 0 .066 0 .066-.066v-.132h.066s0-.066.066-.066c0 0 .066 0 .066-.066v-.132l.066-.066c.066-.066.066-.066.066-.132s.066-.132.066-.198v-.066s.066-.066.066-.132v-.066c0-.066.066-.066.066-.132s0-.132.066-.132l.066-.066v-.726s-.066 0-.066-.066l.066-.066v-.66c0-.066-.066-.066-.066-.132v-.33c0-.066-.066-.132-.066-.198v-.066c0-.066-.066-.066-.066-.066v-.132c0-.066-.066-.066-.066-.132 0 0 0-.066-.066-.066v-.066c0-.066-.066-.066-.066-.132v-.066s-.066 0-.066-.066v-.066c-.066-.066-.066-.132-.132-.198 0 0 0-.066-.066-.066 0 0-.066 0-.066-.066-.066-.066-.132-.198-.198-.264l-.132-.132v-.066h-.066c-.066 0 0-.066-.066-.066h-.066v-.066l-.066-.066s-.066 0-.066-.066v-.066h-.132l-.066-.066s-.066-.066-.132-.066c0 0-.066 0-.066-.066 0 0-.066 0-.066-.066-.066 0-.132-.066-.132-.066-.066 0-.132-.066-.198-.132-.066 0-.132-.066-.198-.066s-.132 0-.198-.066h-.198c-.066-.066-.066-.066-.132-.066h-.198c-.066 0-.132-.066-.198-.066h-.528c-.066 0-.066 0-.132.066-.066 0-.066-.066-.066-.066-.066 0-.198.066-.264.066s-.198 0-.264.066c-.132 0-.132.066-.198.132s-.132 0-.264.066c-.066 0-.132.066-.198.066-.33.132-.66.396-.923.66-.132.066-.132.132-.264.198 0 0 0 .066-.066.066h-.066c-.066.066-.066.132-.066.132-.066 0-.132.066-.132.132h-.066c0 .066-.066.066-.066.066 0 .066-.066.132-.066.132a.91.91 0 0 0-.198.264.91.91 0 0 0-.198.264c-.066.132-.264.264-.264.462-.066.066-.066.198-.132.264-.132.066-.198.33-.264.462s-.132.33-.264.462c-.132.264-.264.594-.396.924l-.198.528c-.066.198-.198.33-.198.528l-.198.66-.198.594c-.132.33-.33.66-.396 1.055l-.198.594-.594 1.583c-.066.132-.132.198-.198.33s-.066.264-.132.462c-.132.264-.198.528-.33.792l-.33.924-.396 1.187c-.066.132-.132.33-.198.462-.066.198-.066.396-.198.528-.066.198-.132.396-.264.594-.066.264-.132.528-.264.792s-.264.528-.33.858l-.396 1.055-.923 2.639c0 .066-.066.132-.066.264-.066.066-.066.132-.066.198s-.132.132-.132.198l-.132.264c-.066.198-.132.396-.132.594 0 .264-.132.462-.264.726-.066.132-.066.264-.132.396-.132.264-.264.462-.33.726-.066.198-.132.33-.198.462-.066.198-.066.33-.132.528-.066.132-.132.33-.066.462-.132.066-.132.33-.198.462-.066.198-.066.396-.132.528-.066.198-.264.33-.264.528v.594c0 .132-.132.198-.132.264-.066.066-.066.264-.066.33 0 .132 0 .198-.066.33s-.066.264-.132.396l-.594 2.177c-.066.198-.198.462-.264.726a11.48 11.48 0 0 0-.33 1.451c-.066.198-.066.33-.132.528v.264c0 .132-.132.198-.132.33s0 .264-.066.396c-.066.198-.198.462-.264.66l-.396 1.451c-.066.396-.264.792-.33 1.121 0 .198 0 .33-.066.528l-.198.594c-.066.132-.066.264-.132.396v.198c0 .066-.066.066-.066.132-.066.132 0 .198-.066.33s-.066.198-.066.33l-.198.726c-.066.396-.198.726-.264 1.121-.066.198-.066.396-.132.594l-.198 1.121c0 .198-.066.396-.132.594s-.066.396-.132.528c0 .132-.132.396-.066.528-.066.132-.132.33-.132.528s0 .33-.066.528l-.198.792c-.066.264-.066.462-.132.66s-.066.33-.066.528c-.066.264-.066.528-.132.792l-.264 1.649c-.066.264-.132.462-.132.726 0 .396-.132.726-.198 1.121 0 .132-.066.264-.066.396-.066.264-.066.528-.132.858l-.264 1.583c-.066.198-.066.396-.066.594-.066.726-.198 1.385-.33 2.111-.066.33-.066.66-.132.989 0 .198 0 .33-.066.528v.33s-.066.066-.066.132v.198c0 .198-.066.396-.066.66h-.066v.198c-.066.066-.066.132-.132.198-.132.066-.066-.132-.066-.132-.132-.132-.066-.132-.264-.066 0-.066-.066-.132-.066-.198v-.132c0-.132.066-.264 0-.462 0-.066-.066-.066-.066-.198 0-.066.066-.066.066-.198 0-.198-.132-.198-.33-.264 0-.066.066-.066.066-.132s0-.132-.066-.198v-.726c0-.132-.066-.198-.132-.33 0-.132-.066-.264-.066-.33s.066-.066.066-.132v-.198c.066-.198.132-.132.066-.33-.132-.33 0-.264 0-.396 0-.066-.066-.264-.066-.33s-.066-.066-.132-.066c-.066-.066-.066-.066-.066-.132s-.066-.066 0-.066c0 0 .132 0 .066-.066h-.066c-.066 0 0 0-.066.066s-.132-.066-.066-.132c0-.066.066-.066.066-.132s-.066-.066 0-.132c0-.066.198-.066.198-.132h-.132s-.066.066-.132.066c0 .066-.066.066-.132 0v-.528c0-.066.066-.066.066-.132s0-.066-.066-.132-.066-.066 0-.066c0-.066 0-.066.066-.132 0-.066 0-.066.066-.132v-.132h.066v-.066c0-.066.066-.066.066-.132v-.264c0-.066-.066-.132-.066-.198v-.198c0-.066-.066-.066-.066-.132v-.132s-.132-.066-.066-.066c0-.066-.066-.066-.066-.132s0-.066-.066-.132c0-.066-.066-.066-.066-.132v-.132c0-.132-.066-.198-.066-.33v-.594c0-.066 0-.066-.066-.132v-.132c0-.066-.066-.066-.066-.132s-.066-.132-.066-.132c0-.066 0-.198-.066-.264.066-.066.066-.066 0-.132 0-.066 0-.066-.066-.132v-.132s-.066-.066 0-.066h.132s.066-.066.066-.132-.132-.198-.132-.198c-.066-.066-.132-.132-.132-.264v-.198c0-.066 0-.132-.066-.198v-.198c0-.066-.066-.066-.066-.132s0-.132-.066-.198c0-.066-.066-.066-.132-.132s-.132-.198-.132-.33v-.066c-.066-.066-.132 0-.132-.066s.066-.066 0-.132c0 0-.066 0-.066-.066v-.264c.066-.066.066-.066.066-.132s-.066-.066-.132-.066-.066 0-.132-.066v-.396c0-.066-.066-.066-.066-.132s0-.132.066-.264v-.132c-.066-.066-.066 0-.132 0 0-.198-.066-.396-.132-.66 0-.066 0-.066.066-.132 0-.066 0-.066-.066-.132s-.066-.198-.066-.33c0-.066 0-.132-.066-.198 0-.066-.066-.132-.066-.198s0-.066.066-.066l.066-.066h-.066c-.066 0-.066 0-.066-.066v-.066c0-.066 0-.066-.066-.066-.066-.066-.066-.132 0-.198v-.132s-.066 0-.066-.066v-.396s.066-.132 0-.066c0-.066 0-.066.066-.066 0-.066 0-.066-.066-.066v-.066c0-.132 0-.132.132-.132.066 0 .066 0 .066-.066l-.066-.066v-.396c0-.066-.066-.066-.066-.132s.066 0 .066-.066-.066-.066-.066-.066l.066-.066c0-.066 0-.066-.066-.066s-.132 0-.198-.066c0-.066-.066-.132 0-.198s.066-.066.066-.132 0-.066-.066-.066l.264-1.253c0-.066-.066-.198 0-.198h.066c0-.066-.066-.066-.066-.066-.066 0-.066.066-.132 0h0l-.066-.066c0-.066.066 0 .066-.066 0 0 .066-.066 0-.066 0 0-.066 0-.066-.066 0 0-.066-.198 0-.198 0 0 .066.066.066 0v-.066s0-.066-.066-.066-.066 0-.066-.066-.066-.132-.066-.264v-.066l.066-.066c0-.066-.066-.132-.132-.198s-.066-.132-.066-.198v-.462c-.066-.066-.066-.198-.066-.33 0-.066 0-.132-.066-.198 0-.066 0-.132-.066-.198 0-.066-.066-.132-.066-.198v-.66c0-.066-.066-.066-.066-.066v-.264s-.066 0-.066-.066v-.066c0-.066-.066-.132-.066-.198s-.066-.132-.066-.264v-.462s-.066 0-.066-.066v-.33c0-.066 0-.132-.066-.198v-.528c0-.066-.066-.132-.066-.198v-.132c0-.066 0-.066-.066-.132v-.528c-.066-.132-.066-.33-.066-.462v-.198c0-.066-.066-.132-.066-.198 0-.132-.066-.264-.132-.396 0-.066-.066-.066-.066-.132v-.132c0-.066 0-.066-.066-.066v-.132c0-.066-.066-.132-.066-.198 0 0 0-.066-.066-.066l-.066-.066c0-.066-.066-.066-.132-.132s-.066-.066-.066-.132l-.264-.264c-.066 0-.066-.066-.132-.066-.066-.066-.198-.066-.264-.132-.066 0-.066 0-.132-.066s-.132-.066-.198-.066h-.132c-.066 0-.198 0-.264-.066h-.858c-.066 0-.132.066-.198.066h-.066s0 .066-.066.066h-.132c-.066 0-.132.066-.198.066s-.132.066-.132.132c-.132.066-.198.132-.33.198-.066.066-.198.132-.264.264-.132.132-.198.264-.264.396-.132.198-.198.33-.264.528l-.198.594c0 .066 0 .132-.066.132 0 .066-.066.066-.066.132-.066.066-.066.198-.066.33 0 .066-.066.066-.066.066 0 .066 0 .066-.066.132 0 .066-.066.132-.066.198s-.066.066-.066.132v.066h-.066v.066c-.066.198-.198.462-.198.726 0 .066-.066.066-.066.132s0 .066-.066.132c0 .066-.066.198-.066.264-.066.066-.066.198-.132.264-.132.33-.198.726-.33 1.055-.066.132-.132.198-.198.33s-.066.198-.066.33-.066.264-.066.396-.066.198-.132.33c-.132.198-.132.264-.132.462-.066.132-.132.264-.132.396v.33c0 .132-.066.264-.132.396-.066.264-.132.462-.264.726-.066.198-.198.396-.198.594-.066.198-.066.198-.132.33s-.066.198-.132.33c.066.066-.066.198-.066.33s0 .264-.066.396c-.066.264-.198.462-.264.726-.066.198-.264.33-.33.594-.066.132-.066.264-.066.396s0 .264-.066.396-.066.396-.198.462c-.066.066-.33.198-.132.264-.066.132-.198.132-.066.33 0-.066-.132.198-.132.198 0 .132 0 .198-.066.33-.066.264-.264.594-.33.858-.132.33-.33.66-.396.989h.066c0 .066-.066.198-.066.264s-.132.198-.132.264v.198c0 .066-.066.066-.066.132-.066.066-.066.198-.132.264 0 .066-.066.198-.066.264s0 .198-.066.33l-.198.528-.198.594c-.132.396-.264.792-.198 1.253 0 .198.066.396.198.594.198.264.462.66.726.792.132.066.33.132.462.198.066 0 .132.066.198.066h.462c.066 0 .132-.066.198-.066h.396c.066 0 .066-.066.066-.066h.132c.066 0 .066-.066.066-.066.066-.066.132-.066.198-.066.132-.066.264-.132.396-.264l.264-.264c0-.066 0-.066.066-.132s.198.066.198 0 0-.066-.066-.066c-.066-.132 0-.198.066-.264s0-.066.132-.132c.066-.066.066-.066.066-.198v-.132c0-.066.066 0 .066-.066.066-.066.066 0 .066-.066v-.198c0-.066.066-.066.066-.132v-.198c0-.132.066-.132.132-.264 0-.066.066-.066.066-.132s-.066 0 0-.132l.198-.198c0-.066 0-.132.066-.132 0-.066.066-.066.066-.132v-.132c0-.066.066-.066.066-.132 0-.132.066-.198.132-.264 0-.066.066-.132.132-.132s.132 0 .132-.066-.132 0-.132-.066c-.066 0 0-.132 0-.132s.066 0 .066-.066v-.132c0-.066 0 0 .066 0s0 0 0-.066v-.066h.066v-.132l.066-.066v-.066s.066 0 .066-.066c-.066 0 0-.066 0-.132s.066-.066.132-.132v-.066s-.066 0-.066-.066v-.198c0-.066.066 0 .066-.066v-.066s.066 0 .066-.066c0 0 .066 0 0-.066h-.132v-.132c0-.066 0-.066.066-.066h.066s0 .066.066 0v-.066s-.066 0-.066-.066c0 0 .066 0 .066-.066v-.264l.066-.066s.066 0 .066-.066 0 0-.066-.066c-.066 0 0-.066 0-.132s0-.132.066-.132h.066v-.066c0-.066.066-.132.066-.132v-.066h.066l.066-.066s-.066 0-.066-.066v-.066c0-.066 0-.132.066-.198h.066v-.198c.066 0 0 0 .066-.066h.066l.066-.066h.066v-.066h-.066c-.066 0 0 0 0 0v-.066c0-.066 0-.066.066-.066 0 0 .066 0 .066-.066l-.066-.066c0-.066.132-.066.132-.066.066 0 .066-.066.066-.132 0 0-.066 0-.066-.066v-.066c0-.066.066 0 .066 0 .066 0 0-.066 0-.132s0 0 .066-.066v-.066c0-.066.066-.132 0-.198 0 0 0 .066-.066.066v-.066s0-.066-.066-.066v-.066c.066-.066.066.066.132.066s0 0 .066-.066l.066-.066h.132v.066h.066c0-.066-.132 0-.066-.066h0-.066v.066c-.066 0 0-.066 0-.132v-.066h.066v-.132c.066 0 .132.132.198.066v-.066l.066-.066v-.132h.132v-.066s.066-.066 0-.066v-.066l.066-.066c0-.066 0-.066.066-.066V74.5c0-.066.066-.066.066-.132v-.198c.066 0 .066-.066.132-.066h.132s0 .066.066.066H27l.066.066v.066c0 .066 0 .066.066.132h.066s.066-.066.066 0c0 0-.066 0-.066.066v.198c0 .066-.066.066-.066.132l.066.066s0 .066.066.066c.066.066.066-.066.066-.066 0-.066.066-.066.132-.066s.066 0 .132.066c0 .066 0 .066-.066.132h-.066v.198c0 .066-.132.066-.066.066s.132.066.132.066c0 .066 0 0-.066.066v.066h-.132v.066c0-.066.066.066.066.066v.066c0 .066-.066.132 0 .132 0 .066.066.066.132.066.066.066 0 .066 0 .132-.066.132-.066.198 0 .33 0 .066.066.132.132.132h.066v.066s.066 0 .066.066c0 0-.066.066 0 .066h.066c.066 0 0 0 .066.066 0 .132 0 .198.066.264 0 .066-.066.132-.066.264.066.066.066-.066.132-.066v.33c0 .066 0 .066.066.132v.132c0 .132 0 .198.066.33 0 .066.066.198.066.264v.198c0 .066 0 .132.066.132 0 .132 0 .198.066.33v.528c0 .066.066.066.066.132v.264c0 .066 0 .198.066.264 0 .066.066.132.066.264v.198c0 .066.066.132.066.198s0 .066.066.132v.396s0 .066-.066.066v.528c0 .066-.066.066 0 .066 0 .066-.066.066 0 .066s0 .264.132.198v.132c0 .066.066.066.066.066v.198c0 .132.066.264.066.396 0 .066 0 .198.066.264 0 .066.066.132.066.132 0 .066-.066.066 0 .132.066 0 0 .066 0 .132s0 .066.066.132c0 .066 0 .198.066.33.066.198.066.462.066.66v.132c0 .066.066.066.066.132v.198c0 .066.066.066.066.132v.396c.066.132 0 .198.066.33v.198l.066.066v.462c0 .066 0 .066.066.132s.066.066 0 .132v.33c0 .066.066.066.066.132s-.066.066 0 .132v.264c0 .132.066.198.066.33s0 .198.066.33v.396c0 .066 0 .132.066.198v.462c0 .066.066.198.066.264v.264c0 .066.066.066.066.132v.132c0 .066 0 .066.066.132V91c0 .066 0 .066-.066.066 0 .066 0 .066.066.066.066.066.066.132 0 .198v.066s0 .066.066.066c.066.066 0 .132 0 .198s.066.132.066.198v.198h.066v.396h.066v.066c-.066 0 0 .066 0 .066v.528l.066.066v.462c0 .066.066 0 .066.066v.528l.066.066v.396c0 .066 0 .066.066.066v.132c0 .066 0 .066.066.132v.528c0 .066 0 .264.066.264v.33c0 .066.066.132.066.198v.132l.066.066v.132c.066 0 .066.066.066.132s0 .132-.066.132c-.066.066-.066.066-.066.132v.33c0 .066-.066.132 0 .132 0 0 .066 0 .066.066.066 0 .066 0 .066.066l.132.132v.198s0 .066-.066.066c0 .066 0 .132-.066.132l-.132.132c0 .066.066 0 0 .066 0 0-.066 0-.066.066 0 0 .066 0 .066-.066h.33v.066c0 .066.066.132.066.198v.198c0 .066 0 .132.066.198 0 .066 0 .132.066.198v.528h-.066l.066.066s0 .066.066.066l.066.066v.066c0 .066 0 .066.066.066v.594c0 .066 0 .066-.066.066-.066.066-.066.132 0 .198 0 0 .066 0 .066.066 0 0 0 .066.066.066.066.066.066.066.066.132v.396l.066.066a.5.5 0 0 0 .066.264c0 .066.066.132.066.198v.396h.066v.264s-.066 0 0 .066l.066.066v.066s0 .066.066.066c.066.066 0 .198.066.264 0 .132.066.198.066.33v.66s0 .066.066.066c0 .066.066.132.066.198s0 .132.066.198l-.33 1.385v.132c0 .066.066.066.066.132v.066l.066.066v.264c-.066.066.066.066.066.132v.198c0 .066 0 .132.066.198 0 0 .066.066 0 .066 0 0-.066 0 0 .066.066 0 .066.066.066.132s.066.066.066.132v.066l.066.066v.264c0 .066.066.066.066.066v.462c0 .066.066.132.066.198v.198c0 .066 0 .132.066.198v.198c0 .066.066.132.066.198v.066c0 .066 0 .066.066.132 0 .066 0 .066.066.066s0 .066.066.066c0 .066.066.066.066.198l.066.066c.066.066.066.066.066.132l.066.066v.066h.066s0 .066.066.066c0 0 .066 0 .066.066s.066.066.132.066c0 0 .066 0 .132.066v.066s.066 0 .066.066c.066 0 .066 0 .132.066s.132.066.198.066h.264c.066 0 .132.066.198.066s.066 0 .066-.066h.594c.066 0 .132 0 .198-.066 0 0 .33-.132.33-.066h0c-.066 0-.066-.066 0-.066h.066s0-.066.066-.066c0 0 .066 0 .066-.066 0 0 .066 0 .066-.066 0 0 .066 0 .066-.066l.132-.132c.066 0 .066-.066.132-.132l.066-.066s0-.066.066-.066c0 0 0-.066.066-.132l.066-.066v-.066l.066-.066s0-.066.066-.066v-.066l.066-.066c0-.066 0-.066.066-.132 0-.066.066-.132.066-.198s0-.132.066-.198l.066-.066v-.066c0-.066 0-.132.066-.198l.066-.066v-.066c0-.066.066-.132.066-.198v-.132c0-.132.066-.198.066-.33 0-.066 0-.066.066-.066 0 0-.066 0-.066-.066v-.066c0-.066 0-.132.066-.198s0-.132 0-.198v-.198c0-.066.066 0 .066-.066v-.264c0-.066 0-.132.066-.198 0-.066.066-.132 0-.198v-.33c0-.066.066-.132 0-.198v-.264c0-.066 0-.132.066-.198v-.462c0-.066 0-.066.066-.066v-.726c0-.066 0-.066.066-.066 0 0-.066 0-.066-.066v-.462c0-.066.066 0 .066-.066v-.396c0-.066.066-.132 0-.198s0-.132.066-.198v-.924s0-.066.066-.066v-.264c-.066 0 0-.066 0-.066v-.198l.066-.066v-.594s0-.066.066-.066v-.396c0-.066 0-.132.066-.198V98.92s.066-.066 0-.066c0-.066 0-.132.066-.198v-.594h.066c0-.066-.066 0 0-.066l.066-.066v-.594c0-.066.066-.132.066-.198v-.462c0-.066 0-.132.066-.198v-.33c0-.066.066-.066.066-.132V95.3s-.066-.066 0-.066h.066c-.066-.066 0-.132 0-.198v-.396c0-.066.066-.132.066-.198v-.33s0-.066.066-.066v-.066s.066 0 .066-.066v-.396s.066 0 .066-.066v-.33h.066v-.132c-.066 0 .066-.066.066-.066v.066h.132s.066 0 .066-.066v-.132c0-.066.066-.066.066-.132v-.066c0-.066 0 0-.066-.066v-.066s-.066 0-.066-.066 0-.066-.066-.066h-.066c-.066 0-.066-.066-.066-.132v-.066s0-.066.066-.066V92s-.066-.066 0-.066v-.132c0-.066.066-.132.066-.132 0-.066.066-.132.066-.198v-.396c0-.066 0-.132.066-.198v-.528c0-.066-.066-.066-.066-.132v-.132s0-.066.066-.066v-.066c0-.066.132-.066.066-.132h0v-.066l.066-.066v-.132h.066l.066-.066c.066 0 .066 0 .132-.066 0-.066 0-.132.066-.132 0-.066.066-.066.066-.132v-.33h.066v-.066c.066 0 .066 0 .066-.066v-.396c0-.066 0-.066.066-.132l.066-.066v-.132s-.066 0-.066-.066v-.462c-.066-.066-.066 0-.132.066-.066 0-.066-.066-.132-.066-.066-.066-.066-.066 0-.132v-.198h.066c0-.066.066-.132 0-.132v-.33s0-.066.066-.066v-.33l.066-.066v-.264c.066-.066 0-.066 0-.132v-.132h.066s0-.066.066-.066v-.528s0-.066.066-.066v-.066s0-.066.066-.066h.066c.066 0-.066-.066-.066-.066v-.264s-.066 0-.066-.066v-.198c0-.066.066-.132.132-.132 0 0 0-.066.066-.066h.066c.066-.066.066-.198.066-.33v-.198s-.066 0-.066-.066 0-.066.066-.132v-.198s.066-.066.066-.132-.066-.066-.066-.132v-.132c.066-.066 0-.066-.066-.132a.5.5 0 0 1 .132-.264c.066-.066.066-.066.066-.132v-.33c0-.066 0-.066.066-.132v-.726h.066c0-.066.066 0 .066 0l.792-1.319c0 .066 0 0 0 0"/><path d="M53.583 64.297v-.132c-.066 0-.066-.132-.066-.132 0-.132 0-.132-.132-.198v-.132c0-.066 0-.066-.066-.132v-.132c0-.066-.066-.066-.066-.066v-.132c0-.066-.066-.066-.066-.132s0-.198-.132-.132v-.066c-.066 0-.066 0-.132-.066h-.132c-.066 0-.066-.066-.132-.066 0 0 0 .066-.066.066v-.066c-.066-.066-.198 0-.264 0h-.132c-.066 0-.066 0-.132.066H52v.066h-.132a.5.5 0 0 0-.264.132c-.066 0-.066.066-.132.066s-.066 0-.132.066-.132.066-.264.132c-.066 0-.132.066-.198.066l-.132.132c-.132.132-.264.264-.396.33l-.198.198c-.066.066-.132.066-.198.132s-.066.132-.198.198c-.066.066-.132.066-.198.132-.132.132-.198.198-.264.33 0 .066-.066.066-.066.066l-.132.066v.132c0 .066 0 .066-.066.132 0 .066-.066.066-.066.132-.066.066-.066.066-.066.132v.066s-.066 0-.066.066v.132c0 .066-.066.132-.066.198v.132l-.066.066v.396c-.066 0-.066.066 0 .066v.132c0 .066.066.066 0 .132 0 .066-.066.066 0 .066l.066.066v.132c0 .066.066.132.066.198v.066s.066.066.066 0v-.066c.066 0 0 .066.066.132 0 0 .066.066.132.066 0 .066 0 .132.066.198l.198.198h.066c.066 0 .132 0 .132.066l-.066.066s.066 0 .066.066c.066 0 .066-.066.132-.066h.198c.066 0 .066-.066.066 0 .066 0 .132.066.132.066.066 0 .066-.066.132 0h.066v-.066l.132-.066h.132c0-.066.066-.066.066-.066.066 0 .066-.066.132-.066-.066-.132.198-.066.198-.132.066 0 .066-.066.066-.066.066 0 .066 0 .132-.066h.132l.066-.066c.066 0 .066-.066.132-.066h.066v-.066c.066-.066.066 0 .132 0s.066-.066.066-.066h.132s0-.066.066-.066l.198-.132c0-.066.132-.066.132-.066-.066-.066 0-.066.066-.066 0-.066.066-.066.066-.132.066-.066.066-.066.132-.066s.132-.066.198-.132c0 0 0-.066.066-.066h.066c0-.066-.066-.066 0-.132 0-.066.066-.066.132-.066s.066 0 .132-.066c0 0 .066-.132.132-.132 0-.066.066-.066.066-.132l.066-.066v-.066c0-.066 0 0 .066 0s0 0 .066-.066c0-.066.066-.132.132-.198s.066-.132.066-.198 0-.066.066-.132v-.066h.066c0-.066-.066-.066-.066-.066 0-.066 0-.066.066-.066 0 0 0-.066-.066-.066v-.132l.066-.066c-.132-.396-.198-.528-.264-.594m5.21 5.673c.066-.066 0-.066-.066-.066-.132.066-.264.066-.396.132s-.264.066-.396.132c-.066 0-.066.066-.132.066s-.066.066-.132.066-.066.066-.132.066-.066 0-.132.066c-.066 0-.066.066-.132.066s-.066.066-.132.066h-.066l-.066.066c-.132.132-.264.198-.462.396l-.198.198c-.066.066-.132.132-.132.198l-.066.066s-.066 0-.066.066c-.066.066-.066.066-.066.132-.066.066-.066.132-.132.264-.066.066-.066.198-.132.33-.066.066-.066.198-.132.264v.132c-.066.066-.066.198-.132.264 0 .132-.066.264-.066.396-.066.198-.066.396-.066.66 0 .198 0 .396-.066.594v.396c0 .066-.066.066-.066.132.066 0 .066.132.066.198v.726c0 .198-.066.396-.066.594v.33c0 .132 0 .198-.066.33v.989c0 .132 0 .198-.066.33 0 .132-.066.264-.066.396v.198c0 .066-.066.066 0 .132-.066.066-.066.198-.066.264v.396c0 .066-.066.066-.066.132 0 .132-.066.198-.066.33-.132 0-.132.264 0 .264v.132c.066.066-.066.132 0 .132 0 .066-.132.462 0 .396v.132c0 .066-.066.066-.132.132 0 .066.066.132.066.198.066.066-.066.198 0 .264s.066.066.066.132v.066s0 .066-.066.066c0 .066 0 .066-.066.132 0 .066-.066.066-.066.132v.528c0 .066-.066.066-.066.132s0 .066.066.132c0 .066 0 .066.066.132.066.132.066.198 0 .33h0c0 .132.066.198 0 .264s0 .066 0 .132 0 .132.066.198c0 .132 0 .198-.066.33v.33c0 .132-.066.132-.132.264v.132c0 .066-.066.066 0 .132 0 .066.066.066.066.198v1.847c0 .066.066.066.066.132v.132c0 .066.066.066.066.132v.066s.066 0 .066.066v.132c0 .066 0 .066.066.066 0 .066.066.066.132.132l.132.132v.066l.066.066h.066v.066c.066 0 .066.066.132.066s.132.066.132.066c0-.066.198 0 .264 0h.396l.066-.066h.132c.066 0 .198-.066.264-.066s.198 0 .198-.066h.132c0-.066.198-.066.264-.066.066-.066.132-.066.264-.132.066 0 .066-.066.132-.066h.066l.066-.066h.066s0-.066.066-.066.066 0 .132-.066c.066 0 .066-.066.132-.066s.066-.066.066-.066c0-.066.066-.066.066-.066s.066-.066.132-.066h.132c.066 0 0-.066.066-.132l.33-.33c0-.066.066-.066.066-.132s.066-.066.066-.066a.5.5 0 0 0 .132-.264c.066-.066.066-.132.132-.264.066-.066.066-.198.132-.264 0-.066.066-.264.132-.264v-.132c0-.066.066-.132.066-.198 0-.132.066-.264.066-.396v-1.253c.066 0 .066-.132.066-.132v-.198c0-.066-.066-.132-.066-.198s.066 0 .066-.066 0-.066-.066-.066v-1.187c0-.066.066-.132.066-.132s-.066-.066 0-.132v-1.253c0-.066 0-.132.066-.132-.066 0-.066-.132-.066-.132.132 0 .066-.198 0-.264v-.33c0-.066.066-.132.066-.264 0-.066 0-.066-.066-.132v-.462c0-.066.066-.198.066-.264h-.066s0-.066.066-.066c-.066 0-.066 0-.066-.066h.066v-.132c0-.066.066-.132.066-.198-.066 0-.066-.066 0-.132v-.066l.066-.066c.132-.066 0-.132-.066-.132 0-.066.066-.066.132-.066.066-.066 0-.066.066-.066h.066s.066-.066 0-.066c0-.066-.066-.066-.066-.132v-.264c0-.066.066-.066.066-.132v-.132c0-.066.132-.066.132-.132.066-.066 0-.066 0-.132v-.33c0-.066.066 0 .132-.066 0 0-.066 0-.132-.066 0 0 0-.132.066-.132.066-.066.132-.066.198-.132-.066-.066-.066-.066-.066-.198 0-.066 0-.132.066-.198 0-.066.066-.132.066-.198s.066-.132.132-.132c0-.066 0-.066.066-.132 0-.066.066-.066.066-.132.066-.066.132-.198.198-.264l.396-.396c.066-.066.132-.198.198-.264s.132-.066.132-.132c.066 0 0-.066.066-.066h.066s.066-.066.132-.066l.198-.198s0-.066.066-.066h.066s0-.066.066-.066.066-.066.066-.066.066 0 .066-.066c.066-.066.132-.066.132-.132.066 0 .132-.066.132-.132.066 0 .132-.066.198-.132l.198-.198c.066-.066.066-.066.132-.066 0 0 0-.066.066-.066h.066c.066 0 .066-.066.132-.132.066 0 .066-.066.132-.066.066-.066.198-.066.198-.132.066-.066.066-.132.132-.198h.066s0-.066.066-.066c0 0 .066 0 .132-.066.132-.066.198-.33.33-.33.066-.066.066-.132.066-.264 0-.066.066-.066.066-.132s.066-.066.066-.066 0-.066.066-.132c0-.066.066-.066.066-.132.066-.066.066-.198.066-.264-.132 0 0-.264 0-.33v-.198c0-.066 0-.132.066-.198-.066 0-.066-.066-.066-.132s.066-.066.066-.132-.066-.066-.066-.132l-.066-.066v-.066h-.066v-.066c0-.066 0 0-.066-.066 0 0-.066-.066-.066-.132v-.066l-.066-.066v-.132c0-.066-.066-.066-.066-.066-.066-.066-.066-.066-.066-.132 0 0 0-.066-.066-.066v-.066c0-.066-.066-.066-.066-.132l-.198-.198c-.066 0-.066-.066-.132-.066s-.132 0-.132-.066c-.066 0-.198-.066-.33-.066h-.396c-.066 0-.132 0-.132.066-.066 0-.066 0-.132.066h-.066v.066c-.066 0-.066.066-.132.066 0 0-.066-.066-.132 0v.132s-.066.066-.066 0c0 0 0-.066-.066-.066h0v.066c-.066 0-.066.066-.132.066 0 0 .066 0 .066.066l-.132.066s0-.066-.066 0h-.132c-.066 0-.066.066-.132.066s-.066 0-.132.066c-.132 0-.066.066-.132.132s-.132 0-.198 0h-.066v.066c-.066 0-.198 0-.198.066.066 0 .066-.066.132 0v.066c-.066 0-.132.066-.264 0-.132 0-.198.066-.264.066s-.066.066-.132.132c-.132.066-.198.066-.33.066s-.198.132-.33.132c-.066 0-.066 0-.132.066h-.132c-.066 0-.198 0-.198.066-.198 0-.33 0-.528.066-.066 0-.132 0-.264.066 0-.198-.066-.198-.198-.132h0"/><path d="M87.884 50.774c0 .066.066.132.066.198v.132l.066.066c.066.132.198.198.264.264s.132.066.198.066.132 0 .198.066c.132.066.264.066.396.132.132 0 .198 0 .33.066.066 0 .132 0 .198-.066h.132c.066 0 .066 0 .066.066h.198l.066-.066c.066-.066.264-.066.33-.132l.132-.132c.066 0 .132 0 .198-.066.066 0 .066-.066.066-.066l.066-.066c.066-.066.132-.066.198-.132.132-.066.264-.198.33-.33.066-.066.066-.132.132-.198s.066-.132.132-.198.066-.132.132-.198l.198-.198c.066-.066.132-.132.132-.264.066-.066.132-.066.198-.132.066 0 0-.066 0-.066 0-.066 0-.066.066-.066l.066-.066s0-.066.066-.066l.066-.066v-.132l.066-.066v-.264c0-.066.066-.132.066-.198s.066-.066.132-.132v-.198c0-.066 0-.066-.066-.132v-.132c-.066 0-.066-.132-.066-.198v-.132c0-.066 0-.066-.066-.066l-.066-.066s0-.066-.066-.066l-.066-.066s-.066-.066-.066-.132 0-.066-.066-.066l-.066-.066h-.066c-.066 0-.132.066-.198 0-.066 0-.066 0-.132-.066h-.066s-.066 0-.066-.066h-.989c-.066.066-.132.066-.198.066s-.132.066-.198.066h-.066s-.066 0-.066.066c-.066 0-.132 0-.198.066l-.066.066c-.066 0-.132.066-.198.066 0 0-.066 0-.066.066 0 0 0 .066-.066.066s-.066 0-.066.066v.066h-.066l-.066.066c-.066 0-.066 0-.066.066h-.066l-.066.066c-.066.066-.066 0-.132.066 0 0 0 .066-.066.066-.066.066-.132.066-.132.132l-.066.066s-.066 0-.066.066l-.066.066c0 .066 0 .066-.066.066 0 0-.066 0-.066.066v.132l-.132.132s0 .066-.066.066l-.132.132c0 .066 0 .066-.066.066-.066.066-.066.132-.132.198 0 .066-.066.066-.066.132 0 0 0 .264-.066.198v.198h-.066v.33s-.066.066-.066.132v.33c0 .066.066.066.066.132 0-.066 0 .066.066.132m-2.837 23.285c0 .066.066.132.132.198a.91.91 0 0 0 .264.198c.066.066.132.066.132.132.132 0 .264.066.264.066h.726c.066-.066.462-.132.528-.198a1.98 1.98 0 0 1 .528-.264c.132-.066.198-.132.33-.198h.066v-.066c.066 0 .132 0 .132-.066 0 0 .198-.198.264-.198s.132 0 .132-.066c0 0 0-.066.066-.066 0 0 .066 0 .066-.066l.462-.462c.066-.066.264-.198.33-.33.066-.066.066-.132.132-.264.066-.066.066-.132.066-.198s.066-.066.132-.066c.066-.066.066-.132.066-.198s.066-.198.066-.264c-.066.066-.066-.066-.066-.066h.066v-.132c-.066 0 0-.066 0-.132s.066-.066.066-.132c0 0 .066 0 0-.066 0 0-.066 0-.066-.066v-.132c.066-.066.066-.066 0-.132l-.066-.066c-.066-.066-.066-.132-.066-.198v-.792h.066v-.198c0-.066-.066-.066 0-.066-.066-.066 0-.198 0-.33v-1.253s-.066 0-.066-.066l.066-.066v-.066c0-.066.066-.132.066-.132v-.132h.066s.198.066.198.132c0 0 .066.066.066 0v-.198l-.066.066s-.066-.066-.132-.066v-.066c.066 0 .066-.066 0-.066h-.132v-.132l.066-.066.066.066v.066c0 .066.066 0 .066 0h.066s.066 0 .066.066h.066v-.066l.066-.066c0-.066 0-.066-.066-.066 0 0 0-.066-.066-.066l-.066-.066-.132-.066-.066-.066v-.198c0-.066-.066-.132 0-.132 0 0 0-.066.066-.066h.066v-.066c-.066-.066-.066-.198-.066-.198 0-.066.066-.066.132-.066h.066v-.198c0-.066.066-.066.132-.066h.066v-.066c0-.066-.066-.066-.066-.066 0-.066 0-.132.066-.198l.066-.066v-.066c-.066 0-.066 0-.066-.066v-.066c0-.066 0-.066.066-.066h.066c0-.066-.066-.066-.132-.132v-.066h-.066v-.198l.066-.066v-.132l.066-.066v-.066s-.066 0-.066.066l-.066.066v-.198l.066-.066s.066 0 .066-.066v-.066h-.066v-.198c0-.066.066 0 .066-.066v-.066c0-.066-.066-.066-.066-.066s0-.066.066-.132l.066-.066v-.132h-.066l-.066-.066v-.198c0-.066.066-.066.066-.132 0 0 0-.132.066-.132v-.066s0-.066-.066-.066l-.066-.066h-.066l.066-.066v-.066s0-.066 0 0h-.066v-.989h.066l-.132-.132v-.066h.066s.066 0 .066-.066v-.132c0-.066-.066 0-.066 0v-.066h.264v-.066h.066v-.066s.066 0 .066-.066h-.264v-.066h.066l.066-.066s.066 0 .066-.066c0 0 .066 0 .066-.066h-.066v-.132h.066s.066-.066 0-.066h-.066v-.198h.066s.066 0 .066-.066 0 0-.066-.066v-.132h-.066s0-.066.066-.132h0v-.198l.198-.198v-.066s0-.066-.066-.066v-.132h.066v-.132s-.066 0-.066-.066.066 0 .066-.066l.066-.066v-.066s.066 0 .066-.066v-.33s0-.066.066-.066v-.132c0-.066-.066-.066-.066-.066v-.264h-.132v.066-.264h-.066v-.396h-.132l-.066-.066s-.066 0-.066-.066c0 0-.066 0-.066-.066h-.066s-.066 0-.066-.066c0 0-.066-.066-.132 0h-.726s0 .066-.066.066c0 0 0-.066-.066-.066h-.462c-.066 0-.066 0-.066.066h-.066c-.066 0-.066 0-.066.066h-.066l-.066.066s-.066 0-.066.066l-.132.066s-.132.132-.198.132l-.264.264s-.066 0-.066.066c0 0 0 .066-.066.066l-.066.066v.066s-.066 0-.066.066l-.132.198s-.132.132-.132.198l-.066.132s-.066.066-.066.132h-.066v.132l-.132.198v.066l-.066.132-.066.066v.066c0 .066-.066 0-.066 0v.264l-.066.066v.066s0 .066-.066.132l-.066.264c0 .066-.066.066 0 .132v.264h-.066s.066 0 0 .066v.264l-.066.132.066.066v.66h.066v.33s0 .066-.066.066v.528s-.066.066 0 .132v.132h-.066v.66s-.066.066 0 .066h.066v.264s.066.066 0 .066h-.066c.066 0 0 0 0 .066v.264s-.066.066-.066.132v.66l.066.066v.066h-.066v.198c0 .066-.066.132-.066.132v.264h-.066s.066 0 0 .066v.132l.066.066c0 .066-.066 0-.066 0v.33s0 .132-.066.132v.066l.066.066s0 .066-.066.066v.66s-.066.066 0 .066v.132c0 .066 0 .198-.066.264 0 0 0 .264-.066.33v.198c0 .066-.066.132-.066.198l-.066.33c0 .066 0 .066-.066.132v.132s0 .33-.066.33v.132s-.066.066 0 .066v.132s-.066.066 0 .066v.396c0 .132-.066.528-.066.528 0 .132-.066.198-.066.33v1.121c0 .066-.066.132-.066.198v.132c0 .066 0 .528-.066.594v.594c0 .132 0 .198.066.33-.858-.33-.792-.198-.726-.132"/><path d="M120.537 63.703c-.066 0-.066.066-.132 0s.066-.066.132-.132v-.066c0-.066 0-.066.066-.132.066 0 0 0 0-.066v-.066c0-.066 0 0-.066-.066l-.132-.066c0-.066.066-.066.066-.132s-.066-.066-.066-.066v-.066l-.066-.066v-.132c-.066 0-.066-.066-.066-.132s-.066-.066-.132-.066c-.066-.066-.066-.066-.066-.132s0-.066-.066-.132c0-.066-.066-.066-.066-.132s-.066-.066-.066-.132l-.066-.066h-.066c-.066 0 0-.066 0-.066-.066 0-.066-.066-.066-.066-.066 0-.066-.066-.132-.066 0 .066.066.066.066.066-.066 0-.132 0-.198-.066 0-.066 0-.132-.066-.132-.066.066-.066 0-.132 0 0 .066 0 .066.066.132h-.396c-.066 0-.132-.066-.198-.066s-.132-.066-.198 0c-.066 0-.132-.066-.198-.066h-.989c-.066 0-.132 0-.132.066-.066 0-.198.066-.33.066-.066 0-.198.066-.264.066s-.066 0-.066.066l-.528.198c-.066.066-.198.066-.264.132l-.132.132h-.066c-.066 0-.132.066-.198.132 0 .066-.132.132-.198.132s-.132.066-.198.132-.132.066-.198.132c-.132.066-.198.132-.33.198h-.132c-.066 0 0 .066-.066.066 0 0-.066 0-.132.066 0 .066-.132.066-.132.132h-.066c-.066.066-.132.066-.198.132l-.066.066s-.066 0-.132.066c-.066 0-.132.066-.198.066v.066h-.066c-.066 0-.066 0-.132.066l-.066.066h-.132c-.066 0-.132.066-.132.066-.066 0-.066.066-.132.066-.066.066-.198.066-.264.132s-.198.066-.264.132h-.132c0 .066-.198.066-.264.132s-.198.066-.264.066c-.198.066-.396.132-.594.132h-.198c-.066 0-.132-.066-.198-.066v-.066c-.066 0-.132-.066-.198-.132s0-.198-.132-.198c-.066 0-.132-.066-.198 0-.066 0-.066 0-.066-.066v-.132c0-.066-.066 0-.132 0s-.066-.066 0-.132v-.198c-.066 0 0-.132-.132-.066 0 .066-.066.066-.132.066s0-.066-.066-.066h.066c0-.066 0 0-.066-.066 0-.066-.066-.066 0-.066s.198-.066.198-.198v-.132h-.066s0-.066-.066-.066-.066.066-.132 0v-.132c-.132 0 .066-.198.066-.198h-.132c-.066 0-.132 0-.132-.066 0 0 0-.066.066-.066v-.066c0-.066-.066-.066 0-.132 0-.066.066-.066.066-.132s0-.066-.066-.132c0 0 0-.132.066-.132.066-.066.066.066.132 0 .066 0 .066-.132.066-.132 0-.066-.066 0-.132-.066-.066 0-.132-.132-.132-.198.066-.066.132 0 .132-.066.066-.066-.066-.066-.066-.066-.066 0-.066-.066 0-.066h.132v-.132c0-.066 0-.132-.066-.066-.066 0 0 .066-.066.132 0 .066-.132.066-.132 0l.066-.066v-.198c0-.066-.066-.132.066-.066.066 0 .066.132.132.066s0-.198 0-.264v-.132c0-.066-.066-.066-.066-.132v-.066s.066-.066.066-.132c0 0 0-.132.066-.066v.132l.066-.066v-.066c0-.066-.066 0-.066-.066s0-.066-.066-.066v-.066c0-.066 0-.066-.066-.132 0-.132.132-.066.132-.132s.066-.066 0-.132c-.066 0-.132 0-.198-.066-.066 0 0-.066 0-.066v-.066l.066-.066c0-.066-.066-.066-.066-.066.066 0 .132 0 .132-.066.066-.066-.066-.066-.066-.066-.066-.066-.066-.066-.066-.132v-.198s-.066-.066 0-.066h.132c.066-.066.066-.066 0-.132 0-.066 0-.066-.066-.132-.066 0-.066 0-.132-.066v-1.781c0-.066.066-.132.066-.132l-.066-.066v-.264c0-.066.132 0 .132 0 .066 0 .132.066.066-.066 0-.066-.132-.066-.132-.066v-.066s-.066.066-.066 0v-.198c0-.066 0-.066.066-.066s.132 0 .132-.066 0-.066-.066-.066-.132-.066-.132-.132v-.33h.132c.066 0 .066-.066.066 0 .066 0 .066.066.066 0v-.066s0-.066.066-.066c-.132-.066-.066-.066-.132-.132 0-.066 0-.132-.066-.198s-.066-.066-.066-.132.066 0 .066-.066v-.132s.132 0 .066-.066c0 0-.132 0-.132-.066s.066 0 .132-.066v-.132c0-.066-.066 0-.066-.066s0-.066.066-.066.066.066.132.066.066-.066.066-.132c-.132.066-.066-.066-.132-.066-.066-.066 0-.264 0-.33v-.264c-.066-.066-.132.132-.198.132 0 0-.066.066-.132.066v-.132c0-.066.066-.066.066-.066v-.132c-.066 0-.066-.066-.066-.132v-.198c0-.132 0-.198.066-.33 0 0 .066-.066.066-.132h.132l.066-.066h.066s.066-.066 0-.066c0-.066-.066 0-.066 0-.066 0 0 0-.066-.066 0-.066-.066-.066-.066-.132s-.066-.132 0-.198c0-.066.066 0 .066-.132 0-.066.066 0 .066-.066h-.132c-.066 0-.066-.132-.132-.198 0-.066-.066-.066-.066-.132-.066-.132 0-.264 0-.33.066 0 .198.066.198 0-.066-.066-.066-.198-.132-.198s-.132 0-.132-.066v-.132c0-.132-.066-.198-.066-.264l.066-.132c0-.066-.066.066-.132.066 0-.066 0-.132-.066-.264 0-.066 0-.066-.066-.132l-.132-.132c-.066-.066-.066-.066-.066-.132s.066-.066.066-.132c0-.132-.132 0-.132.066-.066 0-.132-.132-.198-.198l-.132-.132c-.066 0-.132-.066-.132-.132-.198-.066-.396-.132-.594-.264-.132-.066-.198-.066-.33-.066s-.264-.066-.396-.066h-.33c-.132 0-.264.066-.33.066s-.066.066-.132.066h-.396c-.066 0-.132.066-.198.066s-.198.066-.264.066-.066.066-.132.066-.132.066-.198.066c-.132.066-.198.066-.264.132-.198.132-.396.198-.528.33a.5.5 0 0 1-.264.132c-.066.066-.198.066-.264.132 0 .066 0 .066-.066.132l-.132.132c-.132.066-.132.132-.264.264l-.198.198c-.066 0-.066.066-.132.132s-.066.066-.132.066c-.132.132-.33.264-.396.396v.066c-.066 0-.066.066-.066.066-.066 0-.066 0-.132.066s-.066.132-.132.198l-.198.198c-.066 0-.066.066-.132.066s-.066.066-.066.132c-.066.066-.198.132-.264.198a.5.5 0 0 0-.264.132c-.066 0-.132 0-.132.066-.066 0-.066.066-.132.066s-.066.066-.132.066h-.198c-.132 0-.198.066-.264 0-.066 0-.066 0-.132-.066-.066 0-.066-.066-.132-.066s-.132.066-.198 0c-.066 0-.066-.066-.066-.132s-.066-.066-.132-.066H98.9c-.066 0-.066.066-.132.066s-.066.066-.132.066c-.066.066-.264 0-.33 0h-.33c-.264 0-.462.066-.726.066-.132 0-.198.066-.33.132-.066 0-.066 0-.132.066h-.066c-.132 0-.198.132-.33.198s-.198.066-.264.132c-.066 0-.132.066-.132.132v.066h-.066s0 .066-.066.066c0 0-.066 0-.066.066-.066 0-.066.132-.132.132-.132 0-.198.198-.264.264s-.132.132-.198.264c-.066.066-.132.132-.132.264-.066.066-.066.132-.132.264a.5.5 0 0 0-.132.264.5.5 0 0 1-.132.264c-.066.198-.198.396-.198.594 0 .132-.066.264-.066.396v.33c-.066.264-.066.462-.066.726v.594c-.066.132 0 .33 0 .462v2.771c0 .066-.066.132-.066.198v.726c-.066.066 0 .066 0 .132-.066.066-.066.198-.066.264v.132c0 .066-.066.132-.066.198l.066.066c0 .066 0 .066-.066.066v2.441c0 .066-.066.132 0 .198s0 .198 0 .264 0 .198-.066.264h.066v.264c0 .066-.066.066 0 .132.066 0 0 .132 0 .132v.858c0 .066-.066.132-.066.198v1.649c0 .132 0 .33.066.396h.066v.066c0 .066.066.066.066.066 0 .066.066.132.066.198.066.132.132.198.264.264s.198.198.396.198c.066 0 .132 0 .198.066h.198c.132 0 .264.066.396 0s.33 0 .462-.066l.396-.198c.066 0 .132-.066.132-.066.066-.066.132-.066.198-.066s.066-.066.132-.132h.066c.066 0 .066-.066.066-.066.066-.066.198-.066.264-.132.066 0 .066-.066.132-.066.066-.066.066-.066.132-.066l.066-.066h.066s0-.066.066-.066l.066-.066c.066-.066.132-.132.132-.198 0 .066.198 0 .132 0h-.066c-.066-.132.132-.066.198-.198v-.33h.066v-.066c.066-.066.066 0 .066 0 .132-.066 0-.066 0-.132v-.132s.066 0 .066-.066v-.066c.198 0 .066-.066.066-.132s.066-.066.132-.132l.066-.066c.066-.066-.066-.066 0-.066 0-.066.066-.066.132-.066 0-.066.066-.132 0-.264 0-.066-.066-.066-.132-.132s-.066-.132-.066-.198-.066-.132-.066-.264c.066-.066.066.198.132.198s.066-.066 0-.132-.066-.066-.066-.132v-.066s-.066 0-.066-.066.066-.066.066-.132l.066-.132s0-.066-.066-.066v-.066c.066-.066.132-.132.132-.198s0-.132-.066-.132c0 0-.132.066-.066-.066-.066 0-.264 0-.198-.066s.198 0 .198-.066v-.066c0-.066 0 0-.066 0s-.066-.066-.066-.132-.066-.066 0-.132c0 0 .066 0 .066-.066s-.066-.066-.066-.132.066-.066.132-.132.066-.132.066-.198h-.066c-.066 0-.066.066-.132.066s-.066 0-.066-.066.066-.066.066-.132-.066 0-.132-.066l.066-.132v-1.253c0-.066 0-.066.066-.066h.132c0-.066-.066-.066-.066-.132-.066 0-.066-.066-.066-.066s-.066 0-.066-.066c-.066-.066.066-.132.066-.198-.132 0 .066-.132.066-.132.066-.066 0-.066-.066-.066v-.132s-.066-.198 0-.132 0 .198 0 .198h.132c.066-.066.066-.066.132-.066.132 0 .066-.066 0-.066 0 0-.066 0-.066-.066s0-.066.066-.132v-.132c0-.066-.066-.066-.066-.066 0-.066.066 0 .066-.066 0 0-.066-.066-.066-.132 0 0 .066 0 0-.066h-.066c-.066-.066-.132-.066-.198-.198-.066 0-.066 0-.066-.066s.066-.066 0-.132v-.132c.066 0 .066.066.132.066s.132-.066.066-.066c0-.066-.066-.132-.132-.198.066-.066.33 0 .198-.132-.066 0-.066 0-.066-.066h.132c.132 0 .066-.132.132-.198s0-.132 0-.198 0-.066-.066-.066c0-.066-.066-.066-.132-.132.066-.066.066-.066.066-.132s-.066-.066-.066-.132v-.132c0-.066-.066-.066-.066-.132s.132-.198.132-.198c.066 0 .198.066.264-.066 0-.066-.066-.066-.132-.066H98.9c.066-.066.198 0 .198-.132 0-.066-.066-.066-.066-.066 0-.066.066-.066.066-.132 0 0 .132 0 .132-.066s-.066-.066-.132-.066c-.132 0-.198-.066-.132-.132v-.066h.066c.066-.066-.066-.066-.066-.132s.264 0 .132.132h.066c.066 0 0 0 .066-.066s.132-.066.066-.132-.132 0-.132-.066c-.066-.066.066-.132.066-.198.066 0 .066-.066.066-.132s-.066-.066-.066-.132l.066-.066v-.396c0-.066-.066-.066 0-.132 0 0 0-.066.066-.066h.066v-.132h.066c.066-.066 0-.066 0-.132s.066-.066.066-.132c0-.132.066-.198 0-.33 0-.066-.066-.066 0-.132.066 0 .066-.066.132-.066.066-.066.132-.066.264-.132.066-.066.066-.198.066-.264s-.132-.132-.066-.132h.066c.066 0 0 .066 0 .066.066.066.066 0 .132 0 .066-.066.066-.132.132-.132.066-.066.132-.198.264-.198.066 0 .066-.066.132-.066s.066-.066.132-.066c.066-.066.066-.198.066-.33.066 0 .198-.066.198-.132.066-.066 0-.066 0-.132s0-.066.066-.132c0-.066.066-.066.066-.132s.066-.066.132-.066c.066-.066.066-.066.132-.066.132 0 .132-.198.264-.198l.066-.066c.066 0 .132 0 .198-.066l.132-.132c.066 0 .132 0 .198-.066s.132-.132.264-.132h.264c.066 0 .066-.066.132-.066h.066s0 .066.066.066h.066l.066.066c.132.066.198 0 .33 0 .198 0 .396.198.528.33 0 .066.066.066.066.132s0 .066.066.132c0 0 .066 0 .066.066v2.177h-.066c0 .066 0 0 .066.066v.66c0 .264-.066.462-.066.726v.528h-.066v.066c0 .066-.066.132 0 .198h.066v.132c0 .066-.066.066-.066.066 0 .066-.066.132-.066.198 0 0 .066 0 .066.066v.264s.066 0 .066.066v.066c0 .132-.066.198-.066.264s-.066.066-.066.132v.132c0 .132 0 .264-.066.396s.066.132.066.264.066.198.066.33 0 .264-.066.396c-.066.066 0 .264 0 .33v.66l-.066.066c-.066.066 0 .132 0 .198s-.066.132-.066.198.066.066.066.132v.396c0 .066.066.066.066.132v1.385c0 .132 0 .198.066.33v.198c0 .066 0 .066.066.132 0 .066.066.066.066.066.066.066.066.066.066.132s.066.132.066.132c0 .066.066.066.132.132s.132.198.198.198c.066.066.066.066.132.066s.066.066.132.132a.5.5 0 0 0 .264.132c.066 0 .132 0 .132.132 0 .066-.066.132-.066.132-.066 0-.066.066-.132.066-.066.066-.132.066-.198.132h-.132c-.132.066-.198.132-.33.198-.066.066-.132.066-.198.132s-.132.066-.198.132-.066.066-.132.066-.066.066-.132.066-.066.066-.132.066-.066.066-.132.066c-.132.066-.198.132-.33.198-.198.066-.396.198-.528.264-.396.198-.792.528-1.187.726-.066.066-.198.066-.33.132l-.132.132c-.066 0-.066.066-.132.066-.198.132-.396.198-.594.33-.066.066-.198.066-.198.132 0 0-.132 0-.132.066-.066 0-.066.066-.132.066l-.396.198h-.066c-.066 0-.132.066-.198.132l-.132.132c-.066 0-.132 0-.132.066-.198.066-.396.198-.594.33-.198.066-.396.198-.528.33l-.132.132h-.066l-.066.066c-.066 0-.066 0-.132.066-.066 0-.066.066-.132.066-.198.132-.396.198-.594.33s-.396.198-.594.33c-.066.066-.198.132-.264.198a.5.5 0 0 1-.264.132c-.198.066-.33.198-.528.264-.066.066-.198.066-.264.132-.132.066-.132.132-.198.198-.066 0-.066.066-.132.066h-.132c-.066.066-.198.132-.264.198-.198.132-.396.264-.594.33-.066.066-.132.066-.198.132s-.132.066-.198.066-.066.066-.132.066-.066.066-.132.066-.066.066-.132.066c-.066.066-.066 0-.132.066-.066 0-.066.066-.132.066s-.066 0-.132.066c0 .066-.066.066-.066.132h-.066s-.066 0-.066.066l-.066.066h-.066v.066h-.066c-.066 0-.198.066-.198.132-.066.066-.066.066-.132.066s-.066.066-.132.066l-.132.066c-.066 0-.066-.066-.132-.066s-.132.066-.198.066v.066l-.066.066c-.066.066-.132.198-.198.198s-.066-.066-.132 0l-.066.066c-.066.066-.132.132-.264.132s-.198.066-.264.132-.198.066-.264.132c-.132.066-.198.066-.264.198-.066.066-.198.066-.264.132l-.198.198c-.066.066-.132.066-.264.132-.066.066-.198.132-.264.198s-.132.066-.198.066-.132.066-.198.132-.198.132-.264.198a.5.5 0 0 1-.264.132c-.132 0-.198.132-.264.198-.066 0-.132.066-.198.132-.066 0-.066 0-.132.066s-.132.066-.132.132c-.066 0-.198.066-.198.132h.066c-.264.066-.462.264-.726.396s-.462.33-.726.462l-1.319.792c-.264.198-.528.33-.792.528-.066 0-.066.066-.132.132h-.132c-.066 0-.066.066-.132.132s-.132.066-.198.066c-.066.066-.198.066-.264.132s-.198.066-.264.132-.066.066-.132.066-.066.066-.132.066a.5.5 0 0 1-.264.132c-.066 0-.066.066-.132.066s-.066 0-.066.066c0 0-.066.066-.132.066s-.066.066-.132.066l-.066.066h-.066l-.066.066h-.066s0 .066-.066.066c0 .066-.066.066-.132.066s-.264.132-.264.066 0-.198-.066-.264c.066-.066.066-.066.066-.132v-.132c0-.066.066-.066 0-.132 0-.066-.066-.066 0-.132 0-.066.066-.198 0-.264-.066-.132-.066-.198 0-.264.066-.132 0-.198 0-.264 0-.132 0-.198.066-.33 0-.066 0-.198.066-.33 0-.066.066-.066.066-.132v-.132c0-.066 0-.066.066-.066v-.132c0-.066.066-.066 0-.132v-.132c0-.066-.132-.066-.066-.198.066-.066.066-.132.066-.264-.132 0 0-.066 0-.132-.066 0-.066-.198-.066-.264h.066c0-.066-.066-.066-.066-.132-.066-.066 0-.066.066-.132s.132-.132.132-.264c0-.066 0-.066-.066-.132 0-.066 0-.066.066-.132v-.264c0-.066-.066-.066-.132-.132v-.528l.066-.066c0-.066-.066 0-.066-.066v-.132c0-.066 0-.132.066-.198 0-.132.066-.264 0-.462v-.198c0-.066.066-.066.066-.132.066 0 .066 0 .066-.066h-.132v-.792c0-.066.132-.198.066-.264-.132 0 0-.066 0-.132v-.198c0-.132 0-.33.066-.462 0-.132 0-.33.066-.462v-.33l.066-.066c-.066 0 0-.132 0-.198v-.66c0-.066-.066-.264.066-.264 0-.33.066-.66.066-.989s0-.594.066-.924c0-.066 0-.132.066-.264v-.924s.066-.066 0-.066c0-.066-.066-.066-.066-.066 0-.066.066-.066.066-.132s-.066-.132-.066-.198.066-.132.066-.198v-.594c.066 0 .264-.066.132-.198 0 .066-.066.132-.132.066s0-.132 0-.198-.066-.198 0-.198h.066c.066-.066-.066-.132-.066-.198s0-.066.066-.066 0 .066.066.066v-.132c0-.066-.066-.066 0-.066 0 0 .066 0 .066-.066v-.066c0-.066.066-.066.066-.132s-.066-.132-.066-.132v-.132c0-.066 0-.132-.066-.132-.066-.066-.066-.066-.066-.132.066-.066.198-.132.132-.264 0-.066-.066-.066-.066-.132s.066-.066.066-.132 0-.066-.066-.132v-.198c0-.132-.066-.264.066-.33.066 0 .132-.066.066-.132 0-.066-.066-.066 0-.132 0-.066.066-.132-.066-.132 0-.066-.066-.132 0-.132 0 0 .066 0 .132-.066s.066-.066.066-.132-.066-.066-.132-.066c-.066-.066-.066-.198-.066-.264v-.132c0-.066.066-.066.066-.066-.066 0-.066-.066-.066-.132v-.594c0-.066.066-.066.066-.132s-.132-.066-.066-.132c0-.066.066 0 .132-.066h.066c-.066-.066-.132 0-.132 0-.066 0-.066-.066 0-.132.066-.132 0-.198-.066-.264-.066 0-.066-.066-.066-.132s-.066-.066-.066-.132l-.198-.198c-.132-.198-.33-.264-.594-.33-.132-.066-.264-.132-.396-.132h-.396c-.264-.066-.528 0-.726.066-.066 0-.132.066-.264.132-.066 0-.066 0-.132.066h-.198v.066c-.066 0-.132.066-.132 0 0 0-.066 0-.066.066-.066 0-.132.066-.198.132s-.132.066-.198.132l-.396.396h-.066v.066l-.132.132v.066c0 .066-.066 0-.066.066-.066.066-.132.198-.132.33 0 .066 0 .132-.066.132 0 .066-.066.066-.066.132v.33c0 .132-.066.198-.066.33v.198c0 .066 0 .132-.066.132 0 .132 0 .264-.066.33 0 .132-.066.264 0 .396v.396c0 .132 0 .198-.066.33v.726c0 .066-.066.132-.066.132s0 .066.066.066v.924c0 .132-.066.198-.066.33v.33c0 .132-.066.264 0 .396v1.385c0 .066-.066.132-.066.264v.264c-.066.066-.132-.066-.132.066l-.066.132c0 .066.066 0 .066.066v.396s-.066 0-.066.066v.132c0 .132.066.264 0 .396s0 .264-.066.396c0 .132-.066.264-.066.396v.33c0 .132 0 .198-.066.33 0 .132-.066.198-.066.33 0 .066-.066.198-.066.264s.066.198 0 .33h-.066v.594c0 .198-.066.33-.066.528v.132c0 .066-.066.066-.066.132-.066.132 0 .264-.066.396 0 .132-.066.198-.066.33 0 .198-.066.462-.132.66v.132c0 .066 0 .066-.066.132s-.066.198-.066.33c-.132.396-.198.792-.462 1.121l-.198.198c-.132.132-.198.264-.33.396-.066.066-.132.066-.132.132h-.066c0 .066-.066.066-.066.132 0 0 0 .066-.066.066 0 0-.066 0-.066.066-.066 0-.066.066-.132.066s-.066.066-.132.066-.066 0-.132.066-.066.066-.132.066-.132 0-.198.066c-.066 0-.132.066-.132.066-.132.066-.396.066-.528.132h-.462c-.066 0-.132-.066-.132-.066-.066 0-.132-.066-.198-.066-.066-.066-.132-.066-.132-.132-.066-.066-.198-.132-.264-.264a.5.5 0 0 1-.132-.264c0-.066 0-.132-.066-.198 0-.066-.066-.066-.066-.132-.066-.198-.132-.396-.132-.66 0-.198-.066-.396 0-.66 0-.066.066-.066.066-.132s-.066-.066-.066-.132c0 0 .066-.066.066-.132 0-.132 0-.198-.066-.264v-.33c0-.066.066-.066.066-.132.066-.066.066-.198.066-.264v-.33c0-.198 0-.462.066-.66.066-.132.066-.198.066-.33v-.594c0-.066.066-.066.066-.066v-.132c.066 0 .132-.198.132-.264 0-.132-.066-.264-.066-.33-.132 0-.066-.066-.066-.132l-.066-.066v-.462c.132 0 0-.396 0-.462s0-.132.066-.132c.066-.066.132-.132.132-.264v-.198c0-.066 0-.066.066-.132 0-.066 0-.132.066-.132 0-.066.066-.066.066-.132.066-.132.066-.198.066-.33s.066-.264.066-.396c.066-.132.066-.198.132-.33s.264-.198.264-.33.066-.264.066-.396 0-.33.132-.396c0-.066.066-.198.066-.132v-.132c.132 0 .066-.132.066-.198s.066-.198.132-.066c.066-.066.066-.132.132-.198h0c0-.066 0-.132.066-.198-.132-.066 0-.132.066-.132.066-.066.066-.132.132-.132.132-.066.198-.066.198-.198h.066c0-.132 0-.198.066-.33.066-.066.198-.264.198-.264v-.132c.066-.066.066 0 .132-.066.066 0 .066-.132.132-.132 0-.066.132 0 .132-.066.066 0 .132-.132.132-.198s0-.066.066-.132c0 0 .066-.066.066-.132.066 0 .132 0 .132-.066-.066 0 0-.066 0-.132.066 0 0-.066 0-.066l.066-.066c.066-.066.132-.066.132-.132-.066 0 0-.198 0-.264s.066-.066.066-.132v-.132c0-.066.132-.198.132-.33 0-.066 0-.132-.066-.132 0 0 .066 0 .066-.066s0-.198.066-.264.066-.198 0-.33c0-.066 0-.066-.066-.132v-.132c-.066 0 0-.066 0-.132s0-.066-.066-.132l-.066-.066s-.066-.066-.066-.132c-.066-.066-.066-.066-.132-.066h-.132c-.066 0-.066-.066-.132-.066h-.132c-.066 0-.066 0-.132-.066h-.132c-.066 0-.066 0-.132.066h-.198c-.066 0-.132 0-.132.066-.066 0 0 .066-.132.066s-.198.066-.33.066-.198.066-.264.066-.066.066-.132.066-.066.066-.132.066h-.132c-.066 0-.066.066-.132.066a.5.5 0 0 0-.264.132c0 .066-.066.066-.066.066 0 .066-.066.066-.132.066s-.066.066-.132.132l-.066.066s-.066 0-.066.066c0 0-.066.132-.066.066-.066 0 0 0-.066.066h-.066c-.066 0-.132.066-.132.132-.198.066-.33.198-.462.33s-.33.198-.396.33l-.198.198s-.066.066-.066.132-.066.066-.066.132h-.066s0 .066-.066.066c0 0-.066.066-.066.132-.066.066-.132.132-.132.198 0 0 0 .066-.066.066 0 0-.066 0-.066.066-.066.066-.066.132-.066.198-.066.066-.198.198-.198.264 0 0-.132.198-.198.198-.066.066-.066.066-.066.132-.066 0 0 .066 0 .066l-.066.066c-.066.066-.066.132-.132.132-.066.066-.132.066-.132.198 0 .066-.066.132-.066.198h-.066c-.066 0 0 .066-.066.132 0 .066-.066.066-.066.132s-.066.066-.066.132v.066s-.066 0-.066.066v.066l-.066.066c0 .066-.066.066-.066.132s-.066.066-.066.132-.066.066-.066.132 0 .066-.066.132c0 .066-.066.066-.066.132-.066.132-.066.198-.132.264 0 .066 0 .066-.066.132 0 .066-.066.066-.066.132v.132c0 .066-.066.066-.066.132 0 0 0 .132-.066.066 0 .066 0 .132-.066.198 0 .066-.066.132-.066.198s-.066.198-.066.264-.066.198-.066.264c-.066.066-.066.198-.066.264s-.066.198-.066.264c-.066.198-.066.396-.066.528 0 .066-.066.198-.066.264s-.066.066 0 .132c0 .066.066.066 0 .066 0 .066-.066.198-.066.264v.462c0 .066-.066.132-.132.198v.198s-.066 0 0 .066c.066 0 0 .132 0 .132l-.066.066v.396c0 .198 0 .462-.066.66v.858c0 .066-.066.132-.066.198s-.066.132-.066.198-.066.132-.066.198v.396c.066.066-.066.33 0 .396 0 .066.066.132.066.132v2.375c-.066.264 0 .528 0 .792v.264h-.066c.066.066.066.132.066.264 0 .066.066.198.066.264v.264c.066.198.066.33.132.528v.132c0 .066.066.066.066.132s.066.198.066.264.132.198.066.264c.066.066.066.132.066.198s.066.066.132.132 0 .132.066.198l.132.132c.066.132.198.198.264.33.066.066.198.132.264.198 0 0 0 .066.066.066v-.066c.132.132.33.198.462.264s.198.066.33.132c.066 0 .066.066.132.066 0 .066 0 .132.066.066v-.066c.066 0 .132 0 .198.066.066 0 .066.066.132.066h.198c.066 0 .066.066.198.066h.792c.066-.066.264 0 .33 0h.198c.066 0 .132 0 .198-.066.132-.066.264 0 .396-.066s.264-.066.396-.066c0-.066.066 0 .132 0h.066v-.066c.066-.066.066 0 .132 0v.066h.066c.066 0 .066 0 .132.066h.132c.066 0 .198.066.198 0-.066 0-.198.066-.198-.066 0-.066.132-.066.198-.066s.132-.066.198-.066.132.066.198 0l-.066-.066h.132c.066 0 0-.066.066-.066h.264c.066 0 .132-.066.264-.066.066 0 .198 0 .198-.132h.132c.066 0 0-.066.066-.066.066-.066.132 0 .198-.066.066 0 0-.066.066-.066 0 0 .066 0 .066-.066.066-.066.066-.132.132-.132s.198 0 .198-.066c.066-.066 0-.132.066-.132s.132-.066.198-.066.066-.066.132-.066.132-.066.198-.066c0-.066.066-.132.132-.132.066-.066.066-.066.132-.066h.066c.132 0 .132.264.132.33 0 .132 0 .264.066.396v.198c-.066.066-.066.132 0 .198 0 .066.066 0 .066.066v.264c0 .066.066.066.066.132s0 .066-.066.066v.132c.066.066 0 .066.066.066v.198c0 .066.066 0 0 .066l-.066.066v.198c.066.066 0 .066 0 .132s.066.066 0 .066v.132c-.066.066-.132.066-.198.132s-.066.066-.132.066-.066.066-.132.066-.132.066-.132.066l-.264.264c-.066.066-.198.132-.33.198l-.198.198c-.066.066-.198.066-.264.198h-.066c-.264.066-.528.33-.726.462-.066.066-.198.132-.264.198l-.132.132c-.066 0-.132.066-.132.132 0 0 0 .066-.066.066l-.066.066c-.066.066-.132.066-.132.132-.198.132-.396.264-.528.396-.198.132-.396.396-.594.528-.264.132-.462.396-.726.528 0 .066-.066.066-.132.132-.066 0-.066.066-.132.066a.5.5 0 0 1-.264.132c-.066 0-.132.066-.132.066-.066.066 0 .066-.066.132-.066 0-.066 0-.132.066l-.132.132c-.066 0-.066.066-.132.066-.066.066-.066 0-.132.066 0 .066-.066.066-.132.132s-.132.132-.198.132c-.066.066-.132.066-.198.132s-.066.132-.198.132c0 .066-.066.066-.132.132-.066 0-.066.066-.132.132s-.132.066-.132.066c-.066 0-.066.066-.132.132s-.066.066-.132.066-.132.066-.198.066c-.066.066-.198.132-.264.198-.132.066-.264.198-.396.264s-.264.198-.396.264c0 .066-.066 0-.132.066l-.198.198c-.066.066-.132.066-.198.132s-.132.132-.198.132c0 .066-.066.066-.132.066s-.066.066-.066.132c-.066 0-.066 0-.132.066 0 0 0 .066-.066.066h-.066l-.198.198c-.066 0-.066.066-.132.066s-.066.066-.066.132c-.066 0-.198.132-.264.132s-.066.066-.066.066c-.066 0-.132.066-.132.066l-.066.066v-.066c-.066 0-.066.066-.066.132-.066.066-.066.066-.132.066a.91.91 0 0 1-.264.198.91.91 0 0 1-.264.198c-.066.066-.132.066-.198.066s-.066.066-.132.066v.066c-.132.066-.198.132-.264.198-.066 0-.132.066-.132.132l-.396.396c-.066.066-.132.066-.198.066l-.132.132c-.066.066-.198.132-.264.198l-.198.198c-.066.066-.198.132-.264.198s-.198.132-.264.198-.132.198-.198.264c-.132.066-.132.132-.264.198-.198.132-.396.33-.594.462s-.396.33-.594.462c-.132.066-.264.132-.33.264l-.132.132c-.066 0-.066.066-.132.066-.132.132-.33.264-.462.396s-.33.264-.462.396c-.132.066-.198.198-.33.264.066.132-.264.132-.264.33-.066 0-.066-.066-.132-.066 0 .132-.264.264-.396.33-.066.066-.132.066-.198.198s-.132.066-.264.132c0 .066-.066.132-.066.132l-.132.132c-.066.132-.132.198-.264.264-.198.132-.396.33-.594.528-.066.066-.132.066-.198.132s-.066.132-.132.198c-.066-.066-.066.066-.132.066-.066.066-.132.066-.132.066-.066.066-.198.132-.264.198-.198.132-.33.33-.594.462s-.396.462-.66.594c-.066 0-.132.066-.132.066-.066.066-.066.132-.132.132l-.264.264c-.132.066-.198.132-.33.264l-.066.066c-.132.066-.198.132-.33.264-.066.066-.264.198-.264.198-.132.066-.198.198-.33.264-.066.066-.132.066-.198.132l-.132.132c-.066.066-.198.132-.33.264-.132.066-.198.198-.264.264-.198.132-.396.33-.594.462a.91.91 0 0 1-.264.198l-.396.396v.066s-.066 0-.066.066c-.066.066-.198.132-.264.264l-.396.396c-.066.066-.132.066-.132.132-.066.066-.066.066-.066.132l-.132.132c-.066.066-.198.132-.264.198l-.528.528c-.066.066-.198.132-.264.264l-.264.264c-.198.132-.396.264-.528.462-.198.198-.396.33-.594.528l-.132.132c-.066.066-.066.132-.132.132-.066.066-.198.132-.264.198s-.132.132-.198.264c-.066.066-.198.132-.264.198-.132.132-.33.264-.528.462-.198.132-.33.33-.462.462l-.594.594c-.132.066-.198.198-.264.264l-.264.264c-.132.198-.33.396-.462.594-.132.132-.264.33-.396.462-.066.132-.132.198-.198.33-.066.066-.132.198-.198.264s-.132.198-.132.33c.066 0 0 .132 0 .132.066.066-.066.264-.066.396 0 .198.066.264.066.396v.198c0 .066 0 .132.066.198 0 .066.066.198.066.264s.066.132.066.132c.066.066.066.198.132.33 0 .066.066.066.066.132.066.066.066.132.066.198.066.066.132.066.198.132s.132.198.198.198c.198.066.33.198.528.264.066 0 .132 0 .132.066.066 0 .066.066.132.066s.132 0 .198.066c.066 0 .066.066.132.066s.264.066.33.066h.132c.066 0 .132-.066.198 0 .066 0 .066.066.132 0 .066 0 .066-.066.132-.066s.132.066.132.066c.066 0 .132-.066.132-.066h.33c.066 0 .066-.066.132-.066 0 0 .066 0 .066-.066 0 0 0-.066.066-.066h.132c.066 0 .066 0 .132-.066s.066-.066.132-.066l.066-.066c0-.132.066-.066.132-.132.066 0 .066-.066.132-.132s.132-.066.132-.066.066-.066.066-.132l.198-.198c0-.066.066-.066.066-.132.066-.066.066-.066.132-.066s.066-.066.066-.066c0-.066.066-.066.066-.066.066-.066.132-.132.264-.198.132-.132.264-.198.396-.33h.066l.264-.264c.066-.066.066-.132.198-.198l.198-.198c.132-.066.132-.132.264-.198.066 0 .066 0 .066-.066s.066-.066.066-.132 0-.066.066-.132l.066-.066c.066 0 .066-.066.132-.066 0-.066.066-.066.066-.132.066 0 .066 0 .132-.066.066 0 .066-.066.066-.132.066-.066.132-.066.132-.132v-.132c0-.066.066-.066.132-.066l.132-.132c.066-.066.132-.132.198-.264.066-.066.066-.132.132-.198s.066-.132.132-.198c.066 0 .066-.066.132-.066l.066-.066h.066v-.066l.066-.066h.066c.066 0 0-.066.066-.132s.066-.066.132-.066c.066-.066.066-.066.066-.132l.198-.198c.066-.066.132-.066.198-.132 0-.066.132-.132.198-.198l.066-.066c0-.066.066-.066.066-.132.066-.066.132-.066.198-.132l.462-.462c.066-.066.066-.132.132-.198h.066c0-.066.066-.066.066-.132.066 0 .066-.066.066-.066l.198-.198c.066-.066.066-.132.198-.198.066 0 .066-.066.066-.066 0-.066.066-.066.066-.132l.198-.198a.5.5 0 0 1 .264-.132c.198-.132.264-.33.33-.462s.198-.33.396-.396c.066 0 .066-.066.132-.066l.198-.198c.066-.066.066-.132.132-.132s.132-.066.132-.066c.066-.066.066-.132.132-.198.066 0 .132-.066.132-.132v-.066c0-.066 0 0 .066-.066s.066-.066.132-.066l.132-.132c0-.066.066-.066.066-.132.066-.066.132-.066.132-.132.066-.066.132-.198.264-.264.132-.132.264-.132.33-.33.066-.066.132-.066.198-.132s.132-.066.198-.132.132-.132.198-.132c0-.066.066-.066.066-.066.066 0 .066-.066.066-.132.066-.066.066-.132.198-.198.066 0 .066-.066.132-.066s.066-.066.066-.066l.198-.198c.066 0 .132-.066.132-.132s0-.066.066-.132l.396-.396c.066-.066 0-.066.066-.066s.066 0 .132-.066l.198-.198c0-.066.066-.066.132-.132 0-.066 0-.066.066-.132l.198-.198c.066 0 .066-.066.132-.132.066 0 .132 0 .132-.066.066 0 .066-.066.066-.132 0 0 .066-.066.132-.066s.066-.066.132-.066c0 0 .066-.066.066-.132.066-.066.132-.066.198-.132s.066-.066.066-.132c0 0 .066-.066.132-.066.066-.066.132-.066.132-.132.066-.066.066-.132.132-.132.066-.066.132-.066.198-.132.132-.132.264-.198.396-.33l.198-.198c.066-.066.198-.132.264-.198l.066-.066c.066 0 .066-.066.132-.066a.91.91 0 0 1 .264-.198.91.91 0 0 1 .264-.198c.132-.132.33-.264.462-.396.066-.066.066-.132.132-.132.132-.066.198-.132.33-.198s.198-.198.264-.264c.132-.132.264-.264.462-.33.066-.066.132-.132.264-.198h.066s0-.066.066-.066c.066-.066.066-.066.132-.066a.91.91 0 0 1 .264-.198l.198-.198c.066-.066.198-.132.264-.198s.132-.066.198-.132.132-.066.198-.132.066-.066.132-.066c0 0 0-.066.066-.066 0 0 .066 0 .066-.066.066 0 .066-.066.132-.066a.91.91 0 0 1 .264-.198c.066 0 .066-.066.132-.066 0 0 0-.066.066-.066h.066s.066-.066.066-.132l.132-.132c.066-.066.198-.132.264-.198s.132-.132.264-.198c.066 0 .066 0 .066-.066.066-.066.066-.066.132-.066s.066-.066.066-.132c.066 0 .066-.066.132-.066l.066-.066h.066c.066 0 0-.066.066-.132h.066l.132-.132a.91.91 0 0 1 .264-.198c.132-.132.33-.264.462-.396.066-.066.066-.066.132-.066s.066-.066.132-.066c.066-.066.132-.066.198-.132l.198-.198c.066-.066.198-.066.198-.198 0 0 .066-.066.132-.066s.066 0 .132-.066c0-.066 0-.066.066-.066s.066-.066.132-.132.198-.132.264-.198c0 0 0-.066.066-.066h.066c.066 0 .066-.066.066-.066 0-.066.066-.066.132-.066.066-.066.198-.066.198-.132l.198-.198s.066-.066.066-.132h.066c.066 0 .066 0 .066-.066.066 0 .066-.066.132-.066 0 0 0-.066.066-.066h.066c0-.066.066-.066.132-.066.066-.066.066-.066.132-.066s.066-.066.066-.066.066-.066.132-.066.066-.066.132-.066.066-.066.066-.132c.066 0 .132-.066.132-.066.066-.066.066-.066.132-.066s.066-.066.132-.132.132-.132.198-.132c.066-.066.132-.066.198-.132 0 0 .066-.198.066-.132.066 0 .198-.132.198-.132.066-.066.198-.132.264-.198s.198-.132.264-.198l.132-.132c.066-.066.066 0 .132-.066.066 0 .066-.066.066-.132s.066-.066.132-.066c.066-.066.132-.066.198-.132l.198-.198c.066-.066.132-.132.264-.132.066 0 .066-.066.132-.132s.132-.066.198-.132.198-.066.264-.198c.066-.066.132-.132.264-.132.066 0 .066-.066.132-.066s.066-.066.132-.066c.066-.066.132-.066.198-.132s.132-.066.198-.132c.066 0 .066-.066.132-.066h.066s0-.066.066-.066c.066-.066.132-.066.198-.066v.594c0 .132.066.198 0 .33 0 .066-.066.066-.066.132v1.121c0 .066.066.264 0 .33v.396c0 .132.066.198 0 .33v3.364c0 .132.066.198 0 .33s0 .396 0 .528v.198c0 .066-.066.066-.066.132s0 .066.066.132v.264s0 .066-.066.066v1.055c0 .066 0 .066.066.132v.989c0 .066-.066.132 0 .264v.264s-.066.066 0 .066 0 .132.066.198v.066s-.066.066 0 .066c0 0 .066 0 .066.066v.396c-.066 0-.066-.066-.132 0v.132c0 .066.066.066.066.132v.33c0 .066-.066.066-.066.132s.066.198.066.33c0 .066-.066.132 0 .264v.264c0 .132-.066.198-.066.33v.528c0 .066 0 .066.066.132 0 .198.066.33.066.528v.264c0 .066-.066.132-.066.198v1.319c0 .066-.066.066-.066.132s0 .066.066.132v.198c0 .132-.066.198-.066.33v.33c0 .132-.066.198-.066.33v1.121c0 .066 0 .066.066.132 0 .066 0 .198-.066.264v.198c0 .066 0 .066-.066.132v1.847c.066.066 0 .264 0 .33v.462c0 .066-.066.066-.066.132v.264c0 .132-.066.264-.066.462v.66c0 .066-.066.132-.066.198v.462c.066 0 .066.132.066.132l-.066.066c0 .066.066.066.066.132v.462c-.066 0 0 .264 0 .33v.33s0 .066.066.066v.462h.066v.066c0 .066.066.066.066.132s.066.198.066.264h.066v.132c0 .066 0 .066.066.132 0 .132.066.198.132.33 0 .066 0 .132.066.198v.066l.066.066c.066.066.066.198.132.264s.066.132.132.198l.264.264c.066.066.198.132.264.198s.132.066.264.132c.066.066.198.066.264.132l.66.198c.132 0 .264.066.33.066h.528c.198 0 .396 0 .594-.066.066 0 .066-.066.132-.066h.132c.066 0 .066-.066.132-.066s.132 0 .132-.066c.264-.132.462-.33.726-.528.066 0 .066-.066.132-.066 0-.066.066-.066.066-.132.066-.066.132-.198.198-.264 0-.066.066-.066.066-.132s0-.066.066-.132.066-.132.066-.198l.066-.066v-.132h.132v-.066h.066l.066-.066c.066 0 .132 0 .132-.066-.066-.066-.198-.066-.264-.066h-.132v-.132c0-.066.066-.066.066-.132 0 0 0-.132.066-.132 0 0 .264.066.198-.066-.066 0-.066 0-.066-.066 0 0-.066 0-.066-.066h.066v-.132c0-.066-.066-.066.066-.132 0 0 .066-.132.198-.132.066-.066.066-.132 0-.132 0 0 0 .066-.066.066s0-.066 0-.066c0-.066-.066 0-.132 0s-.066-.066-.066-.066v.066c-.066 0-.066 0-.066-.066s.066-.066.066-.066-.066 0-.066-.132c0-.066.066-.066.066-.132 0 .066-.066.132-.066.066l.066-.066c-.066.066-.066-.066-.066-.066-.066-.066-.132 0-.132 0s.066 0 .066-.066c-.066 0-.066-.066-.066-.066 0-.066-.066-.066 0-.066h.066s0-.066.066-.066.132 0 .132-.066c-.066 0 0-.066-.066-.132l-.066-.066h-.066c-.066 0-.132.066-.132 0v-.066l-.066-.066v-.066c.066 0 .066.066.066.066 0 .066.066.066.066.066.066 0 .132.066.132 0v-.132s.132 0 .132-.066c0 0-.132-.066-.066-.132 0 0-.066 0-.066-.066.066-.066.066 0 .132 0s.066-.066.066-.066c-.132 0-.066-.066.066-.066s0 .132 0 .132c.066 0 .132-.132.066-.198 0-.066-.066 0-.132-.066-.066 0-.066 0-.132-.066-.066 0-.066-.066-.132-.132-.066-.132-.132.066-.198 0 .066-.066.132-.198.198-.132 0 0 0 .066.066.066s.066-.066.066-.066c-.066 0-.066-.066-.066-.066-.066 0-.066 0-.066-.066-.066 0-.066-.066-.066-.066-.066-.066-.066.066-.066.066-.066-.066-.066-.132 0-.198 0-.066.066 0 0-.066l-.066-.066c-.066.066.066.198-.066.264-.066 0-.264-.066-.264-.132l-.066-.132c0-.066.066 0 0-.132l-.066-.066v-.132c0-.066.066 0 .066-.066 0 0 .066-.066 0-.066-.066-.066-.066.066-.066-.066h.066c0-.066 0 0-.066-.066 0-.066-.066-.066 0-.066.066-.066.132 0 .198 0s.132-.066.132-.132h-.066s-.132-.066-.132-.132c-.066 0-.066.066-.066.132 0 0-.066 0-.066-.066-.198 0 0-.132.066-.132h.198c.066 0 .132 0 .132-.066-.066-.066-.132-.066-.066-.132 0-.066.066-.066.132-.132 0 0 .066 0 .066-.066v-.066c0-.066.066-.066.132-.132l-.066-.066s.132 0 .066-.066l-.066.066c-.066 0 0-.066 0-.066-.066-.066-.066 0-.132 0v-.066h-.066c0-.066 0-.066.066-.066.066-.066-.066 0-.066-.066v-.066h-.066v-.264c0-.066 0-.066-.066-.132v-.066s0-.066 0 0v.066l-.066-.066v-.066l.066-.066v-.132h-.066s0-.066-.066-.066h-.066v-.132s0-.132-.066-.066c0 0-.066 0-.066.066 0 0-.066 0-.066.066s.066.066 0 .132h-.066v-.066l-.066-.066h-.066v-.198s-.066 0-.132-.066c0-.066 0-.066.066-.066v-.264c0-.066.066-.066.066-.066v-.132c-.066-.066-.132-.066-.132-.132 0-.132.264-.132.198 0-.132 0 0 .132 0 .066v-.396l.066-.066h-.132c-.066-.132.198-.066.132-.198-.066-.066-.264-.066-.132-.132.066 0 .066-.066.066-.066v-.066c0-.066-.066 0-.066 0s-.132 0-.132-.066v-.264s0-.066.066-.066h.132c.132-.066-.066-.132-.198-.066-.066 0-.066.066-.132 0s0-.132.066-.132c.132-.066 0-.198.066-.264h.066v-.066c.066 0 .066 0 .066-.066 0 0 0-.066.066-.066 0-.132-.132-.066-.198 0h-.066c.066-.066.066-.066 0-.132-.066.066-.066 0-.132 0v-.132c-.066 0-.198-.066-.198-.132s.066-.132.132-.132c.066-.066.066-.198.066-.264-.066-.066-.066 0-.066-.066v-.066l-.066-.066c-.066-.132.132-.066.198-.132.066 0 .066-.066.132-.066 0-.066-.066-.066-.132-.066h-.066v-.264s.066 0 .066-.066-.066-.066-.066-.066c-.066 0 0 .066 0 .066l-.066.066c-.066 0-.066-.066-.132 0-.066 0 0-.066 0-.066l-.066-.066c0-.066.132-.066.066-.132 0-.066-.066-.066-.132-.132s.066-.066.066-.132c0-.132.264 0 .33-.066s0-.066-.066-.132-.132 0-.132-.066.066-.132 0-.132c-.066-.066-.132 0-.132-.066s.066-.066 0-.132v-.066h-.066c-.066 0 0-.066.066-.066v-.066s.066 0 .066-.066 0-.132.066-.132c.066-.066.132 0 .132 0 .066 0 .066-.066.066-.066 0 .066-.066.066-.066 0s.066-.066.066-.132v-.132s.066 0 .066-.066c-.066 0-.066.066-.066.066l-.066.066v-.132c0-.066-.066-.066-.066-.066 0-.066.066 0 .132-.066 0-.066-.066-.066 0-.132 0-.066 0-.066.066-.066 0-.066 0-.066 0 0v.066s-.066 0-.066.066h-.066v-.198c0-.066-.066-.066-.066-.066v-.066l-.066-.066c-.066-.066 0-.066 0-.132l.066-.066s.066 0 .066-.066c.066-.066.066-.066.066-.132s0-.132-.066-.132c0 0-.066 0-.066-.066 0 0 0-.066.066-.066h.066v-.066h-.198c-.066 0-.132 0-.132-.066s.132 0 .132 0h.066c.066 0 0 0 .066-.066.066 0 .066 0 .132-.066v-.066s-.066 0-.066-.066.066-.066.066-.132v-.066h-.066c-.066 0-.132-.066-.066-.132 0-.066.132 0 .132 0 .066 0 .066-.066 0-.066-.066-.066-.066-.066-.132-.066l-.066-.066v-.066c0-.066-.066-.066-.066-.066-.066-.066 0-.066.066-.066l.066-.066c.066 0 .132 0 .132.066l.066.066v-.264l-.066-.066c-.066 0-.132.132-.198.066 0-.066.132 0 .066-.066 0-.066-.066-.066-.132 0v.066-.066s-.066 0-.066-.066l.066-.066c-.066-.066.066-.066.066-.066v-.066h-.066c-.066 0 0-.132 0-.132s-.066 0-.066-.066 0-.066.066-.066c0 0 .066 0 .066-.066v-.198s0-.066.066-.066.066-.066.132-.066.132 0 .132-.066v-.066h-.066c-.066 0-.066 0-.066-.066v-.066c0-.066.066-.066.066-.132.066 0 0 0 0-.066h-.132l.066-.066h-.066s0-.066.066-.066v-.066c0-.066.066-.066.066-.132 0 0 .066-.066 0-.066l-.066.066s0 .132-.066.066c-.066 0 0-.132 0-.132 0-.066.066-.066.066-.132s.066-.066 0-.132h-.066v-.132h-.066v-.066c0-.066 0-.066.066-.066s0-.066 0-.066v-.528h-.066l-.066-.066s-.066 0-.066-.066V98.4h.066l.066-.066c0-.066 0-.066-.066-.066h-.198v-.066c0-.066.066 0 .066-.066v-.132h.066c.066 0 .066-.132.066-.198v-.264h-.066v-.066h.066v-.924h.066v-.066c0-.066 0-.066-.066-.066h-.066.066l.066-.066v-.726h.066c0-.066-.066 0-.066 0v-.066h-.066v-.33h-.066v-.132s.066-.066 0-.066h-.198s-.066 0 0-.066h.066v-.132h.066v-.066c0-.066 0-.066-.066-.066 0-.066.066-.066.066-.066h.132v-.132h-.066v-.264h-.066l-.066-.066h-.066v.066s-.132 0-.066-.066h.066v-.066c0-.066 0-.066.066-.066v-.132h-.066c-.066 0-.066-.066-.066-.066v-1.121h-.066v-.132c0-.066.066-.066.066-.066v-.066h-.066v-.132h.066v-.066s0-.066.066-.066c0 0 .066-.066 0-.066 0 0-.066 0-.066-.066v-.066l.066-.066c0-.066-.066-.066-.132-.066-.066-.066 0-.132 0-.198 0 0 0-.066.066-.066 0 0 .066 0 .066-.066v-.132c0-.066.066-.132 0-.132l-.066-.066s0-.066-.066-.066c-.066-.066-.066-.066-.066-.132v-.066l-.066-.066c0-.066 0-.132.066-.132h.066v.066c.066.066.066 0 .132-.066 0-.066-.066-.066-.066-.066 0-.066.066-.066.066-.066v-.066s-.066 0-.132-.066c0-.066.066-.066 0-.132 0 0-.066 0-.066-.066v-.066s.066 0 .066-.066v-.066s.066 0 0-.066l-.066-.066s0-.066.066-.066v-.198l.066-.066v-.33c0-.066-.066 0-.066 0v-.066c0-.066 0-.066-.066 0h-.066s-.066 0-.066-.066 0 0 .066-.066c.066 0 .066-.066.066-.132s0 0 .066-.066v-.264c0-.066.066-.066.066-.132v-.066c-.066 0 0 .066-.066.066l-.132-.066v-.132s0-.066.066-.066l.132-.132v-.066l.066-.066v-.132h-.066c-.066 0-.066-.066-.066-.132v-.066l.066-.066v-.198c0-.066 0-.066-.066-.066v-.132c0-.066 0-.066.066-.132v-.132h-.066v-.066h.132v-.132c-.066 0-.132 0-.132-.066s.066-.066.066-.132v-.132c0-.066 0-.066.066-.066v-.066s-.066 0-.066-.066v-.066c0-.066.066-.066.132-.066s.132-.066.132-.132c0 0 .066-.066.066-.132.066 0 .066.066.066.066s0-.066.066-.066h.132s0-.066.066-.132.132 0 .198-.066l.066-.066s.066 0 .066-.066c.066-.066.066-.066.066-.132 0 0 .066-.066.066-.132 0 0 .066 0 .066-.066 0 0 .066 0 .066-.066 0 0 .066 0 .066-.066 0 0 0-.066.066-.066h.066c-.066-.066 0-.066.066-.066h.066v-.066h.198l.198-.198c.066 0 .066-.066.132-.066 0 .066.066 0 .066 0v-.066c0-.066.066-.066.132-.066h-.132l.132-.132s.066 0 .066-.066l.066-.066s.066 0 .066-.066h.066c.066 0 .198-.264.264-.198.066-.066.132-.132.198-.132 0-.066.066-.066.132-.066 0 0 .066-.066.132-.066.066-.066.132-.132.264-.132.066 0 .066-.066.066-.066 0-.066.066-.066.132-.066l.198-.198c.066-.066.198-.132.264-.198.066 0 .066-.066.132-.066s.132 0 .132-.066v-.066s0-.066.066-.066.066-.066.132-.066c.066-.066.066 0 .132 0s.132 0 .132-.066c0 0 0-.066-.066-.066 0-.066.066-.066.066-.066.066 0 .066-.066.132-.066 0 0 .066-.066.132-.066h.066s0-.066.066-.066.066 0 .132-.066.066-.066.066-.132c.066-.066.198-.066.264-.132v-.066c.066-.066.198-.132.264-.198 0 0 .066 0 .066-.066 0 0 0-.066.066-.066s.132 0 .132-.132c.066 0 .198-.132.198-.132.066-.066.132-.132.198-.132.066-.066.132-.132.264-.132.066 0 .066-.066.132-.066s.066-.066.132-.066c.066-.066.132-.132.264-.132a.5.5 0 0 1 .264-.132c.066-.066.198-.066.264-.132.066 0 .066-.066.066-.066.066-.066.066-.066.132-.066h.066s0-.066.066-.066h.066l.066-.066c.066 0 .066-.066.132-.066.066-.066.198-.132.264-.198.198-.132.396-.198.528-.33.066-.066.132-.132.198-.132a.5.5 0 0 1 .264-.132c.198-.066.396-.264.528-.33.066-.066.198-.132.33-.198.066-.066.198-.066.264-.132s.198-.132.264-.198c.132-.066.198-.066.264-.132s.132-.132.198-.132c.066-.066.198-.066.264-.132l.066-.066c.066 0 .066 0 .132-.066l.132-.132c.066 0 .132 0 .132-.066.066 0 .066-.066.132-.066s.066-.066.132-.066c.066-.066.132-.132.264-.132.066 0 .066-.066.132-.066s.132-.066.132-.066c.066 0 .066-.066.132-.066h.066v-.066c.066 0 .132 0 .132-.066.066 0 .066-.066.132-.066.066-.066.132-.132.198-.132a.5.5 0 0 0 .264-.132l.066-.066c.066 0 .066-.066.132-.066a.91.91 0 0 0 .264-.198c.198-.066.33-.198.528-.264.066 0 .066-.066.132-.066s.198-.132.264-.132.066-.066.132-.066c.066-.066.198-.066.264-.132a.5.5 0 0 1 .264-.132c.066 0 .066 0 .132-.066 0 0 .066-.066.132-.066s.198-.066.198-.132c.066 0 .066 0 .132-.066l.066-.066s.132-.066.198-.132h.132l.132-.066.066-.066c.066 0 .066-.066.132-.066s.066-.066.132-.066.132-.066.132-.066c.066-.066.198-.066.264-.132.066 0 .066-.066.132-.132.066 0 .264-.066.264-.132.066-.066.066-.066.132-.066.132-.066.198-.066.33-.132.066 0 .066-.066.132-.066 0-.066 0-.066.066-.132.066 0 .132-.066.264-.066 0-.066.198-.132.198-.132.066 0 .066-.066.132-.066s.066 0 .132-.066.132-.066.264-.132c.066 0 .066-.066.132-.066s0-.066.066-.132h.198s0-.066.066-.066h.066a.5.5 0 0 1 .264-.132c.132 0 .132-.066.264-.132.066 0 .066-.066.132-.066h.066l.066-.066c.132-.066.264-.066.33-.132.066 0 .264-.132.264-.132.066-.066.198-.066.264-.132s.198-.066.264-.132c.132-.066.198-.132.396-.198 0-.066.132-.132.198-.132h.132v-.066c.066-.066.132-.066.132-.066 0-.066.066-.066.066-.066.066 0 .264-.132.33-.132s.066-.066.066-.066c.066 0 .066 0 .066-.066h.132v-.066h.066c.066-.066.132-.132.198-.132h.132c.066 0 .066-.066.132-.066.066-.066.132-.066.198-.132 0 0 .066-.066.132-.066.066-.066.066 0 .132-.066.066 0 .198-.132.264-.132s.066-.066.132-.066c.066-.066.198-.066.264-.132.066 0 .066-.066.132-.132.066 0 .066-.066.132-.066a.5.5 0 0 0 .264-.132c.132-.066.198-.132.33-.198.132 0 .198-.066.264-.132.066 0 .132-.066.132-.066s.066 0 .066-.066h.066v-.066c.066-.066.198-.066.264-.132.066 0 .066-.066.132-.066s.066-.066.132-.066c.066-.066.198-.066.33-.132.066-.066.198-.066.264-.132s.198-.066.264-.132c.066 0 .198-.066.264-.066.066-.066.198-.066.264-.132.066 0 .066-.066.132-.066s.132.066.132 0c-.066-.066.066-.066.066-.066.066 0 .066 0 .132-.066s.198-.066.264-.132.198-.066.264-.132c.066 0 .066-.066.132-.066s.132 0 .132-.066c.066 0 .132-.066.198-.066s.132 0 .198-.066.132-.066.198-.066.132 0 .198-.066l.264-.132c.066 0 .132-.066.198-.066.264-.066.462-.132.66-.264.132-.066.198-.066.33-.132.066-.066.594-.198.726-.198l.66-.198c.132-.066.264-.066.33-.132.132 0 .264-.066.33-.066l.66-.198c.132-.066.198-.066.33-.066.132-.066.33-.132.462-.198l.528-.198c.066 0 .132-.066.198-.132s.396-.264.528-.264c.066-.066.198-.132.264-.198.198-.132.33-.264.528-.33 0 0 .066 0 .066-.066s.066-.132.132-.132c.066-.066.132-.066.132-.132.066 0 .066 0 .132-.066s.132-.066.132-.066c.066-.066.132-.198.198-.264s.132-.132.132-.198.066-.132.066-.132.066-.066.066-.132v-.066h.066s.066.132.132.066c0-.066-.066-.132-.066-.132 0-.066.066-.066.066-.066v-.066c.066 0 .132-.066.132-.066-.066-.066.066-.264.132-.198v.066c.066 0 .066-.066.066-.066v-.132c0-.066.066-.066.066-.132v-.132c0-.066.132-.066.132-.066l.132-.066s-.066 0-.132-.066c.066.726.132.594.066.594"/><path d="M80.298 105.459s0 .066 0 0c0 .066 0 0 0 0"/><path d="M80.298 105.459c0-.066.066-.066.066-.066 0-.066-.066.066-.066.066M51.604 75.972c-.198 0-.198-.198-.264-.264s-.066-.33.066-.33c0-.066-.066-.066-.066-.132s-.066-.132-.066-.264c-.066-.132-.066-.264-.132-.396-.066-.066-.066-.132-.198-.198-.198-.132-.198-.198-.198-.198-.066 0-.198-.066-.264-.066-.132 0-.198 0-.33-.066-.198 0-.396.066-.594.132-.33.132-.726.264-.989.462-.132.066-.198.132-.33.198-.066.066-.198.066-.264.198l.066.066c-.066 0-.132 0-.198.066-.066 0-.066.066-.132.132s-.198.132-.198.264c-.132.066-.264.264-.33.396-.132.132-.198.33-.33.462l-.462 1.055c-.066.132-.132.264-.132.396-.066.066 0 .396-.132.462v.066c.132.198 0 .33-.066.594s-.066.462-.066.66c0 .264-.066.462-.066.726 0 .198-.066.396-.066.594 0 .132-.132.66 0 .726 0 .132-.066.132-.066.198s.066.198.066.264c0 .132 0 .33-.066.528v.462c0 .33 0 .792-.132 1.121.066.066 0 .264 0 .396s-.066.264 0 .396c-.066.132 0 .33-.066.462-.264-.198-.066.33-.066.396 0 .132-.066.198-.066.264s.066.198.066.33c0 .198-.066.396-.132.594s-.066.396-.066.594v.132h.066v.528c0 .396-.066.726-.066 1.121 0 .132 0 .198-.066.33v.858c0 .198-.066.396-.066.594V92.6c0 .132.066.33 0 .396.066.066 0 .198 0 .264s.066.198.066.264.066.132.066.264c0 .066.132.132.132.198.066 0 .066.066.066.132.066.066.066 0 .132.066a.5.5 0 0 1 .264.132c.198.066.396.066.594.132h.132c.066 0 .066-.066.132-.066h.33c.066 0 .066-.066.066-.132.066 0 .066-.066.132-.066.066-.066.198-.066.264-.132a1.38 1.38 0 0 0 .396-.264c.066-.066.198-.132.264-.198l.198-.198c.066-.066.132-.066.264-.132s.264-.198.33-.33c.066-.066.066-.198.198-.132.066 0 .198.066.264 0s0-.264.066-.33c0 .066.066.132.132.132h.132l.066-.066c0-.132.066-.198.066-.198 0-.264-.132-.066-.264-.066s-.066 0-.066-.066v-.198c0-.132.132-.198.198-.33s0-.198 0-.33c0-.066.066-.066.066-.132v-.198c0-.132 0-.198.066-.33 0-.066.066-.066 0-.132 0-.066-.066-.066 0-.132h0l.066-.132c.066-.066.066-.132.066-.198v-.198c0-.066.066-.198 0-.198-.066-.132.066-.33-.066-.462.066-.132.066-.198.066-.33 0-.066 0-.132-.066-.198v-.066c0-.066.066-.132.066-.198 0 0 0-.066.066-.066v-.528c0-.066 0-.066.066-.132v-.462c0-.066 0-.066.066-.132v-.132c0-.132 0-.198.066-.33 0-.066.066-.198.066-.264v-.33c0-.132.132-.132.066-.264 0-.066-.066-.264 0-.33h.066v-.198c0-.066.066-.066.066-.132.066-.066.066-.198.066-.264v-.989l.066-.066c.066-.132.066-.264.066-.396v-.132c0-.066.066-.066.132-.066.066-.066 0-.198 0-.264v-.594c0-.066.066-.198.066-.264 0-.198-.066-.396-.066-.594v-.33c0-.066.066-.132.132-.198 0-.066.066-.198.066-.264s.066-.198.066-.264c0-.132-.066-.198 0-.33 0-.066.066-.066.066-.132v-.132c0-.132 0-.132.066-.264v-.462l-.066-.066c0-.066 0-.132.066-.198.066-.132.132-.198.198-.33 0-.066.066-.198.066-.198 0-.066-.132-.132-.132-.198s0-.198.066-.264c0-.066.066-.066.132-.132 0-.066-.066 0-.066-.066-.066-.066-.066-.198-.132-.264-.066-.132-.132-.264-.132-.396s0-.33.066-.396c-.066-.594.198-.528.198-.66M230.63 111.33c-4.617 3.826-10.158 5.805-16.425 5.805-9.829 0-19.657-4.749-26.188-8.707-11.148-7.124-20.911-16.953-32.85-33.444 11.939-16.491 21.768-26.32 32.85-33.444 6.53-3.958 16.359-8.707 26.188-8.707 6.267 0 11.808 1.979 16.425 5.805 10.356 8.641 14.05 23.681 14.05 36.347s-3.694 27.705-14.05 36.347M96.064 128.546c-10.29 6.267-25.924 13.787-41.623 13.787-10.158 0-19.064-3.166-26.583-9.433C11.366 119.179 5.363 94.904 5.363 74.983c0-19.987 5.937-44.197 22.494-57.917 7.52-6.267 16.425-9.433 26.583-9.433 15.699 0 31.333 7.52 41.623 13.787 17.612 11.28 33.84 27.573 52.441 53.564-18.536 25.99-34.829 42.284-52.441 53.564m137.997-94c-5.541-4.749-12.269-7.058-19.855-7.058-11.082 0-21.9 5.145-29.024 9.499-11.61 7.454-21.966 17.811-33.312 33.444 0 0-23.483-35.159-52.903-53.564-10.884-6.73-27.573-14.58-44.525-14.58-11.412 0-21.504 3.628-30.014 10.686C14.796 20.958.02 39.955.02 74.983s14.776 54.025 24.407 62.007c8.509 7.058 18.602 10.686 30.014 10.686 16.953 0 33.642-7.784 44.46-14.578 29.486-18.404 52.903-53.564 52.903-53.564 11.412 15.634 21.702 25.99 33.312 33.444 7.124 4.354 17.942 9.499 29.024 9.499 7.52 0 14.314-2.309 19.855-7.058 10.62-9.103 15.963-23.154 15.963-40.437.066-17.283-5.277-31.333-15.897-40.437"/></svg>