<svg xmlns="http://www.w3.org/2000/svg" viewBox="0 0 400 400"><path d="M238.71,75.58a24.77,24.77,0,0,1,24.75,24.75V299.67a24.77,24.77,0,0,1-24.75,24.75H161.29a24.77,24.77,0,0,1-24.75-24.75V100.33a24.77,24.77,0,0,1,24.75-24.75h77.42m0-5H161.29a29.75,29.75,0,0,0-29.75,29.75V299.67a29.75,29.75,0,0,0,29.75,29.75h77.42a29.75,29.75,0,0,0,29.75-29.75V100.33a29.75,29.75,0,0,0-29.75-29.75Z" style="fill:#828282"/><path d="M247,163.5v19H154v-19h93m2-2H152v23h97v-23Z" style="fill:#099"/><rect x="152" y="199.5" width="23" height="23" style="fill:#9b9b9b"/><rect x="152" y="108.5" width="38" height="38" style="fill:#9b9b9b"/><rect x="151.5" y="237.5" width="97" height="38" style="fill:#9b9b9b"/><path d="M200,5a195.05,195.05,0,0,1,75.9,374.68A195.05,195.05,0,0,1,124.1,20.32,193.89,193.89,0,0,1,200,5m0-5C89.54,0,0,89.54,0,200S89.54,400,200,400s200-89.54,200-200S310.46,0,200,0Z" style="fill:#333"/><line x1="135" y1="98" x2="266" y2="98" style="fill:none;stroke:#828282;stroke-miterlimit:10;stroke-width:3px"/><line x1="135" y1="285.78" x2="266" y2="285.78" style="fill:none;stroke:#828282;stroke-miterlimit:10;stroke-width:3px"/><circle cx="198" cy="305.39" r="12.18" style="fill:none;stroke:#828282;stroke-miterlimit:10"/><rect x="54.43" y="145" width="53.21" height="3" rx="1.5" style="fill:#099"/><rect x="54.43" y="154" width="53.21" height="3" rx="1.5" style="fill:#099"/><rect x="54.43" y="163" width="53.21" height="3" rx="1.5" style="fill:#099"/><rect x="288.8" y="242.07" width="74.24" height="3" rx="1.5" style="fill:#9b9b9b"/><rect x="288.8" y="251.07" width="74.24" height="3" rx="1.5" style="fill:#9b9b9b"/><rect x="288.8" y="260.07" width="74.24" height="3" rx="1.5" style="fill:#9b9b9b"/><rect x="288.8" y="269.36" width="74.24" height="3" rx="1.5" style="fill:#9b9b9b"/><path d="M55.77,137.5h50.49a4.48,4.48,0,0,1,2.74.94l43.6,34" style="fill:none;stroke:#099;stroke-linecap:round;stroke-linejoin:round;stroke-width:3px;fill-rule:evenodd"/></svg>