<svg xmlns="http://www.w3.org/2000/svg" viewBox="0 0 400 400" style=""><g id="phone"><path d="M238.71,75.58a24.77,24.77,0,0,1,24.75,24.75V299.67a24.77,24.77,0,0,1-24.75,24.75H161.29a24.77,24.77,0,0,1-24.75-24.75V100.33a24.77,24.77,0,0,1,24.75-24.75h77.42m0-5H161.29a29.75,29.75,0,0,0-29.75,29.75V299.67a29.75,29.75,0,0,0,29.75,29.75h77.42a29.75,29.75,0,0,0,29.75-29.75V100.33a29.75,29.75,0,0,0-29.75-29.75Z" style="fill:#828282" class="enHYvRSH_0"></path><path d="M176,223.5H151v-25h25Zm-23-2h21v-21H153Z" style="fill:#9b9b9b" class="enHYvRSH_1"></path><path d="M250,276.5H151v-40h99Zm-97-2h95v-36H153Z" style="fill:#9b9b9b" class="enHYvRSH_2"></path><path width="131" height="3" style="fill:#828282" d="M135 96.5 L266 96.5 L266 99.5 L135 99.5 Z" class="enHYvRSH_3"></path><path width="131" height="3" style="fill:#828282" d="M135 284.28 L266 284.28 L266 287.28 L135 287.28 Z" class="enHYvRSH_4"></path><path d="M198,318.08a12.69,12.69,0,1,1,12.68-12.69A12.7,12.7,0,0,1,198,318.08Zm0-24.37a11.69,11.69,0,1,0,11.68,11.68A11.69,11.69,0,0,0,198,293.71Z" style="fill:#828282" class="enHYvRSH_5"></path><path width="74.24" height="3" style="fill:#9b9b9b" d="M 289.8,242.07 L 362.04,242.07 A 1,1,0,0,1,363.04,243.07 L 363.04,244.07 A 1,1,0,0,1,362.04,245.07 L 289.8,245.07 A 1,1,0,0,1,288.8,244.07 L 288.8,243.07 A 1,1,0,0,1,289.8,242.07" class="enHYvRSH_6"></path><path width="74.24" height="3" style="fill:#9b9b9b" d="M 289.8,251.07 L 362.04,251.07 A 1,1,0,0,1,363.04,252.07 L 363.04,253.07 A 1,1,0,0,1,362.04,254.07 L 289.8,254.07 A 1,1,0,0,1,288.8,253.07 L 288.8,252.07 A 1,1,0,0,1,289.8,251.07" class="enHYvRSH_7"></path><path width="74.24" height="3" style="fill:#9b9b9b" d="M 289.8,260.07 L 362.04,260.07 A 1,1,0,0,1,363.04,261.07 L 363.04,262.07 A 1,1,0,0,1,362.04,263.07 L 289.8,263.07 A 1,1,0,0,1,288.8,262.07 L 288.8,261.07 A 1,1,0,0,1,289.8,260.07" class="enHYvRSH_8"></path><path d="M361.54,272.36H290.3a1.5,1.5,0,0,1-1.5-1.5h0a1.5,1.5,0,0,1,1.5-1.5h71.24a1.5,1.5,0,0,1,1.5,1.5h0A1.5,1.5,0,0,1,361.54,272.36Z" style="fill:#9b9b9b;fill-rule:evenodd" class="enHYvRSH_9"></path><path d="M55.77,137.5h50.49a4.48,4.48,0,0,1,2.74.94l43.6,34" style="fill:none;stroke:#099;stroke-linecap:round;stroke-linejoin:round;stroke-width:3px;fill-rule:evenodd" class="enHYvRSH_10"></path><path style="fill:none;stroke:#099;stroke-linecap:round;stroke-linejoin:round;stroke-width:3px" d="M55.77,147.5L106.26,147.5" class="enHYvRSH_11"></path><path style="fill:none;stroke:#099;stroke-linecap:round;stroke-linejoin:round;stroke-width:3px" d="M55.77,157.5L106.26,157.5" class="enHYvRSH_12"></path><path style="fill:none;stroke:#099;stroke-linecap:round;stroke-linejoin:round;stroke-width:3px" d="M55.77,167.5L106.26,167.5" class="enHYvRSH_13"></path><path style="fill:none;stroke:#0d0d0d;stroke-miterlimit:10;stroke-width:5px" d="M5,200A195,195 0,1,1 395,200A195,195 0,1,1 5,200" class="enHYvRSH_14"></path><path d="M191.6,148.5H151v-40h40.6Zm-38.6-2h36.6v-36H153Z" style="fill:#9b9b9b" class="enHYvRSH_15"></path><path d="M255.34,185.5H152.72v-25H255.34Zm-100.62-2h98.62v-21H154.72Z" style="fill:#9b9b9b" class="enHYvRSH_16"></path><path width="100.62" height="23" style="fill:none;stroke:#099;stroke-miterlimit:10;stroke-width:2px" d="M153.72 161.5 L254.34 161.5 L254.34 184.5 L153.72 184.5 Z" class="enHYvRSH_17"></path></g><style data-made-with="vivus-instant">.enHYvRSH_0{stroke-dasharray:1450 1452;stroke-dashoffset:1451;animation:enHYvRSH_draw_0 7200ms ease-in 0ms infinite,enHYvRSH_fade 7200ms linear 0ms infinite;}.enHYvRSH_1{stroke-dasharray:184 186;stroke-dashoffset:185;animation:enHYvRSH_draw_1 7200ms ease-in 0ms infinite,enHYvRSH_fade 7200ms linear 0ms infinite;}.enHYvRSH_2{stroke-dasharray:540 542;stroke-dashoffset:541;animation:enHYvRSH_draw_2 7200ms ease-in 0ms infinite,enHYvRSH_fade 7200ms linear 0ms infinite;}.enHYvRSH_3{stroke-dasharray:268 270;stroke-dashoffset:269;animation:enHYvRSH_draw_3 7200ms ease-in 0ms infinite,enHYvRSH_fade 7200ms linear 0ms infinite;}.enHYvRSH_4{stroke-dasharray:268 270;stroke-dashoffset:269;animation:enHYvRSH_draw_4 7200ms ease-in 0ms infinite,enHYvRSH_fade 7200ms linear 0ms infinite;}.enHYvRSH_5{stroke-dasharray:154 156;stroke-dashoffset:155;animation:enHYvRSH_draw_5 7200ms ease-in 0ms infinite,enHYvRSH_fade 7200ms linear 0ms infinite;}.enHYvRSH_6{stroke-dasharray:153 155;stroke-dashoffset:154;animation:enHYvRSH_draw_6 7200ms ease-in 0ms infinite,enHYvRSH_fade 7200ms linear 0ms infinite;}.enHYvRSH_7{stroke-dasharray:153 155;stroke-dashoffset:154;animation:enHYvRSH_draw_7 7200ms ease-in 0ms infinite,enHYvRSH_fade 7200ms linear 0ms infinite;}.enHYvRSH_8{stroke-dasharray:153 155;stroke-dashoffset:154;animation:enHYvRSH_draw_8 7200ms ease-in 0ms infinite,enHYvRSH_fade 7200ms linear 0ms infinite;}.enHYvRSH_9{stroke-dasharray:152 154;stroke-dashoffset:153;animation:enHYvRSH_draw_9 7200ms ease-in 0ms infinite,enHYvRSH_fade 7200ms linear 0ms infinite;}.enHYvRSH_10{stroke-dasharray:109 111;stroke-dashoffset:110;animation:enHYvRSH_draw_10 7200ms ease-in 0ms infinite,enHYvRSH_fade 7200ms linear 0ms infinite;}.enHYvRSH_11{stroke-dasharray:51 53;stroke-dashoffset:52;animation:enHYvRSH_draw_11 7200ms ease-in 0ms infinite,enHYvRSH_fade 7200ms linear 0ms infinite;}.enHYvRSH_12{stroke-dasharray:51 53;stroke-dashoffset:52;animation:enHYvRSH_draw_12 7200ms ease-in 0ms infinite,enHYvRSH_fade 7200ms linear 0ms infinite;}.enHYvRSH_13{stroke-dasharray:51 53;stroke-dashoffset:52;animation:enHYvRSH_draw_13 7200ms ease-in 0ms infinite,enHYvRSH_fade 7200ms linear 0ms infinite;}.enHYvRSH_14{stroke-dasharray:1226 1228;stroke-dashoffset:1227;animation:enHYvRSH_draw_14 7200ms ease-in 0ms infinite,enHYvRSH_fade 7200ms linear 0ms infinite;}.enHYvRSH_15{stroke-dasharray:307 309;stroke-dashoffset:308;animation:enHYvRSH_draw_15 7200ms ease-in 0ms infinite,enHYvRSH_fade 7200ms linear 0ms infinite;}.enHYvRSH_16{stroke-dasharray:495 497;stroke-dashoffset:496;animation:enHYvRSH_draw_16 7200ms ease-in 0ms infinite,enHYvRSH_fade 7200ms linear 0ms infinite;}.enHYvRSH_17{stroke-dasharray:248 250;stroke-dashoffset:249;animation:enHYvRSH_draw_17 7200ms ease-in 0ms infinite,enHYvRSH_fade 7200ms linear 0ms infinite;}@keyframes enHYvRSH_draw{100%{stroke-dashoffset:0;}}@keyframes enHYvRSH_fade{0%{stroke-opacity:1;}94.44444444444444%{stroke-opacity:1;}100%{stroke-opacity:0;}}@keyframes enHYvRSH_draw_0{11.11111111111111%{stroke-dashoffset: 1451}38.88888888888889%{ stroke-dashoffset: 0;}100%{ stroke-dashoffset: 0;}}@keyframes enHYvRSH_draw_1{11.928104575163399%{stroke-dashoffset: 185}39.70588235294118%{ stroke-dashoffset: 0;}100%{ stroke-dashoffset: 0;}}@keyframes enHYvRSH_draw_2{12.745098039215685%{stroke-dashoffset: 541}40.52287581699346%{ stroke-dashoffset: 0;}100%{ stroke-dashoffset: 0;}}@keyframes enHYvRSH_draw_3{13.562091503267974%{stroke-dashoffset: 269}41.33986928104576%{ stroke-dashoffset: 0;}100%{ stroke-dashoffset: 0;}}@keyframes enHYvRSH_draw_4{14.37908496732026%{stroke-dashoffset: 269}42.15686274509803%{ stroke-dashoffset: 0;}100%{ stroke-dashoffset: 0;}}@keyframes enHYvRSH_draw_5{15.196078431372548%{stroke-dashoffset: 155}42.97385620915033%{ stroke-dashoffset: 0;}100%{ stroke-dashoffset: 0;}}@keyframes enHYvRSH_draw_6{16.013071895424837%{stroke-dashoffset: 154}43.790849673202615%{ stroke-dashoffset: 0;}100%{ stroke-dashoffset: 0;}}@keyframes enHYvRSH_draw_7{16.83006535947712%{stroke-dashoffset: 154}44.6078431372549%{ stroke-dashoffset: 0;}100%{ stroke-dashoffset: 0;}}@keyframes enHYvRSH_draw_8{17.64705882352941%{stroke-dashoffset: 154}45.42483660130719%{ stroke-dashoffset: 0;}100%{ stroke-dashoffset: 0;}}@keyframes enHYvRSH_draw_9{18.4640522875817%{stroke-dashoffset: 153}46.24183006535948%{ stroke-dashoffset: 0;}100%{ stroke-dashoffset: 0;}}@keyframes enHYvRSH_draw_10{19.28104575163399%{stroke-dashoffset: 110}47.05882352941176%{ stroke-dashoffset: 0;}100%{ stroke-dashoffset: 0;}}@keyframes enHYvRSH_draw_11{20.098039215686274%{stroke-dashoffset: 52}47.875816993464056%{ stroke-dashoffset: 0;}100%{ stroke-dashoffset: 0;}}@keyframes enHYvRSH_draw_12{20.915032679738562%{stroke-dashoffset: 52}48.69281045751634%{ stroke-dashoffset: 0;}100%{ stroke-dashoffset: 0;}}@keyframes enHYvRSH_draw_13{21.732026143790847%{stroke-dashoffset: 52}49.509803921568626%{ stroke-dashoffset: 0;}100%{ stroke-dashoffset: 0;}}@keyframes enHYvRSH_draw_14{22.54901960784314%{stroke-dashoffset: 1227}50.326797385620914%{ stroke-dashoffset: 0;}100%{ stroke-dashoffset: 0;}}@keyframes enHYvRSH_draw_15{23.366013071895424%{stroke-dashoffset: 308}51.143790849673195%{ stroke-dashoffset: 0;}100%{ stroke-dashoffset: 0;}}@keyframes enHYvRSH_draw_16{24.183006535947708%{stroke-dashoffset: 496}51.96078431372548%{ stroke-dashoffset: 0;}100%{ stroke-dashoffset: 0;}}@keyframes enHYvRSH_draw_17{25%{stroke-dashoffset: 249}52.77777777777778%{ stroke-dashoffset: 0;}100%{ stroke-dashoffset: 0;}}</style></svg>