<svg xmlns="http://www.w3.org/2000/svg" viewBox="0 0 400 400"><line x1="120.5" y1="206.5" x2="120.5" y2="290.02" style="fill:none;stroke:#9b9b9b;stroke-miterlimit:10"/><line x1="160.5" y1="233.54" x2="160.5" y2="290.02" style="fill:none;stroke:#9b9b9b;stroke-miterlimit:10"/><line x1="200.5" y1="174.5" x2="200.5" y2="290.02" style="fill:none;stroke:#9b9b9b;stroke-miterlimit:10"/><line x1="240.5" y1="212" x2="240.5" y2="290.02" style="fill:none;stroke:#9b9b9b;stroke-miterlimit:10"/><line x1="280.5" y1="178" x2="280.5" y2="290.02" style="fill:none;stroke:#9b9b9b;stroke-miterlimit:10"/><path d="M304.77,132.69V287.35H95.23V132.69H304.77m5-5H90.23V292.35H309.77V127.69Z" style="fill:#828282"/><path d="M94.73,241.29,120.5,206.5l40,27,40-58,40,37,40-35,40-12,39.24-34.34a3,3,0,0,0,1-1.65l6.8-33" style="fill:none;stroke:#099;stroke-linecap:round;stroke-miterlimit:10;stroke-width:2px"/><path d="M200,5a195.05,195.05,0,0,1,75.9,374.68A195.05,195.05,0,0,1,124.1,20.32,193.89,193.89,0,0,1,200,5m0-5C89.54,0,0,89.54,0,200S89.54,400,200,400s200-89.54,200-200S310.46,0,200,0Z" style="fill:#333"/><line x1="280.5" y1="177.5" x2="320.5" y2="165.5" style="fill:none;stroke:#099;stroke-linecap:round;stroke-miterlimit:10;stroke-width:2px"/></svg>