<svg xmlns="http://www.w3.org/2000/svg" viewBox="0 0 400 400" style=""><g id="Layer_4" data-name="Layer 4"><path d="M103,176H58a5,5,0,0,0-5,5v45a5,5,0,0,0,5,5h45a5,5,0,0,0,5-5V181a5,5,0,0,0-5-5Z" style="fill:none;stroke:#828282;stroke-linejoin:round;stroke-width:5px" class="KNETJMxS_0"></path><path d="M103,255H58a5,5,0,0,0-5,5v45a5,5,0,0,0,5,5h45a5,5,0,0,0,5-5V260a5,5,0,0,0-5-5Z" style="fill:none;stroke:#828282;stroke-linejoin:round;stroke-width:5px" class="KNETJMxS_1"></path><path d="M103,334H58a5,5,0,0,0-5,5v45a5,5,0,0,0,5,5h45a5,5,0,0,0,5-5V339a5,5,0,0,0-5-5Z" style="fill:none;stroke:#828282;stroke-linejoin:round;stroke-width:5px" class="KNETJMxS_2"></path><path d="M103,97H58a5,5,0,0,0-5,5v45a5,5,0,0,0,5,5h45a5,5,0,0,0,5-5V102a5,5,0,0,0-5-5Z" style="fill:none;stroke:#828282;stroke-linejoin:round;stroke-width:5px" class="KNETJMxS_3"></path><path d="M103,18H58a5,5,0,0,0-5,5V68a5,5,0,0,0,5,5h45a5,5,0,0,0,5-5V23a5,5,0,0,0-5-5Z" style="fill:none;stroke:#828282;stroke-linejoin:round;stroke-width:5px" class="KNETJMxS_4"></path><path style="fill:none;stroke:#099;stroke-linecap:round;stroke-miterlimit:10;stroke-width:5px" d="M67,124L78.5,135.5L125.5,88.5" class="KNETJMxS_5"></path><path style="fill:none;stroke:#9b9b9b;stroke-linecap:round;stroke-miterlimit:10;stroke-width:8px" d="M155.3,45.5L361.3,45.5" class="KNETJMxS_6"></path><path style="fill:none;stroke:#9b9b9b;stroke-linecap:round;stroke-miterlimit:10;stroke-width:8px" d="M155.3,124.5L361.3,124.5" class="KNETJMxS_7"></path><path style="fill:none;stroke:#9b9b9b;stroke-linecap:round;stroke-miterlimit:10;stroke-width:8px" d="M155.3,203.5L361.3,203.5" class="KNETJMxS_8"></path><path style="fill:none;stroke:#9b9b9b;stroke-linecap:round;stroke-miterlimit:10;stroke-width:8px" d="M155.3,282.5L361.3,282.5" class="KNETJMxS_9"></path><path style="fill:none;stroke:#9b9b9b;stroke-linecap:round;stroke-miterlimit:10;stroke-width:8px" d="M155.3,361.5L361.3,361.5" class="KNETJMxS_10"></path><path d="M0,.5v400H400V.5ZM200,398C90.92,398,2.5,309.58,2.5,200.5S90.92,3,200,3,397.5,91.42,397.5,200.5,309.08,398,200,398Z" style="fill:#fff" class="KNETJMxS_11"></path><path style="fill:none;stroke:#333;stroke-miterlimit:10;stroke-width:4px" d="M5,200A195,195 0,1,1 395,200A195,195 0,1,1 5,200" class="KNETJMxS_12"></path></g><style data-made-with="vivus-instant">.KNETJMxS_0{stroke-dasharray:212 214;stroke-dashoffset:213;animation:KNETJMxS_draw_0 7200ms ease-in 0ms infinite,KNETJMxS_fade 7200ms linear 0ms infinite;}.KNETJMxS_1{stroke-dasharray:212 214;stroke-dashoffset:213;animation:KNETJMxS_draw_1 7200ms ease-in 0ms infinite,KNETJMxS_fade 7200ms linear 0ms infinite;}.KNETJMxS_2{stroke-dasharray:212 214;stroke-dashoffset:213;animation:KNETJMxS_draw_2 7200ms ease-in 0ms infinite,KNETJMxS_fade 7200ms linear 0ms infinite;}.KNETJMxS_3{stroke-dasharray:212 214;stroke-dashoffset:213;animation:KNETJMxS_draw_3 7200ms ease-in 0ms infinite,KNETJMxS_fade 7200ms linear 0ms infinite;}.KNETJMxS_4{stroke-dasharray:212 214;stroke-dashoffset:213;animation:KNETJMxS_draw_4 7200ms ease-in 0ms infinite,KNETJMxS_fade 7200ms linear 0ms infinite;}.KNETJMxS_5{stroke-dasharray:83 85;stroke-dashoffset:84;animation:KNETJMxS_draw_5 7200ms ease-in 0ms infinite,KNETJMxS_fade 7200ms linear 0ms infinite;}.KNETJMxS_6{stroke-dasharray:206 208;stroke-dashoffset:207;animation:KNETJMxS_draw_6 7200ms ease-in 0ms infinite,KNETJMxS_fade 7200ms linear 0ms infinite;}.KNETJMxS_7{stroke-dasharray:206 208;stroke-dashoffset:207;animation:KNETJMxS_draw_7 7200ms ease-in 0ms infinite,KNETJMxS_fade 7200ms linear 0ms infinite;}.KNETJMxS_8{stroke-dasharray:206 208;stroke-dashoffset:207;animation:KNETJMxS_draw_8 7200ms ease-in 0ms infinite,KNETJMxS_fade 7200ms linear 0ms infinite;}.KNETJMxS_9{stroke-dasharray:206 208;stroke-dashoffset:207;animation:KNETJMxS_draw_9 7200ms ease-in 0ms infinite,KNETJMxS_fade 7200ms linear 0ms infinite;}.KNETJMxS_10{stroke-dasharray:206 208;stroke-dashoffset:207;animation:KNETJMxS_draw_10 7200ms ease-in 0ms infinite,KNETJMxS_fade 7200ms linear 0ms infinite;}.KNETJMxS_11{stroke-dasharray:2842 2844;stroke-dashoffset:2843;animation:KNETJMxS_draw_11 7200ms ease-in 0ms infinite,KNETJMxS_fade 7200ms linear 0ms infinite;}.KNETJMxS_12{stroke-dasharray:1226 1228;stroke-dashoffset:1227;animation:KNETJMxS_draw_12 7200ms ease-in 0ms infinite,KNETJMxS_fade 7200ms linear 0ms infinite;}@keyframes KNETJMxS_draw{100%{stroke-dashoffset:0;}}@keyframes KNETJMxS_fade{0%{stroke-opacity:1;}94.44444444444444%{stroke-opacity:1;}100%{stroke-opacity:0;}}@keyframes KNETJMxS_draw_0{11.11111111111111%{stroke-dashoffset: 213}38.88888888888889%{ stroke-dashoffset: 0;}100%{ stroke-dashoffset: 0;}}@keyframes KNETJMxS_draw_1{12.268518518518519%{stroke-dashoffset: 213}40.0462962962963%{ stroke-dashoffset: 0;}100%{ stroke-dashoffset: 0;}}@keyframes KNETJMxS_draw_2{13.425925925925924%{stroke-dashoffset: 213}41.2037037037037%{ stroke-dashoffset: 0;}100%{ stroke-dashoffset: 0;}}@keyframes KNETJMxS_draw_3{14.583333333333334%{stroke-dashoffset: 213}42.36111111111111%{ stroke-dashoffset: 0;}100%{ stroke-dashoffset: 0;}}@keyframes KNETJMxS_draw_4{15.740740740740739%{stroke-dashoffset: 213}43.51851851851851%{ stroke-dashoffset: 0;}100%{ stroke-dashoffset: 0;}}@keyframes KNETJMxS_draw_5{16.898148148148145%{stroke-dashoffset: 84}44.675925925925924%{ stroke-dashoffset: 0;}100%{ stroke-dashoffset: 0;}}@keyframes KNETJMxS_draw_6{18.055555555555554%{stroke-dashoffset: 207}45.83333333333333%{ stroke-dashoffset: 0;}100%{ stroke-dashoffset: 0;}}@keyframes KNETJMxS_draw_7{19.212962962962962%{stroke-dashoffset: 207}46.99074074074074%{ stroke-dashoffset: 0;}100%{ stroke-dashoffset: 0;}}@keyframes KNETJMxS_draw_8{20.37037037037037%{stroke-dashoffset: 207}48.148148148148145%{ stroke-dashoffset: 0;}100%{ stroke-dashoffset: 0;}}@keyframes KNETJMxS_draw_9{21.52777777777778%{stroke-dashoffset: 207}49.30555555555556%{ stroke-dashoffset: 0;}100%{ stroke-dashoffset: 0;}}@keyframes KNETJMxS_draw_10{22.685185185185183%{stroke-dashoffset: 207}50.462962962962955%{ stroke-dashoffset: 0;}100%{ stroke-dashoffset: 0;}}@keyframes KNETJMxS_draw_11{23.84259259259259%{stroke-dashoffset: 2843}51.620370370370374%{ stroke-dashoffset: 0;}100%{ stroke-dashoffset: 0;}}@keyframes KNETJMxS_draw_12{25%{stroke-dashoffset: 1227}52.77777777777778%{ stroke-dashoffset: 0;}100%{ stroke-dashoffset: 0;}}</style></svg>