<svg xmlns="http://www.w3.org/2000/svg" viewBox="0 0 400 400" style=">
  <g id="phone">
    <path d="M238.71,75.58a24.77,24.77,0,0,1,24.75,24.75V299.67a24.77,24.77,0,0,1-24.75,24.75H161.29a24.77,24.77,0,0,1-24.75-24.75V100.33a24.77,24.77,0,0,1,24.75-24.75h77.42m0-5H161.29a29.75,29.75,0,0,0-29.75,29.75V299.67a29.75,29.75,0,0,0,29.75,29.75h77.42a29.75,29.75,0,0,0,29.75-29.75V100.33a29.75,29.75,0,0,0-29.75-29.75Z" style="fill:#828282" class="NooIrHUE_0"></path>
    <path d="M176,223.5H151v-25h25Zm-23-2h21v-21H153Z" style="fill:#9b9b9b" class="NooIrHUE_1"></path>
    <path d="M250,276.5H151v-40h99Zm-97-2h95v-36H153Z" style="fill:#9b9b9b" class="NooIrHUE_2"></path>
    <path width="131" height="3" style="fill:#828282" d="M135 96.5 L266 96.5 L266 99.5 L135 99.5 Z" class="NooIrHUE_3"></path>
    <path width="131" height="3" style="fill:#828282" d="M135 284.28 L266 284.28 L266 287.28 L135 287.28 Z" class="NooIrHUE_4"></path>
    <path d="M198,318.08a12.69,12.69,0,1,1,12.68-12.69A12.7,12.7,0,0,1,198,318.08Zm0-24.37a11.69,11.69,0,1,0,11.68,11.68A11.69,11.69,0,0,0,198,293.71Z" style="fill:#828282" class="NooIrHUE_5"></path>
    <path d="M55.77,137.5h50.49a4.48,4.48,0,0,1,2.74.94l43.6,34" style="fill:none;stroke:#099;stroke-linecap:round;stroke-linejoin:round;stroke-width:3px;fill-rule:evenodd" class="NooIrHUE_6"></path>
    <path style="fill:none;stroke:#099;stroke-linecap:round;stroke-linejoin:round;stroke-width:3px" d="M55.77,147.5L106.26,147.5" class="NooIrHUE_7"></path>
    <path style="fill:none;stroke:#099;stroke-linecap:round;stroke-linejoin:round;stroke-width:3px" d="M55.77,157.5L106.26,157.5" class="NooIrHUE_8"></path>
    <path style="fill:none;stroke:#099;stroke-linecap:round;stroke-linejoin:round;stroke-width:3px" d="M55.77,167.5L106.26,167.5" class="NooIrHUE_9"></path>
    <path style="fill:none;stroke:#9b9b9b;stroke-linecap:round;stroke-linejoin:round;stroke-width:3px" d="M292.19,246.5L356.91,246.5" class="NooIrHUE_10"></path>
    <path style="fill:none;stroke:#9b9b9b;stroke-linecap:round;stroke-linejoin:round;stroke-width:3px" d="M292.19,236.5L356.91,236.5" class="NooIrHUE_11"></path>
    <path style="fill:none;stroke:#9b9b9b;stroke-linecap:round;stroke-linejoin:round;stroke-width:3px" d="M292.19,256.5L356.91,256.5" class="NooIrHUE_12"></path>
    <path style="fill:none;stroke:#9b9b9b;stroke-linecap:round;stroke-linejoin:round;stroke-width:3px" d="M292.19,266.5L356.91,266.5" class="NooIrHUE_13"></path>
    <path d="M191.6,148.5H151v-40h40.6Zm-38.6-2h36.6v-36H153Z" style="fill:#9b9b9b" class="NooIrHUE_14"></path>
    <path d="M255.34,185.5H152.72v-25H255.34Zm-100.62-2h98.62v-21H154.72Z" style="fill:#9b9b9b" class="NooIrHUE_15"></path>
    <path width="100.62" height="23" style="fill:none;stroke:#099;stroke-miterlimit:10;stroke-width:2px" d="M153.72 161.5 L254.34 161.5 L254.34 184.5 L153.72 184.5 Z" class="NooIrHUE_16"></path>  <path style="fill:none;stroke:#333;stroke-miterlimit:10;stroke-width:5px" d="M5,200A195,195 0,1,1 395,200A195,195 0,1,1 5,200" class="NooIrHUE_17"></path>
  </g>
<style data-made-with="vivus-instant">.NooIrHUE_0{stroke-dasharray:1450 1452;stroke-dashoffset:1451;animation:NooIrHUE_draw_0 6200ms ease 0ms infinite,NooIrHUE_fade 6200ms linear 0ms infinite;}.NooIrHUE_1{stroke-dasharray:184 186;stroke-dashoffset:185;animation:NooIrHUE_draw_1 6200ms ease 0ms infinite,NooIrHUE_fade 6200ms linear 0ms infinite;}.NooIrHUE_2{stroke-dasharray:540 542;stroke-dashoffset:541;animation:NooIrHUE_draw_2 6200ms ease 0ms infinite,NooIrHUE_fade 6200ms linear 0ms infinite;}.NooIrHUE_3{stroke-dasharray:268 270;stroke-dashoffset:269;animation:NooIrHUE_draw_3 6200ms ease 0ms infinite,NooIrHUE_fade 6200ms linear 0ms infinite;}.NooIrHUE_4{stroke-dasharray:268 270;stroke-dashoffset:269;animation:NooIrHUE_draw_4 6200ms ease 0ms infinite,NooIrHUE_fade 6200ms linear 0ms infinite;}.NooIrHUE_5{stroke-dasharray:154 156;stroke-dashoffset:155;animation:NooIrHUE_draw_5 6200ms ease 0ms infinite,NooIrHUE_fade 6200ms linear 0ms infinite;}.NooIrHUE_6{stroke-dasharray:109 111;stroke-dashoffset:110;animation:NooIrHUE_draw_6 6200ms ease 0ms infinite,NooIrHUE_fade 6200ms linear 0ms infinite;}.NooIrHUE_7{stroke-dasharray:51 53;stroke-dashoffset:52;animation:NooIrHUE_draw_7 6200ms ease 0ms infinite,NooIrHUE_fade 6200ms linear 0ms infinite;}.NooIrHUE_8{stroke-dasharray:51 53;stroke-dashoffset:52;animation:NooIrHUE_draw_8 6200ms ease 0ms infinite,NooIrHUE_fade 6200ms linear 0ms infinite;}.NooIrHUE_9{stroke-dasharray:51 53;stroke-dashoffset:52;animation:NooIrHUE_draw_9 6200ms ease 0ms infinite,NooIrHUE_fade 6200ms linear 0ms infinite;}.NooIrHUE_10{stroke-dasharray:65 67;stroke-dashoffset:66;animation:NooIrHUE_draw_10 6200ms ease 0ms infinite,NooIrHUE_fade 6200ms linear 0ms infinite;}.NooIrHUE_11{stroke-dasharray:65 67;stroke-dashoffset:66;animation:NooIrHUE_draw_11 6200ms ease 0ms infinite,NooIrHUE_fade 6200ms linear 0ms infinite;}.NooIrHUE_12{stroke-dasharray:65 67;stroke-dashoffset:66;animation:NooIrHUE_draw_12 6200ms ease 0ms infinite,NooIrHUE_fade 6200ms linear 0ms infinite;}.NooIrHUE_13{stroke-dasharray:65 67;stroke-dashoffset:66;animation:NooIrHUE_draw_13 6200ms ease 0ms infinite,NooIrHUE_fade 6200ms linear 0ms infinite;}.NooIrHUE_14{stroke-dasharray:307 309;stroke-dashoffset:308;animation:NooIrHUE_draw_14 6200ms ease 0ms infinite,NooIrHUE_fade 6200ms linear 0ms infinite;}.NooIrHUE_15{stroke-dasharray:495 497;stroke-dashoffset:496;animation:NooIrHUE_draw_15 6200ms ease 0ms infinite,NooIrHUE_fade 6200ms linear 0ms infinite;}.NooIrHUE_16{stroke-dasharray:248 250;stroke-dashoffset:249;animation:NooIrHUE_draw_16 6200ms ease 0ms infinite,NooIrHUE_fade 6200ms linear 0ms infinite;}.NooIrHUE_17{stroke-dasharray:1226 1228;stroke-dashoffset:1227;animation:NooIrHUE_draw_17 6200ms ease 0ms infinite,NooIrHUE_fade 6200ms linear 0ms infinite;}@keyframes NooIrHUE_draw{100%{stroke-dashoffset:0;}}@keyframes NooIrHUE_fade{0%{stroke-opacity:1;}93.54838709677419%{stroke-opacity:1;}100%{stroke-opacity:0;}}@keyframes NooIrHUE_draw_0{12.903225806451612%{stroke-dashoffset: 1451}37.096774193548384%{ stroke-dashoffset: 0;}100%{ stroke-dashoffset: 0;}}@keyframes NooIrHUE_draw_1{13.37760910815939%{stroke-dashoffset: 185}37.571157495256166%{ stroke-dashoffset: 0;}100%{ stroke-dashoffset: 0;}}@keyframes NooIrHUE_draw_2{13.851992409867172%{stroke-dashoffset: 541}38.04554079696395%{ stroke-dashoffset: 0;}100%{ stroke-dashoffset: 0;}}@keyframes NooIrHUE_draw_3{14.326375711574954%{stroke-dashoffset: 269}38.51992409867172%{ stroke-dashoffset: 0;}100%{ stroke-dashoffset: 0;}}@keyframes NooIrHUE_draw_4{14.800759013282732%{stroke-dashoffset: 269}38.994307400379505%{ stroke-dashoffset: 0;}100%{ stroke-dashoffset: 0;}}@keyframes NooIrHUE_draw_5{15.27514231499051%{stroke-dashoffset: 155}39.46869070208729%{ stroke-dashoffset: 0;}100%{ stroke-dashoffset: 0;}}@keyframes NooIrHUE_draw_6{15.749525616698293%{stroke-dashoffset: 110}39.94307400379506%{ stroke-dashoffset: 0;}100%{ stroke-dashoffset: 0;}}@keyframes NooIrHUE_draw_7{16.22390891840607%{stroke-dashoffset: 52}40.41745730550284%{ stroke-dashoffset: 0;}100%{ stroke-dashoffset: 0;}}@keyframes NooIrHUE_draw_8{16.69829222011385%{stroke-dashoffset: 52}40.891840607210625%{ stroke-dashoffset: 0;}100%{ stroke-dashoffset: 0;}}@keyframes NooIrHUE_draw_9{17.17267552182163%{stroke-dashoffset: 52}41.36622390891841%{ stroke-dashoffset: 0;}100%{ stroke-dashoffset: 0;}}@keyframes NooIrHUE_draw_10{17.64705882352941%{stroke-dashoffset: 66}41.84060721062618%{ stroke-dashoffset: 0;}100%{ stroke-dashoffset: 0;}}@keyframes NooIrHUE_draw_11{18.12144212523719%{stroke-dashoffset: 66}42.314990512333964%{ stroke-dashoffset: 0;}100%{ stroke-dashoffset: 0;}}@keyframes NooIrHUE_draw_12{18.595825426944973%{stroke-dashoffset: 66}42.789373814041745%{ stroke-dashoffset: 0;}100%{ stroke-dashoffset: 0;}}@keyframes NooIrHUE_draw_13{19.070208728652748%{stroke-dashoffset: 66}43.26375711574952%{ stroke-dashoffset: 0;}100%{ stroke-dashoffset: 0;}}@keyframes NooIrHUE_draw_14{19.54459203036053%{stroke-dashoffset: 308}43.73814041745731%{ stroke-dashoffset: 0;}100%{ stroke-dashoffset: 0;}}@keyframes NooIrHUE_draw_15{20.018975332068308%{stroke-dashoffset: 496}44.212523719165084%{ stroke-dashoffset: 0;}100%{ stroke-dashoffset: 0;}}@keyframes NooIrHUE_draw_16{20.49335863377609%{stroke-dashoffset: 249}44.686907020872866%{ stroke-dashoffset: 0;}100%{ stroke-dashoffset: 0;}}@keyframes NooIrHUE_draw_17{20.967741935483872%{stroke-dashoffset: 1227}45.16129032258064%{ stroke-dashoffset: 0;}100%{ stroke-dashoffset: 0;}}</style></svg>
