<svg xmlns="http://www.w3.org/2000/svg" viewBox="0 0 400 400" style="><g id="Layer_5" data-name="Layer 5"><path d="M289.71,242.82H110.29a18,18,0,0,1-18-18V116.35a18,18,0,0,1,18-18H289.71a18,18,0,0,1,18,18V224.82A18,18,0,0,1,289.71,242.82ZM110.29,102.35a14,14,0,0,0-14,14V224.82a14,14,0,0,0,14,14H289.71a14,14,0,0,0,14-14V116.35a14,14,0,0,0-14-14Z" style="fill:#828282" class="OYnCpgkD_0"></path><path d="M301.45,87H98.55a18,18,0,0,0-18,18V251.19a18,18,0,0,0,18,18h89.27v16.48h-57a11.73,11.73,0,0,0-11.71,11.71v.95A11.72,11.72,0,0,0,130.82,310H269.18a11.72,11.72,0,0,0,11.71-11.71v-.95a11.73,11.73,0,0,0-11.71-11.71h-57V269.18h89.27a18,18,0,0,0,18-18V105A18,18,0,0,0,301.45,87ZM212.18,289.66h57a7.72,7.72,0,0,1,7.71,7.71v.95a7.72,7.72,0,0,1-7.71,7.71H130.82a7.72,7.72,0,0,1-7.71-7.71v-.95a7.72,7.72,0,0,1,7.71-7.71h81.36Zm-4-4H191.82V269.18h16.36Zm107.27-34.47a14,14,0,0,1-14,14H98.55a14,14,0,0,1-14-14V105a14,14,0,0,1,14-14h202.9a14,14,0,0,1,14,14Z" style="fill:#828282" class="OYnCpgkD_1"></path><path d="M175.47,182.82V193.6l-34.12-14.79a6.94,6.94,0,0,1-4.19-6.38v-.08a7,7,0,0,1,4.19-6.39l34.12-14.79V162l-26.7,10.28Z" style="fill:none;stroke:#099;stroke-linecap:round;stroke-linejoin:round;stroke-width:3px" class="OYnCpgkD_2"></path><path d="M209.16,151,198.5,194.86c-.36,1.45-.67,2.59-.94,3.43a4.14,4.14,0,0,1-1.22,2,3.54,3.54,0,0,1-2.38.7q-3.89,0-3.88-3.35a29.64,29.64,0,0,1,.76-4.38l10.63-43.91a19.48,19.48,0,0,1,1.6-4.8,3.15,3.15,0,0,1,3-1.3,4.18,4.18,0,0,1,2.91.92,3.23,3.23,0,0,1,1,2.51A21.38,21.38,0,0,1,209.16,151Z" style="fill:none;stroke:#099;stroke-linecap:round;stroke-linejoin:round;stroke-width:3px" class="OYnCpgkD_3"></path><path d="M258.66,178.82l-34.13,14.86V182.9l26.77-10.51L224.53,162v-10.7L258.64,166a7,7,0,0,1,4.2,6.39h0A7,7,0,0,1,258.66,178.82Z" style="fill:none;stroke:#099;stroke-linecap:round;stroke-linejoin:round;stroke-width:3px" class="OYnCpgkD_4"></path><path style="fill:none;stroke:#333;stroke-miterlimit:10;stroke-width:5px" d="M5,200A195,195 0,1,1 395,200A195,195 0,1,1 5,200" class="OYnCpgkD_5"></path></g><style data-made-with="vivus-instant">.OYnCpgkD_0{stroke-dasharray:1353 1355;stroke-dashoffset:1354;animation:OYnCpgkD_draw_0 6200ms ease-in 0ms infinite,OYnCpgkD_fade 6200ms linear 0ms infinite;}.OYnCpgkD_1{stroke-dasharray:2327 2329;stroke-dashoffset:2328;animation:OYnCpgkD_draw_1 6200ms ease-in 0ms infinite,OYnCpgkD_fade 6200ms linear 0ms infinite;}.OYnCpgkD_2{stroke-dasharray:170 172;stroke-dashoffset:171;animation:OYnCpgkD_draw_2 6200ms ease-in 0ms infinite,OYnCpgkD_fade 6200ms linear 0ms infinite;}.OYnCpgkD_3{stroke-dasharray:128 130;stroke-dashoffset:129;animation:OYnCpgkD_draw_3 6200ms ease-in 0ms infinite,OYnCpgkD_fade 6200ms linear 0ms infinite;}.OYnCpgkD_4{stroke-dasharray:170 172;stroke-dashoffset:171;animation:OYnCpgkD_draw_4 6200ms ease-in 0ms infinite,OYnCpgkD_fade 6200ms linear 0ms infinite;}.OYnCpgkD_5{stroke-dasharray:1226 1228;stroke-dashoffset:1227;animation:OYnCpgkD_draw_5 6200ms ease-in 0ms infinite,OYnCpgkD_fade 6200ms linear 0ms infinite;}@keyframes OYnCpgkD_draw{100%{stroke-dashoffset:0;}}@keyframes OYnCpgkD_fade{0%{stroke-opacity:1;}93.54838709677419%{stroke-opacity:1;}100%{stroke-opacity:0;}}@keyframes OYnCpgkD_draw_0{12.903225806451612%{stroke-dashoffset: 1354}37.096774193548384%{ stroke-dashoffset: 0;}100%{ stroke-dashoffset: 0;}}@keyframes OYnCpgkD_draw_1{14.516129032258066%{stroke-dashoffset: 2328}38.70967741935484%{ stroke-dashoffset: 0;}100%{ stroke-dashoffset: 0;}}@keyframes OYnCpgkD_draw_2{16.129032258064516%{stroke-dashoffset: 171}40.32258064516129%{ stroke-dashoffset: 0;}100%{ stroke-dashoffset: 0;}}@keyframes OYnCpgkD_draw_3{17.741935483870968%{stroke-dashoffset: 129}41.935483870967744%{ stroke-dashoffset: 0;}100%{ stroke-dashoffset: 0;}}@keyframes OYnCpgkD_draw_4{19.35483870967742%{stroke-dashoffset: 171}43.54838709677419%{ stroke-dashoffset: 0;}100%{ stroke-dashoffset: 0;}}@keyframes OYnCpgkD_draw_5{20.967741935483872%{stroke-dashoffset: 1227}45.16129032258064%{ stroke-dashoffset: 0;}100%{ stroke-dashoffset: 0;}}</style></svg>
