<svg id="Layer_1" data-name="Layer 1" xmlns="http://www.w3.org/2000/svg" viewBox="0 0 400 400" style=""><path d="M113.52,339.17H79.27V269.45h34.25Zm-31.25-3h28.25V272.45H82.27Z" style="fill:#9b9b9b" class="IzpzwwoT_0"></path><path d="M164.77,339.17H130.52V238.89h34.25Zm-31.25-3h28.25V241.89H133.52Z" style="fill:#9b9b9b" class="IzpzwwoT_1"></path><path d="M216,339.17H181.77V195.89H216Zm-31.25-3H213V198.89H184.77Z" style="fill:#9b9b9b" class="IzpzwwoT_2"></path><path d="M267.27,339.17H233V238.89h34.25Zm-31.25-3h28.25V241.89H236Z" style="fill:#9b9b9b" class="IzpzwwoT_3"></path><path d="M320.73,339.17H286.48V153.39h34.25Zm-31.25-3h28.25V156.39H289.48Z" style="fill:#9b9b9b" class="IzpzwwoT_4"></path><path style="fill:none;stroke:#099;stroke-linecap:round;stroke-linejoin:round;stroke-width:3px" d="M94.21,213.17A2.18,2.18 0,1,1 98.57000000000001,213.17A2.18,2.18 0,1,1 94.21,213.17" class="IzpzwwoT_5"></path><path style="fill:none;stroke:#099;stroke-linecap:round;stroke-linejoin:round;stroke-width:3px" d="M147.65,180.81A2.18,2.18 0,1,1 152.01000000000002,180.81A2.18,2.18 0,1,1 147.65,180.81" class="IzpzwwoT_6"></path><path style="fill:none;stroke:#099;stroke-linecap:round;stroke-linejoin:round;stroke-width:3px" d="M196.72,140.17A2.18,2.18 0,1,1 201.08,140.17A2.18,2.18 0,1,1 196.72,140.17" class="IzpzwwoT_7"></path><path style="fill:none;stroke:#099;stroke-linecap:round;stroke-linejoin:round;stroke-width:3px" d="M247.97,180.81A2.18,2.18 0,1,1 252.33,180.81A2.18,2.18 0,1,1 247.97,180.81" class="IzpzwwoT_8"></path><path style="fill:none;stroke:#099;stroke-linecap:round;stroke-linejoin:round;stroke-width:3px" d="M301.43,97.68A2.18,2.18 0,1,1 305.79,97.68A2.18,2.18 0,1,1 301.43,97.68" class="IzpzwwoT_9"></path><path style="fill:none;stroke:#099;stroke-linecap:round;stroke-linejoin:round;stroke-width:3px" d="M33.94,231L96.39,212.76L147.65,182.2L198.9,139.2L250,182.2L303.61,97.02L340.32,72" class="IzpzwwoT_10"></path><path style="fill:none;stroke:#333;stroke-miterlimit:10;stroke-width:5px" d="M5,200A195,195 0,1,1 395,200A195,195 0,1,1 5,200" class="IzpzwwoT_11"></path><style data-made-with="vivus-instant">.IzpzwwoT_0{stroke-dasharray:392 394;stroke-dashoffset:393;animation:IzpzwwoT_draw_0 6200ms ease 0ms infinite,IzpzwwoT_fade 6200ms linear 0ms infinite;}.IzpzwwoT_1{stroke-dasharray:515 517;stroke-dashoffset:516;animation:IzpzwwoT_draw_1 6200ms ease 0ms infinite,IzpzwwoT_fade 6200ms linear 0ms infinite;}.IzpzwwoT_2{stroke-dasharray:687 689;stroke-dashoffset:688;animation:IzpzwwoT_draw_2 6200ms ease 0ms infinite,IzpzwwoT_fade 6200ms linear 0ms infinite;}.IzpzwwoT_3{stroke-dasharray:515 517;stroke-dashoffset:516;animation:IzpzwwoT_draw_3 6200ms ease 0ms infinite,IzpzwwoT_fade 6200ms linear 0ms infinite;}.IzpzwwoT_4{stroke-dasharray:857 859;stroke-dashoffset:858;animation:IzpzwwoT_draw_4 6200ms ease 0ms infinite,IzpzwwoT_fade 6200ms linear 0ms infinite;}.IzpzwwoT_5{stroke-dasharray:14 16;stroke-dashoffset:15;animation:IzpzwwoT_draw_5 6200ms ease 0ms infinite,IzpzwwoT_fade 6200ms linear 0ms infinite;}.IzpzwwoT_6{stroke-dasharray:14 16;stroke-dashoffset:15;animation:IzpzwwoT_draw_6 6200ms ease 0ms infinite,IzpzwwoT_fade 6200ms linear 0ms infinite;}.IzpzwwoT_7{stroke-dasharray:14 16;stroke-dashoffset:15;animation:IzpzwwoT_draw_7 6200ms ease 0ms infinite,IzpzwwoT_fade 6200ms linear 0ms infinite;}.IzpzwwoT_8{stroke-dasharray:14 16;stroke-dashoffset:15;animation:IzpzwwoT_draw_8 6200ms ease 0ms infinite,IzpzwwoT_fade 6200ms linear 0ms infinite;}.IzpzwwoT_9{stroke-dasharray:14 16;stroke-dashoffset:15;animation:IzpzwwoT_draw_9 6200ms ease 0ms infinite,IzpzwwoT_fade 6200ms linear 0ms infinite;}.IzpzwwoT_10{stroke-dasharray:404 406;stroke-dashoffset:405;animation:IzpzwwoT_draw_10 6200ms ease 0ms infinite,IzpzwwoT_fade 6200ms linear 0ms infinite;}.IzpzwwoT_11{stroke-dasharray:1226 1228;stroke-dashoffset:1227;animation:IzpzwwoT_draw_11 6200ms ease 0ms infinite,IzpzwwoT_fade 6200ms linear 0ms infinite;}@keyframes IzpzwwoT_draw{100%{stroke-dashoffset:0;}}@keyframes IzpzwwoT_fade{0%{stroke-opacity:1;}93.54838709677419%{stroke-opacity:1;}100%{stroke-opacity:0;}}@keyframes IzpzwwoT_draw_0{12.903225806451612%{stroke-dashoffset: 393}37.096774193548384%{ stroke-dashoffset: 0;}100%{ stroke-dashoffset: 0;}}@keyframes IzpzwwoT_draw_1{13.636363636363638%{stroke-dashoffset: 516}37.82991202346041%{ stroke-dashoffset: 0;}100%{ stroke-dashoffset: 0;}}@keyframes IzpzwwoT_draw_2{14.369501466275658%{stroke-dashoffset: 688}38.56304985337243%{ stroke-dashoffset: 0;}100%{ stroke-dashoffset: 0;}}@keyframes IzpzwwoT_draw_3{15.102639296187684%{stroke-dashoffset: 516}39.29618768328446%{ stroke-dashoffset: 0;}100%{ stroke-dashoffset: 0;}}@keyframes IzpzwwoT_draw_4{15.835777126099707%{stroke-dashoffset: 858}40.02932551319648%{ stroke-dashoffset: 0;}100%{ stroke-dashoffset: 0;}}@keyframes IzpzwwoT_draw_5{16.568914956011728%{stroke-dashoffset: 15}40.7624633431085%{ stroke-dashoffset: 0;}100%{ stroke-dashoffset: 0;}}@keyframes IzpzwwoT_draw_6{17.302052785923756%{stroke-dashoffset: 15}41.49560117302053%{ stroke-dashoffset: 0;}100%{ stroke-dashoffset: 0;}}@keyframes IzpzwwoT_draw_7{18.035190615835777%{stroke-dashoffset: 15}42.22873900293255%{ stroke-dashoffset: 0;}100%{ stroke-dashoffset: 0;}}@keyframes IzpzwwoT_draw_8{18.768328445747798%{stroke-dashoffset: 15}42.961876832844574%{ stroke-dashoffset: 0;}100%{ stroke-dashoffset: 0;}}@keyframes IzpzwwoT_draw_9{19.501466275659823%{stroke-dashoffset: 15}43.6950146627566%{ stroke-dashoffset: 0;}100%{ stroke-dashoffset: 0;}}@keyframes IzpzwwoT_draw_10{20.234604105571847%{stroke-dashoffset: 405}44.42815249266862%{ stroke-dashoffset: 0;}100%{ stroke-dashoffset: 0;}}@keyframes IzpzwwoT_draw_11{20.967741935483872%{stroke-dashoffset: 1227}45.16129032258064%{ stroke-dashoffset: 0;}100%{ stroke-dashoffset: 0;}}</style></svg>
