<svg xmlns="http://www.w3.org/2000/svg" viewBox="0 0 400 400" style="><g id="Layer_4" data-name="Layer 4"><path d="M103,231H58a7.5,7.5,0,0,1-7.5-7.5v-45A7.5,7.5,0,0,1,58,171h45a7.5,7.5,0,0,1,7.5,7.5v45A7.5,7.5,0,0,1,103,231ZM58,176a2.5,2.5,0,0,0-2.5,2.5v45A2.5,2.5,0,0,0,58,226h45a2.5,2.5,0,0,0,2.5-2.5v-45A2.5,2.5,0,0,0,103,176Z" style="fill:#828282" class="HgvzGNzv_0"></path><path d="M103,324H58a7.5,7.5,0,0,1-7.5-7.5v-45A7.5,7.5,0,0,1,58,264h45a7.5,7.5,0,0,1,7.5,7.5v45A7.5,7.5,0,0,1,103,324ZM58,269a2.5,2.5,0,0,0-2.5,2.5v45A2.5,2.5,0,0,0,58,319h45a2.5,2.5,0,0,0,2.5-2.5v-45A2.5,2.5,0,0,0,103,269Z" style="fill:#828282" class="HgvzGNzv_1"></path><path d="M103,138H58a7.5,7.5,0,0,1-7.5-7.5v-45A7.5,7.5,0,0,1,58,78h45a7.5,7.5,0,0,1,7.5,7.5v45A7.5,7.5,0,0,1,103,138ZM58,83a2.5,2.5,0,0,0-2.5,2.5v45A2.5,2.5,0,0,0,58,133h45a2.5,2.5,0,0,0,2.5-2.5v-45A2.5,2.5,0,0,0,103,83Z" style="fill:#828282" class="HgvzGNzv_2"></path><path style="fill:none;stroke:#9b9b9b;stroke-linecap:round;stroke-miterlimit:10;stroke-width:6px" d="M147.8,97.31L340.64,97.31" class="HgvzGNzv_3"></path><path style="fill:none;stroke:#9b9b9b;stroke-linecap:round;stroke-miterlimit:10;stroke-width:6px" d="M147.8,118.69L287.15,118.69" class="HgvzGNzv_4"></path><path style="fill:none;stroke:#9b9b9b;stroke-linecap:round;stroke-miterlimit:10;stroke-width:6px" d="M147.92,190.19L340.77,190.19" class="HgvzGNzv_5"></path><path style="fill:none;stroke:#9b9b9b;stroke-linecap:round;stroke-miterlimit:10;stroke-width:6px" d="M147.92,211.56L287.15,211.56" class="HgvzGNzv_6"></path><path style="fill:none;stroke:#9b9b9b;stroke-linecap:round;stroke-miterlimit:10;stroke-width:6px" d="M147.92,283.31L340.77,283.31" class="HgvzGNzv_7"></path><path style="fill:none;stroke:#9b9b9b;stroke-linecap:round;stroke-miterlimit:10;stroke-width:6px" d="M147.92,304.69L287.15,304.69" class="HgvzGNzv_8"></path><path style="fill:none;stroke:#099;stroke-linecap:round;stroke-miterlimit:10;stroke-width:7px" d="M67,107.5L78.5,119L125.5,72" class="HgvzGNzv_9"></path><path style="fill:none;stroke:#333;stroke-miterlimit:10;stroke-width:4px" d="M5,200A195,195 0,1,1 395,200A195,195 0,1,1 5,200" class="HgvzGNzv_10"></path></g><style data-made-with="vivus-instant">.HgvzGNzv_0{stroke-dasharray:423 425;stroke-dashoffset:424;animation:HgvzGNzv_draw_0 6200ms ease 0ms infinite,HgvzGNzv_fade 6200ms linear 0ms infinite;}.HgvzGNzv_1{stroke-dasharray:423 425;stroke-dashoffset:424;animation:HgvzGNzv_draw_1 6200ms ease 0ms infinite,HgvzGNzv_fade 6200ms linear 0ms infinite;}.HgvzGNzv_2{stroke-dasharray:423 425;stroke-dashoffset:424;animation:HgvzGNzv_draw_2 6200ms ease 0ms infinite,HgvzGNzv_fade 6200ms linear 0ms infinite;}.HgvzGNzv_3{stroke-dasharray:193 195;stroke-dashoffset:194;animation:HgvzGNzv_draw_3 6200ms ease 0ms infinite,HgvzGNzv_fade 6200ms linear 0ms infinite;}.HgvzGNzv_4{stroke-dasharray:140 142;stroke-dashoffset:141;animation:HgvzGNzv_draw_4 6200ms ease 0ms infinite,HgvzGNzv_fade 6200ms linear 0ms infinite;}.HgvzGNzv_5{stroke-dasharray:193 195;stroke-dashoffset:194;animation:HgvzGNzv_draw_5 6200ms ease 0ms infinite,HgvzGNzv_fade 6200ms linear 0ms infinite;}.HgvzGNzv_6{stroke-dasharray:140 142;stroke-dashoffset:141;animation:HgvzGNzv_draw_6 6200ms ease 0ms infinite,HgvzGNzv_fade 6200ms linear 0ms infinite;}.HgvzGNzv_7{stroke-dasharray:193 195;stroke-dashoffset:194;animation:HgvzGNzv_draw_7 6200ms ease 0ms infinite,HgvzGNzv_fade 6200ms linear 0ms infinite;}.HgvzGNzv_8{stroke-dasharray:140 142;stroke-dashoffset:141;animation:HgvzGNzv_draw_8 6200ms ease 0ms infinite,HgvzGNzv_fade 6200ms linear 0ms infinite;}.HgvzGNzv_9{stroke-dasharray:83 85;stroke-dashoffset:84;animation:HgvzGNzv_draw_9 6200ms ease 0ms infinite,HgvzGNzv_fade 6200ms linear 0ms infinite;}.HgvzGNzv_10{stroke-dasharray:1226 1228;stroke-dashoffset:1227;animation:HgvzGNzv_draw_10 6200ms ease 0ms infinite,HgvzGNzv_fade 6200ms linear 0ms infinite;}@keyframes HgvzGNzv_draw{100%{stroke-dashoffset:0;}}@keyframes HgvzGNzv_fade{0%{stroke-opacity:1;}93.54838709677419%{stroke-opacity:1;}100%{stroke-opacity:0;}}@keyframes HgvzGNzv_draw_0{12.903225806451612%{stroke-dashoffset: 424}37.096774193548384%{ stroke-dashoffset: 0;}100%{ stroke-dashoffset: 0;}}@keyframes HgvzGNzv_draw_1{13.709677419354838%{stroke-dashoffset: 424}37.903225806451616%{ stroke-dashoffset: 0;}100%{ stroke-dashoffset: 0;}}@keyframes HgvzGNzv_draw_2{14.516129032258066%{stroke-dashoffset: 424}38.70967741935484%{ stroke-dashoffset: 0;}100%{ stroke-dashoffset: 0;}}@keyframes HgvzGNzv_draw_3{15.32258064516129%{stroke-dashoffset: 194}39.516129032258064%{ stroke-dashoffset: 0;}100%{ stroke-dashoffset: 0;}}@keyframes HgvzGNzv_draw_4{16.129032258064516%{stroke-dashoffset: 141}40.32258064516129%{ stroke-dashoffset: 0;}100%{ stroke-dashoffset: 0;}}@keyframes HgvzGNzv_draw_5{16.93548387096774%{stroke-dashoffset: 194}41.12903225806452%{ stroke-dashoffset: 0;}100%{ stroke-dashoffset: 0;}}@keyframes HgvzGNzv_draw_6{17.741935483870968%{stroke-dashoffset: 141}41.935483870967744%{ stroke-dashoffset: 0;}100%{ stroke-dashoffset: 0;}}@keyframes HgvzGNzv_draw_7{18.548387096774192%{stroke-dashoffset: 194}42.74193548387097%{ stroke-dashoffset: 0;}100%{ stroke-dashoffset: 0;}}@keyframes HgvzGNzv_draw_8{19.35483870967742%{stroke-dashoffset: 141}43.54838709677419%{ stroke-dashoffset: 0;}100%{ stroke-dashoffset: 0;}}@keyframes HgvzGNzv_draw_9{20.161290322580644%{stroke-dashoffset: 84}44.354838709677416%{ stroke-dashoffset: 0;}100%{ stroke-dashoffset: 0;}}@keyframes HgvzGNzv_draw_10{20.967741935483872%{stroke-dashoffset: 1227}45.16129032258064%{ stroke-dashoffset: 0;}100%{ stroke-dashoffset: 0;}}</style></svg>
