<svg xmlns="http://www.w3.org/2000/svg" id="Layer_1" data-name="Layer 1" viewBox="0 0 250 150"><defs/><defs><style>.cls-1{fill:#ed1a37}</style></defs><path d="M221.4 62.6a2.1 2.1 0 00-2.1 2.2 2.1 2.1 0 004.2 0 2.2 2.2 0 00-2.1-2.1m-37.7 5.8a4.3 4.3 0 00-4 2.1 4 4 0 00-3.7-2 4.5 4.5 0 00-3.6 1.8v-.8a.7.7 0 00-.7-.7H170a.7.7 0 00-.7.7v11a.7.7 0 00.7.7h2a.7.7 0 00.7-.7V74a2.5 2.5 0 01.4-1.4 2.2 2.2 0 012-1c1.5 0 2.1 1 2.1 2.3v6.7a.7.7 0 00.7.7h1.9a.7.7 0 00.7-.7V74a2.3 2.3 0 012.3-2.5 2.1 2.1 0 012.3 2.4v6.7a.7.7 0 00.7.7h1.8a.7.7 0 00.7-.7v-7.4c0-3.4-2.3-4.8-4.6-4.8m9.7 5.2a2.7 2.7 0 012.8-2.5 2.5 2.5 0 012.8 2.5zm2.8-5.3a6.6 6.6 0 00.3 13.3 5.8 5.8 0 004.7-2.1 3.5 3.5 0 00.7-1.2c.2-.4-.1-.7-.5-.8l-1.4-.4c-.5-.2-.7-.1-1 .3a2.7 2.7 0 01-2.5 1.3 3.1 3.1 0 01-3.2-2.8h8.3a.7.7 0 00.7-.6V75a5 5 0 00-.2-1.3c-.4-3.2-2.5-5.1-5.9-5.1m14.2 10.1c-1.7 0-3-1.3-3-3.5s1.3-3.5 3-3.5 3.1 1.2 3.1 3.5-1.3 3.5-3 3.5m6.3-14.9a.7.7 0 00-.8-.7h-1.8a.7.7 0 00-.7.7V70c-.4-.7-1.4-1.5-3.5-1.5-3.5 0-6 2.8-6 6.5s2.5 6.6 6 6.6a4 4 0 003.5-1.7v.7c0 .5.2.7.8.7h1.9c.5 0 .6-.2.6-.5V63.7M234.7 75c0 2.3-1.4 3.6-3.1 3.6s-3.1-1.3-3.1-3.5 1.3-3.5 3-3.5 3.2 1.2 3.2 3.5m-9.6 0c0 3.7 2.5 6.6 6 6.6a4 4 0 003.6-1.8v.8c0 .5.2.7.7.7h1.9c.5 0 .6-.3.6-.6V69.8a.7.7 0 00-.7-.8h-1.9a.6.6 0 00-.7.7v.6c-.3-.7-1.4-1.5-3.5-1.5-3.5 0-6 2.8-6 6.4m-2.8-6.2h-1.9a.7.7 0 00-.7.7v11a.7.7 0 00.7.7h2a.7.7 0 00.6-.7v-11a.7.7 0 00-.7-.7m-181 10.8l.2-.2v-.3V78.4a3 3 0 01.1-.8v-.2h.1l.2-.2.1-.2v-.2-.1l.1-.2H42v-.2V76v-.1a.2.2 0 010-.2l.1-.1v-.2l.1-.2.1-.1v-.4l.1-.1v-.1-.2l.1-.1v-.5l.1-.1v-.4h.1v-.3l.1-.2a2.5 2.5 0 010-.3l.1-.2v-.1-.5-.4h.1V71h.1v-.3-.4h.1V70v-.1l.2-.2c.2 0 0-.1 0-.1V69h.2V69v-.1c0-.1 0 0 0 0l.2-.2v-.2a.2.2 0 01.2-.2V68v-.2s.2-.1 0-.2a.3.3 0 01.2-.2l.2-.2v-.4V66.5v-.2a.2.2 0 01.2-.2.3.3 0 010-.2.2.2 0 010-.2h.2l.1-.2h.1v-.2l.1-.1a.2.2 0 00.1-.2v-.1s.1 0 0-.1 0-.2 0-.2l.1-.2v-.1a.3.3 0 010-.2v-.3-1-.2h.1v-.2a.4.4 0 01.1-.4l.4-.8V61l.1-.1.1-.4a.2.2 0 01.1-.2v-.2V59.8l.3-.2a.8.8 0 010-.3.2.2 0 00.2 0V59l.2-.2c.2-.2-.2 0-.2-.2v-.2l.2-.2v-.5h.2v-.1a.2.2 0 000-.1v-.4c0-.1 0-.2.2-.2s0-.2 0-.2v-.2l.2-.1c.2-.1 0 0 0 0l-.1-.1a.3.3 0 010-.2l.1-.3v-.4l.2-.2v-.1s.2 0 .2-.2v-.2l.2-.2-.1-.2h.1c.1 0 0 0 0-.1V54h.1v-.5h.1v-.4l.1-.1V53l.1-.2h.1v-.5h.1V52l.1-.2.1-.2v-.1-.2h.1l.1-.2V51a.3.3 0 010-.2l.1-.1.3-.4a.3.3 0 01.1-.2.2.2 0 00.1-.1v-.3l.1-.2a.6.6 0 01.2-.2v-.4-.2-.2a.7.7 0 010-.2c.2 0 .2 0 .2-.2l.2-.2c.2 0 0 0 0-.2a.4.4 0 00.2-.3V47l.2-.1v-.1a1.4 1.4 0 00.2-.3V46.3c0-.1 0-.2.2-.2 0 0 0-.4.2-.4l.3-.7.2-.4v-.1l.1-.1a.5.5 0 01.1-.3V44h.1v-.1a.2.2 0 000-.2l.2-.3v-.1V43h.1l.1-.2v-.1l.2-.2v-.1l.1-.2.2-.2.2-.1s0-.4.2-.4a.3.3 0 01.2-.2c-.2 0 0 0 0-.2V41l.2-.2.2-.2c0-.1 0-.2.2-.3l.3-.4h.1a.2.2 0 000-.2h.1l.2-.2a.1.1 0 01.2-.2V39a.3.3 0 01.2 0v-.2h.2v-.1l.1-.1v-.1l.1-.1h.1v-.1l.1-.2h.2l.1-.2.1-.1v-.2h.2l-.1.1v.1h.2l.1-.1v-.2-.1h.2s-.1 0 0 0v-.1c0-.1.1 0 .1 0h.2v-.1h.1l.1-.1V37h.1l.1-.1v-.3-.2l.2-.1h.1V36h.2V35.6h.1l.1-.2v-.2a.2.2 0 00.1-.2l.1-.2c0-.2 0 0 0 0l.1-.2v-1.5-.5l-.1-.2v-.2l-.1-.2c0-.2 0 0-.1 0V32v-.1l-.1-.2-.2-.2-.1-.2-.2-.2-.1-.1-.2-.1v-.1l-.2-.1v-.1H57a.2.2 0 000-.1l-.1-.1h-.1a.2.2 0 01-.1-.1c-.1 0-.2 0-.2-.2s-.2 0-.2 0a.3.3 0 01-.2 0H56l-.1-.2h-1-.2-.2a.4.4 0 00-.3.1l-.2.1-.3.1c-.2.1 0 0-.2 0a3 3 0 00-.9.7l-.2.2-.1.1a.2.2 0 00-.1.1.1.1 0 00-.2.2.2.2 0 01-.2.2.9.9 0 00-.2.2 1 1 0 00-.2.3l-.2.5c0 .2 0 .2-.2.2s-.2.3-.2.5a1.6 1.6 0 01-.3.4l-.4 1-.2.5-.2.5-.2.7-.2.6a4.8 4.8 0 00-.4 1l-.2.6-.6 1.6s0 .2-.2.3a4.4 4.4 0 000 .4l-.4.8-.4 1-.4 1.2-.2.5c0 .2 0 .4-.2.5a2.3 2.3 0 01-.2.6 3.5 3.5 0 01-.3.8 3.7 3.7 0 00-.3.8l-.4 1-1 2.7v.3a.2.2 0 000 .2l-.2.2-.1.3a1.8 1.8 0 00-.2.5 1.7 1.7 0 01-.2.8l-.2.4a4.2 4.2 0 00-.3.7 3 3 0 01-.2.5l-.1.5a.6.6 0 00-.1.4l-.2.5-.1.5-.3.6v.6l-.1.2v.4a.7.7 0 01-.2.3v.4l-.7 2.2a6 6 0 00-.2.7 9 9 0 00-.4 1.4l-.1.6v.2l-.1.4a1 1 0 01-.1.3l-.3.7-.4 1.4c0 .4-.2.8-.3 1.1a1.4 1.4 0 010 .6l-.3.6V70l-.2.1v.4a.6.6 0 000 .3l-.3.7c0 .4-.2.7-.3 1.1v.6l-.3 1.1a2 2 0 01-.1.6l-.1.6c-.1.2-.2.4-.1.5a1.2 1.2 0 00-.1.5 1.4 1.4 0 01-.1.6l-.2.8-.1.6a1.6 1.6 0 00-.1.5l-.1.8-.3 1.7a2.6 2.6 0 00-.1.7 6.1 6.1 0 01-.2 1.1l-.1.4-.1.9-.3 1.6a1.7 1.7 0 000 .6l-.4 2-.1 1a1.4 1.4 0 010 .6v.3a.3.3 0 00-.2.2v1c-.2 0-.2 0-.2.2v-.2s-.2-.1-.4 0v-.4a1.2 1.2 0 000-.4v-.2-.2l-.3-.3v-.1a.3.3 0 000-.2v-.7l-.2-.4a3 3 0 000-.3V88.4c0-.2.2-.2 0-.4s0-.2 0-.4v-.3h-.1c-.1 0 0-.1 0-.2V87h-.2c.1 0 0-.2 0-.2v-.1l.3-.2h-.2a.2.2 0 01-.1 0c0 .2 0 .2-.1 0v-.4-.2-.1c0-.1-.1 0 0 0v-.2l.1-.1v-.2l.1-.2V85v-.4l-.1-.2v-.1l-.1-.2-.1-.1c-.1-.1 0 0 0-.2l-.1-.4v-.6l-.1-.1v-.2-.1a.2.2 0 00-.1-.1.4.4 0 00-.1-.3v-.1V81.5a.2.2 0 00.1-.2l-.1-.2a.3.3 0 01-.1-.3v-.2a.2.2 0 00-.1-.2v-.2a.3.3 0 00-.1-.3l-.2-.1a.5.5 0 010-.3v-.1H32v-.5-.2h-.2c-.2 0 0 0 0-.1v-.4l-.2-.1a.6.6 0 01.1-.3v-.1c0-.1 0 0-.1 0a3.2 3.2 0 00-.2-.7l.1-.1c.1-.1 0 0 0-.1a.5.5 0 01-.1-.4.3.3 0 000-.2l-.2-.2h.1v-.2l-.1-.1a.1.1 0 010-.2v-.1-.5-.1-.1-.2h.1V74l-.1-.1c0-.1 0 0 0 0v-.2a.2.2 0 01-.2-.2v-.2c0-.2 0 0 0 0v-.1l.2-1.3v-.2h.1-.2v-.1-.1c0-.1 0 0 0 0V71L31 71v-.4s0-.2-.2-.2a.2.2 0 010-.2v-.5-.3a.2.2 0 00-.1-.2.2.2 0 00-.1-.2V68h-.1v-.3l-.1-.1v-.3l-.1-.2v-.5h-.1v-.4a.3.3 0 000-.2v-.5l-.1-.2v-.1L30 65v-.5a1 1 0 010-.5V64l-.1-.2a.9.9 0 00-.2-.4V63h-.1v-.2-.2h-.1l-.1-.1-.1-.2-.1-.1-.3-.3-.4-.1v-.1a.3.3 0 00-.3 0h-.1l-.3-.1h-1.1v.1h-.2-.2a.1.1 0 00-.1.2l-.4.2s-.2.1-.2.3a1.7 1.7 0 00-.3.4 1.9 1.9 0 00-.2.5l-.2.6-.1.1c-.1 0 0 0 0 .2l-.1.3c0 .2-.1 0-.1 0v.2l-.1.2-.1.1v.1a2.2 2.2 0 00-.3.8l-.1.2v.3l-.2.2-.3 1.1-.2.3a.7.7 0 00-.1.4v.4c0 .2-.1.2-.2.3a.6.6 0 00-.1.5.9.9 0 00-.2.3v.4a.9.9 0 01-.1.4 3.2 3.2 0 01-.3.7 1.9 1.9 0 00-.2.6 1.2 1.2 0 010 .3l-.2.4v.3a1 1 0 01-.1.4l-.3.7c-.1.3-.3.3-.3.6a.9.9 0 00-.1.4.8.8 0 010 .4c-.1.1-.1.4-.3.5s-.3.2-.1.2c0 .2-.2.2 0 .3l-.2.2a.7.7 0 010 .4l-.4.8a5.9 5.9 0 00-.4 1v.3l-.1.3v.2l-.1.1-.1.3-.1.2a.8.8 0 010 .3l-.3.6-.2.6a2.7 2.7 0 00-.2 1.2 1 1 0 00.2.6 2.8 2.8 0 00.8.8l.4.2H21.6v-.1a.3.3 0 01.3 0 1.5 1.5 0 00.3-.3l.3-.3v-.1h.3l-.1-.1a.2.2 0 010-.3l.2-.1c.2-.1 0 0 0-.2V83h.1v-.3l.1-.1v-.2l.2-.3c0-.2 0 0 0 0v-.2l.2-.2.1-.1c.1 0 0-.1 0-.2v-.1l.1-.1a.3.3 0 01.2-.3.1.1 0 01.1-.2h.1l-.1-.1v-.4h.1c.1 0 0 0 0 0h.1V79.8l.1-.1v-.1l.2-.2-.1-.1V79.1h.1v-.2h-.1v-.2h.2v-.4l.1-.1V78 78v-.2h.1a.3.3 0 010-.2h.2v-.1-.1a.3.3 0 010-.3h.1V77h.2v-.2l.2-.1-.1-.1h.1V76.1c0-.1 0 0 0 0V76h.2v-.1-.2h-.1v-.1c0-.1 0 0 0 0h.1v-.1h.2c-.1 0 0 0 0 0V75.1s.1.2.2 0V75h.2v-.2h.1v-.3h.1v-.3h.5v.1l.1.2h.1v.5h.1l.2-.1v.4h-.1a.2.2 0 01.1.1v.1h-.2v.1h.1V76h.1c.1 0 0 0 0 .2a.3.3 0 000 .3.1.1 0 00.2.1v.2h.2v.6c0 .1 0 0 .2 0v.5a.6.6 0 000 .4l.1.2v.2l.1.2a.6.6 0 000 .3v.5l.1.1v.3l.1.3c.1 0 0 0 0 .2v.2l.1.2.1.1v1s-.1 0 0 0v.5h.1v.2l.1.4a.4.4 0 000 .3.2.2 0 00.1.1V83.8l.1.1a.7.7 0 000 .3 2.5 2.5 0 01.1.7v.1l.1.2V85.9l.1.3v.2h.1v.7c0 .1.1.1 0 .2v.3l.1.1v.4l.1.4a.7.7 0 000 .3v.4a.2.2 0 00.1.2v.4l.1.3v.5l.1.2V91a.1.1 0 010 .2v.1h.1v.7h.1v.4h.1v1.1l.1.1v.5l.1.1V94.9l.1.1v.5l.1.3v.7h.1V97.4s-.1.1 0 .1v.1l.2.2v.2l-.1.2-.1.1-.1.2v-.1h.4v.4a.3.3 0 00.1.2.2.2 0 000 .2v.6l.2.1V100.8a.1.1 0 000 .2l.1.2h.1v.5a.5.5 0 00.1.3l.1.2v.7l.2.2.1.3.1.4v.6l.1.3a.2.2 0 00.1.2l-.4 1.4V106.5h.1v.7a.2.2 0 00.2.2s-.1 0 0 .1V107.8l.2.1v1.2a.2.2 0 00.2.2V109.9h.2c.2 0 0 .1 0 .1v.2h.2V110.6h.2v.1l.2.1a.2.2 0 01.2.1v.1l.1.1a.3.3 0 00.2 0h.3l.2.1c.1 0 0 0 0 0h.7a.3.3 0 00.2-.1h.3v-.1l.1-.1.2-.1v-.1l.2-.1v-.2h.2a.2.2 0 010-.2h.2v-.4h.2v-.2-.2a.2.2 0 01.2-.2v-.1a.2.2 0 010-.2h.1v-.1l.1-.2v-.2-.3h.1v-.1a.3.3 0 010-.3c.1 0 0-.1 0-.2v-.2h.1v-.3a.3.3 0 010-.2s.1-.1 0-.2v-.3c0-.1.1-.2 0-.2v-.3a.2.2 0 01.1-.2v-.5h.1v-.7-.6-.5s.1-.1 0-.2 0-.1.1-.2v-1h.1v-1.2h.1v-.4a.2.2 0 01.1-.2v-1-.1a.2.2 0 010-.2V98h.1V98h.1v-.7V96.7a.3.3 0 01.1-.2v-.3l.1-.2v-.7-.7l.1-.2v-.3h.1v-.6h.1V93H39v-.2l.1-.1v-.2H39v-.2h-.2v-.5a.2.2 0 01.1-.1l.1-.2V91a.2.2 0 010-.2V90s.2 0 .1-.1l.1-.2.1-.2h.2v-.2h.1v-.4l.1-.1v-.4-.2h.2V88h-.1v-.5H39.5V87.2h.1v-.9h.1V86 85.7h.2V85v-.1h.1v-.6a.1.1 0 010-.1h.1a.5.5 0 00.2-.4v-.2h-.1v-.4a.3.3 0 00.1-.1V82.8l-.1-.1a.6.6 0 01.1-.3v-.5l.2-.1V81l.9-1.3" class="cls-1"/><path d="M53.6 64.3v-.1-.2l-.2-.2v-.1V63.4h-.2v-.2s0-.3-.2-.2v-.2h-.2-.1-.1-.4-.2v.1h-.1a.6.6 0 00-.3.1l-.1.1h-.2c-.2 0 0 .1-.2.2h-.2l-.2.2a1.6 1.6 0 01-.4.3l-.2.2-.2.2c-.2 0 0 .1-.1.2h-.2a1.5 1.5 0 00-.3.4l-.2.2V65.3H49l-.1.2v.2l-.1.3v.1h-.1V67c0 .1 0 0 0 0V67.3l.1.2h.1v.1a.3.3 0 00.2 0 .3.3 0 000 .3l.3.2h.2l-.1.1h.4a.2.2 0 01.2 0h.5V68l.2-.1c.2 0 .1 0 .1-.1l.1-.1H51.3v-.1h.2v-.2h.4v-.1l.2-.2h.2V67l.1-.1c0-.1 0 0 .1 0l.2-.2h.2c0-.2-.1-.2 0-.2 0 0 .2 0 .2-.2s0 0 .2 0 0-.2 0-.2V66h.2c.2 0 0 0 0 0l.2-.3a.2.2 0 000-.2v-.1h.2l-.1-.1V65c0-.5-.1-.6-.2-.7m5.2 5.7h-.5l-.4.2c-.2.1 0 0-.1 0l-.1.1-.2.1c-.2 0 0 0 0 0l-.2.1H57v.2c-.2 0-.4.2-.6.4l-.2.1v.2l-.2.1v.2l-.2.3-.1.3-.2.3v.1l-.1.3c-.1 0 0 .2 0 .4a1.9 1.9 0 00-.1.6 2 2 0 01-.1.6V77a.6.6 0 01-.1.3v1a.7.7 0 01-.1.4v.5c0 .1-.1.1 0 .2a.5.5 0 00-.1.2v.4l-.1.1v.4c0 .2-.2.2 0 .2v.2s-.1 0 0 0-.2.5 0 .5v.1l-.2.1c-.1.1 0 .2 0 .2v.3l.1.1v.1l-.1.2c-.1.1 0 0 0 .1v.6l-.1.1v.1l.1.2a.3.3 0 010 .3v.3a.2.2 0 000 .3.6.6 0 010 .3v.3l-.1.3v.1c0 .1-.1.1 0 .2v2l.1.1V88.1l.1.2.1.2h.1l.2.2v.1h.1v.1h.1a.3.3 0 01.2.1h1.1s.2 0 .2-.2h.4l.2-.1.2-.1h.2v-.1l.2-.1c.2-.1 0 0 0 0l.2-.1v-.1a.3.3 0 01.2 0c.2 0 0-.1.2-.2l.3-.3v-.2h.1a.5.5 0 00.2-.3v-.3c0-.2.1-.2.2-.2l.1-.3v-.1l.1-.2V84.4l.1-.1V84v-.2c0-.1 0 0 0 0v-1.3a.2.2 0 010-.2V81l.1-.2c.1 0 0-.1 0-.1v-.6-.3c0-.2 0 0 0 0v-.6-.2V78.7v-.2-.1l.1-.1c.2-.1 0-.2 0-.2h.1c.1 0 0-.1 0-.1h.1v-.5-.2l.2-.2v-.4l.1-.1a.2.2 0 01-.1 0v-.2l.2-.1v-.2a.3.3 0 010-.2l.1-.2a.1.1 0 01.1-.1l.1-.2c.1 0 0 0 0-.1l.3-.3.4-.4s0-.2.2-.2 0-.1 0-.2h.2a.2.2 0 01.1-.1l.2-.2h.2v-.1-.1h.2v-.2a.1.1 0 00.2-.1l.2-.2.2-.2h.2c.2 0 .2-.2.2-.2h.2c.2 0 .1-.2.1-.2l.2-.2h.1a.2.2 0 00.1-.1c.2-.1.2-.4.4-.4s0-.1 0-.2l.1-.2a.2.2 0 01.1-.2l.1-.1a.4.4 0 00.1-.3v-.5a.3.3 0 010-.2V70v-.4H65 65a.2.2 0 010-.2l-.1-.1v-.2h-.1V69h-.1v-.1l-.1-.1-.2-.2-.1-.1H64l-.3-.1h-.4-.1-.2v.2H63h-.2v.2l-.1-.1-.1.1-.1.2h-.2H62l-.1.2h-.2l-.3.1c0 .1.1 0 .2 0v.1H61v.2a.6.6 0 01-.4 0c-.2 0-.2.2-.3.2H60l-.2.1a1.3 1.3 0 00-.5.1.6.6 0 00-.3 0c0-.1 0-.1-.2 0M87.9 50.8V51h.1a.8.8 0 00.3.3.2.2 0 00.2.1.3.3 0 01.2 0l.4.2a.7.7 0 01.3 0 .3.3 0 00.2 0h.4l.4-.1.1-.2a.3.3 0 00.2 0v-.1h.1l.2-.2a.7.7 0 00.4-.3l.1-.2.1-.2.2-.2.2-.2a.3.3 0 00.1-.3h.2v-.2h.2V49h.2v-.3-.2l.1-.1v-.2V48 47.7h-.1l-.1-.2h-.1a.2.2 0 01-.1-.2l-.1-.2h-.1s-.1.1-.2 0h-1.2a.2.2 0 01-.3 0h-.2v.1a.2.2 0 00-.3 0v.1l-.3.1v.1l-.1.1h-.1v.1l-.1.1h-.1l-.2.1-.1.1-.1.1-.1.1-.1.1-.1.1c-.1 0 0 0 0 0v.2l-.2.1-.2.2-.2.3v.1c0 .1 0 .3-.1.2V50.1a.2.2 0 00-.2 0v.4l.1.1v.2M85 74l.2.2a1 1 0 00.2.2h.2a.7.7 0 01.2.2h.8l.5-.2a1.9 1.9 0 01.5-.3l.4-.2.1-.1.3-.2.1-.1c0-.1 0 0 0 0l.2-.1.4-.5a1.3 1.3 0 00.3-.3l.2-.3a.2.2 0 000-.2h.2a.3.3 0 000-.2l.1-.3c0-.1 0 0 0 0v-.2-.1-.2s.1 0 0 0V71v-.2a.2.2 0 01-.1-.2v-1V67.7a.3.3 0 01.1-.2v-.1H90.2s0 .2 0 0v-.1a.2.2 0 00-.1 0v-.1h-.2V67h.1v.1H90.4V67 67h-.1l-.1-.1-.1-.1v-.2-.1-.1h.1a.3.3 0 010-.3h.1v-.2h.2v-.2a.2.2 0 010-.2h.1v-.1-.1-.1-.2h-.1v-.4h.1v-.1l-.1.1v-.2l.1-.1v-.4-.1a.2.2 0 010-.1v-.5-.1-.4h-.1v-1.2-.2c0-.2 0 0 0 0V61h.3V61h-.2v-.1l.2-.1v-.5h.2l-.1-.2V60a.2.2 0 010-.1v-.2l.2-.2V59v-.2l.1-.2v-.3h.1v-.5H91V57.3h-.2l-.1-.1-.1-.1h-.1a.1.1 0 00-.2 0h-.7H88.7l-.1.1-.1.1h-.1l-.2.2-.3.3h-.1v.2h-.2v.3l-.2.2v.1a.2.2 0 00-.1.1h-.1v.2l-.1.2-.1.2c0 .2-.1 0-.1 0v.4h-.1a.2.2 0 010 .2l-.1.3s-.1 0 0 .1v.3h-.1V64.4a.2.2 0 00-.1.1v1a.2.2 0 01-.1.1v.5c0 .1 0 0 0 0v.4l-.1.1V67.7l-.1.3v.5l-.1.2-.1.3V69.3l-.1.3v1.3l-.2.3v1.4a2 2 0 010 .7v.6a.7.7 0 000 .3c-.9-.3-.8-.2-.7-.1" class="cls-1"/><path d="M120.5 63.7h-.1l.1-.1v-.1l.1-.1c.1-.1 0 0 0 0v-.2h-.2V62.5h-.1s0-.2-.2-.2 0-.2 0-.2l-.2-.2c0-.2 0 0 0 0v-.2h-.2l-.1-.1a.3.3 0 01-.2 0v-.2h-.2v.2h-.3l-.2-.1h-1.4-.1a2.5 2.5 0 01-.4 0l-.2.1h-.1l-.5.3-.3.1v.2h-.2-.2c-.2 0 0 .2-.1.2l-.2.2c0 .2-.2 0-.2 0l-.4.3h-.1a.2.2 0 00-.2.1l-.1.2h-.1-.2v.2a.2.2 0 00-.2 0h-.2v.2h-.4a.3.3 0 00-.1.1l-.2.1-.2.1-.3.2h-.1l-.3.1a.4.4 0 01-.2 0 1.9 1.9 0 01-.6.2h-.2-.2v-.1s-.2 0-.2-.2 0-.2-.2-.2h-.2c-.2 0 0 0 0 0v-.1c0-.1 0 0-.2 0s0-.1 0-.2v-.2s0-.1 0 0h-.2c-.1 0 0 0 0 0v-.1c0-.1-.1 0 0 0a.2.2 0 00.1-.3V63h-.1-.1v-.2c-.2 0 0-.2 0-.2h-.1-.1v-.2-.1-.2-.2h.2v-.2l-.2-.2h.2l-.1-.2h.1V61l-.1.1c-.1.1-.1 0-.1 0v-.3h.2v-.5a.3.3 0 000-.2h.2l-.1-.1c0-.1 0 0 0 0V60l-.1-.2c-.1 0 0 0 0-.1v-.1a.3.3 0 01-.1-.1v-.2l.1-.1V59l-.1-.1v-.2h.1v-.2-.2c0-.2-.1 0-.2 0v-1.8a.3.3 0 010-.2V56h.2l-.1-.1v-.3l.1-.1c0-.1 0 0 0 0a.1.1 0 01-.2-.2V55h.2s0-.1 0 0V55h.2l-.2-.2a.2.2 0 000-.2l-.1-.1c0-.1 0 0 0 0v-.2h.1l-.1-.2c0-.2 0 0 .1 0v-.2h.2c.2 0 0 0 0-.2s0 0-.1 0V53l-.2.1a.2.2 0 01-.1 0V53 52.7a.6.6 0 010-.4.3.3 0 000-.1h.4V52h-.1l-.1-.2s-.1-.2 0-.2v-.2c0-.2 0 0 0 0l-.2-.2V51v-.3h.2l-.2-.2h-.1v-.2-.4h-.1a.5.5 0 00-.1-.2v-.1l-.2-.1v-.2-.1c0-.1-.1 0-.1 0l-.2-.1-.2-.2a.1.1 0 01-.1-.1 2.3 2.3 0 01-.6-.3.6.6 0 00-.4 0l-.4-.1h-.6l-.1.1H105.4l-.3.1-.1.1h-.2l-.3.2a2.9 2.9 0 00-.5.3.5.5 0 01-.3.2h-.3v.2l-.2.2-.2.2-.2.2-.1.2c-.1.2-.1 0-.2 0l-.4.4v.1l-.2.1-.1.2-.2.2h-.1l-.1.2-.3.2a.5.5 0 00-.2.2h-.2l-.2.2h-.5l-.1-.1c-.1-.1 0 0-.1 0h-.2l-.1-.2c0-.1 0 0-.1 0h-.5H98.6 98l-.7.1a.7.7 0 00-.4.2h-.2l-.3.2s-.2 0-.2.2a.1.1 0 00-.2 0v.1l-.1.1-.2.2-.3.3a1.1 1.1 0 00-.2.2.3.3 0 00-.1.3 1.5 1.5 0 00-.1.3.5.5 0 00-.2.2.5.5 0 01-.1.3 2 2 0 00-.2.6v.7a3 3 0 00-.1.7v.6 3.3l-.1.2V61.6a.4.4 0 000 .3v.1l-.1.2v2.6s-.1.1 0 .2v.2l-.1.3V69h.1l.1.2v.2a.5.5 0 00.3.2l.4.2a.2.2 0 01.2 0h.2c.2 0 .3.1.4 0h.5l.4-.2a.2.2 0 00.1 0 .2.2 0 01.2-.1l.1-.1h.1v-.1l.3-.1.2-.1h.1V69h.1l.1-.1a.3.3 0 00.2-.3c0 .1.2 0 .1 0-.1-.1 0 0 .2-.2v-.3c0-.1 0 0 0 0V67.8h.2v-.1c.1 0 0-.1 0-.2l.1-.1h.1v-.1l.1-.1V67 67a.2.2 0 01-.2-.2v-.3l.1.2c.1 0 0 0 0-.1v-.2h-.1V66l.1-.1v-.1-.3-.1s-.1 0 0 0l-.2-.1.2-.1c0-.1 0 0-.1 0V65s-.1 0 0-.1v-.2-.2a.2.2 0 00.1-.1h-.2v-.2h-.1v-1.5H99l-.1-.1v-.1h-.1v-.3V62v-.1.2h.2l.1-.1c.1 0 0 0 0 0v-.1V61.6v-.1a.2.2 0 010-.2h-.1l-.2-.2c0-.1-.1 0-.1 0v-.4l.1.1h.1l-.1-.3h.2l-.1-.2h.1c.2 0 .1 0 .2-.2s0 0 0-.2 0 0-.1 0l-.1-.2c-.1-.2 0 0 0 0V59.3l-.1-.2.1-.2h.3l-.1-.1h-.2l.2-.1v-.1-.1l.1-.1c0-.1 0 0-.1 0l-.1-.2V58c0-.1.2 0 0 .1h.2c.1 0 .1-.1 0-.2v-.2-.2c0-.2 0 0 0 0V57v-.1l.1-.1h.1v-.1c.1-.1 0-.1 0-.2l.1-.1v-.3-.2c0-.2.1 0 .2 0a1.4 1.4 0 01.2-.2.4.4 0 000-.2v-.2h.1v.1h.1l.2-.1.2-.2h.2v-.2a.5.5 0 00.2-.3l.2-.1v-.1-.2-.1c0-.1.2 0 .2 0l.1-.1.3-.2v-.1a.2.2 0 00.3 0l.1-.2a.2.2 0 00.2 0 .4.4 0 01.3-.2h.6c.2.1.2 0 .4 0a.9.9 0 01.5.4v.1l.1.2v4.3s-.1.2 0 .2v.2l-.1.2v.3l.1.1v.3l-.1.2v.1a1 1 0 010 .4v.6a.8.8 0 010 .4v1c-.1.1 0 .2 0 .2l-.1.2v2.1a.6.6 0 00.2.3v.4l.2.1a.3.3 0 000 .2l.2.1c.2.1 0 .2.1.2h.2l.1.2a.5.5 0 00.3.1l.1.2a.3.3 0 010 .1h-.2l-.2.2h-.1a3.6 3.6 0 00-.3.2l-.2.1c0 .1-.2 0-.2.2s-.1 0-.2 0h-.1l-.1.2h-.2l-.3.2a4.3 4.3 0 00-.5.3l-1.2.7-.3.1-.2.2h-.1l-.6.4-.2.1c0 .1-.1 0-.1 0l-.2.1-.4.2-.2.2-.1.1H99a3.2 3.2 0 00-.6.4 1.5 1.5 0 00-.5.3l-.1.2H97.4l-.1.1-.6.4-.6.3-.3.2a.4.4 0 01-.2.1l-.6.3-.2.1-.2.2-.2.1a2.6 2.6 0 01-.4.2 2.7 2.7 0 01-.5.3l-.2.2a.2.2 0 01-.2 0l-.2.1H93l-.1.1h-.2l-.1.2h-.1l-.1.2H92v.2h-.2l-.1.1-.2.1h-.2-.2v.2c-.2 0-.2.2-.3.2h-.1a.3.3 0 01-.3.2.3.3 0 00-.3.1l-.3.2s-.2 0-.2.2-.2 0-.3.1l-.2.2a1.7 1.7 0 01-.3.1l-.2.2a.3.3 0 01-.2.1l-.2.1-.3.2a.5.5 0 01-.3.2l-.2.2h-.2l-.1.2c-.1.2-.2 0-.2 0l-.2.2a4 4 0 00-.6.4l-.8.5-1.3.7-.8.6-.1.1h-.2v.1a.3.3 0 01-.3.1l-.2.1-.3.2H82l-.2.1a.5.5 0 01-.2.1l-.2.1a.2.2 0 01-.2.1h-.1v.2h-.2-.1l-.1.2h-.3a.4.4 0 000-.2V80.6v-.1-.2-.2-.3-.3a.7.7 0 010-.3.7.7 0 01.1-.3l.1-.2V78.3s.1 0 0-.1v-.1-.2-.3-.1-.3-.1-.2a.3.3 0 00.2-.2v-.2-.4h-.1v-.6V75.2a.2.2 0 010-.2 1.2 1.2 0 000-.4v-.2l.1-.2v-.8-.3V72.9a1 1 0 010-.5 1.2 1.2 0 01.1-.4v-.4h.1V70.7v-.3l.1-1a4 4 0 01.1-.9.6.6 0 010-.3v-.9-.1-.1-.2-.8c.1 0 .3-.1.2-.2h-.1c-.1 0 0-.1 0-.2v-.2c.1 0 0 0 0-.2s0 0 .1 0V65l.1-.1a.2.2 0 000-.2v-.1l-.1-.1c-.1 0 0 0 0-.2s.1 0 0-.2v-.2c0-.2 0 0 0 0v-.4-.3s.2-.1.1-.2V63v-.1s-.1-.2 0-.2l.2-.2h-.2a.4.4 0 010-.3V62v-.8-.1c0-.1-.1 0 0-.2h0v-.2a.2.2 0 000-.2l-.1-.2c0-.2 0 0 0 0L81 60a1 1 0 00-.6-.3 1 1 0 00-.4-.1h-.4a1.3 1.3 0 00-.7 0c-.1 0-.2 0-.3.2s0 0-.1 0h-.2s-.2.2-.2 0v.2H78l-.2.2-.4.4-.2.2v.1a.5.5 0 00-.2.4v.1l-.1.1v.4l-.1.3V62.5l-.1.4c-.1 0-.1.2 0 .4v.4a.6.6 0 01-.1.3v.7a.2.2 0 010 .1V66.5c0 .1-.1.3 0 .4v1.4l-.1.2v.3h-.2V70.2l-.1.3c-.1.1 0 .3 0 .4v.4a.7.7 0 01-.1.3l-.1.3v.6h-.1v.6l-.1.5v.2l-.1.5-.1.3a2.1 2.1 0 01-.1.7v.2l-.2.4a3.4 3.4 0 01-.4 1l-.2.3-.3.4c-.1.2-.2 0-.2.1l-.1.1v.1H74l-.2.1-.1.1h-.1l-.2.1a.2.2 0 00-.2.1.2.2 0 00-.1 0l-.5.2H72a.2.2 0 01-.1 0l-.2-.1s-.2 0-.2-.2a1 1 0 01-.2-.2.5.5 0 01-.1-.3.2.2 0 00-.1-.2v-.1a1.9 1.9 0 01-.2-.7 2.4 2.4 0 010-.6v-.1-.2a.2.2 0 000-.1V75v-.1l.1-.3v-.3a2.5 2.5 0 01.1-.7.6.6 0 000-.3v-.6h.1v-.2l.2-.3a3 3 0 00-.1-.3c-.1 0 0 0 0-.1l-.1-.1v-.5c.1 0 0-.4 0-.4v-.2a.3.3 0 00.2-.2v-.2-.2c0-.2 0 0 .1 0v-.2a.6.6 0 00.1-.3l.1-.4.1-.4.3-.3V68c0-.1 0-.3.2-.4s0-.2 0-.1v-.2c.2 0 .1 0 .1-.2s0-.2.1 0l.2-.2a.3.3 0 010-.2l.1-.1.1-.2c.1 0 .2 0 .2-.2h.1a.6.6 0 010-.3 2.5 2.5 0 00.3-.3v-.1h.1l.1-.2h.2l.1-.3V65a.2.2 0 00.1-.1l.2-.1v-.1-.1l.2-.2v-.5l.2-.4c0-.2 0 0-.1 0v-.1a.5.5 0 01.1-.3.3.3 0 000-.3V62.4c-.1 0 0 0 0-.1l-.1-.2a.3.3 0 01-.1-.2H74.3l-.1-.1H74 73.7 73.4h-.1l-.2.1h-.3l-.2.2h-.2-.2l-.2.2a.4.4 0 00-.2 0l-.1.2h-.1l-.2.2h-.1v.2H71a.1.1 0 00-.1.1 1.2 1.2 0 00-.5.3c0 .2-.3.2-.3.4l-.2.2a.2.2 0 00-.1 0v.2h-.1-.1a.2.2 0 000 .2.3.3 0 00-.2.2l-.1.1a.3.3 0 00-.1.2l-.2.3-.2.2c-.1 0 0 0 0 .1v.1h-.1l-.2.2-.1.2v.2h-.1l-.1.1c-.1.1 0 .1 0 .2l-.1.1-.1.1-.1.2v.1l-.1.2v.1l-.2.1c-.2.1 0 0 0 .2l-.2.2c-.2 0 0 0 0 .2v.2l-.2.1v.1a.2.2 0 010 .2l-.1.2-.1.3v.2a.5.5 0 00-.1.3l-.1.3a1.8 1.8 0 000 .5l-.1.3s-.1 0 0 .1l-.1.3v.5l-.1.2v.4h-.1v.4a2 2 0 010 .7v.9l-.1.2-.1.2v.5c0 .1-.1.4 0 .4a.2.2 0 000 .2V78a3 3 0 000 .8v1l.2.5v.2l.1.3s.2.2 0 .3a.2.2 0 01.2.2v.1c0 .1 0 .2.2.2v.2l.3.3.3.2c.1.1 0 0 0 0a1.6 1.6 0 00.5.3l.4.1c.2.1 0 0 .1 0v.1a.2.2 0 01.3 0h.3s0 .2.2.2h1.3a.2.2 0 00.2-.1h.4a.8.8 0 01.4-.1c0-.1 0 0 .1 0h.1v-.1h.2l.1.1h.2l.2-.1h.4l-.1-.1h.1v-.1h.6s.2 0 .2-.2h.2l.3-.1V82h.1l.1-.2h.2l.1-.2h.2l.1-.1h.2a.1.1 0 01.2-.2h.1c.2 0 .2.2.2.2a1 1 0 000 .4v.2a.1.1 0 000 .2l.1.1V83.4s.1 0 0 0v.4c0 .1 0 0 0 0v.2l-.2.1c0 .1 0 0-.1 0l-.1.2a.2.2 0 00-.2 0l-.2.3a1.6 1.6 0 01-.4.2l-.2.2s-.2 0-.2.2h-.1a2.6 2.6 0 00-.7.4l-.3.2-.2.2a.1.1 0 00-.1.1h-.1v.2h-.2a4 4 0 00-.5.5l-.6.5-.7.5-.2.2h-.1a.4.4 0 01-.3.2.2.2 0 00-.1 0v.2h-.2l-.1.2h-.2l-.1.1-.1.1-.2.2-.2.1-.2.1c-.2 0 0 .1-.2.2a.2.2 0 01-.2.2h-.1l-.2.2H68l-.2.2-.4.3-.4.2-.2.1-.2.2-.2.1-.2.2H66c-.1 0 0 .1 0 .2h-.2v.1h-.1l-.2.2h-.1c-.1 0 0 .1 0 .2l-.4.1v.1a.2.2 0 00-.1 0l-.1.1v.1c0 .1-.1 0-.2 0a.8.8 0 01-.3.3.9.9 0 01-.2.2.2.2 0 01-.2 0h-.2v.2a1 1 0 00-.2.2.1.1 0 00-.1 0l-.4.5a.3.3 0 01-.2 0l-.2.2-.2.2-.2.2-.3.2-.3.2-.2.2-.2.2-.6.5-.6.5a.7.7 0 00-.3.2l-.2.2h-.1l-.5.4-.4.4-.4.3c.1.1-.2.1-.2.3h-.2l-.4.3c-.2 0 0 0-.2.2l-.2.1a.2.2 0 010 .1l-.2.2a.5.5 0 01-.3.2 4 4 0 00-.6.6h-.2l-.1.3h-.1a.2.2 0 01-.2.1l-.2.2a4.5 4.5 0 01-.6.5c-.3.1-.4.4-.7.6a.3.3 0 00-.1 0l-.1.2-.3.2a1.2 1.2 0 00-.4.3 1 1 0 00-.3.3 2.5 2.5 0 01-.3.2l-.3.3-.2.1-.2.2s-.2 0-.3.2l-.3.3-.5.4a1 1 0 01-.3.2l-.4.4v.1l-.3.3-.4.4-.2.2v.1l-.2.1-.2.2-.6.6a1 1 0 00-.2.2l-.3.3a1.9 1.9 0 00-.5.4l-.6.6-.1.1-.2.1-.2.2a.8.8 0 00-.2.3l-.3.2-.5.5a2.9 2.9 0 00-.5.4l-.6.6-.3.3-.2.2-.5.6-.4.5c-.2.1-.1.2-.2.3l-.2.3a.6.6 0 00-.1.3v1.1a.2.2 0 000 .2l.1.3a.2.2 0 00.1.1l.1.4.1.1a.3.3 0 010 .2l.3.1c0 .1 0 .2.2.2l.5.3h.1l.1.1a.3.3 0 01.3 0v.2H44.7a.3.3 0 01.1 0 .3.3 0 00.2 0h.3l.1-.1h.1v-.1h.2l.1-.1c.1-.1 0 0 .2 0v-.1c0-.2 0-.1.2-.2v-.1a.2.2 0 01.2 0 .2.2 0 000-.2l.3-.2v-.1l.2-.1.1-.1a1.4 1.4 0 01.3-.2l.4-.4.3-.2s0-.2.2-.2l.2-.2c.1 0 .1-.2.3-.2s.1-.2.1-.2v-.1l.1-.1h.2c.2 0 0-.1 0-.2h.2c.2 0 0-.1 0-.2l.2-.1v-.2l.2-.2a.8.8 0 00.2-.2c0-.1 0-.2.2-.2s0-.2 0-.2h.2v-.2h.2l.1-.2h.2v-.2l.2-.2.2-.1.2-.2.1-.1v-.1l.3-.2.4-.4c0-.1 0-.2.2-.2v-.2h.2l.2-.2c0-.1 0-.2.2-.2v-.1-.1l.3-.2a.5.5 0 01.3-.2 1 1 0 00.3-.4.8.8 0 01.4-.4h.1l.2-.3.1-.1a.3.3 0 00.2 0l.1-.3a.1.1 0 00.1-.1l.1-.1.1-.1.2-.1v-.2l.2-.1c0-.1 0-.2.2-.3l.4-.3c0-.2 0 0 .2-.1l.2-.2.2-.1v-.2l.3-.2h.1v-.1l.3-.2a.1.1 0 00.1-.1v-.2l.5-.4.2-.1.2-.2.1-.1c.1-.1 0-.1 0-.2l.3-.2v-.1c0-.1.2 0 .2 0v-.2a.2.2 0 01.2 0l.2-.1a.2.2 0 000-.2l.2-.1v-.1a.2.2 0 01.2-.1l.2-.1v-.2h.3l.4-.4.2-.2.2-.2h.1l.1-.1a1 1 0 01.3-.2.9.9 0 01.3-.2c0-.2.3-.3.4-.4l.2-.2c.2 0 .2-.1.3-.2l.3-.2a1.2 1.2 0 01.4-.4 1.1 1.1 0 01.3-.2h.1l.1-.1a1 1 0 01.3-.2l.2-.2.3-.2.1-.1.2-.2c.1-.2 0 0 .1 0h.1v-.1l.2-.1a.9.9 0 01.3-.2l.2-.1a.3.3 0 000-.2l.2-.1.3-.2a.8.8 0 01.2-.2h.1l.1-.1.1-.2h.1l.1-.1.1-.1h.1l.1-.2a1 1 0 01.3-.2l.5-.3.1-.1h.1l.2-.2.2-.2c.1 0 .2 0 .2-.2a.2.2 0 01.2 0v-.1l.2-.1c.2 0 0 0 0-.1l.3-.2.1-.1h.1l.2-.1.2-.2.2-.2a.2.2 0 000-.1h.1l.2-.1v-.1H71.4l.1-.1c.1 0 0-.1 0-.1a.3.3 0 01.2 0l.1-.1.1-.2a.2.2 0 00.1 0h.2l.1-.2.2-.2h.2V92l.3-.1.2-.2.3-.2.1-.2h.1l.1-.2h.1l.2-.2.2-.2a.4.4 0 01.3-.1l.1-.1.2-.2s.2 0 .3-.2a.3.3 0 01.3-.1h.1l.1-.1.2-.2.2-.1c0-.1 0 0 .2 0v-.1a.2.2 0 01.3-.1V96.4a1.6 1.6 0 000 .6v.2h-.1v3.7h.1v1.1a2.5 2.5 0 010 .4V107.3l-.1.4v1.2a.4.4 0 010 .3v.2l-.1.1V112.5l-.1.5v.7l-.1.2v1.9h.1v.5l.2.2v.4l.1.1.2.4a.3.3 0 000 .2h.1l.1.3.2.2.2.3a2.6 2.6 0 00.3.2l.3.1.2.2.7.2a3 3 0 01.3 0h.6a1.7 1.7 0 00.5 0H80.5l.1-.2h.2a5.5 5.5 0 00.7-.6h.1l.1-.2c0-.2.1-.2.2-.2v-.2c0-.2 0 0 .1 0a.2.2 0 00.1-.3v-.2h.2l.1-.1h.2a.4.4 0 00-.3-.1h-.1v-.2-.1l.1-.1c.1 0 .3 0 .2-.1l-.1-.1v-.2l.1-.1a.3.3 0 01.2-.1c.1 0 .1-.2 0-.2v.1h-.2v-.1h-.1v-.2-.2 0h-.1v-.2s-.1 0 0 0h.1l.1-.2c0-.2 0 0 0 0l-.1-.2c-.1 0-.2.1-.2 0v-.2.1h.2l.1-.1c0-.1-.1 0 0-.2s-.1 0-.1 0h.2c-.1 0 0-.1 0-.1a.1.1 0 00.1-.1h-.1l-.1-.1-.2-.2h-.2l.2-.1h.1v-.1l-.1-.1h-.1a.1.1 0 010-.1v-.1l-.1.2c-.1.1-.3 0-.3-.1v-.2-.1h-.1v-.2-.1-.1-.1h.2a.1.1 0 00.1-.2h-.2-.1c-.2 0 0-.2 0-.2h.4s-.2 0 0-.2l.1-.1v-.1l.1-.1v-.1c-.1 0 0 0 0 0H82v-.1-.2H82v-.3-.2.1h-.1V110.6l-.1-.1v-.1l-.1-.1h-.1V110.8h-.1v-.1h-.1v-.3a.2.2 0 01-.2 0v-.4h.1v-.2h-.1s.3-.2.2 0v-.7c0-.2-.2 0 0-.1v-.1c0-.1 0 0 0 0l-.2-.1v-.3h.2c.1-.1 0-.2-.2-.1h-.1c-.1 0 0-.1 0-.1l.1-.3.1-.1.1-.1c0-.1-.1 0-.2 0v-.1c0-.1-.1 0-.2 0v-.2l-.2-.1a.1.1 0 01.1-.1.4.4 0 00.1-.3v-.1h-.1c0-.2.1-.2.2-.2h.1l-.1-.2H81v-.2-.2.1h-.2c-.1 0 0 0 0 0v-.1-.1l-.1-.2c-.1 0 0 0 0-.1h.4l-.1-.2c-.1-.1-.1 0-.1 0v-.2h-.2s.1-.1 0-.2c-.1 0 0-.1 0-.1l.1-.2a.1.1 0 01.2 0v-.2s0 .1 0 0v-.2h.1-.1v-.1-.1-.1l.1-.1v.1H81v-.1-.1l-.1-.1c-.1-.1 0-.1 0-.2h.1v-.2-.2-.1H81l-.2-.1c0-.1.2 0 .2 0h.1v-.1c0-.1.1 0 .2 0v-.1-.1-.1l-.1-.2h.1l-.1-.2-.1-.1c-.1-.1 0-.1 0-.1v-.1h.2v.1V101.6s-.1.1-.2 0 .1 0 0 0h-.1v-.1h.1v-.2c-.1 0 0 0 0 0l-.1-.2.1-.1v-.2l.2-.1.1-.1-.1-.1v-.5-.1c0-.1.1-.1 0-.1v-.1V99.4H81v-.1V98.4v-.1h-.2V98h.1l.1-.2v-2.7h-.3V95h.1v-.2-.1h.2v-.5H80.6l.1-.2-.1-.1v-1.2h-.1v-.4l.1-.1V92l-.1-.1c-.1 0 0-.2 0-.2v-.1h.1v-.2s.1-.1 0-.1l-.1-.2v-.2h-.1v-.2h.1v.1h.1c.1 0 0-.1 0-.1v-.1a.2.2 0 01-.1-.1v-.1-.1-.2l-.1-.1v-.3h.1v-.4h-.1-.1V89c0-.2 0 0 0 0l.1-.1v-.3l.1-.1v-.1h-.2v-.2l.2-.2V87.8 86.7 86.3v-.1-.2h.1a.1.1 0 00.2-.2.2.2 0 000-.1H81.2a.2.2 0 010-.2h.3v-.1h.1v-.2a.2.2 0 00.1-.1l.1-.1.1-.1.1-.1h.2v-.1h.2l.2-.2h.2v-.1h.1-.1l.1-.2h.1V84h.1c.2 0 .3-.3.4-.2a.3.3 0 01.2-.1v-.1a.2.2 0 01.2 0 .3.3 0 01.3-.2l.2-.1.2-.2.2-.2.2-.1h.1v-.1-.1H85.5l.2-.1-.1-.1.2-.1a.3.3 0 01.1-.1h.1l.2-.1c.1-.1 0-.1 0-.2l.3-.1.3-.3.1-.1.2-.1.1-.2h.2a.3.3 0 01.3-.2h.1l.2-.2a.4.4 0 01.2 0 .6.6 0 01.3-.2l.3-.1v-.1h.2l.1-.1.1-.1h.2l.2-.3a3.5 3.5 0 00.6-.3.3.3 0 01.2-.1.4.4 0 01.2-.2 4.5 4.5 0 00.5-.3 1.1 1.1 0 01.4-.2l.2-.1.3-.2a1.5 1.5 0 00.3-.2l.2-.1.2-.1.1-.1h.1l.2-.2.2-.1.2-.1a.3.3 0 01.2-.1l.1-.1a.3.3 0 00.2 0l.1-.1v-.1h.2l.1-.1.2-.2a.5.5 0 00.3 0v-.2h.2a.9.9 0 00.3-.2c.2 0 .3-.2.5-.3h.1l.3-.2h.1l.3-.2a.5.5 0 01.3-.1.2.2 0 01.2-.1l.2-.2h.1l.1-.1a1 1 0 00.2-.1h.1l.2-.1V75h.1l.2-.1a.3.3 0 00.1-.1l.3-.1.1-.2.3-.1c0-.1 0 0 0 0l.4-.2c.1-.1 0 0 .1 0l.1-.2h.3c.2 0 .2-.2.2-.2h.1l.1-.1c.1-.1.2 0 .3-.2s0 0 .1 0l.1-.1h.2v-.1h.1a.4.4 0 01.3-.1l.3-.2h.2v-.1l.4-.1a.9.9 0 00.3-.2l.2-.1.3-.1a1.6 1.6 0 01.4-.2l.2-.2h.1a.2.2 0 01.1 0l.1-.1.3-.2h.1v-.1h.2a.3.3 0 01.3-.2h.2l.2-.2a.2.2 0 01.2 0l.1-.1.3-.2h.1l.3-.1v-.2h.2a.5.5 0 00.3-.2l.3-.2a.3.3 0 00.3-.1.2.2 0 00.1 0V70h.1v-.1l.3-.1.1-.1h.2l.3-.2.3-.1.2-.2h.3l.3-.2h.2v-.1h.2l.3-.2.2-.1.2-.1h.1l.2-.1a.2.2 0 00.2-.1.3.3 0 01.2 0 .3.3 0 00.2-.1l.3-.2h.2a2 2 0 00.7-.3l.3-.2a2.2 2.2 0 01.7-.2l.7-.2h.3a2.2 2.2 0 00.3-.2l.7-.1a.6.6 0 01.3-.1l.5-.2.5-.2a.3.3 0 00.2-.1 1.5 1.5 0 01.5-.3l.3-.2a2.6 2.6 0 01.5-.3l.1-.1a.1.1 0 01.1-.1l.2-.2a.2.2 0 01.2-.1l.2-.3.2-.2a.3.3 0 010-.1.2.2 0 000-.1H120a.2.2 0 000-.2.2.2 0 00.1 0c0-.1 0-.3.2-.3v.1-.2V63.3h.4a.2.2 0 01-.2-.2c0 .8.2.6 0 .6" class="cls-1"/><path d="M80.3 105.5v-.1M51.6 76c-.2 0-.2-.2-.3-.3s0-.3.1-.3v-.1l-.1-.3-.2-.4-.2-.2c-.2 0-.2-.2-.2-.2h-.2a.7.7 0 01-.4-.1 1.8 1.8 0 00-.5.1 4.3 4.3 0 00-1 .5l-.4.2s-.2 0-.2.2a.2.2 0 00-.2.1l-.1.1-.2.3a1 1 0 00-.3.4l-.4.5-.4 1a.9.9 0 00-.2.4v.5c0 .2 0 .4-.2.6a2.3 2.3 0 000 .7v.7l-.2.6v1.2a1.7 1.7 0 010 .5v.5a3 3 0 01-.2 1.1c.1 0 0 .3 0 .4v.9c-.3-.2 0 .3 0 .4l-.1.2v.4a1.7 1.7 0 01-.1.5 1.8 1.8 0 000 .6v1.8a.7.7 0 01-.1.4v.8l-.1.6v2.2l.1.3.2.2v.1c0 .1 0 0 .1 0a.5.5 0 01.3.2c.2 0 .4 0 .6.2h.1l.2-.1h.3v-.1l.2-.1.3-.1a1.2 1.2 0 00.4-.3l.2-.2.2-.2.3-.1a.9.9 0 00.3-.4s0-.2.2-.1h.3v-.3a.1.1 0 00.2.1h.1a.3.3 0 01.1-.3c0-.2 0 0-.2 0s0 0 0-.1V92l.1-.3c.1-.1 0-.2 0-.4V91a.6.6 0 01.1-.3c0-.1.1-.1 0-.2v-.1l.1-.1a.2.2 0 000-.2v-.2s.1-.2 0-.2.1-.3 0-.5a.6.6 0 000-.3.2.2 0 000-.2v-.3h.1v-.6l.1-.1v-.5-.2a.6.6 0 01.1-.3l.1-.3v-.3-.3-.3h.1v-.2l.1-.1a.4.4 0 000-.3v-1h.1a.9.9 0 00.1-.5v-.1h.1V82.3l.1-.3V81.2 81l.1-.3.1-.2V80 80a.4.4 0 01.1-.3v-.5a.3.3 0 010-.2l.2-.4a.7.7 0 01.1-.2l-.1-.1a.4.4 0 010-.3l.2-.1-.1-.1-.1-.3a1 1 0 01-.2-.4l.1-.4c0-.6.2-.5.2-.6m179 35.3a25.1 25.1 0 01-16.4 5.8c-9.8 0-19.7-4.7-26.2-8.7-11.2-7.1-21-17-32.9-33.4 12-16.5 21.8-26.3 32.9-33.5 6.5-4 16.4-8.7 26.2-8.7a25.1 25.1 0 0116.4 5.8c10.4 8.7 14 23.7 14 36.4s-3.6 27.7-14 36.3M96.1 128.6a85 85 0 01-41.7 13.7A40.3 40.3 0 0128 133C11.4 119.2 5.4 94.9 5.4 75s5.9-44.2 22.5-58a40.3 40.3 0 0126.5-9.4 85 85 0 0141.7 13.8C113.7 32.7 129.9 49 148.5 75c-18.5 26-34.8 42.3-52.4 53.6m138-94a29.6 29.6 0 00-19.9-7c-11 0-21.9 5-29 9.4-11.6 7.5-22 17.8-33.3 33.4 0 0-23.5-35.1-52.9-53.5A89.7 89.7 0 0054.4 2.3a45.8 45.8 0 00-30 10.7C14.8 21 0 40 0 75s14.8 54 24.4 62a45.8 45.8 0 0030 10.7c17 0 33.6-7.8 44.5-14.6 29.5-18.4 52.9-53.6 52.9-53.6 11.4 15.7 21.7 26 33.3 33.5 7.1 4.3 18 9.5 29 9.5a29.8 29.8 0 0019.9-7c10.6-9.2 16-23.2 16-40.5s-5.3-31.3-15.9-40.4" class="cls-1"/></svg>