<?xml version="1.0" encoding="UTF-8"?>
<svg width="250px" height="150px" viewBox="0 0 250 150" version="1.1" xmlns="http://www.w3.org/2000/svg" xmlns:xlink="http://www.w3.org/1999/xlink">
    <title>about-BT</title>
    <g id="about-BT" stroke="none" stroke-width="1" fill="none" fill-rule="evenodd">
        <g id="BT_2019" transform="translate(50.000000, 0.000000)" fill="#7509B7" fill-rule="nonzero">
            <path d="M74.997543,0.075 C33.6176193,0.075 0.075,33.617619 0.075,74.997543 C0.075,116.377465 33.6176193,149.925007 74.997543,149.925007 C116.377467,149.925007 149.925,116.377465 149.925,74.997543 C149.925,33.617622 116.377463,0.075 74.997543,0.075 Z M74.963145,9.31317 C111.285758,9.31317 140.731054,38.758467 140.731054,75.0810795 C140.731054,111.403695 111.285761,140.848987 74.963145,140.848987 C38.6405304,140.848987 9.1952355,111.403695 9.1952355,75.0810795 C9.1952355,38.758464 38.6405304,9.31317 74.963145,9.31317 Z" id="path3008"></path>
            <path d="M37.6566626,49.3861905 L37.6566626,100.397596 L58.4130615,100.397596 C67.846824,100.397596 75.0958215,94.507611 75.0958215,85.179186 C75.0958215,76.9517595 68.673327,73.8132885 68.673327,73.8132885 C68.673327,73.8132885 73.6019895,70.665711 73.6019895,63.666042 C73.6019895,55.535457 67.1829495,49.3861905 57.7152855,49.3861905 L37.6566626,49.3861905 Z M49.135581,59.3565345 L55.2681525,59.3565345 C59.626776,59.3565345 61.528488,61.5969795 61.528488,64.3638195 C61.528488,67.367616 59.375181,69.262998 55.558074,69.262998 L49.135581,69.262998 L49.135581,59.3565345 L49.135581,59.3565345 Z M49.135581,79.4839515 L55.2681525,79.4839515 C59.626776,79.4839515 61.528488,81.724398 61.528488,84.4912365 C61.528488,87.495033 59.375181,89.390415 55.558074,89.390415 L49.135581,89.390415 L49.135581,79.4839515 L49.135581,79.4839515 Z" id="path2998"></path>
            <polygon id="path3000" points="90.4911345 100.238336 90.4911345 61.084218 79.0122165 61.084218 79.0122165 49.29081 114.706934 49.29081 114.706934 61.084218 102.756279 61.084218 102.756279 100.238336"></polygon>
        </g>
    </g>
</svg>