<?xml version="1.0" encoding="UTF-8"?>
<svg width="250px" height="150px" viewBox="0 0 250 150" version="1.1" xmlns="http://www.w3.org/2000/svg" xmlns:xlink="http://www.w3.org/1999/xlink">
    <title>about-wwe</title>
    <g id="about-wwe" stroke="none" stroke-width="1" fill="none" fill-rule="evenodd">
        <g id="wwe" transform="translate(43.000000, 0.000000)">
            <path d="M91.889166,110.545148 C89.070508,110.832196 86.238148,111.149715 83.4009057,111.504563 C80.7799018,111.832291 78.169135,112.194452 75.5745899,112.588 L70.2169819,124.324954 C72.1528899,124.127494 74.1045472,123.949385 76.0692764,123.793367 C83.2708163,123.22171 90.5238564,122.97062 97.5568784,122.961478 L91.889166,110.545148 Z M124.607302,108.507628 L118.560818,123.641159 C133.283294,124.615658 145.219084,126.487866 150.834823,128.26881 C150.834823,128.26881 157.188419,115.163201 160.079051,109.128194 C151.005546,108.502448 138.628618,108.15857 124.607302,108.507628 L124.607302,108.507628 Z M51.1453276,126.920113 C23.9577273,131.505866 3.05300812,138.668951 0,139.79124 C9.1983977,131.168996 26.7423667,123.658985 47.678742,118.243324 L51.1453276,126.920113 Z" id="Fill-1" fill="#D0021B"></path>
            <path d="M107.834088,116.526431 L84.129716,58.1701873 L60.4251881,116.526431 L3.59272514,0 L25.6187602,61.4203954 L59.7130389,149.870291 L84.129716,94.4264828 L108.546082,149.870291 L142.640516,61.4203954 L164.666551,0 L107.834088,116.526431 Z M108.546082,87.6674298 L84.2075465,25.0328304 L59.8688556,87.6674298 L15.6460253,0.174661811 L59.5400995,58.0022373 L84.2075465,1.76628512 L108.874994,58.0022373 L152.769068,0.174661811 L108.546082,87.6674298 Z" id="Fill-3" fill="#000000"></path>
        </g>
    </g>
</svg>