<svg viewBox="0 0 70.9 70.9" xmlns="http://www.w3.org/2000/svg"><switch><g fill="#79c19e"><path d="m51.9 36.3c-.5-.3-1.1-.4-1.7-.2-.9.2-1.5.7-1.8 1.5s-.3 1.5-.2 2.2c.2.7.5 1.1 1 1.4s1 .4 1.7.2c.9-.2 1.5-.7 1.8-1.5.3-.7.4-1.5.2-2.3-.2-.5-.5-1-1-1.3zm-24.3-8.2c-.4-.2-.9-.2-1.5 0-.5.1-1 .4-1.3.8s-.6.9-.6 1.5l4.5-1.2c-.3-.6-.6-.9-1.1-1.1zm7.5 12.7c-.5-.3-1.1-.4-1.8-.2-.8.2-1.3.7-1.7 1.4s-.5 1.5-.2 2.4c.2.7.5 1.2 1 1.5s1.1.4 1.7.2c.5-.1 1-.4 1.3-.7s.6-.8.7-1.4.1-1.1 0-1.6c-.1-.8-.5-1.3-1-1.6z"/><path d="m35.4 0c-19.5 0-35.4 15.9-35.4 35.4s15.9 35.4 35.4 35.4 35.5-15.8 35.5-35.4-15.9-35.4-35.5-35.4zm12.8 20.2.1.9c.6-1 1.4-1.6 2.3-1.8.8-.2 1.4-.1 2 .2s1 .9 1.2 1.6c.1.3.2.9.3 1.6l.6 5.1-2.1.6-.6-5c-.1-.5-.1-.9-.2-1.1-.1-.4-.3-.6-.5-.7-.3-.1-.6-.2-.9-.1-.4.1-.7.3-1 .7-.3.3-.5.8-.6 1.3s0 1.4.1 2.6l.4 3.2-2.1.6-1.1-9zm-12 5.6c.2-.9.7-1.7 1.3-2.3s1.3-1.1 2.1-1.3c.5-.1 1.1-.2 1.6 0 .5.1 1 .4 1.4.8l-.2-1.3 2.1-.6 1.1 9-2.1.6-.1-1c-.3.6-.7 1-1.1 1.3s-.8.5-1.3.6c-1.2.3-2.2.1-3.1-.5-.9-.7-1.5-1.6-1.8-2.7-.2-.8-.2-1.7.1-2.6zm-3-1.6.2 1.2c.3-1.1.9-1.7 1.7-2 .2-.1.4-.1.6 0l-.3 2.2h-.4c-.4.1-.7.5-.9 1-.2.6-.2 1.6 0 3.1l.5 3.4-2.1.6-1.1-9zm-10.6 4.2c.7-1.2 1.7-2 3.1-2.4.8-.2 1.6-.2 2.3 0s1.4.6 1.9 1.2c.6.6.9 1.3 1.1 2.1.1.3.1.6.2.9l-6.9 1.8c.2.6.5 1 1 1.3s1 .3 1.7.1c.8-.2 1.4-.7 1.9-1.4l2.1.5c-.3.7-.7 1.3-1.3 1.8s-1.3.9-2.2 1.1c-1.3.4-2.5.3-3.4-.3-1-.5-1.6-1.4-1.9-2.7-.4-1.4-.3-2.8.4-4zm-4.4-3.5c.2-.3.5-.5.8-.6.4-.1.7-.1 1 .1s.5.5.6.8c.1.4.1.7-.1 1s-.5.5-.8.6c-.4.1-.7.1-1-.1s-.5-.5-.6-.8c-.1-.4-.1-.7.1-1zm3.5 11.8-2.1.6-1.1-9 2.1-.6zm-12.6-9.3 2.2-.6.5 4.1 2.7-5 2.7-.7-3.6 6.8 5.8 5.3-2.5.7-4.7-4.3.7 5.4-2.2.6zm10.5 23.6c-.5.8-1.3 1.4-2.3 1.7-1.6.4-3.1 0-4.5-1.2l1.3-1.8c1 .9 1.8 1.2 2.6 1 .4-.1.7-.3.9-.6s.2-.6.2-1c-.1-.3-.2-.5-.5-.8s-.9-.8-1.9-1.3c-1-.6-1.7-1.1-2-1.5-.5-.5-.8-1-.9-1.5-.2-.7-.1-1.4.2-2.1.4-.9 1.1-1.5 2.1-1.7 1.4-.4 2.7 0 4 1l-1.2 1.9c-.9-.7-1.6-.9-2.2-.8-.3.1-.5.2-.6.4s-.2.4-.1.7c.1.2.2.4.5.7.2.2.9.7 2 1.4.6.4 1 .6 1.2.8.5.4.8.7 1.1 1.1s.4.8.6 1.2c.1.7 0 1.6-.5 2.4zm7.1-1.2-.6-4.9c-.1-.5-.1-.9-.2-1.1-.1-.4-.3-.6-.5-.7-.3-.1-.6-.2-.9-.1-.4.1-.7.3-1 .7-.3.3-.5.8-.5 1.3-.1.5 0 1.4.1 2.6l.4 3.2-2.1.6-1.5-12.6 2.1-.6.5 4.5c.6-1 1.4-1.6 2.3-1.8.8-.2 1.4-.1 2 .2s1 .9 1.2 1.6c.1.3.2.9.3 1.6l.6 5.1zm10-2.7-.1-1c-.3.6-.7 1-1.1 1.3s-.8.5-1.3.6c-1.2.3-2.2.1-3.1-.5-.9-.7-1.5-1.6-1.8-2.7-.2-.9-.2-1.7 0-2.6s.7-1.7 1.3-2.3 1.3-1.1 2.1-1.3c.5-.1 1.1-.2 1.6 0 .5.1 1 .4 1.4.8l-.2-1.3 2.1-.6 1.1 9zm3.5-.9-1.6-12.5 2.1-.6 1.6 12.5zm3.4-.9-1.6-12.5 2.1-.6 1.6 12.5zm10.9-4.2c-.7 1.2-1.8 2-3.2 2.4-1.2.3-2.3.2-3.3-.3-.9-.6-1.6-1.4-1.9-2.6-.4-1.5-.2-2.8.5-4s1.8-2 3.1-2.4c.8-.2 1.5-.2 2.3 0 .7.2 1.4.6 1.9 1.1.5.6.9 1.3 1.1 2.1.4 1.2.2 2.5-.5 3.7zm6.4-.2c-1.2.3-2.3.2-3.3-.3-.9-.6-1.6-1.4-1.9-2.6-.4-1.5-.2-2.8.5-4s1.8-2 3.1-2.4c.8-.2 1.5-.2 2.3 0 .7.2 1.4.6 1.9 1.1.5.6.9 1.3 1.1 2.1.4 1.4.2 2.6-.5 3.9-.7 1-1.7 1.8-3.2 2.2z"/><path d="m61.5 33.7c-.5-.3-1.1-.4-1.7-.2-.9.2-1.5.7-1.8 1.5s-.3 1.5-.2 2.2c.2.7.5 1.1 1 1.4s1 .4 1.7.2c.9-.2 1.5-.7 1.8-1.5.3-.7.4-1.5.2-2.3-.2-.5-.5-1-1-1.3zm-22.1-4.3c.5.3 1.1.4 1.7.2.5-.1 1-.4 1.3-.7s.6-.8.7-1.4.1-1.1 0-1.6c-.2-.7-.5-1.2-1-1.5s-1.1-.4-1.8-.2c-.8.2-1.3.7-1.7 1.4s-.5 1.5-.2 2.4c.1.6.5 1.1 1 1.4z"/></g></switch></svg>